<?xml version="1.0" standalone="no"?>
<!DOCTYPE svg PUBLIC "-//W3C//DTD SVG 20010904//EN"
 "http://www.w3.org/TR/2001/REC-SVG-20010904/DTD/svg10.dtd">
<svg version="1.0" xmlns="http://www.w3.org/2000/svg"
 width="1102.000000pt" height="1280.000000pt" viewBox="0 0 1102.000000 1280.000000"
 preserveAspectRatio="xMidYMid meet">
<metadata>
Created by potrace 1.15, written by Peter Selinger 2001-2017
</metadata>
<g transform="translate(0.000000,1280.000000) scale(0.100000,-0.100000)"
fill="#9e9e9e" stroke="none">
<path d="M6599 12796 c-12 -13 -126 -26 -369 -41 -365 -23 -474 -38 -760 -105
-91 -21 -219 -48 -285 -60 -366 -66 -612 -122 -975 -221 -314 -85 -501 -156
-825 -313 -300 -146 -503 -270 -684 -419 -57 -48 -140 -105 -183 -128 -424
-220 -1300 -1216 -1723 -1959 -96 -169 -351 -684 -399 -807 -20 -50 -41 -118
-47 -150 -6 -32 -29 -105 -51 -163 -200 -526 -311 -1467 -295 -2490 12 -713
71 -1256 182 -1686 45 -173 55 -198 215 -554 186 -413 216 -472 361 -715 164
-277 207 -342 299 -456 42 -52 92 -118 110 -145 167 -245 687 -760 1171 -1159
460 -380 1138 -740 1760 -935 323 -101 614 -161 978 -200 106 -12 253 -32 325
-46 299 -56 740 -58 1121 -5 539 76 864 146 1096 236 49 20 147 51 219 70 290
79 683 229 745 285 11 10 74 49 140 86 280 158 441 278 645 484 92 93 189 180
240 215 141 97 342 312 480 512 28 39 84 130 125 203 42 72 123 201 181 287
165 243 329 600 399 868 14 55 35 169 45 252 22 170 51 314 81 400 28 82 44
234 75 701 31 458 29 507 -21 742 -61 282 -77 370 -104 561 -41 281 -62 334
-193 492 -84 100 -108 147 -128 246 -38 187 -203 518 -264 529 -17 4 -18 -1
-13 -47 3 -28 22 -91 42 -139 20 -48 47 -118 61 -155 21 -61 28 -95 50 -225
l5 -33 -83 7 c-141 11 -283 -40 -397 -142 -78 -71 -111 -84 -215 -84 -246 0
-575 -89 -584 -159 -4 -24 -3 -24 70 -18 40 2 108 17 151 31 62 21 112 28 235
36 197 13 217 18 376 92 239 110 369 125 456 52 40 -34 52 -58 61 -123 9 -63
35 -97 68 -86 11 3 21 14 21 23 0 32 -44 105 -97 162 -43 47 -54 65 -51 87 9
81 114 -11 191 -169 26 -51 69 -163 98 -248 46 -141 52 -167 59 -285 9 -149
18 -192 65 -330 45 -132 66 -280 66 -473 0 -164 -12 -252 -38 -278 -14 -14
-17 -14 -32 0 -13 14 -16 48 -16 225 0 115 -2 207 -5 205 -2 -3 -12 -46 -22
-96 -19 -97 -37 -128 -76 -128 -14 0 -80 25 -146 56 -263 123 -383 177 -424
190 -38 12 -44 12 -49 -3 -8 -21 30 -52 129 -104 103 -54 298 -183 375 -247
34 -29 75 -73 92 -99 82 -124 -6 -148 -247 -68 -111 38 -155 47 -251 55 -64 5
-133 14 -153 20 -49 14 -98 61 -98 93 0 36 -13 40 -40 12 -29 -30 -44 -31 -71
-4 -16 16 -19 28 -15 54 l7 34 -86 -6 c-72 -5 -88 -3 -104 11 -10 9 -40 20
-67 25 -27 4 -71 18 -97 30 -26 12 -52 19 -57 16 -14 -9 -12 -46 5 -94 14 -41
12 -71 -7 -71 -5 0 -29 11 -52 25 -24 14 -66 32 -93 40 -27 8 -71 31 -97 51
-64 49 -106 64 -176 64 -52 0 -65 -4 -86 -25 -23 -23 -25 -31 -19 -75 6 -42 4
-50 -14 -59 -53 -29 -110 3 -130 74 -16 59 -25 69 -54 61 -26 -6 -49 -49 -61
-117 -9 -48 -31 -67 -96 -79 -85 -16 -106 -48 -47 -70 75 -27 96 -40 102 -61
6 -18 1 -28 -20 -47 -26 -22 -36 -24 -124 -22 -127 4 -141 2 -141 -13 0 -27
48 -58 111 -71 35 -8 72 -17 82 -21 28 -12 32 -52 9 -99 -12 -24 -24 -73 -28
-115 -4 -41 -12 -75 -19 -77 -6 -3 -32 0 -58 5 -57 13 -77 6 -77 -26 0 -40
-56 -88 -118 -102 -29 -6 -68 -11 -87 -11 -74 0 -121 -50 -90 -97 28 -42 58
-49 131 -30 79 21 104 13 104 -35 0 -26 -12 -44 -64 -95 -52 -51 -71 -63 -97
-63 -83 0 -297 178 -402 335 -31 45 -37 114 -12 135 12 10 18 7 32 -19 22 -38
62 -55 114 -48 53 7 89 32 89 61 0 28 -13 39 -63 56 -54 17 -67 49 -67 165 0
58 -5 108 -13 128 -23 54 -92 106 -231 172 -149 72 -186 100 -186 142 0 31 24
73 42 73 5 0 42 -15 82 -34 39 -19 114 -55 167 -80 92 -43 112 -60 162 -131
15 -20 26 -25 50 -23 28 3 36 10 59 57 14 30 34 60 43 67 10 7 59 22 111 34
52 12 104 30 116 39 l22 18 -23 13 c-16 8 -85 13 -210 14 -138 2 -201 7 -246
19 -187 53 -323 174 -255 229 50 40 182 6 292 -77 40 -30 82 -55 93 -55 11 0
42 7 69 15 85 26 164 35 380 45 250 12 350 26 601 85 301 70 349 76 562 73
190 -3 233 2 233 27 0 31 -73 37 -497 42 -253 3 -423 9 -423 15 0 27 188 82
400 117 223 37 347 43 820 39 436 -4 458 -5 520 -26 75 -25 133 -70 191 -148
40 -55 85 -92 96 -80 6 6 -35 157 -63 230 -8 22 -29 59 -46 83 l-31 43 -7 204
c-5 145 -10 209 -20 221 -44 53 -519 144 -693 132 -280 -19 -470 -43 -649 -82
-175 -39 -219 -42 -242 -19 -20 19 -20 15 3 96 14 48 16 69 8 77 -30 30 -80
-2 -111 -72 -28 -63 -53 -88 -67 -66 -5 8 -9 22 -9 32 0 32 -18 54 -70 86 -28
17 -54 39 -57 47 -3 9 -29 27 -57 39 -83 37 -97 72 -39 97 56 24 63 36 63 109
0 50 4 72 17 84 16 16 17 16 30 -1 7 -10 13 -34 13 -55 0 -66 35 -72 89 -15
28 29 47 32 75 11 45 -34 96 -2 112 68 11 52 31 83 61 95 15 7 89 25 163 42
306 68 560 177 560 240 0 24 20 30 137 39 135 11 183 38 183 106 0 57 -55 119
-175 198 -38 25 -112 86 -164 136 -51 50 -104 94 -118 97 -26 7 -63 -18 -63
-42 0 -19 -59 -84 -76 -84 -8 0 -28 -13 -46 -30 -17 -16 -41 -30 -53 -30 -81
0 -405 -160 -405 -200 0 -15 222 -12 310 4 86 16 148 40 156 61 3 8 -3 26 -14
40 -24 30 -19 60 13 81 32 21 55 8 55 -31 0 -19 6 -35 14 -38 8 -3 59 1 113 8
54 8 122 15 150 15 47 0 58 -4 93 -36 69 -62 53 -76 -117 -100 -57 -7 -143
-23 -191 -34 -85 -19 -513 -143 -601 -175 -72 -25 -181 -84 -251 -134 -36 -26
-86 -60 -112 -75 -33 -19 -58 -45 -82 -85 -47 -77 -98 -106 -186 -106 -117 0
-216 78 -228 180 -6 56 -31 79 -151 140 -47 23 -126 73 -175 110 -50 37 -108
76 -130 87 -53 26 -86 57 -86 79 0 18 12 29 110 102 l45 33 0 114 0 113 40 21
c22 12 49 36 60 54 59 97 221 308 286 373 20 20 60 49 89 65 46 25 55 35 69
79 22 68 47 80 113 54 102 -40 182 -19 287 74 79 71 141 87 141 38 0 -11 -21
-47 -47 -81 -112 -147 -124 -170 -93 -170 10 0 60 36 112 80 51 44 115 91 142
105 62 31 128 33 176 5 88 -50 131 -70 152 -70 30 0 149 -68 216 -122 78 -64
217 -233 258 -313 44 -86 68 -118 163 -218 110 -115 221 -194 221 -157 0 6
-30 40 -66 78 -116 119 -224 292 -239 384 -14 83 -214 259 -485 428 -174 108
-223 129 -333 147 -135 21 -137 21 -148 47 -18 38 25 267 77 421 25 72 60 184
79 250 52 182 116 332 385 900 79 165 162 349 187 410 58 144 99 217 256 452
72 109 161 254 198 323 105 195 157 282 220 371 44 61 59 91 59 116 0 167
-410 455 -949 667 -229 91 -435 151 -1006 294 -322 81 -419 98 -870 147 -408
44 -959 79 -976 61z m107 -130 c29 -22 5 -38 -52 -34 -53 3 -61 16 -23 35 31
17 51 16 75 -1z m-294 -13 c36 -32 17 -53 -48 -53 -61 0 -91 29 -62 58 18 18
88 15 110 -5z m-352 -48 c24 -28 -69 -48 -105 -22 -10 8 -15 19 -11 25 11 18
101 15 116 -3z m1278 -129 c15 -8 38 -25 50 -39 13 -14 37 -31 54 -38 29 -12
31 -11 77 39 54 58 82 65 125 31 38 -30 33 -60 -24 -143 -165 -243 -227 -515
-265 -1176 -28 -489 -85 -872 -190 -1288 -20 -75 -40 -182 -46 -237 -16 -141
-6 -532 15 -608 20 -73 20 -111 1 -127 -13 -11 -23 -8 -59 19 -71 50 -84 45
-147 -62 -18 -31 -38 -56 -44 -54 -5 1 -24 32 -42 68 -24 49 -64 100 -167 207
-151 159 -186 205 -216 284 -11 30 -35 80 -54 111 -49 80 -50 90 -23 123 36
44 47 69 47 111 -1 54 -29 108 -95 183 -101 114 -141 231 -92 264 14 10 27 37
37 73 15 57 16 58 55 63 49 6 49 8 -11 134 -55 117 -55 138 4 148 23 4 47 10
52 13 21 13 8 44 -40 105 -33 42 -50 72 -50 91 0 28 1 28 66 31 91 4 98 16 55
101 -44 86 -39 112 23 131 17 6 18 13 11 74 -17 138 3 532 36 696 13 69 19
131 17 197 -3 84 0 100 16 118 27 30 43 26 85 -19 42 -46 105 -70 183 -70 70
0 92 14 84 53 -8 42 -67 126 -114 164 -51 41 -90 59 -141 66 -52 6 -65 18 -56
46 10 32 50 47 154 59 63 8 112 20 146 37 59 29 87 31 105 10 7 -9 15 -68 20
-149 11 -195 20 -201 89 -52 54 115 106 180 166 207 48 22 68 23 103 5z
m-1371 -30 c24 -21 26 -27 18 -52 -7 -19 -27 -38 -60 -56 -56 -30 -75 -52 -75
-85 0 -51 81 -88 140 -63 24 10 40 32 76 107 26 52 64 113 86 136 35 37 40 39
54 25 15 -14 14 -29 -5 -159 -48 -336 -69 -641 -81 -1154 -6 -231 -17 -573
-26 -760 -17 -355 -14 -542 11 -720 29 -205 99 -380 210 -520 143 -181 215
-289 215 -323 0 -7 -20 -9 -52 -6 -41 3 -59 10 -83 34 -35 34 -53 36 -133 14
-57 -16 -60 -16 -101 6 -95 48 -252 224 -339 380 l-31 55 -4 910 c-3 585 -9
942 -16 1000 -6 50 -31 195 -56 323 -25 129 -45 242 -45 253 0 37 -17 18 -35
-37 -25 -81 -16 -205 35 -449 89 -433 93 -472 64 -750 -22 -216 -29 -628 -15
-810 42 -520 154 -840 330 -934 53 -28 61 -36 61 -61 0 -23 -7 -33 -30 -45
-45 -23 -88 -19 -142 16 -43 28 -63 33 -150 41 -55 5 -125 18 -155 30 -55 20
-123 71 -123 91 0 21 -34 47 -61 47 -30 0 -59 31 -59 63 0 29 25 30 66 2 33
-22 40 -24 52 -11 9 9 12 24 8 39 -8 34 -144 177 -209 220 -50 34 -105 108
-122 165 -6 22 -5 22 48 16 37 -4 57 -3 62 5 11 19 -33 74 -121 151 -84 73
-133 143 -121 174 4 9 20 24 37 34 16 9 30 21 30 25 0 4 -22 35 -50 67 -137
166 -130 250 14 154 31 -20 58 -35 61 -32 3 2 -15 50 -40 106 -25 56 -48 121
-51 144 -8 51 -24 85 -68 143 -26 33 -39 68 -59 152 -14 59 -29 117 -33 127
-6 15 5 10 41 -17 76 -58 135 -45 100 23 -8 16 -33 39 -55 51 -51 29 -100 101
-100 146 0 41 20 43 81 8 88 -50 119 -19 54 54 -19 21 -35 42 -35 47 0 4 12
20 26 35 33 34 34 72 3 105 -32 34 -60 27 -85 -21 -24 -47 -48 -51 -75 -15
-40 53 -45 200 -8 223 12 8 41 -1 115 -36 118 -54 140 -61 149 -48 7 12 -19
64 -64 131 -17 25 -31 48 -31 52 0 3 14 9 31 13 l31 7 -7 57 c-5 48 -3 60 14
83 39 49 22 100 -38 115 -70 18 -43 44 34 33 61 -9 69 -4 98 59 19 42 35 62
56 71 39 16 66 46 91 102 28 65 36 131 19 180 -12 37 -11 42 7 55 14 11 34 13
74 9 54 -5 54 -5 107 45 58 54 80 59 100 19 18 -35 16 -74 -6 -152 -19 -67
-19 -78 6 -78 20 0 50 55 84 160 51 152 93 224 153 261 41 25 69 24 103 -5z
m2594 -214 l73 -69 -42 -114 c-23 -63 -52 -154 -63 -204 -40 -178 -35 -518 7
-460 24 33 53 139 63 231 6 61 21 120 44 180 19 49 41 109 48 134 10 33 19 45
33 45 17 0 22 -11 32 -65 6 -35 16 -66 23 -68 6 -2 11 -26 11 -57 0 -30 5 -57
10 -60 24 -15 73 10 129 66 68 67 102 85 133 68 25 -14 21 -50 -15 -136 -135
-318 -142 -342 -233 -753 -36 -162 -94 -410 -129 -550 -74 -293 -84 -350 -63
-368 18 -15 82 15 122 57 25 26 30 42 43 148 17 139 34 176 82 181 41 4 54 33
70 155 6 48 16 126 22 175 6 48 24 127 40 175 16 49 34 118 40 154 12 66 37
107 61 98 23 -8 39 11 49 56 6 24 29 73 51 107 31 47 44 79 50 123 10 76 37
128 89 173 58 49 137 77 236 83 252 17 467 -127 468 -313 0 -50 -6 -73 -38
-137 -31 -63 -63 -103 -161 -205 -93 -97 -140 -156 -196 -247 -78 -126 -141
-206 -245 -315 -97 -101 -105 -135 -33 -142 18 -2 33 -8 35 -14 7 -22 -45 -80
-107 -121 -150 -97 -166 -123 -180 -300 -13 -173 -28 -210 -133 -336 -104
-124 -144 -224 -167 -412 -17 -138 -39 -238 -67 -307 -31 -78 -137 -284 -163
-318 -32 -42 -43 -16 -38 97 3 89 7 106 37 165 43 84 39 98 -34 98 -92 0 -120
53 -91 167 12 46 16 105 15 230 -2 184 11 273 53 359 33 67 52 77 82 39 20
-25 26 -27 39 -16 35 29 28 171 -9 185 -40 15 -112 -54 -182 -177 -64 -111
-109 -231 -152 -400 -38 -151 -80 -278 -101 -304 -6 -7 -20 -13 -30 -13 -26 0
-99 68 -99 92 0 27 -18 58 -35 58 -84 0 -48 269 75 570 26 63 75 181 108 261
79 191 176 518 202 684 11 71 28 143 37 160 13 23 17 63 19 170 l3 140 -88
-350 c-91 -359 -106 -407 -184 -605 -25 -63 -53 -152 -61 -198 -9 -46 -29
-113 -45 -150 -36 -84 -61 -167 -61 -206 0 -18 -10 -40 -24 -55 -18 -19 -31
-56 -50 -141 -47 -207 -73 -275 -121 -306 -23 -15 -27 -15 -58 5 -18 11 -42
29 -52 41 -18 20 -59 27 -69 11 -3 -5 -26 -14 -50 -20 -76 -19 -104 3 -140
111 -21 61 -91 308 -115 405 -28 111 -28 122 9 130 35 7 36 9 10 91 -11 35
-20 74 -20 86 0 30 27 53 65 58 45 5 43 34 -19 221 -63 191 -73 232 -57 242
19 11 84 -29 92 -57 8 -30 57 -104 86 -130 19 -17 19 -17 15 15 -2 17 -12 84
-23 148 -24 149 -25 194 -1 211 63 44 54 179 -19 316 -32 60 -37 103 -14 122
12 10 20 9 40 -4 13 -9 29 -25 35 -36 18 -34 36 -22 54 38 21 64 31 81 61 92
19 7 20 16 21 131 1 96 6 141 23 197 24 83 73 186 103 219 12 12 27 46 34 75
9 35 23 59 39 72 14 10 34 35 45 56 22 44 28 47 127 56 85 8 103 22 79 59 -34
52 -12 95 47 95 29 0 63 25 80 60 11 22 19 25 64 25 30 1 60 7 74 17 42 29 63
22 140 -50z m-3794 -129 c-3 -16 -16 -55 -31 -89 -88 -207 -92 -756 -11 -1314
16 -109 39 -320 55 -495 43 -473 138 -820 288 -1055 19 -30 77 -98 128 -151
51 -53 96 -107 99 -121 11 -43 2 -71 -30 -88 -17 -9 -31 -26 -33 -39 -3 -22
-1 -23 35 -17 116 18 119 18 131 3 20 -24 -11 -47 -62 -47 -51 0 -66 -14 -73
-68 -6 -47 14 -72 58 -72 17 0 28 -4 25 -8 -8 -14 -503 -24 -565 -12 -131 25
-161 68 -77 108 26 13 46 25 45 27 -2 2 -35 15 -74 30 -38 14 -87 39 -107 56
-34 26 -38 28 -38 11 0 -28 -38 -72 -62 -72 -26 0 -71 27 -87 52 -14 23 -1 45
36 59 45 17 30 30 -129 119 -112 63 -141 90 -202 193 -30 51 -75 117 -101 147
-54 65 -92 138 -103 200 -11 67 -5 89 35 112 l35 21 -27 15 c-15 7 -38 12 -52
9 -18 -3 -28 2 -39 19 -17 26 -64 158 -64 180 0 25 34 15 110 -32 114 -70 166
-94 205 -94 50 0 45 23 -12 57 -80 45 -155 107 -239 196 -84 89 -124 151 -106
169 13 13 35 1 137 -72 96 -69 159 -102 187 -98 17 2 9 11 -36 42 -110 75
-210 213 -208 285 1 23 -5 43 -19 57 -12 13 -19 32 -17 46 3 21 9 24 76 30 77
6 97 14 72 28 -8 5 -32 24 -52 44 -20 20 -46 36 -56 36 -26 0 -78 60 -87 100
-8 37 8 60 41 60 34 0 31 24 -15 94 -45 69 -61 137 -61 256 0 84 -20 164 -56
226 -29 50 -30 70 -4 84 18 9 30 41 44 111 5 25 66 87 180 183 113 95 143 170
95 237 l-20 29 34 0 c56 0 197 111 197 155 0 21 46 38 70 25 24 -13 28 -46 34
-280 6 -225 25 -356 116 -800 71 -349 95 -508 130 -870 57 -586 129 -872 270
-1080 55 -80 179 -211 238 -250 84 -55 68 -13 -44 120 -46 56 -98 129 -115
163 -18 34 -49 89 -70 122 -75 119 -96 179 -143 415 -55 272 -95 544 -136 910
-36 323 -38 339 -89 591 -22 107 -45 230 -50 274 -9 70 -31 327 -31 362 0 7
33 29 73 49 107 54 123 68 183 160 88 137 185 220 171 147z m4620 -90 c9 -23
-25 -48 -135 -100 -97 -47 -125 -51 -130 -18 -8 63 99 135 200 135 45 0 60 -4
65 -17z m-5857 -167 c0 -22 -64 -115 -90 -131 -26 -16 1 99 31 131 30 32 59
32 59 0z m-490 -162 c0 -24 -40 -51 -99 -68 -71 -20 -91 -20 -91 -2 0 32 44
66 99 76 30 6 56 12 59 14 8 9 32 -6 32 -20z m389 -189 c1 -105 21 -289 49
-460 22 -133 42 -299 72 -605 38 -385 86 -649 156 -865 21 -66 80 -200 147
-333 89 -177 131 -249 203 -345 111 -147 241 -288 295 -318 21 -13 42 -32 45
-43 18 -62 105 -114 208 -127 39 -5 77 -16 85 -24 14 -14 14 -18 -1 -42 -25
-41 -74 -63 -141 -63 -74 0 -122 22 -152 71 -15 23 -36 41 -57 47 -79 25 -209
53 -218 47 -5 -3 -10 -16 -10 -28 0 -33 -26 -64 -71 -87 -71 -37 -323 -62
-398 -41 -13 3 -29 14 -35 23 -15 25 27 65 88 83 53 16 96 40 96 54 0 5 -53
16 -117 26 -133 19 -250 54 -305 91 -74 48 -41 74 90 74 73 0 94 3 113 19 l24
19 -25 11 c-14 6 -83 31 -155 57 -201 71 -315 135 -315 173 0 24 15 30 101 37
38 4 72 11 75 15 9 15 -39 51 -142 109 -109 61 -204 144 -204 178 0 30 36 37
91 17 24 -9 54 -19 67 -22 57 -14 -3 59 -120 145 -99 73 -114 122 -38 122 22
0 63 -9 92 -20 28 -11 54 -18 56 -15 11 10 -24 68 -54 92 -27 20 -34 32 -34
61 0 65 -23 115 -77 171 -53 55 -55 70 -10 71 32 0 77 30 77 50 0 10 -24 45
-54 77 -59 64 -96 126 -96 161 0 37 -26 88 -69 135 -47 51 -61 83 -61 142 0
24 -10 68 -21 99 -21 54 -21 56 -4 126 15 60 16 95 10 225 -7 150 -6 155 18
208 25 56 178 298 207 331 26 27 58 12 80 -37 10 -23 24 -89 30 -147 11 -98
52 -295 64 -308 3 -3 6 28 6 69 0 41 5 94 11 118 15 67 59 150 96 179 18 15
49 40 69 56 32 26 124 192 124 223 0 7 5 24 12 40 l11 28 7 -30 c4 -16 8 -70
9 -120z m4174 94 c27 -14 67 -50 67 -60 0 -15 -40 -30 -60 -24 -32 10 -50 34
-50 66 0 31 9 35 43 18z m-5283 -944 c39 -20 62 -63 99 -183 18 -57 50 -143
71 -192 52 -118 91 -246 144 -475 68 -289 132 -472 255 -730 163 -341 379
-660 591 -875 116 -117 193 -177 308 -237 48 -26 90 -51 94 -57 4 -6 0 -21 -8
-34 -9 -13 -13 -30 -10 -38 8 -22 42 -17 99 16 45 25 64 30 123 30 47 0 77 -5
90 -15 19 -15 19 -15 -4 -35 -53 -44 -291 -100 -431 -100 -99 0 -151 -9 -158
-28 -4 -8 2 -38 11 -67 17 -47 17 -54 3 -82 -40 -76 -155 -146 -242 -147 -63
-1 -97 19 -133 80 -30 49 -63 64 -140 64 -93 0 -182 41 -149 68 16 14 126 32
197 32 54 0 91 12 78 25 -13 14 -86 25 -163 25 -120 1 -266 18 -292 35 -27 18
-30 50 -5 60 9 4 76 11 149 15 215 13 204 33 -29 55 -308 30 -396 68 -343 149
9 13 13 30 10 38 -4 9 -42 35 -85 58 -44 24 -87 52 -97 62 -17 19 -17 20 2 34
10 8 42 14 69 15 79 1 149 13 153 25 5 15 -49 34 -93 34 -79 0 -201 65 -224
119 -11 27 -10 33 9 57 27 34 17 47 -52 70 -67 22 -140 58 -156 78 -17 21 -6
36 28 36 38 0 64 21 59 50 -4 28 -13 34 -163 96 -60 25 -114 49 -118 53 -4 5
24 25 63 45 38 20 70 39 70 41 0 3 -24 19 -54 35 -93 53 -129 99 -90 114 8 3
40 3 70 0 45 -6 54 -4 54 9 0 20 -67 66 -162 112 -86 41 -121 71 -98 85 9 5
66 7 131 3 86 -4 118 -3 124 6 11 18 5 21 -102 51 -123 35 -234 81 -247 104
-9 13 -7 21 9 33 16 12 41 14 140 10 l120 -6 -35 30 c-19 17 -57 41 -84 54
-55 27 -66 39 -66 77 0 17 9 33 27 46 25 18 26 21 14 50 -7 17 -21 38 -31 47
-25 23 -43 104 -33 146 7 26 16 35 41 41 49 13 59 44 33 103 -12 26 -21 52
-21 57 0 5 15 23 33 39 30 28 32 34 32 96 0 63 1 67 25 73 24 6 25 10 25 77 0
76 13 101 66 128 46 24 60 0 89 -156 12 -63 27 -134 35 -159 13 -45 95 -210
95 -191 0 6 -7 79 -16 163 -21 200 -16 288 20 362 30 60 83 106 124 106 13 0
36 -7 52 -15z m-1056 -997 c25 -36 21 -76 -10 -90 -23 -11 -29 -10 -45 11 -23
29 -24 59 -2 83 21 24 39 23 57 -4z m6076 -73 c9 -27 8 -40 -2 -62 -20 -42
-51 -37 -62 9 -19 77 40 125 64 53z m-6240 -154 c5 -11 10 -36 10 -56 0 -55
-15 -75 -56 -75 -28 0 -36 5 -44 25 -12 32 8 85 41 109 30 21 36 20 49 -3z
m308 -38 c12 -23 48 -110 79 -194 81 -224 121 -310 205 -444 41 -66 81 -130
87 -143 7 -13 83 -97 169 -186 118 -121 173 -188 222 -265 119 -188 211 -304
344 -436 201 -199 409 -350 618 -449 151 -72 224 -90 332 -84 131 9 159 -26
91 -114 -52 -67 -104 -218 -130 -383 -4 -22 -13 -50 -21 -62 -25 -39 -193
-113 -255 -113 -33 0 -59 32 -59 71 0 35 -24 41 -115 29 -134 -18 -156 -11
-131 38 8 16 28 39 43 51 l28 21 -65 -7 c-106 -13 -327 -10 -341 4 -10 10 -5
16 24 28 71 29 37 52 -96 64 -89 8 -147 23 -147 38 0 4 9 17 21 29 l21 22 -24
16 c-15 10 -64 19 -136 24 -169 13 -188 45 -62 110 35 17 59 32 54 33 -5 1
-101 2 -214 2 -178 2 -209 4 -233 20 -22 14 -25 22 -21 46 5 25 0 36 -40 74
-25 25 -46 48 -46 51 0 4 7 23 15 43 9 20 14 42 11 48 -3 8 -54 14 -153 18
-153 5 -228 21 -228 47 0 15 5 17 189 59 50 11 97 27 105 35 13 13 11 16 -13
26 -15 5 -55 10 -89 10 -93 0 -246 18 -276 33 -35 17 -33 40 7 53 90 29 68 54
-121 133 -36 15 -48 25 -45 38 3 16 15 18 118 15 120 -3 160 2 160 18 0 19
-48 40 -164 69 -120 31 -162 50 -173 77 -8 21 22 40 95 60 34 9 60 19 57 22
-3 3 -42 16 -88 29 -90 27 -167 66 -167 87 0 8 15 17 34 20 19 4 40 13 47 22
17 20 14 67 -6 98 -9 14 -18 45 -20 68 -2 24 -6 55 -10 70 -6 22 1 39 34 89
42 63 48 90 32 147 -17 58 -31 216 -23 247 12 44 33 37 47 -17 13 -51 68 -148
103 -181 48 -45 80 30 48 108 -22 53 -20 85 13 185 37 109 141 327 171 358 31
33 60 25 88 -25z m5881 -29 c41 -52 55 -159 21 -159 -35 0 -82 122 -64 168 9
24 19 21 43 -9z m-6671 -456 c18 -18 15 -53 -8 -79 l-19 -24 -1 58 c0 57 6 67
28 45z m6718 -102 c17 -14 18 -16 3 -31 -34 -35 -139 -28 -139 10 0 34 98 48
136 21z m713 -5 c22 -14 3 -50 -36 -69 -31 -15 -37 -15 -61 -1 -33 18 -40 48
-16 66 20 15 92 17 113 4z m-7479 -52 c0 -27 -33 -136 -58 -187 l-26 -57 -4
45 c-4 53 11 109 44 168 24 40 44 55 44 31z m6389 -165 c16 -21 21 -41 21 -90
0 -35 3 -64 8 -63 4 0 30 27 57 61 44 54 97 98 117 98 17 0 68 -54 68 -72 0
-10 -14 -39 -31 -64 -37 -55 -63 -127 -79 -224 -7 -41 -37 -149 -67 -240 -86
-259 -113 -371 -120 -494 l-6 -108 -176 4 c-195 6 -263 22 -313 76 -68 73 -65
142 14 265 29 45 30 51 24 120 -7 71 -7 73 24 112 l32 40 -7 112 c-6 107 -5
114 18 155 14 24 34 73 46 109 12 36 33 76 46 89 41 38 237 139 272 139 23 1
37 -6 52 -25z m-564 -35 c4 -11 -4 -61 -19 -112 -46 -164 -71 -397 -85 -780
-8 -191 -12 -243 -25 -262 -27 -41 -74 -32 -105 18 -111 181 -71 878 62 1079
42 63 158 102 172 57z m-413 -39 c90 -70 113 -344 53 -619 -28 -128 -29 -163
-6 -286 6 -27 10 -101 10 -162 1 -100 -1 -115 -19 -133 -21 -21 -102 -28 -128
-11 -16 10 -62 154 -62 194 0 15 7 39 16 52 23 36 9 64 -43 87 l-46 20 7 73
c5 58 4 75 -9 85 -20 17 -33 66 -50 190 -22 156 -20 208 9 250 13 20 43 75 66
123 68 139 139 187 202 137z m1868 -32 c48 -16 74 -29 72 -38 -2 -7 -6 -57 -9
-112 -4 -69 -3 -98 5 -98 6 0 30 27 52 60 54 80 143 124 215 106 45 -12 29
-54 -66 -167 -107 -129 -139 -181 -253 -419 -41 -86 -91 -169 -136 -230 -87
-116 -96 -136 -119 -273 -21 -125 -32 -142 -91 -140 -44 2 -347 139 -387 175
-41 38 -67 116 -67 203 -1 94 14 125 72 153 35 17 37 20 34 59 -2 37 2 45 33
69 19 14 35 34 35 44 0 10 16 31 36 47 86 69 94 79 94 126 0 55 32 182 60 236
11 22 33 49 48 58 35 22 40 30 53 78 12 44 33 73 64 86 36 16 176 3 255 -23z
m-2364 -134 c20 -5 22 -15 28 -122 26 -458 90 -703 226 -873 28 -34 50 -68 50
-74 0 -22 -35 -43 -138 -80 -65 -24 -119 -51 -145 -73 -72 -61 -141 -87 -227
-87 -88 0 -149 27 -188 85 -25 36 -25 40 -6 171 5 31 0 42 -44 95 -83 99 -142
230 -142 313 0 20 4 21 35 15 21 -4 35 -2 35 4 0 5 -23 45 -52 88 -71 110 -98
163 -98 194 0 41 -1 40 204 127 96 41 117 23 136 -110 6 -40 15 -106 21 -147
6 -41 28 -150 50 -242 22 -92 44 -204 50 -250 14 -115 43 -157 110 -158 23 0
42 7 54 20 17 19 17 22 -25 107 -81 166 -116 308 -126 513 -9 163 4 225 56
285 44 51 43 69 -5 85 -48 16 -61 34 -46 66 19 43 115 67 187 48z m-1133 -97
c104 -48 101 -106 -10 -163 -77 -40 -157 -59 -215 -50 -45 7 -62 18 -107 71
-22 26 -26 27 -93 23 -39 -3 -79 -3 -89 -1 -65 17 47 97 191 138 38 10 88 14
160 12 88 -3 114 -8 163 -30z m330 -369 c18 -7 37 -28 52 -58 43 -84 115 -314
126 -401 23 -180 59 -248 218 -404 55 -54 101 -102 101 -105 0 -13 -113 -90
-131 -90 -10 0 -48 26 -86 58 -37 32 -112 91 -165 131 -54 40 -107 86 -119
102 -26 37 -89 214 -89 251 0 61 85 71 112 13 25 -55 61 -14 56 63 l-3 47 -82
-4 c-76 -3 -82 -2 -97 20 -8 13 -19 51 -25 85 -5 33 -21 88 -35 122 -31 73
-34 146 -9 175 15 16 26 18 83 12 36 -3 78 -11 93 -17z m-3914 -17 c25 -16 5
-58 -34 -71 -44 -15 -65 -8 -65 21 0 46 59 75 99 50z m3662 -163 c12 -23 41
-134 65 -246 82 -378 114 -433 339 -582 109 -72 155 -117 155 -152 0 -91 -172
-112 -283 -35 -29 20 -32 43 -13 89 6 13 -3 22 -41 42 -59 29 -139 100 -178
156 -19 27 -31 61 -37 102 -4 33 -24 96 -43 138 -39 87 -43 115 -18 150 16 22
16 24 -2 34 -11 6 -34 25 -52 43 -30 28 -33 36 -33 90 0 84 64 213 107 213 7
0 22 -19 34 -42z m-3992 18 c38 -20 111 -102 111 -124 0 -34 -43 -87 -70 -87
-21 0 -30 11 -55 62 -16 34 -38 71 -48 82 -16 16 -17 23 -6 43 10 20 27 37 37
38 2 0 15 -6 31 -14z m415 -28 c9 -12 16 -40 16 -61 0 -51 13 -73 58 -96 44
-23 93 -72 159 -160 29 -40 76 -84 120 -115 39 -28 106 -77 150 -108 43 -31
121 -80 173 -109 52 -28 163 -90 245 -137 274 -156 344 -193 498 -261 83 -38
206 -93 272 -124 181 -84 390 -145 712 -208 52 -10 103 -48 103 -75 0 -15 -22
-38 -66 -68 l-27 -19 6 -280 6 -280 -112 6 c-103 5 -251 -3 -338 -19 -32 -5
-40 -2 -73 31 -29 29 -42 36 -61 31 -13 -3 -46 1 -72 10 -26 9 -93 20 -148 23
-55 4 -106 10 -112 14 -6 4 -17 23 -23 42 -6 19 -19 37 -29 40 -11 3 -53 -2
-96 -10 -87 -18 -99 -14 -110 41 -3 19 -12 37 -20 40 -7 3 -44 -2 -82 -11 -89
-22 -118 -12 -133 44 -17 65 -63 78 -120 36 -69 -51 -180 -22 -180 46 0 35 -1
35 -141 14 -56 -9 -135 -16 -175 -18 -110 -3 -112 14 -6 67 79 40 120 71 109
83 -5 4 -91 10 -191 13 -177 5 -184 6 -222 32 -21 14 -73 38 -114 53 -138 48
-152 78 -42 90 80 8 134 24 130 38 -2 7 -33 27 -69 45 -35 19 -78 44 -96 58
-51 39 -130 152 -188 271 -31 61 -66 120 -80 131 -13 11 -51 24 -83 31 -110
21 -134 79 -57 133 25 18 45 35 45 39 0 4 -14 36 -31 72 -38 83 -51 194 -25
220 35 35 54 20 80 -63 37 -115 116 -225 252 -352 103 -96 184 -185 184 -204
0 -35 136 -103 244 -123 32 -6 78 -22 102 -36 23 -14 73 -32 111 -40 113 -26
240 -79 355 -147 l69 -41 38 42 c21 22 41 41 45 41 13 0 68 -31 133 -76 35
-24 89 -51 121 -60 31 -9 143 -50 248 -90 211 -81 320 -114 374 -114 23 0 49
-9 70 -25 41 -30 93 -34 88 -7 -4 22 -147 97 -271 141 -125 46 -325 127 -482
196 -71 32 -216 86 -322 121 -494 164 -1007 439 -1105 593 -33 53 -35 73 -9
115 22 36 26 61 41 211 15 151 42 237 91 286 25 25 44 24 63 -3z m-586 0 c16
-16 15 -50 -2 -73 -13 -18 -14 -18 -25 3 -26 50 -6 103 27 70z m3856 -335 c3
-10 10 -54 15 -98 12 -93 27 -141 76 -233 114 -216 347 -422 497 -439 130 -14
159 -72 93 -185 -19 -33 -57 -106 -84 -162 -26 -57 -59 -110 -72 -119 -31 -22
-142 -22 -354 -1 -147 14 -205 26 -205 39 0 3 19 14 42 24 l42 18 -48 16 c-80
27 -135 65 -167 115 -16 25 -29 53 -29 61 0 40 -44 103 -96 136 -41 26 -54 41
-54 59 0 19 -12 31 -62 58 -145 79 -168 240 -45 301 49 24 92 15 112 -23 8
-16 15 -38 15 -48 0 -46 123 -174 150 -157 18 11 11 78 -14 130 -27 57 -58 88
-101 102 -25 8 -32 17 -42 59 -6 27 -12 59 -12 72 -2 38 36 27 89 -28 27 -27
55 -50 63 -50 25 0 47 -29 47 -61 0 -42 15 -66 45 -73 14 -4 53 -31 85 -61 69
-63 105 -72 116 -28 8 32 -5 56 -36 63 -31 7 -63 71 -95 191 -25 94 -55 254
-55 297 0 33 36 65 60 52 10 -5 21 -18 24 -27z m2473 -89 c49 -18 93 -65 93
-99 0 -30 -23 -53 -76 -76 -54 -23 -64 -42 -64 -126 0 -61 2 -66 13 -43 7 14
19 25 26 25 32 0 51 -50 68 -179 16 -124 16 -129 -1 -142 -30 -21 -105 -28
-184 -15 -106 16 -136 33 -161 90 -75 176 -28 464 92 555 49 37 108 40 194 10z
m488 -13 c22 -10 49 -28 60 -41 29 -32 62 -47 128 -54 73 -9 113 -41 124 -99
9 -41 9 -42 53 -43 60 -2 188 -56 242 -103 33 -29 54 -39 90 -43 61 -7 78 -22
78 -66 0 -31 -9 -44 -58 -92 -73 -72 -213 -144 -297 -155 -50 -6 -64 -13 -105
-51 -61 -57 -98 -65 -148 -31 -23 16 -106 46 -216 77 -192 55 -209 61 -243 93
-30 27 -30 60 2 257 13 85 27 181 30 212 7 67 35 113 85 139 45 24 123 24 175
0z m-928 -87 c52 -33 62 -95 24 -153 -20 -31 -27 -180 -12 -253 8 -37 24 -72
46 -100 42 -52 44 -81 7 -118 -28 -28 -113 -60 -158 -60 -29 0 -60 40 -79 103
-35 118 -42 406 -13 525 18 73 113 102 185 56z m-348 -60 c28 -36 28 -129 0
-237 -25 -96 -21 -187 13 -295 26 -86 43 -120 81 -159 l30 -32 -33 -18 c-18
-10 -58 -35 -90 -55 -32 -21 -69 -38 -83 -38 -67 0 -89 -29 -106 -138 -21
-132 -125 -252 -220 -252 -49 0 -134 37 -229 99 -124 82 -161 133 -106 147 39
10 112 -10 223 -61 167 -76 171 -61 25 96 -166 179 -191 241 -109 267 72 23
97 82 53 129 -28 30 -43 29 -91 -4 -38 -27 -39 -27 -54 -8 -31 42 4 153 57
180 103 53 224 -30 276 -189 36 -112 50 -135 91 -153 44 -18 99 -10 108 16 7
22 -17 95 -56 172 -74 148 -90 279 -45 374 39 83 162 185 223 185 12 0 31 -12
42 -26z m-5656 -401 c8 -16 22 -60 32 -100 9 -40 30 -93 47 -119 16 -26 27
-52 24 -59 -2 -7 -31 -22 -65 -33 -54 -18 -60 -19 -66 -4 -11 29 -28 287 -21
315 8 35 32 35 49 0z m7947 -108 c86 -44 58 -134 -57 -187 -89 -40 -44 -48
132 -22 164 23 205 0 125 -69 -41 -35 -64 -47 -330 -175 -150 -72 -211 -115
-192 -134 11 -11 43 -5 272 55 157 41 295 62 353 53 72 -12 125 -64 112 -113
-9 -38 -79 -63 -204 -74 -132 -11 -206 -26 -251 -50 l-35 -18 167 -1 c245 0
371 -23 401 -71 14 -22 1 -66 -22 -79 -33 -17 -236 -30 -476 -30 l-230 0 -54
86 c-30 47 -60 104 -68 128 -8 23 -31 65 -53 93 -50 66 -62 90 -69 132 -5 26
-17 42 -51 66 -85 59 -88 111 -10 160 23 14 76 58 117 96 90 84 132 112 210
145 69 28 168 32 213 9z m-1700 -144 c32 -23 36 -52 11 -75 -25 -23 -96 -33
-116 -16 -18 15 -20 91 -2 109 15 16 73 6 107 -18z m259 -19 c22 -42 -86 -262
-129 -262 -22 0 -40 28 -40 63 0 36 67 162 101 191 36 31 55 33 68 8z m-6292
-83 c40 -15 81 -57 88 -90 3 -15 33 -58 65 -96 104 -121 134 -170 133 -213
l-2 -39 72 0 c50 0 114 -11 208 -35 75 -20 207 -47 295 -61 203 -33 231 -40
514 -135 463 -155 853 -230 1290 -248 286 -12 285 -11 300 -276 5 -88 16 -188
24 -221 24 -93 21 -137 -10 -166 -14 -13 -33 -40 -42 -59 -22 -46 -83 -76
-170 -86 -75 -7 -95 -15 -133 -51 -36 -33 -73 -28 -77 9 -5 41 -37 58 -107 58
-46 0 -69 -6 -100 -25 -83 -50 -94 -54 -161 -65 -83 -14 -143 -6 -179 22 -14
11 -45 22 -68 25 -56 7 -75 18 -79 45 -5 35 -32 33 -98 -8 -66 -41 -77 -39
-107 20 -24 48 -74 96 -100 96 -27 0 -28 -7 -8 -34 20 -27 19 -52 -5 -76 -28
-28 -37 -25 -76 16 -31 35 -35 37 -80 30 -60 -8 -74 4 -74 60 0 53 -9 55 -80
19 -57 -29 -70 -31 -70 -10 0 27 -41 53 -103 65 -107 20 -269 79 -357 130 -79
45 -90 48 -147 47 -53 -1 -66 2 -85 21 -19 19 -21 25 -10 42 30 49 13 60 -101
61 -123 1 -131 5 -138 66 -4 28 -10 56 -14 63 -4 6 -54 33 -111 60 -105 49
-122 68 -92 98 23 23 147 14 263 -18 118 -34 286 -64 405 -75 142 -12 225 -27
285 -52 52 -22 69 -24 130 -19 39 4 92 2 120 -4 28 -6 61 -14 75 -16 18 -4 32
1 49 20 32 34 64 34 230 -4 99 -23 161 -31 249 -33 86 -2 151 -11 245 -32 133
-30 156 -28 143 13 -12 36 -107 66 -424 132 -107 22 -230 49 -275 61 -67 17
-129 23 -337 29 -401 13 -595 47 -770 135 -135 68 -180 133 -180 262 0 74 -2
83 -30 118 -17 21 -33 50 -36 64 -11 51 -23 71 -45 71 -30 0 -127 103 -166
177 -38 70 -39 80 -16 105 18 21 40 23 80 7z m6641 -5 c34 -24 27 -55 -23
-103 -25 -24 -52 -56 -60 -71 -20 -39 -74 -82 -99 -78 -18 3 -21 9 -20 49 2
48 49 155 87 197 25 26 81 30 115 6z m301 -19 c23 -23 -12 -64 -89 -103 -83
-42 -124 -41 -128 3 -4 42 35 97 78 112 42 15 119 9 139 -12z m-1212 -27 c6
-7 23 -50 38 -95 30 -90 26 -113 -19 -113 -67 0 -105 125 -60 198 16 25 27 28
41 10z m-2390 -56 c69 -88 166 -147 318 -195 113 -35 195 -47 393 -56 133 -6
176 -11 183 -22 5 -8 9 -44 9 -80 0 -57 -4 -71 -29 -106 -76 -105 -276 -121
-543 -42 -99 29 -190 36 -207 15 -12 -14 -8 -18 30 -35 95 -42 352 -94 547
-111 133 -11 166 -23 170 -63 7 -57 -52 -94 -182 -113 -55 -8 -108 -23 -139
-39 -65 -35 -157 -42 -256 -21 -109 23 -143 46 -156 108 -10 52 -44 63 -195
63 l-135 0 3 42 c3 33 -4 59 -28 108 -30 62 -31 67 -16 90 19 28 31 32 141 39
43 4 83 10 88 15 5 5 2 31 -7 62 -21 69 -21 128 0 136 8 3 28 -4 44 -16 33
-24 72 -27 89 -7 10 11 4 18 -26 32 -26 13 -45 33 -61 64 -13 25 -46 68 -73
95 -55 57 -63 85 -24 85 18 0 35 -14 62 -48z m-3572 -39 c3 -10 15 -58 25
-108 10 -49 27 -109 38 -133 21 -48 19 -83 -8 -107 -17 -16 -19 -15 -34 7 -30
45 -69 300 -53 342 8 21 23 20 32 -1z m7320 -43 c15 -16 17 -26 9 -48 -7 -22
-35 -40 -152 -98 -145 -72 -202 -113 -202 -145 0 -30 15 -30 81 0 35 15 79 31
97 35 19 3 80 26 137 51 57 25 111 45 120 45 60 0 157 -108 139 -155 -7 -18
-24 -22 -129 -30 -110 -8 -220 -32 -282 -60 -44 -20 -53 -28 -53 -50 0 -54
108 -69 285 -40 113 19 226 19 269 1 63 -26 89 -98 42 -116 -38 -14 -227 -38
-365 -46 l-123 -7 5 -36 c27 -179 29 -204 18 -301 -14 -126 -35 -213 -77 -313
-18 -43 -30 -85 -27 -93 3 -7 93 -59 201 -113 109 -55 209 -112 224 -126 24
-22 27 -31 23 -72 -3 -27 -7 -75 -9 -109 -11 -129 -37 -126 -119 12 -83 138
-175 190 -359 201 -86 5 -114 10 -134 25 -31 25 -31 53 2 83 24 22 27 32 26
89 -1 36 -10 91 -21 123 -11 32 -18 59 -16 61 2 2 17 -4 34 -12 44 -23 78 -20
97 9 28 43 55 167 61 280 9 185 -30 292 -167 454 -44 52 -82 102 -85 111 -3 9
-38 32 -77 51 -41 20 -74 42 -76 52 -2 11 19 31 68 62 39 26 76 55 83 66 7 12
39 28 78 39 36 11 95 39 130 62 104 70 121 77 175 78 39 0 55 -5 69 -20z
m-1634 -81 c22 -23 29 -41 29 -69 0 -22 -4 -41 -9 -44 -17 -11 -88 115 -75
135 9 16 25 10 55 -22z m4524 -46 c177 -40 285 -122 285 -216 0 -50 -20 -87
-72 -131 -47 -40 -64 -43 -132 -20 -50 17 -57 17 -331 -5 -71 -6 -272 -15
-445 -21 -173 -5 -333 -15 -355 -21 -75 -20 -94 -21 -141 -5 -56 19 -97 20
-123 4 -29 -18 -48 -4 -81 61 -34 69 -38 101 -12 124 28 26 111 57 152 57 34
0 39 -4 49 -31 6 -18 11 -47 11 -66 0 -40 50 -99 93 -109 34 -8 34 3 5 73 -21
51 -21 54 -5 89 24 49 93 78 235 99 129 19 211 39 362 89 58 19 139 39 180 45
92 12 232 5 325 -16z m-3794 -9 c150 -29 193 -49 187 -88 -4 -29 -56 -32 -139
-10 -35 9 -104 20 -154 23 l-90 6 -3 33 c-7 73 -1 74 199 36z m2229 -9 c45
-23 49 -54 10 -86 -52 -44 -80 -46 -112 -10 -67 75 7 145 102 96z m-2949 -131
c17 -18 28 -37 25 -43 -9 -15 -72 -14 -99 1 -42 22 -67 79 -46 104 10 12 17
11 50 -8 21 -12 52 -36 70 -54z m-729 42 c35 -13 113 -45 175 -72 129 -56 135
-63 134 -170 -1 -131 -35 -227 -96 -267 -19 -12 -35 -25 -35 -28 0 -4 13 -12
29 -19 16 -6 41 -24 56 -40 38 -40 23 -65 -53 -85 -154 -41 -232 -74 -232
-100 0 -21 47 -23 163 -8 60 8 124 13 141 11 35 -3 44 -18 76 -123 82 -269
340 -585 479 -585 13 0 47 -13 76 -29 78 -44 140 -62 260 -75 l110 -11 3 -246
c2 -200 0 -248 -12 -264 -13 -17 -27 -20 -109 -20 -81 0 -98 3 -117 20 -24 22
-24 40 4 160 26 113 16 279 -18 313 -23 23 -34 -12 -62 -195 -14 -92 -32 -180
-40 -195 -13 -25 -20 -28 -62 -28 -99 0 -116 51 -57 174 61 128 69 213 24 270
-33 42 -72 35 -132 -24 -58 -57 -68 -59 -174 -29 -40 11 -92 19 -116 17 -40
-3 -42 -5 -45 -36 -4 -40 12 -62 46 -62 13 0 41 -10 60 -22 20 -12 60 -25 90
-29 63 -9 77 -19 67 -48 -8 -27 -87 -73 -117 -69 -20 3 -24 10 -28 58 l-5 55
-77 7 c-83 8 -128 25 -152 60 -32 46 -17 100 56 191 69 88 72 99 70 231 -1 65
-4 121 -6 124 -3 2 -47 -7 -98 -22 -183 -52 -273 -22 -224 73 8 15 22 33 30
40 27 22 18 42 -44 103 -132 131 -192 348 -96 348 23 0 46 17 46 33 0 6 -55 7
-140 2 -153 -8 -181 -1 -199 48 -17 44 3 57 82 57 44 0 78 5 85 12 17 17 15
76 -4 132 -27 77 -20 80 193 81 133 1 186 5 208 16 17 8 30 19 29 24 -2 22
-68 47 -181 70 -146 30 -197 49 -223 82 -27 34 -25 49 9 84 36 36 68 37 153 5z
m3716 -185 c10 -6 9 -11 -4 -22 -9 -8 -25 -32 -35 -54 l-19 -40 0 52 c0 39 4
55 18 62 21 13 24 13 40 2z m-1917 -51 c11 -6 19 -21 19 -35 0 -36 -27 -57
-68 -53 -31 3 -38 8 -46 35 -6 23 -5 37 4 48 14 17 62 20 91 5z m-222 -148
c13 -73 4 -122 -23 -122 -17 0 -26 22 -26 66 0 42 20 124 30 124 4 0 12 -31
19 -68z m-6165 42 c19 -7 21 -45 4 -62 -18 -18 -49 -14 -75 10 -38 36 -28 54
34 57 12 0 28 -2 37 -5z m8072 -12 c23 -15 33 -51 35 -131 l2 -83 -114 1 c-63
1 -175 11 -249 21 -74 11 -167 19 -205 18 -56 -2 -78 2 -105 18 -41 24 -63 70
-40 84 26 17 111 29 303 45 104 9 207 20 230 25 54 10 129 12 143 2z m-2928
-44 c22 -22 9 -90 -22 -110 -48 -33 -91 58 -49 104 18 21 53 24 71 6z m2033
-133 c46 -8 111 -24 144 -35 110 -39 179 -51 340 -60 172 -11 314 -36 389 -68
52 -23 58 -44 21 -68 -22 -14 -33 -15 -83 -5 -31 6 -205 25 -385 42 -426 39
-599 68 -649 109 -22 18 -22 20 -8 47 11 20 28 31 60 40 60 15 74 15 171 -2z
m-3113 -47 c7 -7 12 -27 12 -45 0 -47 -46 -93 -138 -141 -130 -67 -255 -88
-342 -57 -54 19 -120 20 -120 2 0 -7 14 -23 30 -35 32 -24 40 -61 16 -81 -8
-6 -42 -17 -76 -23 -73 -12 -211 2 -260 27 -31 16 -48 40 -36 52 3 4 59 10
123 14 172 12 176 28 20 83 -154 54 -229 108 -197 140 19 19 130 11 245 -19
163 -42 277 -41 408 3 54 19 128 46 165 62 72 30 131 37 150 18z m1590 -16 c5
-15 -61 -44 -91 -40 -29 4 -47 36 -27 48 21 14 112 8 118 -8z m459 -84 c29
-27 29 -54 1 -69 -18 -10 -24 -8 -40 11 -24 29 -24 80 -1 80 9 0 27 -10 40
-22z m442 -87 c19 -12 7 -39 -24 -51 -55 -21 -158 -4 -158 25 0 29 145 49 182
26z m-1344 -60 c-7 -30 -52 -81 -72 -81 -19 0 -16 28 8 66 35 57 77 67 64 15z
m-1096 12 c14 -12 28 -47 42 -103 11 -46 29 -95 38 -110 24 -33 31 -77 19
-112 -14 -40 -63 -39 -103 2 -16 17 -34 30 -42 30 -7 0 -35 -20 -63 -45 -80
-71 -301 -167 -485 -210 -71 -17 -209 -19 -253 -4 -22 8 -40 25 -59 60 -18 34
-42 59 -74 79 -57 35 -72 70 -43 102 18 19 27 20 129 15 61 -3 135 -12 165
-22 95 -29 114 -29 172 -2 29 13 96 61 148 105 119 101 322 225 381 231 4 1
16 -7 28 -16z m-4006 -70 l32 -18 -64 -3 c-70 -3 -80 0 -61 23 17 20 54 19 93
-2z m6307 -82 c15 -30 12 -66 -8 -84 -14 -13 -21 -14 -30 -5 -13 13 -17 90 -5
101 12 13 32 7 43 -12z m-6629 -130 c31 -61 27 -171 -5 -171 -18 0 -43 29 -60
71 -13 31 -46 193 -46 227 0 22 87 -78 111 -127z m5502 78 c20 -25 22 -78 3
-104 -12 -17 -17 -17 -45 -5 -33 13 -101 85 -101 106 0 37 113 39 143 3z m665
-45 c31 -21 29 -61 -3 -76 -21 -9 -28 -8 -45 7 -26 24 -34 53 -20 70 16 19 40
19 68 -1z m-405 -95 l42 -22 -54 -17 c-58 -19 -71 -32 -71 -68 0 -36 -18 -62
-44 -62 -46 0 -65 53 -41 116 28 73 90 92 168 53z m-1439 -85 c13 -34 5 -83
-20 -120 -100 -151 -423 -394 -555 -419 -70 -13 -247 50 -349 124 -24 17 -47
31 -52 31 -16 0 -8 -42 23 -118 42 -104 47 -171 21 -258 -28 -92 -68 -139
-134 -159 -41 -12 -68 -32 -143 -104 -73 -70 -102 -92 -136 -101 -80 -20 -107
-31 -119 -45 -26 -31 -80 -55 -144 -64 -44 -6 -82 -19 -107 -35 -48 -32 -66
-32 -109 -1 -19 14 -46 25 -60 25 -14 0 -78 -18 -142 -39 -153 -51 -189 -57
-222 -36 -22 15 -72 18 -348 26 -494 13 -523 17 -613 89 -100 80 -86 76 -159
40 -46 -22 -76 -30 -103 -28 -35 3 -38 5 -37 33 0 17 8 47 17 67 15 33 15 38
1 52 -8 9 -28 16 -43 16 -43 0 -201 116 -201 147 0 7 4 13 10 13 13 0 30 67
30 124 l0 49 217 -7 c243 -7 424 -20 528 -38 43 -8 181 -13 355 -13 157 0 330
-5 386 -9 111 -10 232 1 394 36 183 39 351 103 335 128 -10 16 -50 12 -170
-20 -217 -56 -303 -63 -670 -57 -444 8 -999 43 -1165 73 -142 26 -179 57 -200
172 -13 73 -37 133 -74 181 -19 26 -23 38 -15 52 24 47 270 75 502 59 155 -11
221 -21 341 -51 43 -11 143 -24 221 -30 84 -5 175 -18 221 -30 250 -67 467
-84 729 -58 158 16 235 39 392 117 171 86 215 100 249 77 14 -9 27 -29 31 -46
17 -84 191 -136 423 -126 125 5 111 1 360 106 181 76 230 106 253 154 20 39
41 48 51 21z m4516 -69 c63 -14 172 -38 243 -54 212 -49 299 -52 312 -11 10
32 44 25 52 -10 11 -59 76 -64 71 -6 -3 30 -2 31 41 34 62 5 337 -25 448 -47
50 -11 132 -37 182 -60 50 -23 95 -41 100 -41 5 0 25 -15 44 -32 27 -26 38
-49 52 -106 9 -40 24 -79 32 -87 21 -22 47 -4 67 45 14 36 35 182 36 250 0 22
1 23 16 8 24 -24 34 -145 23 -301 -10 -154 -13 -173 -41 -236 -11 -24 -23 -78
-28 -120 -4 -42 -13 -88 -20 -103 -13 -26 -38 -44 -48 -33 -3 3 2 63 11 133
20 145 21 176 7 202 -6 10 -52 39 -103 63 -50 24 -155 81 -232 126 -141 83
-257 128 -295 116 -11 -3 -20 -10 -20 -15 0 -15 60 -54 175 -114 155 -81 200
-118 235 -191 56 -120 85 -295 56 -340 -26 -40 -68 -30 -78 20 -3 18 -11 20
-77 20 -42 0 -76 4 -78 10 -2 6 13 27 32 48 41 44 43 60 11 92 -52 52 -176 67
-318 40 -89 -17 -104 -13 -173 40 -26 20 -63 42 -81 50 -37 15 -40 22 -22 61
11 24 10 28 -17 50 -39 31 -46 30 -67 -6 -16 -28 -21 -30 -75 -30 -101 0 -134
36 -97 105 15 28 16 37 4 64 -7 17 -17 31 -22 31 -5 0 -36 -9 -70 -21 -53 -18
-69 -19 -129 -10 -38 6 -95 21 -126 33 -53 19 -76 37 -141 111 -17 19 -43 30
-100 43 -113 25 -141 43 -142 96 0 29 42 85 74 98 40 16 161 10 276 -15z
m-8507 -57 c2 -7 2 -53 -1 -103 -4 -85 -3 -95 28 -167 18 -43 30 -84 27 -93
-11 -27 -32 -16 -52 28 -16 33 -31 47 -73 68 -74 36 -80 44 -43 57 67 24 89
119 42 183 -12 16 -21 31 -21 34 0 11 89 5 93 -7z m4172 -37 c59 -27 92 -63
124 -133 31 -70 42 -81 112 -118 27 -14 62 -44 81 -70 44 -59 201 -164 346
-232 l112 -52 -47 -45 c-56 -54 -104 -141 -166 -302 -70 -180 -104 -239 -160
-274 -22 -14 -40 -16 -97 -11 l-70 7 -35 -35 c-19 -20 -47 -39 -61 -42 -44
-11 -166 3 -224 25 -66 25 -164 80 -157 88 3 3 38 11 78 19 86 16 138 40 202
93 106 88 192 227 204 331 5 45 13 61 44 93 43 46 64 113 56 184 -10 88 -51
94 -134 19 -65 -59 -119 -130 -183 -241 -62 -109 -109 -160 -175 -191 -51 -24
-135 -33 -135 -14 0 6 7 25 16 41 8 17 14 45 12 62 -3 29 -7 32 -39 35 -28 2
-46 -4 -81 -31 -59 -46 -82 -57 -110 -57 -32 0 -48 18 -48 52 0 29 1 29 78 42
19 3 41 15 50 26 9 11 35 23 57 28 47 9 53 31 13 50 -14 7 -84 16 -155 21
-151 10 -175 19 -171 64 2 27 11 36 48 55 27 13 62 22 91 22 42 0 54 5 101 45
29 25 63 48 75 51 23 6 46 47 58 104 12 56 23 70 56 70 24 0 30 5 35 28 3 16
28 54 55 86 27 32 49 66 49 76 0 21 25 50 43 50 7 0 30 -9 52 -19z m-4453 -72
c9 -35 17 -91 17 -124 l1 -60 -26 26 c-28 29 -43 80 -44 151 0 99 27 103 52 7z
m4918 52 c0 -35 -118 -117 -138 -96 -9 9 104 115 123 115 8 0 15 -9 15 -19z
m1154 3 c12 -30 6 -75 -10 -81 -19 -7 -34 13 -34 48 0 40 32 64 44 33z m806
-59 c44 -31 104 -108 119 -156 6 -20 24 -48 40 -63 57 -55 46 -112 -36 -192
-89 -88 -333 -234 -390 -234 -36 0 -53 36 -53 113 0 187 -129 420 -171 310
-14 -36 1 -142 35 -249 34 -107 48 -173 41 -194 -9 -28 -51 -40 -141 -40 -150
0 -185 32 -142 131 24 55 25 68 19 254 -3 103 14 160 59 198 15 13 82 42 149
66 204 71 214 66 282 -127 53 -149 77 -182 134 -182 31 0 35 3 35 26 0 15 -13
69 -30 121 -34 104 -39 186 -14 221 19 27 20 27 64 -3z m-6409 -110 c5 -42 16
-76 29 -92 26 -33 28 -86 3 -81 -24 4 -84 128 -91 185 -4 37 -1 49 13 60 27
19 37 3 46 -72z m6811 -348 c18 -18 57 -73 87 -122 67 -110 121 -169 189 -207
92 -52 106 -104 49 -180 -65 -85 -196 -142 -327 -142 -99 0 -135 18 -150 77
-6 23 -26 76 -45 117 -54 119 -68 275 -29 338 8 12 21 22 28 22 16 0 76 65 76
82 0 22 33 48 61 48 19 0 40 -11 61 -33z m1789 3 c101 -34 175 -69 305 -146
49 -30 126 -69 171 -88 92 -38 134 -66 289 -188 82 -65 118 -101 137 -137 63
-115 117 -313 97 -351 -23 -43 -96 -10 -154 68 -43 59 -142 154 -271 262 -55
47 -140 121 -190 165 -111 100 -203 161 -337 225 -111 53 -193 76 -236 65
l-27 -7 23 -18 c12 -10 73 -46 135 -80 433 -240 481 -271 544 -358 27 -37 107
-134 178 -217 163 -190 185 -224 185 -287 0 -39 -5 -54 -25 -73 -31 -32 -57
-31 -95 3 -25 22 -33 38 -40 88 -18 134 -102 223 -195 209 -39 -5 -46 -3 -72
25 -22 23 -42 33 -79 38 l-49 8 2 46 3 47 -62 3 c-52 3 -64 7 -73 24 -20 40
-36 53 -95 72 -76 26 -123 59 -243 171 -104 97 -191 155 -376 251 -211 109
-218 131 -44 138 106 4 195 -5 281 -30 36 -10 45 -10 52 2 5 8 5 19 0 25 -10
12 15 47 45 63 37 21 123 13 216 -18z m-3599 -140 c43 -90 88 -422 88 -661 0
-225 -23 -305 -87 -303 -40 2 -129 42 -182 83 -29 22 -72 42 -116 53 -38 11
-79 28 -90 39 -20 20 -20 20 3 59 20 35 22 53 22 172 1 101 4 138 15 152 8 11
15 36 15 56 0 111 71 210 150 210 33 0 42 -4 50 -24 5 -13 12 -122 16 -242 6
-170 10 -209 17 -174 4 25 6 166 2 314 -5 246 -4 270 12 288 27 30 65 20 85
-22z m-1946 -111 c59 -41 277 -260 354 -356 32 -39 71 -98 86 -130 25 -50 29
-69 28 -143 -1 -137 -30 -215 -267 -705 -79 -165 -157 -334 -172 -375 -24 -62
-40 -85 -96 -141 -159 -156 -481 -363 -599 -384 -29 -5 -40 -2 -68 23 -42 37
-143 92 -170 92 -24 0 -52 -35 -52 -64 0 -32 30 -55 101 -76 106 -32 132 -65
77 -99 -12 -7 -67 -28 -122 -46 l-101 -33 -52 53 c-39 40 -56 67 -68 109 l-16
55 -52 5 c-29 3 -105 7 -169 10 -137 6 -179 20 -198 66 -18 42 -5 50 85 50 78
0 191 25 316 68 126 44 169 65 271 130 51 32 154 91 228 131 249 134 431 268
417 305 -14 36 -71 18 -179 -58 -84 -58 -349 -204 -583 -321 -289 -145 -369
-155 -562 -67 -48 22 -104 43 -123 47 -67 14 -190 86 -190 112 0 19 43 17 208
-9 104 -16 148 -19 160 -11 14 9 18 35 22 174 5 175 14 209 53 209 33 0 43
-10 74 -70 33 -63 59 -80 48 -30 -10 43 1 92 26 119 29 31 42 16 74 -80 15
-44 34 -83 43 -86 21 -9 42 24 42 64 0 55 20 121 46 148 17 19 33 25 63 25 34
0 42 4 53 27 7 15 28 37 47 48 44 26 100 82 126 126 28 47 52 49 70 5 9 -20
22 -36 30 -36 8 0 75 58 149 128 92 88 152 137 188 154 90 43 210 197 300 383
36 75 43 102 47 162 6 120 -15 104 -173 -134 -85 -129 -144 -183 -282 -257
-60 -33 -175 -99 -256 -147 -216 -128 -228 -133 -613 -214 -143 -31 -325 -70
-405 -87 -80 -16 -179 -31 -220 -32 -70 -1 -79 1 -110 27 -22 19 -40 27 -55
23 -68 -17 -415 130 -415 176 0 6 -20 44 -45 84 -62 99 -78 140 -65 164 12 22
29 25 205 40 72 6 189 22 260 36 251 48 332 53 786 54 l426 0 190 95 c305 151
528 313 595 432 16 29 37 58 46 63 28 17 88 4 138 -31z m3274 -44 c36 -18 99
-97 129 -158 12 -24 28 -75 36 -113 13 -65 18 -73 80 -132 79 -76 85 -106 31
-147 -86 -65 -223 -86 -286 -42 -51 34 -70 67 -80 140 -6 37 -22 95 -36 130
-81 191 -94 225 -94 253 0 52 49 82 138 83 29 1 66 -6 82 -14z m-905 -66 c50
-6 91 -12 92 -13 7 -6 34 -563 31 -651 l-3 -110 -35 3 c-69 5 -295 54 -307 65
-14 14 -39 489 -30 583 13 134 42 149 252 123z m2527 -10 c81 -32 84 -37 48
-74 -16 -17 -30 -38 -30 -46 0 -37 56 -53 81 -23 18 22 64 44 92 44 44 0 112
-57 277 -231 267 -281 370 -382 470 -457 182 -135 212 -189 149 -268 -26 -33
-30 -45 -25 -76 3 -21 9 -56 12 -77 5 -33 3 -41 -15 -51 -52 -27 -123 109
-125 240 -1 41 -4 80 -8 86 -4 6 -36 21 -70 34 -48 17 -76 36 -118 80 -60 62
-94 84 -116 76 -24 -9 -16 -29 49 -123 85 -123 128 -218 134 -298 7 -78 -8
-125 -52 -164 -71 -62 -145 -47 -145 28 0 48 -31 104 -63 115 -18 6 -39 5 -65
-3 -79 -26 -121 8 -50 41 67 32 61 74 -18 119 -36 19 -52 36 -60 60 l-12 34
-61 -3 c-77 -5 -153 13 -186 43 l-25 24 20 52 c25 63 20 70 -52 77 -64 6 -78
15 -78 54 0 70 -52 115 -144 127 -45 5 -51 9 -59 36 -14 45 -23 60 -38 62 -8
1 -36 5 -62 8 -36 5 -56 15 -82 41 -30 29 -41 34 -83 34 -27 0 -75 5 -108 11
-142 26 -159 85 -46 162 25 18 63 47 84 66 36 32 42 33 90 28 33 -4 92 -26
162 -61 106 -52 171 -93 461 -291 147 -100 333 -195 383 -195 111 0 -21 132
-253 252 -131 69 -362 218 -418 270 -111 105 -3 200 155 137z m-1913 -111 c40
-203 70 -331 103 -435 37 -122 33 -145 -31 -164 -117 -35 -156 36 -171 316 -9
174 -21 238 -42 217 -16 -16 -22 -317 -9 -462 13 -145 11 -150 -72 -150 -93 0
-127 68 -127 259 0 72 5 113 20 157 29 82 24 108 -20 114 -32 5 -38 11 -74 82
-21 42 -41 97 -43 122 -5 44 -5 45 28 49 19 2 120 5 225 5 l191 2 22 -112z
m3819 -149 c3 -34 -56 -244 -97 -347 -34 -85 -72 -155 -103 -191 l-30 -34 7
59 c12 93 51 217 110 343 29 64 57 130 61 146 17 72 47 86 52 24z m-5581 -184
c25 -17 22 -37 -10 -72 -37 -41 -87 -24 -87 28 0 53 52 76 97 44z m-414 -124
c145 -100 153 -187 42 -459 -43 -107 -77 -222 -89 -307 -6 -36 -2 -31 44 50
67 121 107 226 131 348 34 172 60 196 193 179 157 -21 191 -45 143 -102 -32
-37 -43 -89 -62 -287 -26 -265 -45 -404 -64 -483 -11 -41 -27 -115 -35 -165
-9 -49 -38 -160 -65 -245 -27 -85 -58 -187 -70 -225 -11 -39 -36 -95 -54 -125
-44 -75 -55 -104 -62 -180 -13 -123 -63 -200 -131 -200 -39 0 -69 32 -85 94
-19 74 -40 105 -84 126 -49 24 -102 26 -152 5 -54 -23 -72 -43 -103 -111 -19
-41 -42 -73 -75 -100 -26 -21 -69 -59 -97 -83 -40 -36 -51 -42 -59 -30 -15 24
-10 91 10 136 16 34 30 47 74 67 63 30 160 120 155 145 -3 13 -15 16 -72 13
-49 -2 -91 4 -143 19 -92 28 -108 19 -74 -41 26 -47 21 -77 -16 -86 -28 -7
-41 5 -187 170 -32 37 -77 76 -100 88 -59 29 -76 47 -76 80 0 33 25 98 37 98
17 0 33 -24 33 -50 0 -14 5 -31 12 -38 21 -21 69 -14 94 13 13 14 34 25 47 25
35 0 46 19 58 92 9 59 33 110 53 112 5 1 14 -17 21 -39 l11 -40 17 31 c9 17
21 59 26 92 13 82 25 102 60 102 42 0 52 20 62 117 14 140 22 149 76 86 28
-34 33 -36 47 -23 19 19 22 74 12 212 -8 92 -6 111 8 133 10 16 26 25 41 25
33 0 44 29 52 134 8 108 22 140 73 166 45 23 54 38 70 122 16 82 81 210 123
242 20 15 44 48 56 76 12 28 24 50 27 50 3 0 24 -13 47 -29z m3461 -1 c54 -20
16 -94 -49 -94 -60 0 -87 47 -52 92 11 14 66 16 101 2z m-199 -191 c108 -18
215 -56 267 -94 60 -44 102 -101 174 -237 62 -116 141 -233 275 -410 161 -212
200 -296 207 -449 5 -121 -14 -197 -63 -246 -26 -26 -41 -33 -72 -33 -62 0
-219 40 -243 62 -32 30 -22 60 28 83 67 31 52 62 -60 125 -54 29 -118 90 -118
110 0 15 30 40 48 40 9 0 23 4 31 9 12 8 4 22 -37 73 -29 35 -57 81 -63 103
-12 46 -31 86 -60 132 -11 18 -26 68 -33 112 -7 45 -19 88 -27 97 -7 9 -37 31
-66 50 -35 22 -66 53 -88 89 -20 30 -56 78 -80 105 -47 53 -75 99 -75 123 0 8
-25 42 -55 76 -90 101 -75 111 110 80z m-861 -153 c39 -18 96 -44 126 -57 36
-16 80 -49 131 -99 67 -65 80 -85 104 -150 15 -41 43 -102 61 -135 18 -33 39
-87 48 -121 9 -33 29 -90 45 -126 17 -36 57 -137 90 -225 32 -87 84 -216 115
-286 70 -161 89 -231 89 -333 0 -65 -5 -91 -25 -136 -50 -108 -153 -178 -263
-178 -63 0 -105 18 -105 46 0 8 10 28 21 44 l22 29 -27 50 c-32 62 -32 71 -2
71 38 0 76 18 76 36 0 23 -74 94 -98 94 -11 0 -32 14 -46 30 -25 31 -35 59
-55 157 -6 28 -24 73 -41 99 -42 68 -40 74 25 74 84 0 85 13 11 119 -26 38
-30 54 -37 152 -10 136 -18 164 -68 248 -36 60 -71 159 -71 202 0 30 -48 76
-140 134 l-90 57 17 36 c30 70 29 87 -12 117 -105 81 -38 116 99 51z m1480 -5
c147 -78 485 -384 517 -469 14 -36 12 -39 -35 -90 -45 -48 -63 -88 -49 -107 5
-6 20 -18 34 -27 34 -21 51 -86 51 -192 0 -90 -20 -131 -63 -131 -22 0 -24 4
-27 60 -3 85 -7 98 -47 145 -19 23 -35 49 -35 58 0 36 -67 132 -318 460 -118
153 -177 283 -145 315 14 15 64 5 117 -22z m-3004 -53 c48 -30 74 -135 101
-402 14 -144 7 -220 -26 -285 -51 -102 -67 -182 -72 -376 -2 -99 0 -261 5
-360 l9 -180 -31 -52 c-54 -93 -128 -185 -174 -214 -56 -35 -104 -43 -183 -29
-87 16 -125 35 -143 75 -32 67 -11 118 48 115 50 -3 56 -1 56 20 0 24 -28 40
-72 40 -18 0 -48 9 -66 20 -27 16 -33 26 -30 47 2 22 11 30 38 38 58 17 60 20
60 105 0 43 4 81 9 85 6 3 33 -4 62 -15 29 -11 55 -18 57 -15 2 2 -1 50 -8
107 -6 57 -10 123 -8 148 3 40 6 45 25 42 52 -7 53 61 2 226 -16 52 -29 112
-29 133 0 34 3 39 23 39 12 0 31 -7 41 -15 28 -21 63 -19 71 5 3 11 -1 59 -10
107 -10 53 -15 121 -13 172 3 89 5 85 -52 111 -23 11 -24 47 -1 59 17 9 22 7
32 -11 12 -23 12 -23 22 7 14 43 45 74 88 85 20 6 39 17 43 25 3 8 0 42 -6 75
-14 80 -3 95 63 87 26 -3 57 -12 69 -19z m411 -36 c30 -34 80 -222 120 -457
29 -170 33 -406 7 -477 -17 -47 -45 -231 -73 -483 -55 -497 -159 -761 -333
-849 -28 -14 -82 -33 -120 -41 -45 -11 -84 -27 -107 -45 -22 -17 -55 -32 -82
-36 -80 -12 -410 3 -533 24 -438 75 -1300 355 -1300 422 0 17 41 11 75 -10 17
-11 65 -26 106 -34 41 -8 175 -44 299 -80 364 -106 742 -203 878 -227 167 -29
404 -33 444 -7 20 13 24 23 20 43 -3 19 4 38 25 68 47 65 102 181 119 250 8
34 39 134 69 222 91 271 102 377 64 611 -11 69 -17 140 -14 158 4 17 24 83 45
146 73 217 77 329 24 771 l-6 57 83 9 c110 11 156 3 190 -35z m392 -2 c36 -28
91 -50 126 -50 20 0 34 -7 41 -20 14 -26 6 -39 -36 -56 -39 -16 -42 -35 -14
-81 21 -35 72 -73 77 -58 15 43 31 60 58 63 44 4 89 -29 114 -84 27 -58 45
-74 82 -74 36 0 64 36 73 92 14 89 55 111 101 57 91 -109 141 -301 155 -596 5
-106 17 -239 25 -295 31 -201 44 -315 50 -448 7 -148 -6 -313 -27 -357 l-14
-28 -99 1 c-106 1 -174 15 -199 40 -32 31 -63 217 -71 424 -8 181 -15 260 -24
260 -22 0 -58 -301 -69 -579 -7 -182 -10 -206 -27 -215 -10 -6 -30 -21 -46
-34 -16 -13 -33 -21 -38 -18 -5 4 -13 36 -16 72 -9 83 -24 98 -83 90 -84 -11
-161 26 -189 91 -17 42 -9 71 23 83 33 13 47 53 42 122 -3 42 -10 64 -26 81
-17 18 -22 35 -22 80 0 73 15 104 62 128 21 11 38 27 38 36 0 9 -13 58 -30
110 -16 51 -30 113 -30 137 0 50 -39 173 -81 260 -34 68 -38 138 -14 263 21
111 19 148 -15 243 -55 156 -33 280 49 280 16 0 40 -9 54 -20z m1472 -125 c71
-54 171 -213 210 -335 10 -30 52 -143 95 -250 110 -275 149 -410 169 -580 11
-92 4 -149 -19 -160 -75 -35 -95 -48 -134 -86 -63 -60 -98 -117 -107 -175 -9
-54 -27 -85 -41 -71 -4 4 -10 100 -12 213 -4 222 -15 301 -66 454 -28 85 -52
131 -157 303 -109 179 -215 533 -183 616 8 23 14 27 33 21 84 -27 129 -13 141
46 7 36 28 38 71 4z m-5712 -96 c18 -14 34 -45 52 -101 28 -90 27 -109 -5
-101 -24 6 -36 29 -45 87 -5 28 -18 50 -43 74 -36 32 -36 34 -18 48 25 18 28
18 59 -7z m-281 -71 c23 -18 28 -87 9 -117 -23 -36 -110 35 -96 79 4 11 18 27
33 35 33 18 35 18 54 3z m7758 -156 c0 -19 -41 -62 -77 -81 -25 -13 -83 -15
-83 -3 0 21 112 102 141 102 12 0 19 -7 19 -18z m500 -6 c0 -24 -45 -81 -65
-81 -22 0 -24 21 -6 68 8 21 17 27 41 27 19 0 30 -5 30 -14z m-150 -219 c0
-25 -103 -107 -117 -93 -4 3 -2 19 3 33 16 47 114 98 114 60z m-476 -425 c9
-14 -30 -86 -94 -172 -116 -156 -177 -210 -437 -385 -133 -90 -272 -186 -308
-214 -64 -50 -141 -81 -196 -81 -30 0 -112 -26 -273 -85 -55 -20 -165 -54
-245 -76 -80 -22 -207 -63 -281 -91 -74 -28 -216 -76 -315 -106 -168 -50 -187
-54 -292 -55 -70 -1 -116 2 -123 9 -17 17 6 29 100 51 102 24 404 114 630 188
91 29 220 68 287 84 188 48 281 79 360 122 39 21 127 57 195 79 75 25 137 53
160 71 108 86 297 225 398 294 137 92 193 144 222 205 30 61 94 129 143 151
44 20 61 23 69 11z m-870 -248 c18 -17 22 -69 6 -79 -13 -8 -77 23 -84 41 -6
17 27 54 48 54 8 0 22 -7 30 -16z m-2427 -368 c7 -22 11 -42 8 -44 -11 -11
-55 19 -61 42 -14 59 32 61 53 2z m-2987 -17 c75 -24 204 -88 240 -118 l25
-20 -41 -1 c-88 0 -339 118 -319 151 9 13 24 11 95 -12z m1310 -114 c5 -3 10
-16 10 -29 0 -28 -36 -49 -76 -44 -25 3 -29 8 -32 38 -4 43 17 62 58 50 16 -5
34 -11 40 -15z m278 -147 c18 -18 14 -36 -13 -54 -47 -31 -86 6 -48 48 19 21
44 23 61 6z m2086 -337 c13 -20 -225 -104 -339 -121 -144 -20 -517 -32 -684
-22 -88 6 -169 15 -178 21 -15 8 -12 13 27 29 81 36 185 46 411 39 217 -7 300
-1 574 42 137 22 182 25 189 12z"/>
<path d="M7323 12368 c-11 -13 -28 -37 -36 -54 -18 -34 -67 -80 -116 -106 -27
-15 -31 -22 -26 -40 12 -39 53 -85 81 -92 69 -18 163 63 185 157 18 81 -10
157 -59 157 -5 0 -18 -10 -29 -22z"/>
<path d="M6988 12003 c-2 -32 3 -68 13 -77 5 -5 42 -11 83 -12 40 -1 83 -7 94
-13 33 -18 87 -13 116 10 14 11 26 24 26 29 0 21 -211 80 -287 80 -34 0 -43
-4 -45 -17z"/>
<path d="M7007 11824 c-12 -12 -8 -65 14 -184 32 -177 61 -225 83 -134 24 103
-54 361 -97 318z"/>
<path d="M6877 10117 c-4 -21 -15 -41 -23 -44 -51 -19 -75 -170 -81 -509 -7
-379 11 -500 82 -544 40 -25 57 -25 78 -2 28 31 20 58 -32 109 -61 60 -80 117
-88 263 -5 108 -1 150 52 509 14 96 25 193 23 215 l-3 41 -8 -38z"/>
<path d="M5641 8912 c-20 -14 -6 -46 39 -86 43 -39 58 -42 125 -25 62 16 73
32 41 62 -39 36 -175 68 -205 49z"/>
<path d="M3746 10912 c-6 -10 38 -54 71 -71 31 -16 73 -14 73 3 0 41 -124 99
-144 68z"/>
<path d="M4076 9501 c-4 -6 -4 -16 0 -22 11 -19 108 -59 142 -59 29 0 33 3 30
23 -5 39 -153 89 -172 58z"/>
<path d="M3110 10840 c0 -16 21 -100 46 -187 91 -315 113 -421 184 -873 39
-249 109 -537 154 -636 91 -196 335 -502 450 -563 46 -25 41 -3 -20 84 -179
257 -310 460 -349 540 -44 90 -102 276 -150 480 -24 104 -46 223 -95 535 -12
74 -35 173 -52 220 -16 47 -51 153 -77 235 -50 157 -65 195 -81 195 -6 0 -10
-13 -10 -30z"/>
<path d="M2181 9904 c-1 -39 4 -58 20 -75 l20 -24 -6 43 c-3 24 -12 58 -19 75
l-14 32 -1 -51z"/>
<path d="M2285 9587 c-23 -89 95 -448 219 -671 48 -85 61 -93 53 -33 -12 84
-223 687 -250 715 -14 14 -16 13 -22 -11z"/>
<path d="M2650 8653 c0 -22 30 -73 77 -130 58 -72 88 -46 37 32 -54 81 -114
133 -114 98z"/>
<path d="M2596 8021 c12 -11 96 -31 133 -31 34 0 51 18 30 31 -18 11 -176 12
-163 0z"/>
<path d="M3547 7933 c-16 -15 -6 -43 17 -49 35 -8 89 -1 94 14 7 22 -93 54
-111 35z"/>
<path d="M1235 8510 c-15 -24 57 -134 227 -347 91 -115 130 -153 154 -153 24
0 15 39 -12 57 -34 22 -85 91 -164 223 -74 123 -116 186 -142 212 -19 19 -53
24 -63 8z"/>
<path d="M1842 7839 c2 -8 45 -45 94 -82 49 -38 133 -106 186 -152 110 -95
166 -134 333 -235 64 -39 152 -95 196 -124 129 -89 550 -251 680 -263 54 -5
99 7 99 27 0 10 -61 34 -240 95 -326 110 -592 248 -835 430 -69 52 -139 101
-157 109 -18 9 -66 42 -106 74 -40 32 -97 73 -126 90 -60 37 -132 55 -124 31z"/>
<path d="M6930 8303 l1 -58 19 24 c23 26 26 61 8 79 -22 22 -28 12 -28 -45z"/>
<path d="M846 7308 c-41 -63 -62 -198 -34 -226 39 -39 77 8 85 105 9 110 -17
172 -51 121z"/>
<path d="M4130 6523 c0 -25 80 -97 141 -127 105 -51 311 -75 340 -40 32 39
-29 73 -150 85 -135 13 -221 41 -249 80 -17 25 -82 27 -82 2z"/>
<path d="M7343 6921 c-35 -22 -114 -118 -163 -197 -30 -50 -31 -53 -17 -86 18
-42 74 -108 93 -108 24 0 117 206 143 317 9 38 10 57 1 72 -13 26 -17 26 -57
2z"/>
<path d="M7050 6861 c-37 -15 -73 -47 -95 -86 -49 -83 -23 -110 53 -55 45 32
72 75 72 114 0 28 -9 36 -30 27z"/>
<path d="M2821 5194 c-87 -15 -171 -46 -171 -63 0 -33 115 -48 236 -31 103 15
202 46 265 83 l44 27 -145 -1 c-80 -1 -183 -7 -229 -15z"/>
<path d="M5081 5507 c-44 -15 -50 -33 -17 -48 51 -24 187 25 145 52 -20 12
-87 10 -128 -4z"/>
<path d="M3347 4224 c-42 -28 -49 -54 -14 -54 31 0 67 27 67 50 0 30 -14 31
-53 4z"/>
<path d="M5236 3731 c-43 -47 -89 -261 -56 -261 12 0 30 34 30 58 0 11 12 43
26 71 27 52 45 151 27 151 -6 0 -18 -9 -27 -19z"/>
<path d="M5115 3407 c-20 -31 -12 -70 13 -65 11 2 18 15 20 37 5 46 -12 60
-33 28z"/>
<path d="M1396 2925 c-61 -21 -67 -35 -17 -35 39 0 49 -5 92 -50 55 -57 87
-64 113 -25 l16 25 55 -45 c60 -48 114 -80 122 -71 17 17 -49 134 -91 161 -14
9 -56 21 -93 26 -37 4 -84 13 -103 19 -43 12 -46 12 -94 -5z"/>
<path d="M4582 2140 c-54 -109 -91 -254 -99 -395 -8 -134 1 -133 70 12 66 138
78 196 75 344 l-3 124 -43 -85z"/>
<path d="M4339 1379 c-48 -48 -76 -153 -43 -166 41 -16 118 114 96 162 -14 30
-26 31 -53 4z"/>
<path d="M5749 625 c-8 -8 -53 -24 -99 -36 -47 -12 -89 -25 -94 -29 -14 -14 3
-59 28 -75 21 -14 30 -14 95 0 82 19 101 38 101 102 0 47 -10 59 -31 38z"/>
<path d="M6637 2193 c-11 -10 -8 -128 5 -185 10 -46 12 -50 19 -28 9 32 11
148 3 189 -6 30 -14 38 -27 24z"/>
<path d="M6697 1724 c-11 -11 -8 -46 8 -102 22 -74 38 -67 33 13 -4 62 -24
105 -41 89z"/>
<path d="M9254 7882 c-73 -73 -100 -93 -149 -111 -142 -51 -193 -84 -405 -261
-69 -57 -154 -128 -190 -158 -184 -152 -263 -326 -226 -499 18 -90 50 -163 70
-163 22 0 29 50 21 153 -6 73 -4 101 8 130 17 40 32 45 63 22 35 -26 41 -18
48 67 7 83 25 128 50 128 7 0 30 -13 51 -30 21 -16 42 -30 47 -30 12 0 35 55
48 116 16 69 23 75 85 68 l53 -7 40 80 c48 95 97 143 215 208 47 27 110 66
138 88 80 60 123 77 204 76 39 0 86 -6 105 -14 118 -46 122 -47 138 -31 47 47
-188 256 -288 256 -33 0 -46 -10 -126 -88z"/>
<path d="M8665 7873 c-40 -51 -105 -161 -105 -177 0 -3 7 -6 15 -6 19 0 91
109 100 150 4 17 10 30 15 30 14 0 40 30 40 46 0 27 -20 14 -65 -43z"/>
<path d="M8315 7521 c-43 -20 -125 -87 -125 -102 0 -5 17 -9 38 -9 75 0 193
94 151 121 -18 11 -17 12 -64 -10z"/>
<path d="M7957 7185 c-41 -28 -70 -75 -61 -99 10 -27 41 -18 72 22 73 93 68
130 -11 77z"/>
<path d="M9949 5194 c80 -25 111 -28 111 -11 0 21 -22 27 -93 26 l-62 -1 44
-14z"/>
<path d="M7978 4403 c-44 -7 -34 -35 33 -97 69 -64 115 -90 177 -101 76 -12
122 23 122 95 0 47 -22 60 -98 58 -54 -2 -73 2 -97 19 -31 22 -89 33 -137 26z"/>
</g>
</svg>
