<?xml version="1.0" encoding="utf-8"?>
<svg viewBox="0 0 3000 1000" xmlns="http://www.w3.org/2000/svg" xmlns:xlink="http://www.w3.org/1999/xlink">
  <defs>
    <linearGradient id="b-1" x1="601.92" x2="601.92" y1="781.05" y2="677.14" xlink:href="#gradient-1"/>
    <linearGradient id="gradient-1" x1="1380.68" x2="1380.68" y1="824.17" y2="713.24" gradientTransform="matrix(-1 0 0 1 1755 0)" gradientUnits="userSpaceOnUse">
      <stop offset="0.18" stop-color="#ffce7b" class="stopColorffce7b svgShape"/>
      <stop offset="0.46" stop-color="#fcbb74" class="stopColorfcbb74 svgShape"/>
      <stop offset="0.78" stop-color="#f8a66b" class="stopColorf8a66b svgShape"/>
    </linearGradient>
  </defs>
  <g id="SvgjsG1008" transform="matrix(5.466378, 0, 0, 5.466378, -1.162391, -1345.638428)" style="">
    <svg xmlns="http://www.w3.org/2000/svg" viewBox="0 0 1920 1080" width="550" height="550">
      <defs>
        <linearGradient id="a" x1="776.55" x2="814.01" y1="635.35" y2="1064.39" gradientTransform="matrix(-1 0 0 1 1755 0)" gradientUnits="userSpaceOnUse">
          <stop offset="0.18" stop-color="#ffce7b" class="stopColorffce7b svgShape"/>
          <stop offset="0.78" stop-color="#f8a66b" class="stopColorf8a66b svgShape"/>
        </linearGradient>
        <linearGradient id="f" x1="372.51" x2="1426.24" y1="575.94" y2="1700.03" xlink:href="#a"/>
        <linearGradient id="b" x1="1380.68" x2="1380.68" y1="824.17" y2="713.24" gradientTransform="matrix(-1 0 0 1 1755 0)" gradientUnits="userSpaceOnUse">
          <stop offset="0.18" stop-color="#ffce7b" class="stopColorffce7b svgShape"/>
          <stop offset="0.46" stop-color="#fcbb74" class="stopColorfcbb74 svgShape"/>
          <stop offset="0.78" stop-color="#f8a66b" class="stopColorf8a66b svgShape"/>
        </linearGradient>
        <linearGradient id="g" x1="1433.27" x2="1438.31" y1="821.84" y2="774.24" xlink:href="#b"/>
        <linearGradient id="h" x1="1433.17" x2="1436.98" y1="813.99" y2="778.01" xlink:href="#b"/>
        <linearGradient id="i" x1="1438.98" x2="1444.88" y1="827.93" y2="772.28" xlink:href="#b"/>
        <linearGradient id="j" x1="1422.63" x2="1431.65" y1="844.63" y2="759.53" xlink:href="#b"/>
        <linearGradient id="k" x1="1431.52" x2="1436.55" y1="820.78" y2="773.32" xlink:href="#b"/>
        <linearGradient id="l" x1="1507.28" x2="1507.45" y1="761.94" y2="744.32" xlink:href="#b"/>
        <linearGradient id="m" x1="1490.53" x2="1490.74" y1="760.79" y2="738.38" xlink:href="#b"/>
        <linearGradient id="n" x1="1506.23" x2="1506.33" y1="757.72" y2="747.6" xlink:href="#b"/>
        <linearGradient id="o" x1="1519.52" x2="1519.87" y1="772.97" y2="734.9" xlink:href="#b"/>
        <linearGradient id="p" x1="1498.32" x2="1498.58" y1="763.54" y2="735.73" xlink:href="#b"/>
        <linearGradient id="q" x1="1505.56" x2="1505.73" y1="760.55" y2="741.61" xlink:href="#b"/>
        <linearGradient id="r" x1="1474.19" x2="1474.78" y1="781.72" y2="718.85" xlink:href="#b"/>
        <linearGradient id="s" x1="1482.93" x2="1483.51" y1="781.79" y2="718.99" xlink:href="#b"/>
        <linearGradient id="t" x1="1511.39" x2="1511.97" y1="782.13" y2="719.25" xlink:href="#b"/>
        <linearGradient id="u" x1="1280" x2="1280.21" y1="797.71" y2="775.3" xlink:href="#b"/>
        <linearGradient id="v" x1="1295.71" x2="1295.8" y1="794.64" y2="784.52" xlink:href="#b"/>
        <linearGradient id="w" x1="1296.75" x2="1296.92" y1="798.86" y2="781.24" xlink:href="#b"/>
        <linearGradient id="x" x1="1287.8" x2="1288.05" y1="800.46" y2="772.65" xlink:href="#b"/>
        <linearGradient id="y" x1="1295.03" x2="1295.21" y1="797.47" y2="778.53" xlink:href="#b"/>
        <linearGradient id="z" x1="1308.99" x2="1309.34" y1="809.89" y2="771.81" xlink:href="#b"/>
        <linearGradient id="A" x1="1263.67" x2="1264.25" y1="818.64" y2="755.77" xlink:href="#b"/>
        <linearGradient id="B" x1="1272.4" x2="1272.98" y1="818.71" y2="755.91" xlink:href="#b"/>
        <linearGradient id="C" x1="1300.86" x2="1301.44" y1="819.05" y2="756.17" xlink:href="#b"/>
        <linearGradient id="D" x1="1319.41" x2="1321.15" y1="797.12" y2="780.7" xlink:href="#b"/>
        <linearGradient id="E" x1="1314.38" x2="1319.49" y1="812.9" y2="764.7" xlink:href="#b"/>
        <linearGradient id="F" x1="1317.22" x2="1323.96" y1="821.1" y2="757.41" xlink:href="#b"/>
        <linearGradient id="G" x1="1320.29" x2="1327.54" y1="822.65" y2="754.25" xlink:href="#b"/>
        <linearGradient id="H" x1="1368" x2="1377.1" y1="838.51" y2="752.65" xlink:href="#b"/>
        <linearGradient id="I" x1="1527.06" x2="1536.07" y1="860.78" y2="775.69" xlink:href="#b"/>
        <linearGradient id="J" x1="1537.69" x2="1542.74" y1="837.99" y2="790.39" xlink:href="#b"/>
        <linearGradient id="K" x1="1537.59" x2="1541.41" y1="830.15" y2="794.16" xlink:href="#b"/>
        <linearGradient id="L" x1="1543.4" x2="1549.3" y1="844.08" y2="788.43" xlink:href="#b"/>
        <linearGradient id="M" x1="1535.94" x2="1540.97" y1="836.94" y2="789.47" xlink:href="#b"/>
        <linearGradient id="N" x1="1530.42" x2="1530.51" y1="830.41" y2="820.29" xlink:href="#b"/>
        <linearGradient id="O" x1="1531.46" x2="1531.63" y1="834.63" y2="817.01" xlink:href="#b"/>
        <linearGradient id="P" x1="1514.71" x2="1514.92" y1="833.48" y2="811.07" xlink:href="#b"/>
        <linearGradient id="Q" x1="1529.74" x2="1529.92" y1="833.24" y2="814.29" xlink:href="#b"/>
        <linearGradient id="R" x1="1522.51" x2="1522.76" y1="836.23" y2="808.42" xlink:href="#b"/>
        <linearGradient id="S" x1="1543.7" x2="1544.05" y1="845.65" y2="807.58" xlink:href="#b"/>
        <linearGradient id="T" x1="1498.38" x2="1498.96" y1="854.41" y2="791.53" xlink:href="#b"/>
        <linearGradient id="U" x1="1554.55" x2="1555.13" y1="827.87" y2="765" xlink:href="#b"/>
        <linearGradient id="V" x1="1590.65" x2="1591.24" y1="822.11" y2="759.23" xlink:href="#b"/>
        <linearGradient id="W" x1="1516.13" x2="1516.72" y1="815.25" y2="752.45" xlink:href="#b"/>
        <linearGradient id="X" x1="1580.33" x2="1580.91" y1="808.33" y2="745.53" xlink:href="#b"/>
        <linearGradient id="Y" x1="1392.18" x2="1401.28" y1="911.2" y2="825.33" xlink:href="#b"/>
        <linearGradient id="Z" x1="1610.84" x2="1619.94" y1="828.13" y2="742.26" xlink:href="#b"/>
        <linearGradient id="aa" x1="1220.13" x2="1229.14" y1="788.09" y2="703" xlink:href="#b"/>
        <linearGradient id="ab" x1="1230.77" x2="1235.81" y1="765.31" y2="717.71" xlink:href="#b"/>
        <linearGradient id="ac" x1="1230.67" x2="1234.48" y1="757.46" y2="721.47" xlink:href="#b"/>
        <linearGradient id="ad" x1="1229.01" x2="1234.04" y1="764.25" y2="716.79" xlink:href="#b"/>
        <linearGradient id="ae" x1="1236.48" x2="1242.37" y1="771.4" y2="715.75" xlink:href="#b"/>
        <linearGradient id="af" x1="1247.62" x2="1248.2" y1="755.19" y2="692.31" xlink:href="#b"/>
        <linearGradient id="ag" x1="1283.73" x2="1284.31" y1="749.42" y2="686.54" xlink:href="#b"/>
        <linearGradient id="ah" x1="1209.21" x2="1209.79" y1="742.56" y2="679.77" xlink:href="#b"/>
        <linearGradient id="ai" x1="1273.4" x2="1273.98" y1="735.64" y2="672.84" xlink:href="#b"/>
        <linearGradient id="aj" x1="1303.91" x2="1313.01" y1="755.45" y2="669.58" xlink:href="#b"/>
        <linearGradient id="ak" x1="1624.04" x2="1624.25" y1="701.95" y2="679.54" xlink:href="#b"/>
        <linearGradient id="al" x1="1639.75" x2="1639.84" y1="698.88" y2="688.76" xlink:href="#b"/>
        <linearGradient id="am" x1="1640.79" x2="1640.96" y1="703.1" y2="685.48" xlink:href="#b"/>
        <linearGradient id="an" x1="1653.03" x2="1653.38" y1="714.13" y2="676.05" xlink:href="#b"/>
        <linearGradient id="ao" x1="1639.07" x2="1639.25" y1="701.71" y2="682.77" xlink:href="#b"/>
        <linearGradient id="ap" x1="1631.84" x2="1632.09" y1="704.7" y2="676.89" xlink:href="#b"/>
        <linearGradient id="aq" x1="1607.71" x2="1608.29" y1="722.88" y2="660.01" xlink:href="#b"/>
        <linearGradient id="ar" x1="1616.44" x2="1617.02" y1="722.95" y2="660.15" xlink:href="#b"/>
        <linearGradient id="as" x1="1644.9" x2="1645.48" y1="723.29" y2="660.41" xlink:href="#b"/>
        <linearGradient id="at" x1="1658.42" x2="1663.53" y1="717.14" y2="668.94" xlink:href="#b"/>
        <linearGradient id="au" x1="1663.45" x2="1665.19" y1="701.36" y2="684.94" xlink:href="#b"/>
        <linearGradient id="av" x1="1664.33" x2="1671.58" y1="726.89" y2="658.49" xlink:href="#b"/>
        <linearGradient id="aw" x1="1661.26" x2="1668" y1="725.34" y2="661.65" xlink:href="#b"/>
        <linearGradient id="ax" x1="1712.04" x2="1721.14" y1="742.75" y2="656.89" xlink:href="#b"/>
        <linearGradient id="ay" x1="152.97" x2="152.97" y1="712.31" y2="657.93" xlink:href="#b"/>
        <linearGradient id="az" x1="601.92" x2="601.92" y1="781.05" y2="677.14" xlink:href="#b"/>
        <linearGradient id="aA" x1="409.77" x2="409.77" y1="870.53" y2="763.72" xlink:href="#b"/>
        <linearGradient id="aC" x1="432.14" x2="435.96" y1="861.3" y2="825.31" xlink:href="#b"/>
        <linearGradient id="c" x1="1788.47" x2="2096.88" y1="62.51" y2="62.51" gradientUnits="userSpaceOnUse">
          <stop offset="0.04" stop-color="#7a9833" class="stopColor7a9833 svgShape"/>
          <stop offset="0.99" stop-color="#9fb435" class="stopColor9fb435 svgShape"/>
        </linearGradient>
        <linearGradient id="dx" x1="1010.95" x2="1246.01" y1="1053.83" y2="1053.83" gradientTransform="matrix(-1 0 0 1 2835.54 0)" xlink:href="#c"/>
        <linearGradient id="d" x1="1291.32" x2="973.56" y1="525.06" y2="785.04" gradientTransform="matrix(-1 0 0 1 2835.54 0)" gradientUnits="userSpaceOnUse">
          <stop offset="0.34" stop-color="#9fb435" class="stopColor9fb435 svgShape"/>
          <stop offset="0.83" stop-color="#2a5f5d" class="stopColor2a5f5d svgShape"/>
        </linearGradient>
        <linearGradient id="dy" x1="816.87" x2="1598.35" y1="624.06" y2="300.22" xlink:href="#d"/>
        <linearGradient id="dz" x1="1629.46" x2="1800.86" y1="927.08" y2="927.08" xlink:href="#d"/>
        <linearGradient id="dA" x1="894.41" x2="1349.35" y1="927.46" y2="927.46" gradientTransform="matrix(-1 0 0 1 2835.54 0)" xlink:href="#c"/>
        <clipPath id="e">
          <path fill="none" d="M0 0h1920v1080H0z"/>
        </clipPath>
        <clipPath id="do">
          <path fill="none" d="M-2.58 393.76h1929.82v530.58H-2.58z"/>
        </clipPath>
      </defs>
      <g clip-path="url(#e)" data-name="Layer 1" fill="#000000" class="color000 svgShape">
        <path fill="#ffffff" d="M0 0h1920v1080H0z" class="colorfff svgShape"/>
        <path fill="url(#a)" d="M1006 541.6c94.69-8.4 189.93-14 284.89-15.57 40.87-.69 88.12 7.69 127.43-6.67 40.36-14.74 74.72-48.21 117.77-53.76 28.62-3.7 60.18 5.72 84.73-11.53 8.62-6.06 15.5-15 24.08-21.07 12.23-8.72 26.95-11.18 41.18-13.68a1348.59 1348.59 0 0 0 256-71.85c-.79.3-1 29.14-1.08 57.82-.1 25.66-.15 51.2-.52 56.07-3 38.28-14.14 77-15.6 115-2.88 74.83 2.35 152.89 2.35 228.3v290.57H-5.49V578.35s202.22 8.08 520.85 8.08c165.31 0 326.33-30.24 490.64-44.83Z" style="" transform="matrix(1.123275472283936, 0, 0, 1.0036730693754876, 0.6767826490731816, -4.022927226336833)"/>
        <path fill="url(#f)" d="M366.82 969.69c23.67-3 47.29-6.45 70.86-10.09 146.8-22.7 296.59-55 444.41-25.08 77.1 15.6 150.47 50.65 227.23 65.59 80.59 15.68 163.52 22.61 244.37 5.45 31.48-6.69 62.56-17.83 94.44-21.67 25.71-3.11 49.5-16.28 67.88-38.5 15.58-18.83 26.12-43.85 44.74-58.28 12.79-9.92 28.17-13.82 42.07-21.37 17.16-9.33 30.62-24 44.71-38.49 11.5-11.82 26-19.31 39.33-28.54 30.6-21.27 62.23-42.23 98-47.84 39.79-6.25 83.67 9.68 117.81-19.5 8.72-7.46 16.16-17.45 24.16-26.33.75 29 1.46 57.89 1.46 86.43v299.4H1.41V952.11c71.51 1.27 140.26 25.21 212.39 26.89 51.14 1.23 102.2-2.91 153.02-9.31Z"/>
        <g style="mix-blend-mode:multiply" opacity=".8" fill="#000000" class="color000 svgShape">
          <path fill="#d9abad" d="M1517.71 971.05c-3.06 2.29-6 4.64-8.82 7.09 1.89-2 3.77-4 5.66-6ZM1398.4 911.09a68 68 0 0 0-4.21 6.77l2-5.32ZM1558.87 987.33c-71.78 8.66-157.06 38.95-254.56 107.51l177.5-16.68 28.8-44.41-17.61 44.67 60.07 10.4 9.15-53.39.34 51.9 30.37 4.78 17.74-4 14.85-47 1.78 43.24 49.58-11.19 4.91-17.5-.43 16.49 116-26.19a305.11 305.11 0 0 0-39.15-24.3c1.55-1.37 3.09-2.73 4.62-4.11-4.44-1.37-8.83-3-13.18-4.69-.91 1.06-1.82 2.12-2.71 3.19q-7.12-3.37-14.88-6.58l2.42-2.42-.92-.85c-8.65-3.69-17.29-7.45-26.19-10.26-11-3.48-22.33-6.07-33.55-8.81-17.93-4.38-36.06-8-54.6-9.5q-2.79 3.6-5.71 7.1a368.69 368.69 0 0 0-46.24 1.7q6-4.7 11.86-9.54-6.87.1-13.77.35-3.08 5.09-6.49 10.09Zm75.61-1.45 2.31-1.7c1.37.7 3 1.5 4.82 2.4q-3.52-.39-7.13-.7Z" class="colord9abad svgShape"/>
          <path fill="#d9abad" d="M1395.58 918.87c24.33-12.46 45.46-28 61-44.85-14.21 23.68-36.47 46.44-58.51 68.92 20.48-6 36.17-19.24 47-32.15s18.76-26.47 32.34-38.68c16.08-14.46 38.73-25.76 60.77-36.66-50.56 30.3-76.27 71.64-99.33 110.44 37.82-22.33 63.58-51.06 88.49-78.87 12.64-14.1 25.57-28.4 43-40.83 32.79-23.39 77.26-37.33 119.62-50.27-51.29 23.5-104.82 48.47-139 82.12-17.42 17.15-28.74 35.57-43.22 53.38-13.32 16.38-29.31 32.24-45.26 48.05 81.22-43.08 139.27-100.88 203.81-154.08 12.28-10.12 25.12-20.29 40.79-28.27 32.67-16.65 71.9-21.18 108.33-24.91l-65.63 29.26c-28.55 12.73-57.92 25.94-79.59 43.58-23.11 18.81-35 40.62-48.4 61.61a562.38 562.38 0 0 1-36.3 50.34c-25.24 9-48.87 20-67.78 34.07l15-5.31c-8.07 4.43-15.83 9.11-23.17 14.06a348.18 348.18 0 0 0 56.53-19.82q-7.77 8.77-16 17.45c-17.91 11.25-36.67 22-55.33 32.71 23.79-1.35 48.18-13.08 67.72-25.78s36.69-27.08 58.32-38.12c24.89-12.72 53.57-20 81.55-26.74l-.16.29c-68.48 22.72-121.64 65.47-170.57 105.93 52-16.4 96.93-44.22 140.45-71.14q5.88-3.63 11.8-7.26a213.7 213.7 0 0 1-15.58 18.37 641.23 641.23 0 0 0 66.13-45.53c2.53-1.11 5.08-2.2 7.67-3.23 32.16-12.87 66.31-19 100.3-22.65-.68 2.38-1.33 4.76-2 7.14-49 11.5-97.6 25.78-139.44 49-28.8 16-52.69 35.36-79.14 53-24.35 16.26-50.87 31.09-77.31 45.87 102.77-27.8 195-78.08 289.25-123-2.19 8.06-4.5 16.11-7.16 24.16-29.85 15.84-53.79 36.41-78.37 55.87a1157.73 1157.73 0 0 1-106.57 74.75l36.28-8.19c16.33-9.9 32.23-20.81 48.76-30.05 54.68-30.58 122.64-44.82 180.32-72.52q7.24-3.48 14.24-7.2a153.19 153.19 0 0 1-7.66 17q10.59-10.17 20.57-20.49l7.14-93.17q-1.4 6-2.5 11.91-23.11.21-46.76 1.6l2.15-5.15c12.81-31 27.34-63.62 53.6-92.89l2.07-27.08a209.53 209.53 0 0 0-99.26 113.47c-1.86 5.12-3.54 10.24-5.12 15.36-26.73 2.7-53.74 6.37-80.84 10.87 27-24.65 49.93-50.66 67.64-77.19 10.77-16.12 20.61-33.34 41.07-46.45 21.66-13.87 49.7-19.77 77.08-23.42l1.15-15c-38.54.76-77.24 1.63-116.89 5.89-117.86 12.65-238.51 54.84-345 107.83-36.33 18.08-73.66 39.55-91.34 64.87l10.59-6.83a161.47 161.47 0 0 0-13.34 14.61Zm496.33-28.81-4.55 1 .28-.66Zm-25.8 43.7c5.6-9.47 10.48-19.06 15-28.65a228.52 228.52 0 0 1 26.33-8.56 195.94 195.94 0 0 1 29.17-5c-1.32 8.48-2.47 16.93-3.82 25.4-22.47 4.55-45.09 9.61-66.68 16.81Zm-266.59 8.69q-2.82 2.31-5.71 4.58c.79-.86 1.58-1.73 2.35-2.6 1.13-.66 2.25-1.31 3.36-1.98ZM1861 742c10.37-2.81 17.1.93 23.72 4.6-56.68 24.25-105.46 59.16-135.76 97.19-15.81 19.84-26.64 40.33-38.06 60.7q-30.09 6.15-60 13.46c-13.68 3.35-27.64 7-41.42 11.17 3.81-4.34 7.7-8.61 11.83-12.71 33-32.69 86.16-56.91 123.28-88.26 18.29-15.45 32.27-32.29 49.8-48s40.12-30.96 66.61-38.15Z" class="colord9abad svgShape"/>
        </g>
        <path fill="url(#b)" d="M262 777.89c6-1.17 11.61-3.85 17.39-5.9 15.53-5.5 32.47-8.09 48.44-10.93a44 44 0 0 1-7.56-12.32 3.72 3.72 0 0 1-.33-2.16c.35-1.38 1.95-1.63 3.19-1.44 7.59 1.15 15.31 8.5 22 4.22 1.53-1 2.77-2.49 4.33-3.41 5.4-3.17 11.51 1.76 17.32 3.72a23.26 23.26 0 0 0 9 1c8.36-.51 17-4 25.27-2.16 3.11.68 6.21 2.12 9.34 1.58 5.9-1 9.45-8.43 15.1-10.62 8.8-3.41 16.92 6.84 26 9.23 5.11 1.35 10.48.1 15.7.79 7.06 1 13.67 5.67 17.55 12.53a11.44 11.44 0 0 0 2.22 3.23c1.4 1.21 3.28 1.29 5 1.39a70.34 70.34 0 0 1 36.67 13.24c-14.55 5.5-30.24 4.8-45.55 4.19-42-1.65-84-2.06-126.06-1.9q-31.53.11-63.05.59-15.76.21-31.52.47c-8.81.14-16.09 2.08-24.55 3.28-2.78.39-16.56-2.15-17.8-1 11.32-10.18 27.71-4.82 41.9-7.62Z" transform="matrix(0.9999999999999999, 0, 0, 0.9999999999999999, 97.04830254060084, 16.430443842512886)"/>
        <path fill="url(#g)" d="M319.19 792.37h.18l-.09.79-1.28-.96a2.06 2.06 0 0 1-.68-1.88l2.11-.32Z"/>
        <path fill="url(#h)" d="M319.46 790h.18l-.27 2.37h-.18Z"/>
        <path fill="url(#i)" d="M304.54 791.64c4.3-.23 8.56-.67 12.81-1.32a2.06 2.06 0 0 0 .68 1.88l1.25.93.09-.79c.71-.17 1.42-.3 2.12-.41a1.35 1.35 0 0 1-1.05 1.38 139.61 139.61 0 0 1-15.9 1.79c-1.93.11-1.93-3.36 0-3.46Z"/>
        <path fill="url(#j)" d="m320.79 790.14-1.24-.93-.09.79-2.11.32a1.43 1.43 0 0 1 1-1.29 33.52 33.52 0 0 1 16.44.2c1.89.49 1.09 3.83-.8 3.34a29.46 29.46 0 0 0-12.54-.64 2.14 2.14 0 0 0-.66-1.79Z"/>
        <path fill="url(#k)" d="M319.64 790h-.18l.09-.79 1.24.93a2.14 2.14 0 0 1 .7 1.79c-.7.11-1.41.24-2.12.41Z"/>
        <path fill="url(#l)" d="M247.26 754c.85-.18 1.69-.34 2.53-.49-.22.63-.45 1.25-.67 1.88l-2.66-1.39a1.44 1.44 0 0 1-1-1.09l1.78-.18Z"/>
        <path fill="url(#m)" d="m263.59 749.56 2.27-.56c.13 1.14.26 2.27.4 3.4-1.12 0-2.22-.06-3.33-.06-.66-.88-.6-2.46.66-2.78Z"/>
        <path fill="url(#n)" d="m247.26 752.69 2.92-.3-.39 1.08c-.84.15-1.68.31-2.53.49Z"/>
        <path fill="url(#o)" d="m220.37 755.42 25.11-2.55a1.44 1.44 0 0 0 1 1.09l2.66 1.39c.22-.63.45-1.25.67-1.88l1.69-.27a1.84 1.84 0 0 1-1.3 2.65l-29.81 3c-1.95.22-1.94-3.24-.02-3.43Z"/>
        <path fill="url(#p)" d="M247.26 750.62v2.07l-1.78.18c-.26-.9.05-2 1-2.25a79.92 79.92 0 0 1 19.8-1.68c1.63.07 2.12 3 .4 3.4l-2.27.56a1.33 1.33 0 0 1-1.46-.56c1.11 0 2.21 0 3.33.06-.14-1.13-.27-2.26-.4-3.4l-2.27.56c-1.26.32-1.32 1.9-.66 2.78a75.7 75.7 0 0 0-11.45.86 1.6 1.6 0 0 0-.23-.3 8.48 8.48 0 0 0-4.01-2.28Z"/>
        <path fill="url(#q)" d="m250.18 752.39-2.92.3v-2.07a8.48 8.48 0 0 1 4 2.28 1.6 1.6 0 0 1 .23.3l-1.69.27Z"/>
        <path fill="url(#r)" d="M276.32 754.38a9.9 9.9 0 0 1 8.74.51c1.76.94.23 3.92-1.51 3a7.27 7.27 0 0 0-6.43-.17c-1.82.77-2.61-2.57-.8-3.34Z"/>
        <path fill="url(#s)" d="M265.49 756.88a42.2 42.2 0 0 1 13.08.33c1.91.34 1.1 3.67-.8 3.34a39.82 39.82 0 0 0-12.28-.21c-1.92.25-1.9-3.21 0-3.46Z"/>
        <path fill="url(#t)" d="M240.27 762.91a11.78 11.78 0 0 1 6.37.12c1.88.56 1.08 3.9-.8 3.34a8.88 8.88 0 0 0-4.77-.13c-1.89.47-2.7-2.86-.8-3.33Z"/>
        <path fill="url(#u)" d="m474.12 786.48 2.26-.56c.14 1.14.27 2.27.4 3.4-1.11 0-2.22-.06-3.32-.06-.66-.88-.6-2.47.66-2.78Z"/>
        <path fill="url(#v)" d="m457.79 789.61 2.92-.3-.39 1.08c-.84.15-1.69.31-2.53.49Z"/>
        <path fill="url(#w)" d="M457.79 790.88c.84-.18 1.69-.34 2.53-.49-.22.63-.45 1.25-.67 1.88l-2.65-1.39a1.44 1.44 0 0 1-1-1.09l1.78-.18Z"/>
        <path fill="url(#x)" d="M457.79 787.54v2.07l-1.78.18c-.26-.9.05-2.06 1-2.25a79.4 79.4 0 0 1 19.79-1.68c1.63.07 2.13 3 .4 3.4l-2.26.56a1.35 1.35 0 0 1-1.46-.56c1.1 0 2.21 0 3.32.06-.13-1.13-.26-2.26-.4-3.4l-2.26.56c-1.26.31-1.32 1.9-.66 2.78a75.93 75.93 0 0 0-11.46.86 1.26 1.26 0 0 0-.23-.3 8.4 8.4 0 0 0-4-2.28Z"/>
        <path fill="url(#y)" d="m460.71 789.31-2.92.3v-2.07a8.4 8.4 0 0 1 4 2.28 1.26 1.26 0 0 1 .23.3l-1.68.27Z"/>
        <path fill="url(#z)" d="m430.9 792.33 25.1-2.54a1.44 1.44 0 0 0 1 1.09l2.66 1.39c.22-.63.45-1.25.67-1.88l1.68-.27a1.83 1.83 0 0 1-1.29 2.65l-29.81 3c-1.91.23-1.91-3.24-.01-3.44Z"/>
        <path fill="url(#A)" d="M486.84 791.3a9.92 9.92 0 0 1 8.75.51c1.76.94.23 3.92-1.52 3a7.27 7.27 0 0 0-6.43-.17c-1.81.77-2.64-2.57-.8-3.34Z"/>
        <path fill="url(#B)" d="M476 793.8a42.21 42.21 0 0 1 13.08.33c1.91.34 1.1 3.67-.8 3.34a39.82 39.82 0 0 0-12.28-.21c-1.9.25-1.88-3.21 0-3.46Z"/>
        <path fill="url(#C)" d="M450.8 799.82a11.88 11.88 0 0 1 6.37.13c1.87.56 1.08 3.9-.8 3.34a8.89 8.89 0 0 0-4.77-.13c-1.89.47-2.7-2.86-.8-3.34Z"/>
        <path fill="url(#D)" d="m432.25 787.94-.2-.05 5.18.65Z"/>
        <path fill="url(#E)" d="M437.23 788.54v-3.47c1.91.24 1.93 3.7 0 3.47Z"/>
        <path fill="url(#F)" d="m432.25 784.48 5 .59v3.47l-5.18-.65c-1.72-.44-1.68-3.63.18-3.41Z"/>
        <path fill="url(#G)" d="m425.68 783.64 11.55 1.43-5-.59c-1.86-.22-1.9 3-.2 3.41l-6.37-.79c-1.88-.24-1.9-3.7.02-3.46Z"/>
        <path fill="url(#H)" d="m376.9 782.26 9.62 1.75c1.91.35 1.1 3.68-.8 3.34l-9.62-1.75c-1.91-.35-1.1-3.68.8-3.34Z"/>
        <path fill="url(#I)" d="M216.37 806.3c-.41-.32-.83-.63-1.25-.94l-.09.79-2.1.33a1.4 1.4 0 0 1 1-1.29 33.4 33.4 0 0 1 16.44.19c1.88.5 1.09 3.83-.8 3.34a29.78 29.78 0 0 0-12.54-.64 2.11 2.11 0 0 0-.66-1.78Z"/>
        <path fill="url(#J)" d="M214.77 808.52h.17l-.09.79-1.24-.93a2 2 0 0 1-.68-1.87l2.1-.33c-.09.76-.18 1.55-.26 2.34Z"/>
        <path fill="url(#K)" d="M215 806.15h.18l-.27 2.37h-.17c.11-.79.2-1.58.26-2.37Z"/>
        <path fill="url(#L)" d="M200.12 807.79c4.3-.23 8.55-.67 12.81-1.31a2 2 0 0 0 .68 1.87l1.24.93.09-.79c.72-.16 1.42-.3 2.13-.41a1.37 1.37 0 0 1-1.06 1.38 137.21 137.21 0 0 1-15.89 1.79c-1.94.11-1.93-3.35 0-3.46Z"/>
        <path fill="url(#M)" d="M215.21 806.12h-.18l.09-.79c.42.31.84.62 1.25.94a2.11 2.11 0 0 1 .7 1.78c-.71.11-1.41.25-2.13.41Z"/>
        <path fill="url(#N)" d="m223.08 825.37 2.92-.29-.39 1.08c-.84.14-1.68.3-2.53.48Z"/>
        <path fill="url(#O)" d="M223.08 826.64c.85-.18 1.69-.34 2.53-.48l-.67 1.87-2.66-1.39a1.44 1.44 0 0 1-1-1.08l1.78-.19Z"/>
        <path fill="url(#P)" d="m239.41 822.25 2.27-.56.39 3.4c-1.11-.05-2.22-.06-3.32-.06-.66-.89-.6-2.47.66-2.78Z"/>
        <path fill="url(#Q)" d="m226 825.08-2.92.29v-2.07a8.42 8.42 0 0 1 4 2.29 1.38 1.38 0 0 1 .24.3c-.57.08-1.13.17-1.69.27Z"/>
        <path fill="url(#R)" d="M223.08 823.3v2.07l-1.78.19c-.26-.91 0-2.06 1-2.26a79.87 79.87 0 0 1 19.79-1.67c1.63.07 2.13 3 .41 3.4l-2.27.56a1.36 1.36 0 0 1-1.46-.56c1.1 0 2.21 0 3.32.06l-.39-3.4-2.27.56c-1.26.31-1.32 1.89-.66 2.78a75.7 75.7 0 0 0-11.45.86 1.38 1.38 0 0 0-.24-.3 8.42 8.42 0 0 0-4-2.29Z"/>
        <path fill="url(#S)" d="m196.19 828.1 25.11-2.54a1.44 1.44 0 0 0 1 1.08l2.66 1.39.67-1.87c.56-.1 1.12-.19 1.69-.27a1.84 1.84 0 0 1-1.3 2.65l-29.81 3c-1.95.22-1.94-3.24-.02-3.44Z"/>
        <path fill="url(#T)" d="M252.13 827.06a9.89 9.89 0 0 1 8.75.52c1.76.93.23 3.92-1.52 3a7.24 7.24 0 0 0-6.43-.17c-1.81.77-2.6-2.58-.8-3.35Z"/>
        <path fill="url(#U)" d="M196 800.53a9.9 9.9 0 0 1 8.74.51c1.76.94.23 3.92-1.52 3a7.27 7.27 0 0 0-6.43-.17c-1.79.77-2.63-2.57-.79-3.34Z"/>
        <path fill="url(#V)" d="M159.86 794.76a9.9 9.9 0 0 1 8.74.51c1.76.94.23 3.92-1.51 3a7.24 7.24 0 0 0-6.43-.16c-1.82.76-2.61-2.58-.8-3.35Z"/>
        <path fill="url(#W)" d="M232.28 790.34a42.27 42.27 0 0 1 13.09.33c1.9.34 1.09 3.67-.8 3.34a39.58 39.58 0 0 0-12.29-.21c-1.92.25-1.9-3.21 0-3.46Z"/>
        <path fill="url(#X)" d="M168.09 783.41a42.52 42.52 0 0 1 13.08.34c1.91.33 1.1 3.67-.8 3.33a40.14 40.14 0 0 0-12.28-.21c-1.92.26-1.91-3.2 0-3.46Z"/>
        <path fill="url(#Y)" d="m352.71 855 9.63 1.74c1.91.35 1.1 3.69-.8 3.34l-9.63-1.75c-1.91-.39-1.09-3.73.8-3.33Z"/>
        <path fill="url(#Z)" d="m134.05 771.88 9.63 1.75c1.91.34 1.1 3.68-.8 3.33l-9.63-1.74c-1.9-.35-1.1-3.69.8-3.34Z"/>
        <path fill="url(#aa)" d="m523.3 733.61-1.25-.93-.09.78-2.1.33a1.42 1.42 0 0 1 1-1.29 33.4 33.4 0 0 1 16.44.2c1.89.49 1.09 3.83-.8 3.34a29.61 29.61 0 0 0-12.54-.65 2.13 2.13 0 0 0-.66-1.78Z"/>
        <path fill="url(#ab)" d="M521.69 735.84h.18l-.09.8-1.25-.93a2.06 2.06 0 0 1-.67-1.88l2.1-.33Z"/>
        <path fill="url(#ac)" d="M522 733.46h.18l-.27 2.36h-.18Z"/>
        <path fill="url(#ad)" d="M522.14 733.44h-.18l.09-.78 1.25.93a2.13 2.13 0 0 1 .69 1.78c-.7.12-1.41.25-2.12.41Z"/>
        <path fill="url(#ae)" d="M507.05 735.11c4.29-.24 8.55-.67 12.81-1.32a2.06 2.06 0 0 0 .67 1.88l1.25.93.09-.8c.71-.16 1.42-.29 2.12-.41a1.34 1.34 0 0 1-1 1.38 139.46 139.46 0 0 1-15.89 1.8c-1.99.1-1.98-3.36-.05-3.46Z"/>
        <path fill="url(#af)" d="M502.89 727.84a9.89 9.89 0 0 1 8.75.52c1.76.93.23 3.92-1.52 3a7.2 7.2 0 0 0-6.43-.17c-1.82.81-2.6-2.58-.8-3.35Z"/>
        <path fill="url(#ag)" d="M466.78 722.07a9.89 9.89 0 0 1 8.75.52c1.76.93.23 3.92-1.52 3a7.24 7.24 0 0 0-6.43-.17c-1.81.77-2.58-2.58-.8-3.35Z"/>
        <path fill="url(#ah)" d="M539.21 717.65a42.51 42.51 0 0 1 13.08.33c1.91.34 1.1 3.68-.8 3.34a40.13 40.13 0 0 0-12.28-.21c-1.92.26-1.9-3.21 0-3.46Z"/>
        <path fill="url(#ai)" d="M475 710.73a42.21 42.21 0 0 1 13.08.33c1.91.34 1.1 3.67-.8 3.34a39.83 39.83 0 0 0-12.28-.21c-1.9.25-1.89-3.19 0-3.46Z"/>
        <path fill="url(#aj)" d="m441 699.19 9.63 1.75c1.91.35 1.1 3.68-.8 3.34l-9.63-1.75c-1.93-.35-1.12-3.68.8-3.34Z"/>
        <path fill="url(#ak)" d="m130.08 690.72 2.26-.56c.14 1.14.27 2.27.4 3.4-1.11 0-2.22-.06-3.32-.06-.66-.88-.6-2.5.66-2.78Z"/>
        <path fill="url(#al)" d="m113.75 693.85 2.92-.3-.39 1.08c-.84.15-1.69.31-2.53.49Z"/>
        <path fill="url(#am)" d="M113.75 695.12c.84-.18 1.69-.34 2.53-.49-.22.63-.45 1.25-.67 1.88l-2.61-1.39a1.44 1.44 0 0 1-1-1.09l1.78-.18Z"/>
        <path fill="url(#an)" d="M86.86 696.57 112 694a1.44 1.44 0 0 0 1 1.09l2.66 1.39c.22-.63.45-1.25.67-1.88l1.68-.27a1.83 1.83 0 0 1-1.29 2.65l-29.81 3c-1.98.25-1.97-3.21-.05-3.41Z"/>
        <path fill="url(#ao)" d="m116.67 693.55-2.92.3v-2.07a8.4 8.4 0 0 1 4 2.28 1.26 1.26 0 0 1 .23.3l-1.68.27Z"/>
        <path fill="url(#ap)" d="M113.75 691.78v2.07L112 694c-.26-.91 0-2.06 1-2.25a79.4 79.4 0 0 1 19.79-1.68c1.63.07 2.13 3 .4 3.4l-2.26.56a1.35 1.35 0 0 1-1.46-.56c1.1 0 2.21 0 3.32.06-.13-1.13-.26-2.26-.4-3.4l-2.26.56c-1.26.31-1.32 1.9-.66 2.78a75.93 75.93 0 0 0-11.46.86 1.26 1.26 0 0 0-.23-.3 8.4 8.4 0 0 0-4.03-2.25Z"/>
        <path fill="url(#aq)" d="M142.8 695.54a9.92 9.92 0 0 1 8.75.51c1.76.94.23 3.92-1.52 3a7.27 7.27 0 0 0-6.43-.17c-1.81.77-2.6-2.57-.8-3.34Z"/>
        <path fill="url(#ar)" d="M132 698a42.21 42.21 0 0 1 13.08.33c1.91.34 1.1 3.67-.8 3.34a39.83 39.83 0 0 0-12.28-.17c-1.94.25-1.92-3.21 0-3.5Z"/>
        <path fill="url(#as)" d="M106.76 704.06a11.88 11.88 0 0 1 6.37.13c1.87.56 1.08 3.9-.8 3.34a8.89 8.89 0 0 0-4.77-.13c-1.89.47-2.7-2.86-.8-3.34Z"/>
        <path fill="url(#at)" d="M93.19 692.78v-3.47c1.9.24 1.93 3.69 0 3.47Z"/>
        <path fill="url(#au)" d="M88.21 692.18h-.2l5.18.65Z"/>
        <path fill="url(#av)" d="m81.64 687.88 11.55 1.43-5-.59c-1.86-.22-1.9 3-.2 3.41l-6.37-.79c-1.88-.24-1.9-3.7.02-3.46Z"/>
        <path fill="url(#aw)" d="m88.21 688.72 5 .59v3.47l-5.21-.65c-1.69-.44-1.65-3.63.21-3.41Z"/>
        <path fill="url(#ax)" d="m32.85 686.5 9.63 1.75c1.91.35 1.1 3.68-.8 3.34l-9.63-1.75c-1.9-.35-1.05-3.68.8-3.34Z"/>
        <path fill="url(#ay)" d="M1752.48 691.17c4 1.35-141.64 2.26-141.64 2.26l-159.33-7.84s48.27-2.25 129-12.13 168.01 16.36 171.97 17.71Z"/>
        <path fill="url(#az)" d="M969.3 719.73c3.36-1 6.89 0 10.33.57a83.24 83.24 0 0 0 11 .87c22.65.74 45.4.21 67.54 4.85a4.2 4.2 0 0 0 3.37-.06c1.91-1.21 1.47-4.41 1.72-6.91.53-5.42 5.55-9.06 10.29-9.2s9.23 2.28 13.5 4.65c-.78-3 3-4.54 5.74-4.49a162.11 162.11 0 0 1 60.43 13.15c3 1.27 6 2.64 9.14 2.73a28.58 28.58 0 0 0 6.83-1.07 118.93 118.93 0 0 1 11.83-1.79c7.94-.94 15.91-1.88 23.88-1.56 8.61.33 17.12 2.12 25.69 3.07 16 1.78 32.13.64 48.21.76a310.2 310.2 0 0 1 63.4 7 12.66 12.66 0 0 0-1.39 1H969.73c-2.31-.91-4.67-2.21-5.52-4.78-1.21-3.66 1.73-7.76 5.09-8.79Z"/>
        <path fill="url(#aA)" d="M1263 825.2c6-1.18 11.6-3.86 17.39-5.9 8.35-3 17-4.6 25.63-6.23l8.73-1.65c9.66-1.82 19.56-3.65 29.18-1.55a6.55 6.55 0 0 1 7.29-4.82c3 .41 5.7 2.44 8.24 4.42-2.88-4.72-1-11.7 2.8-15.41s9-4.84 14-5.35c17.08-1.73 34.06 2.43 50.09 9 12.73 5.2 33.62 12.07 43 23.5-17.25 1.53-36.13-2-53.64-2.37q-27.79-.52-55.57.77a849 849 0 0 0-111.46 12.63c-9.18 1.66-18.69 3.45-27.64.56 11.4-10.17 27.8-4.8 41.96-7.6Z"/>
        <path fill="url(#aC)" d="M1320.49 837.3h.17l-.27 2.37h-.17Z"/>
        <path d="M1922.57 579c-118.9 33-247.92-26.48-298.26-22.45s-247.79-2.87-296.65 7.13-150.77-17.19-203.58 9-141.35-10.07-180.7 0-17.53 40-40.36 60.44c-19.94 17.86-76.57 48-222.64 38.13S447.25 773.63 290.25 774.42 134 721.7 74.73 729.29-7.71 754-7.71 754l-15.11-82.78S778.1 553.53 781.12 553.53 1577 469.21 1577 469.21l363.14 17Z" style="mix-blend-mode:multiply" fill="#d9abad" opacity=".5" class="colord9abad svgShape"/>
        <g clip-path="url(#do)" fill="#000000" class="color000 svgShape" style="visibility: hidden;">
          <path fill="#58d1ca" d="M-18 671.38a1360.11 1360.11 0 0 1 175.21 4.45c95.18 8.6 205.37 24 275.68-25 37-25.83 94.33-23.91 144.22-18s104 13.79 148.57-4.13c33-13.26 54.6-38.59 86.25-53.57 32.8-15.57 73.07-18.56 111.75-21.13L1166 537.77c49-3.28 98.08-6.56 147.21-8.91 179.63-8.59 360-4.73 539.6 3.69 29.43 1.38 61.28 2.13 90.5-1.68V391.46H-18Z" class="color58d1ca svgShape"/>
          <path fill="#47b1c8" d="M657.94 455.71c-9.56-.3-19.54-.56-28.24 2.43-7 2.39-12.48 6.65-19.23 9.36-11.89 4.78-26.14 4.28-39.61 3.75a2653.4 2653.4 0 0 0-395.19 14.06c-35 3.89-70.31 8.55-102.9 19C43 513.79 16 527.93-14.31 536.5c-1.24.35-2.48.69-3.73 1v30.7a376.77 376.77 0 0 1 58.13-2.87c28.48 1 56.77 6.2 85.2 4.62 29.19-1.63 57.63-10.36 86.82-8.67 27.81 1.61 53.74 12.61 81.63 13.13 56 1 110-39.73 161.41-23.52-3.07-.63-5.78 3.33-3.65 5.49 2.28 2.32 6.68 2.59 10.52 2.64 135.54 1.8 271.47-14.25 399.76-47.2 35.18-9 71-19.46 107.71-21.23l-17.49-.07 300.46-29.2c15.19-1.47 32.56-4 40-14.05a7187.592 7187.592 0 0 1-634.52 8.44Z" class="color47b1c8 svgShape"/>
          <path fill="#1bb0c4" d="m969.49 490.61 23.36.13a211.79 211.79 0 0 0-23.36-.13Z" class="color1bb0c4 svgShape"/>
          <path fill="#79c0ce" d="M1490.3 512.32c-40.9 2.38-81.34 8.23-122.22 10.77-48.93 3-98.13 1.33-147.22.83A2970.85 2970.85 0 0 0 910.5 537c-38.16 3.61-77 8.15-111.18 21.42-35.43 13.75-66.2 31.24-104 41.49-39.29 10.65-82.53 10.33-123.54 7.15-33.75-2.61-68.66-6.93-100.95.87-34 8.23-60.5 28.92-93.85 38.62-24.5 7.13-51.4 7.94-77.65 7.28a730 730 0 0 1-134-15.82c-22.77-4.88-46.37-10.91-69.58-7.41-15.16 2.28-28.82 8.5-43.87 11.17-16.59 3-34.05 1.48-50.88 3.55a62.29 62.29 0 0 0-19 5.34v70.75a70 70 0 0 0 20-2.07c12.94-3.2 24.49-9 37.18-12.7 30.73-9 65.59-5.47 97 2.06s61.19 18.85 93 25.47a327.79 327.79 0 0 0 77 6.62c32.47-1 65.52-7.25 91.47-22C418 707.2 433 691 452.54 678.56c30.6-19.5 70.9-28.72 110.87-31.22 72.85-4.55 144.85 8.9 218.22 4.15 29.48-1.91 66.59-11.56 66.85-33.82.13-10.78-9.43-21-7.26-31.64 3.75-18.43 36-22.77 60.8-22.63l152.86.83c19.31.11 39.13.15 57.19-5 8.35-2.36 16.16-5.8 24.73-7.67 13.6-3 28.08-1.8 42.22-1.32 53.28 1.78 102.27-10.49 154.63-13.42 55.72-3.12 111.54 2.56 167.29.23 31.29-1.31 62.41-5.17 93.75-5 48.62.28 96.26 10.27 144.78 12.66 39 1.92 78.32-1.1 117.24 1.79 16.81 1.25 33.79 3.6 50.47 1.58 14.71-1.77 29.53-7.87 36.16-17.63v-4.21l-309.88-12.78c-47.69-1.94-95.55-3.9-143.16-1.14Z" opacity=".44" class="color79c0ce svgShape"/>
          <path fill="#47b1c8" d="m637.87 586.44 7.38.43c-18.88-7.37-37.07-15.68-58.91-17.61a228.08 228.08 0 0 0-33.37-.17c-2.32 1.13-4.69 2.19-7.16 3.13l-1.26.45c-12.43 1.93-24.76 4-36.5 4.38-31.31.94-63.28-6.16-94.45-1.95-28.09 3.8-52.09 17.17-78.93 24.46-66 17.92-140.23-2.51-209 7.87-20.2 3-39.51 8.7-59.28 13.08a473.58 473.58 0 0 1-81.65 10.7l-2.75.11v46.82c79.4-11.85 157.19-34.94 237.72-30.79 18 .93 35.79 3.21 53.77 3.9a299.18 299.18 0 0 0 93.38-11.11c19.84-5.7 39.26-13.91 51.56-26.92 4.32-4.58 7.72-9.7 13-13.65 12.58-9.36 32.7-9.91 50-7.16s34 8.19 51.69 8.74c24.63.78 47.94-8 72.34-10.62 16.15-1.75 32.5-.81 48.84-.26l-1.16-.42a122.43 122.43 0 0 1-15.26-3.41Z" class="color47b1c8 svgShape"/>
          <path fill="#00aec4" d="M674.82 590.53h-1c1.31.31 2.62.59 3.94.85a126.68 126.68 0 0 0 16.66-1.65l-2.18-.12c-6.56.53-12.53.82-17.42.92Z" class="color00aec4 svgShape"/>
          <path fill="#eafef3" d="M763 570.16a314.56 314.56 0 0 1-54.6 11.64 196.47 196.47 0 0 1-77.89-6c-8.1-2.35-16.2-5.28-24.88-5.34-16.36-.12-35.84 13.29-52.14 16.73-20.53 4.34-42.62 5.1-63.09.15-18-4.36-34.87-12.93-53.8-12.73-24.76.28-45.48 16.47-51.83 34.48-1.21 3.45-2.06 7.08-4.64 10.09-3.25 3.81-8.8 6.11-14.19 8.13-22.09 8.29-54 10.83-73.08 22.14-2.49-4.13-9.72-5.35-15.65-4.55s-11.42 3-17.37 3.77c-15.82 1.93-28.88-6.79-40.5-13.51-5.94-3.44-12.84-8-20.16-9.69-3.09-.69-6.18-.07-9.15-.91-3.54-1-6.38-3.91-10-5.14-4.52-1.53-9.55-2-14.49-2.32q-9.08-.65-18.18-.93c-5.83-.18-11.74-.26-17.4.81-13.13 2.48-22.92 10.67-30.46 19.12a10 10 0 0 1-3.19 2.7c-1.83.86-4.31.93-5.75 2.13-1.91 1.58-1.07 4.35-3.06 5.87a7.41 7.41 0 0 1-3.3 1.14c-3.33.52-6.81.43-10.1 1.1s-6.56 2.4-7.1 4.96c-.28 1.26.08 2.72-1 3.7a5.85 5.85 0 0 1-2.34 1L5.85 674.44c19.94-4.78 40.52-7.8 61.19-10.11 10.2-1.14 20.78-2.74 31.08-3.08 9.84-.33 19.91 2.3 30.12 2.06 3.64-.08 8.07-.78 9.16-3.4 10.4 2.06 22.37-3 25.39-10.79a66.19 66.19 0 0 0 12.31 3.5l23.08 5c2.65.57 6.49.66 7.13-1.36a12.78 12.78 0 0 0 11.8 0c1.87-1.06 12.24.38 14.9.36 5.5 0 11.27-.85 16.72-.56 9.92.52 19.88 1.4 30 1.6a576.78 576.78 0 0 0 67.83-2.23c9.93-1 21.58-3.22 24.95-10.31 14.71-.76 30.07-1.67 42.66-7.43 7.28-3.32 13.17-8.08 19-12.77l25.52-20.65c6.2 4.65 16.62 5.72 24.25 2.48 3.63 8.14 19.48 11.28 28 5.54 4.64 4.67 16.8 1.39 16.43-4.43 5.74 7.38 21.76 8.37 29 1.79 4.62 5.65 18.24 4.43 21-1.89 5.19 4.17 14.84 4.57 20.6.85l67.61 1c9.42.14 21.09-.76 24.63-7.33 7.53 1.73 15.49 3.48 23.17 2.15s14.63-7 12.86-12.73c7.36 2.13 16.31-3.86 14.35-9.6 23.82-8.61 48.2-22.92 73.94-28.43-18.13 3.8-34.37 11.04-51.53 16.49Z" class="coloreafef3 svgShape"/>
          <path fill="#eafef3" d="M814.4 553.68c.94-.19 1.88-.39 2.83-.57-.95.18-1.89.37-2.83.57ZM198.67 661.81c.23-.27-.62-.06-.41.17Z" class="coloreafef3 svgShape"/>
          <path fill="#eafef3" d="M199.56 662.11c-.44 0-1 .14-1.28-.1a6.7 6.7 0 0 0-2.71 0c-.87.22-1.57 1-1.22 1.61a2.61 2.61 0 0 0 1.73.9 40.47 40.47 0 0 0 9.09 1 2.51 2.51 0 0 0 1-.13c.79-.36.49-1.29-.12-1.8-1.61-1.32-4.18-1.44-6.49-1.48ZM266 665.57l-25-3.14c-5.46-.69-13.7-2.95-19-1.85.28 3 5.4 3.61 8.64 3.72a29.13 29.13 0 0 1 3 .14 20.72 20.72 0 0 1 3.24.8 84.1 84.1 0 0 0 31 3.2 2.91 2.91 0 0 0 .8-.13 1.08 1.08 0 0 0 .14-1.93 5.69 5.69 0 0 0-2.82-.81ZM292.83 660.08l-.15 1.42a4.18 4.18 0 0 0-2-.53c-.71 0-1.4.61-1.11 1.11a1.87 1.87 0 0 0 1.21.57 73.91 73.91 0 0 0 17 1.49c-3.5-3.24-9.48-4.86-14.95-4.06ZM180.51 657.19c-1.44-.29-3.06-.25-4.29-.89-.82-.42-1.36-1.09-2.18-1.52s-2.16-.48-2.61.19l-.8.27a3.85 3.85 0 0 0-3.31-.59c.7 1.75 1.63 3.7 3.83 4.47a11.6 11.6 0 0 0 3.25.45l10.71.43a7.21 7.21 0 0 0-4.6-2.81ZM142.53 666.43l-1.54-.07a4.37 4.37 0 0 0-2.11-.31c-.71.13-1.27.79-.86 1.24a1.79 1.79 0 0 0 .83.4 57.31 57.31 0 0 0 8.64 1.79 1.1 1.1 0 0 0 0-1 19.53 19.53 0 0 1-4.96-2.05ZM164.32 675.55l-2.91-.13a16.75 16.75 0 0 0 10.39 2.2 24.11 24.11 0 0 0-9.57-3.66Z" class="coloreafef3 svgShape"/>
          <path fill="#f8fbf0" d="m493.08 657.91-11.91 3.47c-10.23 3-20.83 6.14-28.35 12.14a37.64 37.64 0 0 1-6 4.53c-5.95 3.1-14.24 2.08-20.73 4.51-10.66 4-12.36 15.3-21.61 20.94-7.13 4.35-18.58 5.33-22 11.74-.87 1.64-1.07 3.48-2.26 5-1.58 2-4.61 3.13-7.49 4.06a292.31 292.31 0 0 1-53.31 11.78c-17 2.14-36.34 3.82-53.6 3.53 22.76 1.74 45.6.68 68.25 1.28 13 .34 25.59-2.85 37.86-6 7-1.8 14-3.61 20.43-6.41 7-3.08 13.07-7.26 19.05-11.4l5-3.47a49.37 49.37 0 0 0 6.64-5.17 30 30 0 0 1 4.25-4 23.39 23.39 0 0 1 4.42-2.11c7.23-2.87 14.67-5.78 22.78-6.52 2.93-.26 6-.25 8.72-1.09 3.92-1.21 6.73-4.24 6.88-7.42.06-1.32-.28-2.67.21-3.93 2-5 14.87-4.93 14.34-10.13-.12-1.13-1-2.19-.86-3.33.34-3.28 6.78-3 11-4 5.28-1.28 7.81-5.72 12.07-8.39 8.72-5.5 24.11-6.19 34.95-7.83-10.91.9-22 1.74-32.62 4-5.53 1.14-10.82 2.68-16.11 4.22Z" class="colorf8fbf0 svgShape"/>
          <path fill="#eafef3" d="M777.26 586.41c-2.61 2.39-4.15 5.37-6.8 7.74-5.42 4.85-14.84 6.66-19.37 12-3.13 3.69-3.38 8.49-6.81 12-1.95 2-4.77 3.44-7.63 4.7a100.5 100.5 0 0 1-24.11 7.07 29 29 0 0 0-17.24 3.62c-1.88-1.7-5.41-1.36-8.28-.85-27.28 4.85-55.84 5.13-83.74 2.84 20.53 3.08 41.54 4.84 62.29 6.72 14.94 1.36 30 2.71 45 1.87 6-.33 12.73-1.34 16.17-5.08 4.67 2.5 12.11-2.32 9.52-6.16 2.81 1.61 7 .25 9.41-1.67s4.28-4.41 7.42-5.63c.89-4.47 5.44-8 9.76-11.12a13.78 13.78 0 0 1 4.06-2.29c2.41-.75 5.35-.43 7.48-1.56 4.82-2.55 1.09-9.64 6.13-11.94a23.22 23.22 0 0 1 4.37-1c6.15-1.39 8.67-8.12 4.38-11.72 5 .72 10.35-.67 13.69-3.51 1.3-1.1 2.3-2.4 3.73-3.4 2-1.39 4.66-2.08 7.24-2.74l39.8-10.12a314.27 314.27 0 0 0-62.21 13.23c-5.26 1.72-10.63 3.66-14.26 7Z" class="coloreafef3 svgShape"/>
          <path fill="#eafef3" d="M991.08 527.52c-16.1 1-32.19 2.09-48.28 3.2l-17.09 1.18c-6.84.47-13.69.94-20.45 1.85-8.15 1.11-16.12 2.84-24.07 4.58l-66 14.38 56-11.2a450.22 450.22 0 0 1 110.23-.29c4.36.53 9.56.92 12.49-1.57 8.08 3.27 17.94.78 26.64-1.41a325 325 0 0 1 31.39-6.22c22.19-3.28 44.84-4.3 67.42-5.32l54.41-2.45c-60.85-2.43-121.92-.45-182.69 3.27Z" opacity=".71" class="coloreafef3 svgShape"/>
          <path fill="#eafef3" d="m1305 529.45-53-.68q26.47.63 53 .68ZM1367.84 528.8q37.76-.87 75.44-2.88a52.8 52.8 0 0 0 29.94 4.12c-1.42 2.63 3.86 4.25 7.63 4.32l45 .82c8.71.16 19.21-.41 23.36-6.17a39.5 39.5 0 0 0 27.21-1.53 70.9 70.9 0 0 0 40.46.06c3.73 4.83 13.06 4.24 20.35 3.18 15.19-2.2 30.58-3.68 46-4.4 20-1 40.15-.64 60.22-.33-7-.91-14-1.4-21.07-1.85a2301.57 2301.57 0 0 0-354.54 4.66ZM1305 529.45l49.09.64c4.58-.45 9.16-.87 13.75-1.29q-31.41.74-62.84.65Z" class="coloreafef3 svgShape"/>
          <path fill="#eafef3" d="M517.32 535.6q-8.85 1.23-17.64 2.65c5.93-.67 11.82-1.48 17.64-2.65Z" opacity=".52" class="coloreafef3 svgShape"/>
          <path fill="#eafef3" d="M829.67 483.2c-3.17-.49-6.69-1-9.49.25-1.82.8-3 2.19-4.43 3.35-7.72 6.32-21.29 5.38-32.11 2.68s-22-6.72-33.12-4.91S731 498 739.61 503.65c1.7 1.11 3.92 1.93 4.79 3.49 1.65 3-2.84 5.84-6.91 6.91-8 2.1-17.81 2.44-26.16 1.67a165.32 165.32 0 00-30.74.48c-5.84.56-11.65 1.27-17.46 2a104.64 104.64 0 01-12.27 1 20.53 20.53 0 00-5.1.37c-1.63.43-3.09 1.51-3.07 2.8-8.05-.32-18.57.5-25.82 3.31 3.23-2.9 1.54-7.42-2.27-9.54s-9.25-2.36-14.12-2a70.92 70.92 0 00-19 4.2c-6.39 3.29-11.82 7.55-18.19 11.15a42.24 42.24 0 01-16.85 5.53c-3.32.36-6.72.49-10 1.17s-6.53 1.86-9.82 2.74c-14.5 3.88-29.66 4.78-44.77 6.43-5 .55-10 1.26-14.9 2.07 12.86-1.14 25.83-1.71 38.46-2.46 13.52-.8 27-1.69 40.41-3.41 6.78-.88 13.53-2 20.16-3.36 6.23-1.31 12.77-1.08 19-2.7 2.93 2.64 9.24 2.43 11.85-.39-1.23 1.6.59 3.75 2.94 4.31s4.88 0 7.24-.47c-.67.74-.11 1.83.88 2.32a7.71 7.71 0 003.45.52 39.65 39.65 0 0018.07-4.61 1.17 1.17 0 01-.33-2.13c4.19 1.27 9.55-.6 10.95-3.83 4.39 1.57 10.33-.33 11.88-3.8 0 .9 1.24 1.58 2.43 1.64a9.12 9.12 0 003.44-.67c7.29-2.45 14.74-5.32 22.74-5.82a213.94 213.94 0 0127.85.39c-.35.13-.65.41-.64.72 0 .55.64 1 1.26 1.26a9.81 9.81 0 006.74.41c2.7 2.81 8.69 3.37 12.22 1.15-.09 1.25 1.24 2.37 2.8 2.79a12.16 12.16 0 004.92 0 31.94 31.94 0 007.57-2.18c4.21 1 9.12-2 8.68-5.31a6.05 6.05 0 005.09-4.12c.58-2 .1-4-.38-5.93 3.59 1.35 8.43.39 10.66-2.13 1.78 2 5.69 1.72 8.8 2.28a39.65 39.65 0 005.29 1.07c1.82.09 4-.71 4.1-2.08-.13 1.84 2.61 3.15 5.06 3.14s4.74-.86 7.12-1.31a32.7 32.7 0 005.89-1.21c1.81-.73 3.22-2.36 2.45-3.78.89 1.23 3.31 1 5.09.54l10-2.46c5.86-1.43 13.73-2.64 18.6-5.61 4.57-2.77 7.53-5 13.58-6.26 12.21-2.54 25.27-1.25 37.75-1.17 18.13.12 37.45-2.58 53.59-8.92-38.34 4.55-76.61 5.22-114.94-.65zM540.33 546.14q-8.33 1-16.68 1.8-16.46 1.63-33 2.81c-5 .35-10.12.7-14.49 2.52 4.39-.25 8.77-.56 13.15-.87l27.17-1.95c10.43-.75 20.87-1.5 31.18-2.9a5 5 0 002.65-.87c2.93-2.68-8.86-.68-9.98-.54zM634.69 541.78v.15a16.67 16.67 0 00-6.28 1.25c-.23.09-.48.22-.53.41s.31.5.63.65a13.07 13.07 0 004.12 1.31c1.48.14 3.18-.29 3.84-1.3s-.28-2.51-1.78-2.47z" opacity=".52" class="coloreafef3 svgShape"/>
          <g opacity=".52" fill="#000000" class="color000 svgShape">
            <path fill="#eafef3" d="M652.5 535.56a.4.4 0 0 0-.49.19.76.76 0 0 0 .49-.19Z" class="coloreafef3 svgShape"/>
            <path fill="#eafef3" d="m658.3 534.37-2.3-1.11-1.34 1.13a6 6 0 0 0-2.23-.46c-.78 0-1.59.48-1.6 1.07 0 .43.62.78 1.14.75a.4.4 0 0 1 .49-.19.76.76 0 0 1-.49.19.35.35 0 0 0 .07.47 2 2 0 0 0 1.29.21l3.51-.23c1.08-.07 2.55-.6 2.1-1.34a1.6 1.6 0 0 0-.64-.49Z" class="coloreafef3 svgShape"/>
          </g>
          <path fill="#eafef3" d="M705.09 527.54a10.54 10.54 0 0 0 1.34.8c-2.07 1.94 8.13 2.56 10.21 2.89a22.61 22.61 0 0 1 3 .59c.87.26 1.68.61 2.55.86a11.07 11.07 0 0 0 7.64-.63 50.89 50.89 0 0 1-8.46-1.5c-4.02-1.19-12.07-3.84-16.28-3.01Z" opacity=".52" class="coloreafef3 svgShape"/>
          <path fill="#eafef3" d="M710.2 606.83a4.83 4.83 0 0 0-4.8.75 9.51 9.51 0 0 0-6 0 .24.24 0 0 0 0 .08l.27.16a.39.39 0 0 0 .42-.13l.13.58a3 3 0 0 0-.55-.45.35.35 0 0 1-.27-.16 5.2 5.2 0 0 0-3.88-.41.44.44 0 0 0 .34.54c-2.37-.28-4.48 1.06-6.22 2.31l-1.77 1.27c-.65.47-1.35 1-1.42 1.68a29.32 29.32 0 0 0 13.17-2.51c.46.69 1.75.71 2.77.62 3.23-.28 7-.86 8.29-3.11a.83.83 0 0 0 .09-.85 1.26 1.26 0 0 0-.57-.37Z" class="coloreafef3 svgShape"/>
          <path fill="#eafef3" d="m699.7 607.86-.27-.16a.35.35 0 0 0 .27.16ZM726.1 604.62v.59a10.48 10.48 0 0 0-3.91-.17.86.86 0 0 0-.6.25c-.11.17 0 .37.13.53 1.21 1.45 4.33 1.7 5.92.46a2.76 2.76 0 0 0-1.54-1.66ZM712.85 613.89l.82.13a.69.69 0 0 0-.82-.13Z" class="coloreafef3 svgShape"/>
          <path fill="#eafef3" d="M704.73 615.91a21.75 21.75 0 0 0 7.4-.44c.67-.12 1.42-.28 1.72-.75a.56.56 0 0 0-.18-.7l-.82-.13a.69.69 0 0 1 .82.13l.6.1c-3.17-1.28-7.54-.46-9.54 1.79ZM747.05 635l1.45.06c-1.47-.78-3.9.26-3.75 1.61a17 17 0 0 0-6.25 2.13c3 1.23 6.65-.18 9.54-1.55a1.92 1.92 0 0 0 .71-.47c.55-.71-.68-1.44-1.7-1.78ZM760 634.92l1.13 1.2a4.53 4.53 0 0 0-2.61.45 5.69 5.69 0 0 0 4.73.49c.24-.08.49-.2.56-.4s-.12-.45-.34-.62a5.72 5.72 0 0 0-3.47-1.12ZM769.64 573.25l-1.24.41a9.55 9.55 0 0 0-4.3 1.7l4.12-.47a3.21 3.21 0 0 0 1.72-.52.64.64 0 0 0-.3-1.12Z" class="coloreafef3 svgShape"/>
          <path fill="#eafef3" d="m821.35 508.93 2.28.56a22.8 22.8 0 0 0-7.1.67c-.39.11-.84.26-.94.57-.18.52.74.84 1.45.91a18.59 18.59 0 0 0 9.66-1.71 9.3 9.3 0 0 0-5.35-1Z" opacity=".52" class="coloreafef3 svgShape"/>
          <g opacity=".52" fill="#000000" class="color000 svgShape">
            <path fill="#eafef3" d="M857.65 496.46a3 3 0 0 0-1.4-.15h.52Z" class="coloreafef3 svgShape"/>
            <path fill="#eafef3" d="m864.57 495.73-8.68.58h.36a3 3 0 0 1 1.4.15l-.88-.15h-.52a2.62 2.62 0 0 0-2.36 1.55c4.83-.75 10.3 1 14.55-.84-.17-1.17-2.3-1.39-3.87-1.29Z" class="coloreafef3 svgShape"/>
          </g>
          <path fill="#eafef3" d="M877.14 557.68a156.12 156.12 0 0 0-25.9 3c-4.68.94-20.16 3.26-21.56 7 21.36-4.54 42.66-6.65 64.64-8.84 2-.2 4.65-1 4.26-2.51-6.94 1.37-14.25 1.12-21.44 1.35ZM817.88 580.93a23.17 23.17 0 0 0 9.89-1.87c.85-.38 1.74-.91 1.81-1.64a.73.73 0 0 0-.19-.53c-2.53 0-5.2.12-7.28 1.2-1.55.82-2.6 2.1-4.23 2.84ZM827.66 576.61l1.67.23a1.28 1.28 0 0 0-1.67-.23ZM829.33 576.84h.38ZM800 589l1.15.95a8.38 8.38 0 0 0-4.55 1.76c-.24.2-.47.45-.41.72s.72.55 1.24.63a11 11 0 0 0 4 .08c1.27-.29 2.39-1.24 2.13-2.22-.33-1.18-2.08-1.67-3.56-1.92Z" class="coloreafef3 svgShape"/>
          <path fill="#47b1c8" d="M1914.73 400.31c-45 .23-90 2.37-135 4.5q-174.6 8.29-349.17 16.92c-96.44 4.86-194.09 10.11-285.74 33.22 8.46 9.95 26.71 14.43 41.34 10.14l156 6.3c111.68-13.62 225.67.64 338.8.66 54.22 0 108.44-3.27 162.61-1.68 32.93 1 66.49 3.66 99.71 4.74v-42.29c-3.72-.21-7.42-.54-11.12-1-14.78-2-28.86-6.36-43.68-8.1-47.56-5.59-99 16.29-142.59 1 20.39-9.67 46.42-7.89 70.47-6.6a1055.87 1055.87 0 0 0 126.92-.84v-16.67c-9.48-.3-19.05-.35-28.55-.3ZM-18 460.69c36.17-2.06 72.79-.48 109-2.91 41.68-2.8 82.39-10.9 123.81-15.37 47.07-5.09 94.79-5.49 142.35-5.88l146.42-1.19L886 432.22c31.81-.26 63.74-.53 95.19-4.15 31.2-3.59 61.59-10.45 92.64-14.75 55.28-7.66 111.88-7.13 168-9.33 50.2-2 100.24-6.16 149.8-12.53H-18Z" class="color47b1c8 svgShape"/>
          <path fill="#eafef3" d="M407.44 651.05a140.29 140.29 0 0 0-25.16 8.55c-1.75.82-.21 2.79 1.61 2.07a212.45 212.45 0 0 1 24.46-8.13c2.08-.54 1.21-3.02-.91-2.49ZM369.74 660.5a309.16 309.16 0 0 1-39.44 5.75c-2.08.18-2.15 2.64 0 2.5a260.66 260.66 0 0 0 40.3-5.93c1.96-.45 1.13-2.75-.86-2.32ZM446.27 630c-1.34-.15-3.41-.66-4.79-.43s-2.42 1.37-3.51 2a29.42 29.42 0 0 1-10.92 3.52c-2.15.29-1.21 2.69.9 2.45a34.79 34.79 0 0 0 9.18-2.27 29.86 29.86 0 0 0 3.87-1.87c1.73-1 2.63-.83 4.83-.72 1.95.1 2.45-2.42.44-2.68Z" class="coloreafef3 svgShape"/>
          <g opacity=".37" fill="#000000" class="color000 svgShape">
            <path fill="#eafef3" d="M426.29 554.16c2.59-.71 5.23-1.34 7.88-1.92l-.15-.14c-2.58.67-5.16 1.35-7.73 2.06Z" opacity=".52" class="coloreafef3 svgShape"/>
            <path fill="#eafef3" d="M151.49 565.08a110 110 0 0 1-27.93 2.28c-1.93-.08-1.93 2.19 0 2.27a114 114 0 0 0 28.74-2.35c1.87-.4 1.07-2.6-.81-2.2ZM315 566.07c-24.87 2.81-49.88.85-74.69-1.31-11.54-1-23.05-2.24-34.59-3.24-8.3-.72-19.15-2.93-25.91 2-1.42 1 .75 2.67 2.18 1.64 4.49-3.22 10.94-2.31 16.49-1.67 5.79.66 11.56 1.4 17.35 2 10.7 1.14 21.4 2.27 32.14 3.18 22.41 1.89 45.5 2.18 67.85-.38 1.96-.23 1.18-2.44-.82-2.22ZM337.86 559.18a40 40 0 0 1-16.63 4.1c-2 .06-2.05 2.45 0 2.38a42.25 42.25 0 0 0 18.2-4.46c1.63-.84.13-2.84-1.57-2.02ZM413.8 550.33a196.18 196.18 0 0 0-59.21 10c-1.81.6-.24 2.6 1.55 2a193.21 193.21 0 0 1 57.66-9.73c1.97 0 1.98-2.3 0-2.27ZM137 548.42l-3.42.68a9.6 9.6 0 0 0 2.08 1 3.22 3.22 0 0 0 1.34-1.68ZM153.37 546.65a5 5 0 0 0 1.36 2 13.42 13.42 0 0 0 2.2-1.26Z" class="coloreafef3 svgShape"/>
            <path fill="#eafef3" d="M177.14 548c-3.81 0-18.24 1.63-19.66-2.21-.44-1.18-2.4-1.53-3.56-.7-2.65 1.89-6 2.08-9.45 2.29-2.41.14-6 .77-8-.46-1.15-.7-3-.53-3.41.68-.14.38-5.45-.7-6.29-.59-1.2.17-1.76.86-2.73 1.21-1.15.43.19.45-1.47.23-.5-.07-1-.59-1.52-.72a5.79 5.79 0 0 0-3.3.27 11.74 11.74 0 0 0-1.27.66c-2.2.94-2.57 1.07-5 .72a54.47 54.47 0 0 0-5.87-.78 31.69 31.69 0 0 0-13.66 2.55c-1.77.75-.19 2.79 1.59 2.05A27.38 27.38 0 0 1 104 551c3.25 0 6 1 9.11 1.27a7.66 7.66 0 0 0 3.61-.51c2-.73 1.52-1.49 4.3-.67.52.16.81.68 1.39.79a4.8 4.8 0 0 0 2.79-.11c.49-.19.77-.62 1.2-.82.16-.62.66-.86 1.5-.71a3.43 3.43 0 0 1 2.34.32c2.06.27 4.08.34 5.44-.49a9.6 9.6 0 0 1-2.08-1l3.42-.68a3.22 3.22 0 0 1-1.34 1.66c2.9 1 6.2.65 9.54.47a26 26 0 0 0 9.51-1.93 5 5 0 0 1-1.36-2l3.56.71a13.42 13.42 0 0 1-2.2 1.26 9.34 9.34 0 0 0 5.27 2c5.49.64 11.6-.08 17.14-.17 2.09.03 2.1-2.39 0-2.39ZM301.69 540.78c-6.42.19-12.78.53-19.17 1.06s-14.54 2.24-20.74.78c-3.68-.87-5.66-1.45-9.31 0-2.24.9-4.4 2.78-7.22 1.62-1.3-.53-1.69-1.51-3.32-1.79-4.37-.76-7.69 2.83-12.3 2.42-2.11-.19-4.12-.84-6.29-.72-1.94.1-3.14.84-4.86 1.41a12.86 12.86 0 0 1-7 .6c-1-.19-2-.56-3.08-.73a32.44 32.44 0 0 0-8.12 0c-5.86.54-11.69 1.35-17.53 2-2 .22-1.16 2.52.84 2.29 6.34-.73 12.86-1.86 19.27-2.06 4.85-.15 9.94 2.65 14.58 1.27 3.68-1.09 4.22-2.52 9.12-2a32.75 32.75 0 0 0 5.78.6c2.29-.15 3.53-1.06 5.57-1.64 1.18-.34 2.84-.89 4.15-.36.62.25 1.11 1.09 1.77 1.43 2.36 1.2 4.88.61 7.22-.32 1.77-.7 3.81-2.11 5.93-2.11 2 0 5 1.6 7.15 1.75 6.27.41 13.13-.71 19.36-1.18s12.45-1.13 18.65-1.93c1.78-.23 1.36-2.44-.45-2.39ZM325.51 538.36a101.41 101.41 0 0 1-16.14 3.11c-2.09.22-1.21 2.62.87 2.39a92 92 0 0 0 16.1-3.22c1.85-.55 1.09-2.81-.83-2.28ZM430.63 520.21c-9.08 2.27-18.14 4.58-27.26 6.74-9.6 2.29-19.34 4-29.47 3-2-.19-1.94 2.13 0 2.31 19.55 1.9 39.4-5.33 57.54-9.86 1.86-.4 1.07-2.66-.81-2.19ZM207.76 484.29 163.12 489c-1.93.21-1.11 2.42.81 2.21l44.65-4.72c1.95-.17 1.12-2.4-.82-2.2ZM275.57 482l-3-1.3a3.1 3.1 0 0 0 .15 3 11.58 11.58 0 0 0 2.85-1.7ZM331.36 478.74a.51.51 0 0 0 .07-.15ZM328.28 477.39a2.21 2.21 0 0 0 0 2.31l2-.34Z" class="coloreafef3 svgShape"/>
            <path fill="#eafef3" d="M331.43 478.59a.51.51 0 0 1-.07.15l.06-.15c.51-1-.59-2-2.08-1.82-9 1.26-18 2.67-27 4-4.61.65-9.1.55-13.7 1-1.86.19-14.44 4-12.61-.35.52-1.24-1.8-2.32-3-1.3-2.58 2.25-6 2.6-9.46 1.28a15.69 15.69 0 0 0-4.51-1.46 19.62 19.62 0 0 0-5.62.85 41.68 41.68 0 0 1-12.91.57c-1.9-.2-2.72 2-.8 2.18a47.75 47.75 0 0 0 10 .16c2.1-.21 4.06-.79 6.12-1.06 3.33-.42 4.72.45 7.31 1.36a13.15 13.15 0 0 0 9.56-.27 3.1 3.1 0 0 1-.15-3l3 1.3a11.58 11.58 0 0 1-2.82 1.72 6.41 6.41 0 0 0 3.86 2.56c4.66 1.3 9.85-1.5 14.52-1.73 12.59-.61 24.83-2.8 37.14-4.84a2.21 2.21 0 0 1 0-2.31l2 2-2 .34a3.67 3.67 0 0 0 4.86 1.09c1.8-.96.18-3.11-1.7-2.27ZM375 475.36c-2 0-2 2.37 0 2.37s2-2.37 0-2.37ZM401.23 475.4c-2 0-2 2.28 0 2.28s1.95-2.28 0-2.28ZM511.13 470.64a3.37 3.37 0 0 0-1 2.47l3.16-.38Z" class="coloreafef3 svgShape"/>
            <path fill="#eafef3" d="M561.68 467.9c-7.23 1.63-14.45 3.2-21.86 4.35-4.15.65-8.32 1.17-12.54 1.56-1.56.14-3.11.29-4.67.41-.62.06-11.16 1-8.22-2.15 1-1.1-.68-2.28-2.13-2.08a299.68 299.68 0 0 1-52.76 2.81c-2-.07-1.95 2.21 0 2.29a317.58 317.58 0 0 0 50.6-2 3.37 3.37 0 0 1 1-2.47l2.13 2.09-3.16.38a3.9 3.9 0 0 0 2.27 3.21c3.47 1.93 8.72.9 12.6.5a239 239 0 0 0 37.54-6.65c1.91-.48 1.16-2.7-.8-2.25ZM486.9 483.23a127 127 0 0 0-20.55-.21c-2 .14-2.06 2.54 0 2.41a139.56 139.56 0 0 1 20.55.19c2.04.16 2-2.21 0-2.39ZM991.55 453.87c-29 3.92-59.3 2.67-88.63 2.29a329.73 329.73 0 0 1-42.92-3.47c-12.94-1.85-26.56 1.05-39.46 2-1.68.13-2.44 2.24-.44 2.45 6.27.64 12.55-.38 18.72-1.15 7.47-.92 14.39-1.34 21.87-.25a306.3 306.3 0 0 0 43.2 3c29.34.14 59.51 1.37 88.5-2.61 1.96-.27 1.12-2.53-.84-2.26ZM802.7 454l-21.7-2.57c-1.91-.22-2.74 2-.81 2.21l21.72 2.55c1.89.23 2.71-1.97.79-2.19Z" class="coloreafef3 svgShape"/>
          </g>
          <g opacity=".51" fill="#000000" class="color000 svgShape">
            <path fill="#eafef3" d="m1636.42 493 3.13 1.82q1.7-2.73 3.4-5.44a19.58 19.58 0 0 0-6.53 3.62Z" class="coloreafef3 svgShape"/>
            <path fill="#eafef3" d="M1703.78 487.52c-14-.48-28.1-.21-42.11-.2-6.25 0-13.05.13-18.72 2.08q-1.71 2.72-3.4 5.44l-3.13-1.82a19.58 19.58 0 0 1 6.53-3.62c.33-.53.66-1.06 1-1.59.57-.91-.09-2.18-1.62-2.13-59.6 1.88-119.57 1.9-178.69 8.53-2.07.23-1.19 2.58.86 2.36 57.74-6.29 116.52-6.92 174.76-8l1.45-2.18 1.62 2.13-3.07.05-3.15 4.76c-1 1.45 1.53 3.15 3.13 1.82 7-5.8 18.88-4.69 28.3-4.67 12.07 0 24.19.33 36.24 0 2.5-.12 2.5-2.88 0-2.96Z" class="coloreafef3 svgShape"/>
            <path fill="#eafef3" d="m1640.71 486.38-1.45 2.18 3.07-.05ZM1719.42 497.33l1.48-1.19a3.2 3.2 0 0 1-1.48-.56ZM1721.93 491.72l-3.29 2.64 4.88-.58Z" class="coloreafef3 svgShape"/>
            <path fill="#eafef3" d="M1833.9 490.28c-11.23.66-22.45 1.4-33.67 2.11-10.54.67-22.53 2.46-32.23-1.62a2.13 2.13 0 0 0-2 .2c-5.39 5-15.32 2.32-22.54 1.67a38.48 38.48 0 0 0-10.34.16c-3 .55-8.72 3.87-12.21 3.34l-1.48 1.19v-1.75a3.2 3.2 0 0 0 1.48.56l3.34-2.68c1.19-.95 0-2.24-1.59-2l-30.66 3.63c-2 .24-1.17 2.56.85 2.32l25.8-3.05 3.29-2.64 1.59 2.06-4.88.58-1.54 1.22a1.05 1.05 0 0 0 0 1.75c2.9 2.12 6.19 1.49 9.59.33 2.63-.9 5-2.13 7.88-2.56a38.08 38.08 0 0 1 9.3.08c7.83.76 17.55 3 23.68-1.78-.41-.15-.82-.3-1.22-.47l2-.19c-.25.23-.52.45-.79.66 9 3.34 19.1 2.35 28.83 1.74 12.51-.79 25-1.55 37.52-2.4 2.1-.14 2.1-2.58 0-2.46Z" class="coloreafef3 svgShape"/>
            <path fill="#eafef3" d="M1766.33 492.93c.4.17.81.32 1.22.47.27-.21.54-.43.79-.66ZM1935.55 500c-24.47.78-49 .92-73.45 1q-17.8 0-35.6.17c-6.29.06-12.59.06-18.88.24-5.14.14-9.43 1.48-14 3.09-2.93 1-.38 4.28 2.53 3.26 11-3.82 23.5-2.76 35.35-2.85 11.53-.08 23.06-.11 34.59-.15 23.17-.08 46.34-.24 69.5-1 3.18-.13 3.19-3.91-.04-3.76ZM1770.13 472.81l-22.85-1.71c-1.93-.15-1.92 2.12 0 2.26l22.85 1.73c1.94.14 1.93-2.09 0-2.28ZM1834.12 472.77h-45.71c-2 0-2 2.37 0 2.37h45.71c2.04.02 2.04-2.36 0-2.37ZM1431.9 510.63c-2 0-2 2.3 0 2.3s1.97-2.3 0-2.3ZM1404.48 505.49h-4.57c-1.94 0-1.94 2.27 0 2.27h4.57c1.94 0 1.94-2.27 0-2.27ZM1345.06 507.18c-2 0-2 2.33 0 2.33s2-2.33 0-2.33ZM1213 515.72c-6.9-.93-13.81-1.9-20.72-2.79-2-.26-2.85 2-.84 2.29 6.89 1 13.81 1.88 20.71 2.81 1.96.27 2.85-2.03.85-2.31ZM1157.71 512c-6.85-.57-13.71-1.15-20.56-1.69-2-.16-2 2.16 0 2.33 6.85.61 13.71 1.18 20.56 1.75 2.03.16 2.01-2.23 0-2.39Z" class="coloreafef3 svgShape"/>
          </g>
          <path fill="#eafef3" d="M1123.38 510.5q-74.28 2.41-148.62-.36c-2-.07-2 2.23 0 2.3q74.27 2.91 148.62.38c1.98-.07 1.99-2.39 0-2.32Z" opacity=".51" class="coloreafef3 svgShape"/>
          <path fill="#eafef3" d="M885.35 555.49c-9.17 1.63-18.36 3.2-27.5 4.94-2 .39-1.16 2.69.86 2.35 9.19-1.56 18.33-3.29 27.49-5 2.02-.33 1.16-2.65-.85-2.29ZM363.17 685.12c-5.09 2-10.17 4.12-15.2 6.25-1.78.76-.2 2.78 1.6 2.06 5.11-2 10.17-4.12 15.23-6.22 1.81-.76.2-2.83-1.63-2.09ZM323.53 694.5h-6.86c-2 0-2 2.33 0 2.34h6.86c2.04.06 2.04-2.34 0-2.34ZM277.82 694.56c-1.94 0-1.94 2.27 0 2.27s1.95-2.27 0-2.27ZM257.21 693.25c-14.45-.72-28.91-1.56-43.38-2.12-2.06-.08-2 2.28 0 2.39 14.44.86 28.92 1.44 43.38 2.13 2.05.1 2.04-2.3 0-2.4ZM273.15 712.91a142.74 142.74 0 0 0-55.54-2.53c-2.08.32-1.19 2.68.87 2.38a141.6 141.6 0 0 1 53.83 2.43c1.93.47 2.75-1.81.84-2.28Z" class="coloreafef3 svgShape"/>
        </g>
        <path fill="url(#dx)" d="M1718.93 1001.48c66.86 52 105.66 129.76 105.66 129.76-40.94-31.53-103-50.85-103-50.85l22.76-30.91-27.76 27.67 24.81-31.42-28.92 31.08-31.18-14.68 33-38.89-36.81 37.69-17.66-11.59 41.8-37.18-5-3.24-47.63 33.77-10.9-8 35.94-36.5-39.17 36.33-45.3-22.87c13.97-20.4 62.51-62.15 129.36-10.17Z"/>
        <path fill="url(#d)" d="M1690.54 506.07c-12.44 1.88-26.32 1.17-35.86-7 22.42-1.45 45.11-3 66.53-9.77a102.31 102.31 0 0 1-48.9-7.06 105 105 0 0 1 14.36-1.48l-7.78-1.84c23.52-5.83 48.92 2.34 71.51 12.08 66.19 28.56 127.67 72.36 166.1 133.41 13.38 21.25 23.76 44.23 34.1 67.12q23.7 52.43 47.38 104.85 16.2 35.86 32.39 71.71c9.72 21.5 19.44 43 27.7 65.11q8.5 22.74 14.91 46.19l-6.56 23.37q-5.27-26.84-10.55-53.68c-44.87 48.82-116 61.46-181.87 68 18.85-17.63 45.46-23.32 70.11-30.89a379.32 379.32 0 0 0 86.06-38.71c5.56-3.38 11.23-7.11 14.61-12.67s3.77-13.5-.82-18.11c-27.83 26.62-64.34 42.7-101.75 51.68s-76 11.31-114.43 13.6c66.26-35.81 152.8-31.14 208.56-81.82q-4.53-9.33-9-18.67c-47.35 42.27-113.36 62.77-176.24 54.72a645 645 0 0 0 172.23-64l-12.06-21.08c-21.43 7.62-38.28 24.2-57.64 36.14-50.22 31-118.24 27.95-167.51-4.45a223.2 223.2 0 0 0 85.14-5.52c45.82-12.08 88.73-38.91 136.1-38.49l-10.91-20.48c-35.79 6.65-65.89 30.25-99.65 43.91a188.52 188.52 0 0 1-129.44 3.93c39.81 2.26 76.32-19.86 111.56-38.56s76.8-34.92 114-20.68l-24.08-41.07a473.12 473.12 0 0 1-216.14 59.52c36.78-13.67 66.37-41.46 100.44-61s79-29.77 111.16-7.32a131.9 131.9 0 0 1-16.17-37c-40.91-8.79-82.39 9-120.4 26.53s-79.12 35.82-120.23 28c41.31-11.32 76.21-38.47 114.48-57.75s86-30.17 122.79-8.32c-10.87-17.22-23.64-35.86-43.42-40.65-14.94-3.62-30.39 1.62-45.24 5.62a285.76 285.76 0 0 1-152.5-1.34c38.67-3.18 73.89-23.7 112.08-30.6A163.22 163.22 0 0 1 1922.52 659c1.17-6.24 2.35-12.58-2.32-16.86-11.93-11-29-14.46-45.19-14.68s-32.38 2.35-48.56 1.5c-32.83-1.72-64.2-17.43-97-15.86-22.92 1.09-48.14 10.1-67.32-2.51a440.86 440.86 0 0 0 90-16.3c19.18-5.57 38.61-12.54 58.52-11 18.66 1.43 35.86 10.2 52.49 18.81l38.23 19.79c-11.74-19-24.77-39.11-45.38-47.63-9.89-4.08-20.73-5.11-31.41-5.84-56.09-3.83-114.08-.92-166.6-21 15.88-.76 31.81-1.52 47.48-4.19 17-2.9 33.76-8 51-8.79 33.85-1.47 65.87 14 96.23 29-20.17-16.57-41.62-33.74-67.36-38-13.68-2.27-27.68-.71-41.45.9-27.17 3.17-55.24 6.44-81.41-1.46 35-11.29 72.65-22.66 108-12.38-13.65-6-27.76-12-42.65-12.2-12.64-.16-24.82 3.9-37.28 5.77Z"/>
        <path fill="url(#dy)" d="M1653.43 392.85a87.12 87.12 0 0 1 10.88-5.68l-6.73 1c16.76-12 39.41-13.49 60.34-12.88 61.33 1.8 123.74 17.12 173.36 53.31 17.27 12.6 32.72 27.5 48.11 42.34l70.49 68 48.2 46.5c14.45 13.94 28.92 27.89 42.41 42.76q13.89 15.3 26.34 31.83l2.18 20.52-25.26-39.1c-20.09 52.65-72.32 85-122.37 110.77 9.34-19.84 28.6-32.69 45.7-46.41a322.61 322.61 0 0 0 55.85-57.59c3.32-4.42 6.63-9.14 7.55-14.6s-1.27-11.85-6.35-14.05c-13.62 29.77-37.42 53.93-64.16 72.77s-56.56 32.78-86.19 46.64c41.1-49.09 111-72.54 139.11-130.09l-13-11.92c-24.12 48.27-69.85 85.17-122.11 98.54a547.69 547.69 0 0 0 116-104.6l-16.2-12.91c-14.53 12.75-22.63 31.13-34.17 46.65-29.94 40.25-84.69 59.18-133.85 49a189.56 189.56 0 0 0 65.57-31.07c32.43-23.92 57.9-58.59 95.48-73.12l-15.07-12.76c-26.21 16.49-42.56 44.58-65 66a160.34 160.34 0 0 1-101.1 43.72c32.18-10.71 54.08-39.64 76-65.48s49.71-51.69 83.64-52.12l-32-24.89a402 402 0 0 1-152.13 114.84c24.77-22.34 39.41-53.59 60.2-79.69s53.08-48.31 85.58-40.66a112.28 112.28 0 0 1-24.44-24.17c-35.12 5.89-62.32 32.93-86.84 58.74s-51.27 53.13-86.23 59.86c29.1-21.9 48.14-54.3 72.32-81.55s58.46-50.82 94.46-45.1c-14-10.2-30-20.92-47.14-18.5-13 1.83-23.51 10.82-34 18.64a243 243 0 0 1-121 46.78c29.57-14.65 51-41.91 79-59.35a139 139 0 0 1 90-19.71c-1-5.3-2.1-10.68-7.14-12.6-12.89-4.92-27.48-2.33-40.36 2.58s-24.86 12-37.92 16.42c-26.5 8.94-56.25 6.37-81.71 17.91-17.78 8.06-34.89 23.08-54 19.14a374.84 374.84 0 0 0 66-41.11c13.41-10.42 26.58-22 42.8-27.06 15.21-4.73 31.57-3.19 47.43-1.61l36.45 3.65c-15.26-11.32-31.9-23.13-50.88-23.4-9.1-.13-18 2.46-26.67 5.24-45.56 14.57-90.49 35.07-138.33 35.67 12.31-5.58 24.66-11.18 36.22-18.21 12.55-7.63 24.15-16.95 37.56-22.95 26.3-11.79 56.48-9.64 85.22-7.26-21.16-6.77-43.53-13.61-65.23-8.92-11.53 2.5-22.11 8.12-32.49 13.72-20.48 11-41.64 22.42-64.82 24.39 24.14-19.92 50.3-40.71 81.47-43.67-12.67-.42-25.74-.78-37.57 3.75-10 3.82-18.36 10.85-27.6 16.24s-20.45 9.17-30.57 5.69c17.27-8.18 34.73-16.49 49.52-28.59a87.13 87.13 0 0 1-40.81 9.77Z"/>
        <path fill="url(#dz)" d="m1800.86 1065.07-12.77 3c-32.58-41.52-58.52-111.72-58.52-111.72l9.27-23.71L1720 940l-13.39-32.06 16.48-20.58-33.7 8.81L1629.46 786c114.84 13.13 161.54 215.42 171.4 279.07Z"/>
        <path fill="url(#dA)" d="m1941.14 1106.76-55.94 6c-57.92-19.06-89.48-62.9-89.48-62.9l34.22-59-41.75 44.3-29.32-40 32.46-64.33-47.42 47.17-34.5-43.88 31.86-58.73-40.81 53-44.4-58.31 42.58-36.64-51.88 27.68-160.56-118.89c383.24-4.92 446.47 306.43 454.94 364.53Z"/>
        <path fill="url(#b-1)" d="M969.3 719.73c3.36-1 6.89 0 10.33.57a83.24 83.24 0 0 0 11 .87c22.65.74 45.4.21 67.54 4.85a4.2 4.2 0 0 0 3.37-.06c1.91-1.21 1.47-4.41 1.72-6.91.53-5.42 5.55-9.06 10.29-9.2s9.23 2.28 13.5 4.65c-.78-3 3-4.54 5.74-4.49a162.11 162.11 0 0 1 60.43 13.15c3 1.27 6 2.64 9.14 2.73a28.58 28.58 0 0 0 6.83-1.07 118.93 118.93 0 0 1 11.83-1.79c7.94-.94 15.91-1.88 23.88-1.56 8.61.33 17.12 2.12 25.69 3.07 16 1.78 32.13.64 48.21.76a310.2 310.2 0 0 1 63.4 7 12.66 12.66 0 0 0-1.39 1H969.73c-2.31-.91-4.67-2.21-5.52-4.78-1.21-3.66 1.73-7.76 5.09-8.79Z" transform="matrix(0.9999999999999999, 0, 0, 0.9999999999999999, -506.9156985349225, 113.23862673544647)"/>
      </g>
    </svg>
  </g>
</svg>