<?xml version="1.0" encoding="utf-8"?>
<svg viewBox="0 0 3000 1000" xmlns="http://www.w3.org/2000/svg">
  <g id="SvgjsG1008" transform="matrix(5.466378, 0, 0, 5.466378, -1.162391, -1345.638428)" style="">
    <svg xmlns="http://www.w3.org/2000/svg" viewBox="0 0 1920 1080" width="550" height="550"/>
    <path fill="#58d1ca" d="M 0.629 409.158 C 16.98 408.518 33.356 408.934 49.654 410.403 C 76.286 412.809 107.117 417.119 126.79 403.408 C 137.143 396.181 153.184 396.718 167.143 398.371 C 181.103 400.025 196.243 402.23 208.714 397.216 C 217.947 393.505 223.991 386.418 232.847 382.226 C 242.025 377.87 253.293 377.034 264.115 376.314 L 331.918 371.773 C 345.628 370.856 359.36 369.938 373.108 369.28 C 423.368 366.876 473.837 367.957 524.09 370.313 C 532.324 370.698 541.237 370.908 549.412 369.843 L 549.412 330.834 L 0.629 330.834 L 0.629 409.158 Z" class="color58d1ca svgShape" style=""/>
    <path fill="#47b1c8" d="M 189.76 348.812 C 187.085 348.728 184.292 348.656 181.858 349.492 C 179.9 350.161 178.366 351.353 176.478 352.111 C 173.151 353.449 169.163 353.309 165.395 353.161 C 128.489 351.72 91.528 353.035 54.819 357.095 C 45.026 358.183 35.146 359.487 26.027 362.411 C 17.697 365.063 10.143 369.019 1.661 371.417 C 1.314 371.516 0.968 371.611 0.618 371.698 L 0.618 380.287 C 6.011 379.601 11.448 379.332 16.883 379.485 C 24.852 379.764 32.768 381.219 40.722 380.777 C 48.89 380.321 56.847 377.879 65.015 378.352 C 72.796 378.802 80.051 381.88 87.856 382.025 C 103.524 382.305 118.634 370.908 133.019 375.444 C 132.159 375.268 131.401 376.375 131.997 376.98 C 132.635 377.63 133.866 377.705 134.941 377.719 C 172.865 378.223 210.9 373.731 246.795 364.513 C 256.639 361.993 266.662 359.067 276.933 358.572 L 272.04 358.552 L 356.11 350.382 C 360.36 349.97 365.22 349.263 367.302 346.451 C 308.184 349.851 248.947 350.639 189.76 348.812 Z" class="color47b1c8 svgShape" style=""/>
    <path fill="#1bb0c4" d="M 276.933 358.578 L 283.469 358.614 C 281.293 358.482 279.111 358.469 276.933 358.578 Z" class="color1bb0c4 svgShape" style=""/>
    <path fill="#79c0ce" d="M 422.658 364.652 C 411.214 365.318 399.898 366.955 388.46 367.666 C 374.77 368.505 361.003 368.038 347.268 367.898 C 318.277 367.602 289.291 368.824 260.428 371.558 C 249.75 372.568 238.882 373.838 229.319 377.551 C 219.405 381.398 210.796 386.292 200.219 389.16 C 189.226 392.14 177.127 392.051 165.652 391.161 C 156.208 390.43 146.44 389.222 137.406 391.404 C 127.893 393.707 120.478 399.496 111.146 402.21 C 104.291 404.205 96.764 404.432 89.419 404.247 C 76.811 403.932 64.26 402.45 51.926 399.821 C 45.554 398.455 38.951 396.768 32.457 397.747 C 28.215 398.385 24.393 400.126 20.182 400.873 C 15.54 401.712 10.654 401.287 5.945 401.866 C 4.105 402.078 2.311 402.582 0.629 403.36 L 0.629 423.156 C 2.513 423.233 4.397 423.039 6.225 422.577 C 9.846 421.682 13.078 420.059 16.628 419.023 C 25.227 416.505 34.981 417.493 43.769 419.6 C 52.558 421.707 60.891 424.874 69.791 426.726 C 76.875 428.191 84.107 428.814 91.336 428.579 C 100.421 428.299 109.669 426.55 116.93 422.424 C 122.624 419.181 126.821 414.647 132.288 411.167 C 140.85 405.711 152.126 403.13 163.31 402.431 C 183.694 401.158 203.84 404.922 224.369 403.592 C 232.617 403.058 243.001 400.358 243.074 394.129 C 243.111 391.113 240.435 388.254 241.043 385.277 C 242.092 380.119 251.115 378.905 258.054 378.944 L 300.825 379.177 C 306.229 379.207 311.774 379.219 316.828 377.778 C 319.164 377.117 321.349 376.155 323.747 375.631 C 327.553 374.792 331.604 375.128 335.56 375.262 C 350.469 375.76 364.176 372.327 378.827 371.507 C 394.418 370.634 410.036 372.223 425.635 371.572 C 434.39 371.205 443.098 370.125 451.867 370.173 C 465.471 370.251 478.801 373.047 492.377 373.715 C 503.289 374.252 514.291 373.407 525.181 374.216 C 529.884 374.566 534.636 375.223 539.303 374.658 C 543.419 374.162 547.566 372.456 549.421 369.725 L 549.421 368.547 L 462.715 364.971 C 449.371 364.429 435.979 363.88 422.658 364.652 Z" opacity=".44" class="color79c0ce svgShape" style=""/>
    <path fill="#47b1c8" d="M 184.144 385.391 L 186.21 385.511 C 180.926 383.449 175.837 381.125 169.726 380.584 C 166.619 380.34 163.498 380.325 160.389 380.537 C 159.74 380.853 159.077 381.149 158.385 381.413 L 158.033 381.539 C 154.555 382.078 151.105 382.657 147.82 382.764 C 139.059 383.026 130.114 381.041 121.393 382.219 C 113.533 383.281 106.818 387.022 99.307 389.062 C 80.84 394.077 60.07 388.36 40.829 391.264 C 35.176 392.103 29.774 393.699 24.241 394.924 C 16.728 396.584 9.084 397.585 1.396 397.918 L 0.626 397.949 L 0.626 411.049 C 22.843 407.734 44.609 401.272 67.141 402.434 C 72.177 402.695 77.156 403.332 82.186 403.525 C 91.006 403.873 99.824 402.824 108.314 400.417 C 113.866 398.822 119.3 396.524 122.741 392.884 C 123.95 391.602 124.902 390.17 126.379 389.065 C 129.899 386.446 135.528 386.292 140.369 387.061 C 145.21 387.831 149.883 389.353 154.832 389.507 C 161.724 389.725 168.246 387.268 175.073 386.536 C 179.592 386.046 184.166 386.309 188.739 386.463 L 188.414 386.345 C 186.972 386.119 185.546 385.799 184.144 385.391 Z" class="color47b1c8 svgShape" style=""/>
    <path fill="#00aec4" d="M 194.483 386.536 L 194.204 386.536 C 194.57 386.622 194.936 386.701 195.305 386.773 C 196.868 386.722 198.425 386.568 199.968 386.311 L 199.357 386.278 C 197.522 386.426 195.852 386.508 194.483 386.536 Z" class="color00aec4 svgShape" style=""/>
    <path fill="#eafef3" d="M 219.156 380.836 C 214.171 382.372 209.057 383.462 203.879 384.093 C 196.575 384.997 189.165 384.427 182.085 382.414 C 179.819 381.757 177.553 380.937 175.123 380.919 C 170.546 380.886 165.095 384.638 160.534 385.601 C 154.79 386.815 148.609 387.028 142.881 385.643 C 137.845 384.423 133.125 382.025 127.828 382.081 C 120.9 382.159 115.103 386.689 113.326 391.728 C 112.987 392.694 112.75 393.709 112.028 394.552 C 111.118 395.618 109.565 396.262 108.057 396.827 C 101.876 399.146 92.947 399.857 87.609 403.022 C 86.912 401.866 84.889 401.524 83.231 401.748 C 81.571 401.973 80.035 402.588 78.37 402.803 C 73.943 403.343 70.289 400.903 67.038 399.023 C 65.376 398.061 63.445 396.785 61.397 396.312 C 60.532 396.119 59.668 396.292 58.837 396.057 C 57.846 395.777 57.052 394.963 56.039 394.619 C 54.774 394.191 53.367 394.06 51.985 393.97 C 50.291 393.849 48.595 393.762 46.898 393.709 C 45.266 393.659 43.613 393.637 42.029 393.936 C 38.355 394.63 35.616 396.922 33.506 399.287 C 33.265 399.598 32.961 399.855 32.613 400.042 C 32.101 400.282 31.408 400.302 31.004 400.638 C 30.47 401.08 30.706 401.855 30.149 402.28 C 29.87 402.458 29.554 402.568 29.225 402.599 C 28.293 402.744 27.319 402.719 26.399 402.907 C 25.479 403.094 24.564 403.579 24.412 404.295 C 24.334 404.647 24.435 405.056 24.133 405.33 C 23.937 405.471 23.714 405.565 23.477 405.61 L 7.302 410.014 C 12.881 408.676 18.64 407.831 24.424 407.185 C 27.278 406.866 30.238 406.418 33.12 406.323 C 35.873 406.231 38.691 406.967 41.548 406.9 C 42.566 406.877 43.806 406.682 44.111 405.948 C 47.021 406.525 50.37 405.109 51.215 402.929 C 52.328 403.367 53.482 403.694 54.659 403.909 L 61.117 405.308 C 61.859 405.467 62.933 405.492 63.112 404.928 C 64.146 405.466 65.379 405.466 66.413 404.928 C 66.937 404.631 69.839 405.033 70.583 405.028 C 72.122 405.028 73.736 404.79 75.261 404.871 C 78.037 405.016 80.824 405.263 83.655 405.319 C 89.989 405.483 96.326 405.275 102.634 404.695 C 105.413 404.415 108.673 403.794 109.616 401.81 C 113.731 401.598 118.029 401.343 121.552 399.731 C 123.589 398.802 125.237 397.47 126.869 396.158 L 134.009 390.38 C 135.744 391.682 138.659 391.98 140.795 391.074 C 141.81 393.352 146.245 394.23 148.628 392.624 C 149.928 393.931 153.33 393.013 153.226 391.385 C 154.832 393.449 159.314 393.727 161.34 391.886 C 162.633 393.466 166.444 393.125 167.216 391.356 C 168.668 392.524 171.369 392.635 172.98 391.595 L 191.898 391.874 C 194.534 391.913 197.799 391.662 198.79 389.824 C 200.897 390.307 203.124 390.797 205.272 390.424 C 207.421 390.052 209.366 388.466 208.871 386.863 C 210.93 387.459 213.434 385.783 212.885 384.177 C 219.551 381.767 226.373 377.763 233.574 376.222 C 228.502 377.285 223.958 379.311 219.156 380.836 Z" class="coloreafef3 svgShape" style=""/>
    <path fill="#eafef3" d="M 233.538 376.225 C 233.801 376.171 234.064 376.116 234.331 376.065 C 234.064 376.116 233.801 376.168 233.538 376.225 Z M 61.254 406.48 C 61.319 406.404 61.08 406.463 61.14 406.527 L 61.254 406.48 Z" class="coloreafef3 svgShape" style=""/>
    <path fill="#eafef3" d="M 61.503 406.564 C 61.38 406.564 61.224 406.603 61.145 406.536 C 60.895 406.485 60.637 406.485 60.387 406.536 C 60.144 406.598 59.947 406.816 60.046 406.987 C 60.168 407.13 60.342 407.22 60.529 407.239 C 61.364 407.427 62.217 407.521 63.073 407.518 C 63.168 407.525 63.263 407.513 63.353 407.482 C 63.574 407.381 63.49 407.12 63.319 406.978 C 62.869 406.609 62.15 406.575 61.503 406.564 Z M 80.093 407.532 L 73.098 406.654 C 71.571 406.46 69.265 405.828 67.782 406.136 C 67.86 406.975 69.293 407.146 70.199 407.177 C 70.48 407.175 70.76 407.189 71.039 407.216 C 71.347 407.266 71.65 407.341 71.946 407.44 C 74.756 408.276 77.698 408.58 80.62 408.336 C 80.696 408.334 80.771 408.321 80.843 408.298 C 81.058 408.21 81.098 407.922 80.914 407.78 C 80.904 407.772 80.893 407.765 80.882 407.758 C 80.644 407.616 80.372 407.537 80.093 407.532 Z M 87.601 405.996 L 87.559 406.394 C 87.388 406.298 87.195 406.247 86.999 406.245 C 86.801 406.245 86.607 406.415 86.688 406.556 C 86.778 406.649 86.898 406.705 87.027 406.715 C 88.591 407.037 90.187 407.177 91.784 407.132 C 90.804 406.226 89.131 405.772 87.601 405.996 Z M 56.173 405.187 C 55.771 405.106 55.316 405.117 54.972 404.938 C 54.743 404.821 54.593 404.634 54.363 404.513 C 54.133 404.392 53.758 404.379 53.632 404.566 L 53.409 404.641 C 53.141 404.448 52.8 404.386 52.483 404.476 C 52.678 404.967 52.939 405.512 53.554 405.728 C 53.849 405.813 54.156 405.855 54.464 405.854 L 57.46 405.974 C 57.149 405.555 56.688 405.273 56.173 405.187 Z M 45.546 407.773 L 45.115 407.753 C 44.928 407.676 44.725 407.646 44.525 407.666 C 44.326 407.703 44.169 407.887 44.284 408.013 C 44.35 408.07 44.43 408.109 44.516 408.126 C 45.308 408.354 46.116 408.521 46.934 408.627 C 46.979 408.539 46.979 408.434 46.934 408.346 C 46.447 408.22 45.98 408.027 45.546 407.773 Z M 51.643 410.324 L 50.829 410.288 C 51.705 410.803 52.726 411.02 53.736 410.903 C 52.927 410.374 52.014 410.025 51.059 409.88 L 51.643 410.324 Z" class="coloreafef3 svgShape" style=""/>
    <path fill="#f8fbf0" d="M 143.631 405.389 L 140.299 406.359 C 137.437 407.2 134.471 408.078 132.366 409.757 C 131.85 410.234 131.288 410.658 130.688 411.024 C 129.023 411.891 126.703 411.606 124.887 412.286 C 121.905 413.405 121.429 416.567 118.841 418.145 C 116.846 419.362 113.642 419.637 112.685 421.43 C 112.442 421.889 112.385 422.404 112.053 422.829 C 111.611 423.389 110.763 423.705 109.957 423.965 C 105.099 425.527 100.104 426.63 95.041 427.261 C 90.284 427.86 84.872 428.33 80.043 428.249 C 86.412 428.735 92.802 428.439 99.14 428.606 C 102.777 428.702 106.3 427.809 109.733 426.928 C 111.692 426.424 113.65 425.918 115.449 425.135 C 117.408 424.273 119.106 423.103 120.78 421.945 L 122.178 420.974 C 122.838 420.545 123.46 420.062 124.037 419.527 C 124.396 419.116 124.794 418.742 125.226 418.408 C 125.617 418.169 126.031 417.97 126.463 417.818 C 128.485 417.015 130.567 416.2 132.837 415.993 C 133.656 415.92 134.515 415.923 135.277 415.689 C 136.373 415.35 137.159 414.502 137.201 413.612 C 137.219 413.243 137.123 412.865 137.261 412.512 C 137.819 411.113 141.421 411.133 141.272 409.679 C 141.239 409.362 140.993 409.065 141.032 408.747 C 141.127 407.829 142.929 407.907 144.11 407.627 C 145.588 407.269 146.295 406.026 147.488 405.279 C 149.928 403.741 154.233 403.547 157.266 403.089 C 154.214 403.34 151.11 403.576 148.139 404.208 C 146.592 404.527 145.112 404.958 143.631 405.389 Z" class="colorf8fbf0 svgShape" style=""/>
    <path fill="#eafef3" d="M 223.146 385.382 C 222.416 386.051 221.985 386.886 221.244 387.549 C 219.727 388.906 217.091 389.412 215.824 390.906 C 214.948 391.938 214.878 393.281 213.918 394.264 C 213.373 394.824 212.584 395.226 211.784 395.579 C 209.626 396.518 207.36 397.183 205.037 397.557 C 203.363 397.386 201.678 397.74 200.214 398.57 C 199.687 398.094 198.7 398.19 197.897 398.332 C 190.263 399.689 182.272 399.767 174.466 399.126 C 180.21 399.989 186.089 400.481 191.895 401.007 C 196.075 401.388 200.289 401.766 204.486 401.53 C 206.165 401.438 208.048 401.155 209.011 400.109 C 210.318 400.808 212.399 399.46 211.674 398.385 C 212.461 398.835 213.633 398.455 214.308 397.918 C 214.982 397.381 215.505 396.684 216.383 396.343 C 216.632 395.092 217.905 394.104 219.114 393.232 C 219.454 392.954 219.838 392.738 220.25 392.591 C 220.924 392.381 221.748 392.47 222.344 392.154 C 223.691 391.44 222.648 389.456 224.059 388.813 C 224.456 388.681 224.866 388.587 225.282 388.533 C 227.002 388.145 227.707 386.261 226.507 385.254 C 227.905 385.456 229.403 385.067 230.337 384.272 C 230.701 383.964 230.981 383.601 231.381 383.32 C 231.94 382.932 232.685 382.738 233.406 382.554 L 244.543 379.722 C 238.63 380.365 232.798 381.605 227.137 383.424 C 225.665 383.905 224.162 384.449 223.146 385.382 Z" class="coloreafef3 svgShape" style=""/>
    <path fill="#eafef3" d="M 282.974 368.905 C 278.469 369.184 273.967 369.49 269.465 369.801 L 264.684 370.131 C 262.769 370.262 260.853 370.394 258.961 370.649 C 256.681 370.959 254.451 371.443 252.226 371.93 L 233.759 375.954 L 249.428 372.819 C 259.667 371.53 270.026 371.502 280.271 372.738 C 281.491 372.886 282.946 372.996 283.766 372.299 C 286.027 373.214 288.786 372.517 291.22 371.905 C 294.117 371.181 297.048 370.6 300.003 370.164 C 306.212 369.246 312.55 368.961 318.867 368.676 L 334.091 367.99 C 317.065 367.31 299.977 367.864 282.974 368.905 Z" opacity=".71" class="coloreafef3 svgShape" style=""/>
    <path fill="#eafef3" d="M 370.81 369.445 L 355.981 369.255 C 360.918 369.372 365.862 369.436 370.81 369.445 Z M 388.393 369.264 C 395.437 369.1 402.473 368.832 409.502 368.458 C 412.122 369.649 415.034 370.05 417.879 369.61 C 417.481 370.346 418.959 370.799 420.014 370.819 L 432.605 371.048 C 435.042 371.093 437.98 370.934 439.141 369.322 C 441.65 370.087 444.348 369.936 446.755 368.893 C 450.446 369.999 454.381 370.005 458.076 368.911 C 459.119 370.262 461.73 370.097 463.77 369.801 C 468.02 369.184 472.326 368.77 476.641 368.569 C 482.237 368.29 487.875 368.39 493.491 368.477 C 491.532 368.222 489.573 368.086 487.595 367.96 C 454.543 365.842 421.378 366.279 388.393 369.264 Z M 370.81 369.445 L 384.546 369.624 C 385.827 369.498 387.109 369.381 388.393 369.264 C 382.534 369.401 376.673 369.462 370.81 369.445 Z" class="coloreafef3 svgShape" style=""/>
    <path fill="#eafef3" d="M 150.414 371.166 C 148.763 371.395 147.117 371.642 145.478 371.908 C 147.138 371.72 148.786 371.494 150.414 371.166 Z" opacity=".52" class="coloreafef3 svgShape" style=""/>
    <path fill="#eafef3" d="M 237.811 356.504 C 236.924 356.367 235.939 356.225 235.156 356.574 C 234.646 356.798 234.316 357.187 233.916 357.511 C 231.756 359.28 227.959 359.017 224.931 358.261 C 221.904 357.506 218.775 356.381 215.664 356.888 C 212.553 357.394 210.202 360.646 212.612 362.226 C 213.088 362.537 213.709 362.766 213.952 363.203 C 214.413 364.042 213.157 364.837 212.018 365.136 C 209.78 365.724 207.036 365.819 204.699 365.604 C 201.834 365.381 198.955 365.426 196.098 365.737 C 194.464 365.895 192.838 366.093 191.212 366.297 C 190.074 366.458 188.928 366.551 187.779 366.577 C 187.301 366.552 186.821 366.587 186.352 366.681 C 185.896 366.801 185.487 367.103 185.493 367.464 C 183.24 367.375 180.297 367.604 178.269 368.39 C 179.172 367.579 178.699 366.314 177.634 365.721 C 176.567 365.128 175.045 365.061 173.683 365.161 C 171.865 365.307 170.075 365.702 168.366 366.336 C 166.579 367.257 165.059 368.449 163.276 369.456 C 161.832 370.3 160.226 370.827 158.562 371.003 C 157.633 371.104 156.682 371.141 155.764 371.331 C 154.846 371.521 153.936 371.851 153.016 372.097 C 148.959 373.183 144.717 373.435 140.489 373.896 C 139.09 374.051 137.692 374.249 136.32 374.476 C 139.919 374.157 143.547 373.997 147.081 373.788 C 150.864 373.563 154.637 373.315 158.388 372.834 C 160.285 372.588 162.174 372.274 164.029 371.893 C 165.773 371.527 167.602 371.591 169.346 371.138 C 170.165 371.876 171.931 371.818 172.661 371.029 C 172.317 371.476 172.826 372.078 173.483 372.235 C 174.142 372.391 174.849 372.235 175.509 372.103 C 175.322 372.31 175.479 372.615 175.755 372.753 C 176.062 372.874 176.392 372.924 176.721 372.898 C 178.485 372.876 180.218 372.434 181.777 371.608 C 181.533 371.546 181.446 371.244 181.622 371.063 C 181.64 371.043 181.662 371.027 181.684 371.012 C 182.857 371.368 184.357 370.844 184.749 369.941 C 185.977 370.38 187.639 369.848 188.072 368.877 C 188.072 369.129 188.42 369.319 188.752 369.336 C 189.082 369.336 189.41 369.272 189.715 369.148 C 191.755 368.463 193.839 367.66 196.078 367.52 C 198.675 367.387 201.278 367.423 203.871 367.629 C 203.772 367.666 203.689 367.744 203.691 367.831 C 203.691 367.984 203.871 368.11 204.044 368.183 C 204.64 368.443 205.308 368.484 205.93 368.298 C 206.686 369.084 208.361 369.241 209.35 368.62 C 209.324 368.97 209.696 369.283 210.133 369.4 C 210.587 369.494 211.055 369.494 211.509 369.4 C 212.238 369.285 212.949 369.08 213.628 368.79 C 214.806 369.07 216.179 368.231 216.056 367.304 C 216.715 367.233 217.272 366.782 217.48 366.152 C 217.642 365.592 217.509 365.032 217.374 364.492 C 218.379 364.87 219.733 364.601 220.357 363.896 C 220.855 364.456 221.949 364.378 222.819 364.534 C 223.305 364.668 223.8 364.768 224.299 364.834 C 224.808 364.859 225.418 364.636 225.447 364.252 C 225.41 364.767 226.176 365.133 226.862 365.131 C 227.548 365.128 228.189 364.89 228.855 364.764 C 229.412 364.702 229.964 364.589 230.503 364.426 C 231.009 364.222 231.403 363.765 231.188 363.368 C 231.437 363.712 232.114 363.647 232.612 363.519 L 235.41 362.831 C 237.05 362.43 239.251 362.092 240.614 361.261 C 241.894 360.485 242.721 359.862 244.415 359.51 C 247.83 358.798 251.485 359.16 254.977 359.182 C 260.05 359.216 265.455 358.46 269.972 356.686 C 259.244 357.959 248.536 358.147 237.811 356.504 Z M 156.852 374.115 C 155.299 374.302 153.743 374.47 152.185 374.618 C 149.115 374.923 146.037 375.185 142.951 375.405 C 141.553 375.503 140.12 375.601 138.897 376.11 C 140.126 376.04 141.351 375.954 142.576 375.867 L 150.179 375.321 C 153.097 375.112 156.019 374.902 158.903 374.51 C 159.169 374.5 159.426 374.416 159.644 374.266 C 160.465 373.516 157.165 374.076 156.852 374.115 Z M 183.255 372.895 L 183.255 372.937 C 182.651 372.939 182.055 373.057 181.498 373.287 C 181.433 373.312 181.363 373.348 181.349 373.401 C 181.335 373.455 181.436 373.542 181.525 373.584 C 181.887 373.768 182.276 373.893 182.678 373.95 C 183.092 373.989 183.568 373.869 183.752 373.586 C 183.937 373.304 183.674 372.884 183.255 372.895 Z" opacity=".52" class="coloreafef3 svgShape" style=""/>
    <g opacity=".52" fill="#000000" class="color000 svgShape" transform="matrix(0.279805, 0, 0, 0.279805, 5.665648, 221.302338)" style="">
      <path fill="#eafef3" d="M652.5 535.56a.4.4 0 0 0-.49.19.76.76 0 0 0 .49-.19Z" class="coloreafef3 svgShape"/>
      <path fill="#eafef3" d="m658.3 534.37-2.3-1.11-1.34 1.13a6 6 0 0 0-2.23-.46c-.78 0-1.59.48-1.6 1.07 0 .43.62.78 1.14.75a.4.4 0 0 1 .49-.19.76.76 0 0 1-.49.19.35.35 0 0 0 .07.47 2 2 0 0 0 1.29.21l3.51-.23c1.08-.07 2.55-.6 2.1-1.34a1.6 1.6 0 0 0-.64-.49Z" class="coloreafef3 svgShape"/>
    </g>
    <path fill="#eafef3" d="M 202.953 368.911 C 203.072 368.994 203.198 369.069 203.328 369.135 C 202.749 369.678 205.603 369.851 206.185 369.943 C 206.468 369.98 206.748 370.034 207.024 370.109 C 207.267 370.181 207.494 370.278 207.738 370.349 C 208.448 370.546 209.206 370.484 209.875 370.173 C 209.076 370.1 208.284 369.959 207.508 369.753 C 206.383 369.42 204.131 368.679 202.953 368.911 Z" opacity=".52" class="coloreafef3 svgShape" style=""/>
    <path fill="#eafef3" d="M 204.383 391.096 C 203.929 390.92 203.417 391 203.04 391.306 C 202.495 391.125 201.906 391.125 201.361 391.306 C 201.36 391.313 201.36 391.321 201.361 391.329 L 201.437 391.374 C 201.48 391.387 201.526 391.372 201.554 391.337 L 201.59 391.499 C 201.544 391.451 201.492 391.409 201.437 391.374 C 201.405 391.371 201.377 391.354 201.361 391.329 C 201.027 391.151 200.638 391.11 200.275 391.214 C 200.258 391.282 200.301 391.351 200.37 391.365 C 199.707 391.287 199.117 391.662 198.629 392.012 L 198.134 392.366 C 197.953 392.498 197.757 392.647 197.738 392.837 C 199.004 392.891 200.265 392.65 201.422 392.135 C 201.551 392.327 201.912 392.333 202.198 392.308 C 203.101 392.229 204.156 392.067 204.516 391.437 C 204.568 391.369 204.578 391.278 204.542 391.2 C 204.5 391.151 204.444 391.116 204.383 391.096 Z" class="coloreafef3 svgShape" style=""/>
    <path fill="#eafef3" d="M 201.445 391.385 L 201.369 391.34 C 201.386 391.366 201.414 391.383 201.445 391.385 Z M 208.832 390.478 L 208.832 390.643 C 208.473 390.558 208.102 390.543 207.738 390.595 C 207.674 390.596 207.614 390.621 207.57 390.666 C 207.539 390.713 207.57 390.769 207.606 390.814 C 207.945 391.22 208.817 391.29 209.263 390.942 C 209.192 390.733 209.035 390.564 208.832 390.478 Z M 205.124 393.071 L 205.354 393.109 C 205.294 393.046 205.2 393.031 205.124 393.071 Z" class="coloreafef3 svgShape" style=""/>
    <path fill="#eafef3" d="M 202.852 393.637 C 203.545 393.715 204.245 393.673 204.923 393.514 C 205.11 393.481 205.32 393.436 205.404 393.304 C 205.438 393.236 205.416 393.153 205.354 393.109 L 205.124 393.071 C 205.2 393.031 205.294 393.046 205.354 393.109 L 205.522 393.136 C 204.635 392.778 203.412 393.007 202.852 393.637 Z M 214.693 398.978 L 215.099 398.996 C 214.688 398.777 214.008 399.068 214.05 399.446 C 213.433 399.528 212.84 399.731 212.301 400.042 C 213.14 400.386 214.162 399.991 214.971 399.608 C 215.046 399.58 215.113 399.535 215.169 399.476 C 215.323 399.278 214.979 399.074 214.693 398.978 Z M 218.317 398.957 L 218.633 399.292 C 218.383 399.26 218.128 399.304 217.903 399.418 C 218.303 399.655 218.786 399.705 219.227 399.555 C 219.293 399.533 219.363 399.499 219.383 399.443 C 219.402 399.387 219.35 399.317 219.288 399.269 C 219.007 399.062 218.666 398.952 218.317 398.957 Z M 221.014 381.701 L 220.667 381.815 C 220.234 381.873 219.821 382.036 219.464 382.291 L 220.617 382.159 C 220.788 382.158 220.955 382.107 221.098 382.013 C 221.204 381.926 221.173 381.756 221.044 381.709 C 221.035 381.705 221.024 381.703 221.014 381.701 Z" class="coloreafef3 svgShape" style=""/>
    <path fill="#eafef3" d="M 235.483 363.704 L 236.121 363.86 C 235.453 363.818 234.783 363.882 234.134 364.048 C 234.025 364.079 233.899 364.121 233.871 364.207 C 233.821 364.352 234.079 364.442 234.277 364.462 C 235.205 364.547 236.138 364.382 236.98 363.983 C 236.519 363.743 235.999 363.645 235.483 363.704 Z" opacity=".52" class="coloreafef3 svgShape" style=""/>
    <g opacity=".52" fill="#000000" class="color000 svgShape" transform="matrix(0.279805, 0, 0, 0.279805, 5.665648, 221.302338)" style="">
      <path fill="#eafef3" d="M857.65 496.46a3 3 0 0 0-1.4-.15h.52Z" class="coloreafef3 svgShape"/>
      <path fill="#eafef3" d="m864.57 495.73-8.68.58h.36a3 3 0 0 1 1.4.15l-.88-.15h-.52a2.62 2.62 0 0 0-2.36 1.55c4.83-.75 10.3 1 14.55-.84-.17-1.17-2.3-1.39-3.87-1.29Z" class="coloreafef3 svgShape"/>
    </g>
    <path fill="#eafef3" d="M 251.093 377.344 C 248.659 377.422 246.234 377.702 243.846 378.183 C 242.536 378.446 238.205 379.096 237.814 380.142 C 243.791 378.872 249.75 378.281 255.901 377.669 C 256.46 377.613 257.202 377.388 257.092 376.966 C 255.15 377.349 253.105 377.28 251.093 377.344 Z M 234.512 383.85 C 235.462 383.88 236.406 383.701 237.279 383.326 C 237.517 383.22 237.766 383.071 237.785 382.867 C 237.788 382.812 237.77 382.76 237.733 382.719 C 237.024 382.719 236.277 382.753 235.695 383.055 C 235.261 383.284 234.968 383.643 234.512 383.85 Z M 237.248 382.641 L 237.716 382.705 C 237.598 382.569 237.399 382.542 237.248 382.641 Z M 237.716 382.705 L 237.822 382.705 L 237.716 382.705 Z M 229.509 386.107 L 229.831 386.374 C 229.367 386.408 228.924 386.579 228.558 386.866 C 228.49 386.922 228.426 386.992 228.443 387.067 C 228.46 387.142 228.645 387.221 228.79 387.243 C 229.158 387.319 229.537 387.327 229.91 387.266 C 230.264 387.184 230.578 386.919 230.505 386.644 C 230.413 386.314 229.923 386.177 229.509 386.107 Z" class="coloreafef3 svgShape" style=""/>
    <path fill="#47b1c8" d="M 541.415 333.312 C 528.825 333.375 516.233 333.975 503.642 334.571 C 471.073 336.117 438.506 337.694 405.943 339.305 C 378.958 340.665 351.635 342.134 325.991 348.6 C 328.359 351.384 333.465 352.637 337.559 351.437 L 381.208 353.2 C 412.457 349.388 444.351 353.378 476.006 353.384 C 491.177 353.384 506.347 352.469 521.505 352.914 C 530.719 353.194 540.108 353.938 549.404 354.241 L 549.404 342.407 C 548.363 342.349 547.328 342.257 546.292 342.128 C 542.157 341.568 538.217 340.348 534.071 339.862 C 520.763 338.297 506.37 344.419 494.174 340.141 C 499.879 337.435 507.162 337.934 513.891 338.294 C 525.722 338.928 537.581 338.85 549.404 338.06 L 549.404 333.396 C 546.751 333.312 544.074 333.297 541.415 333.312 Z M 0.629 350.206 C 10.749 349.629 20.996 350.071 31.128 349.391 C 42.79 348.608 54.18 346.342 65.771 345.09 C 78.941 343.666 92.293 343.555 105.601 343.446 L 146.569 343.112 L 253.572 342.239 C 262.473 342.167 271.407 342.092 280.207 341.079 C 288.937 340.074 297.44 338.154 306.128 336.951 C 321.595 334.808 337.433 334.956 353.135 334.341 C 367.181 333.781 381.182 332.617 395.05 330.834 L 0.629 330.834 L 0.629 350.206 Z" class="color47b1c8 svgShape" style=""/>
    <path fill="#eafef3" d="M 119.669 403.469 C 117.252 404.043 114.895 404.844 112.629 405.861 C 112.139 406.091 112.57 406.643 113.08 406.441 C 115.313 405.545 117.598 404.785 119.924 404.166 C 120.505 404.015 120.262 403.321 119.669 403.469 Z M 109.12 406.113 C 105.48 406.887 101.794 407.424 98.085 407.722 C 97.503 407.773 97.484 408.462 98.085 408.421 C 101.881 408.164 105.651 407.609 109.361 406.763 C 109.909 406.637 109.678 405.993 109.12 406.113 Z M 130.534 397.579 C 130.159 397.537 129.579 397.395 129.194 397.459 C 128.808 397.524 128.517 397.842 128.212 398.019 C 127.267 398.544 126.229 398.879 125.156 399.003 C 124.554 399.084 124.818 399.757 125.408 399.689 C 126.289 399.595 127.153 399.381 127.977 399.054 C 128.35 398.906 128.711 398.731 129.059 398.531 C 129.543 398.251 129.795 398.298 130.411 398.329 C 130.957 398.358 131.096 397.653 130.534 397.579 Z" class="coloreafef3 svgShape" style=""/>
    <g opacity=".37" fill="#000000" class="color000 svgShape" transform="matrix(0.279805, 0, 0, 0.279805, 5.665648, 221.302338)" style="">
      <path fill="#eafef3" d="M426.29 554.16c2.59-.71 5.23-1.34 7.88-1.92l-.15-.14c-2.58.67-5.16 1.35-7.73 2.06Z" opacity=".52" class="coloreafef3 svgShape"/>
      <path fill="#eafef3" d="M151.49 565.08a110 110 0 0 1-27.93 2.28c-1.93-.08-1.93 2.19 0 2.27a114 114 0 0 0 28.74-2.35c1.87-.4 1.07-2.6-.81-2.2ZM315 566.07c-24.87 2.81-49.88.85-74.69-1.31-11.54-1-23.05-2.24-34.59-3.24-8.3-.72-19.15-2.93-25.91 2-1.42 1 .75 2.67 2.18 1.64 4.49-3.22 10.94-2.31 16.49-1.67 5.79.66 11.56 1.4 17.35 2 10.7 1.14 21.4 2.27 32.14 3.18 22.41 1.89 45.5 2.18 67.85-.38 1.96-.23 1.18-2.44-.82-2.22ZM337.86 559.18a40 40 0 0 1-16.63 4.1c-2 .06-2.05 2.45 0 2.38a42.25 42.25 0 0 0 18.2-4.46c1.63-.84.13-2.84-1.57-2.02ZM413.8 550.33a196.18 196.18 0 0 0-59.21 10c-1.81.6-.24 2.6 1.55 2a193.21 193.21 0 0 1 57.66-9.73c1.97 0 1.98-2.3 0-2.27ZM137 548.42l-3.42.68a9.6 9.6 0 0 0 2.08 1 3.22 3.22 0 0 0 1.34-1.68ZM153.37 546.65a5 5 0 0 0 1.36 2 13.42 13.42 0 0 0 2.2-1.26Z" class="coloreafef3 svgShape"/>
      <path fill="#eafef3" d="M177.14 548c-3.81 0-18.24 1.63-19.66-2.21-.44-1.18-2.4-1.53-3.56-.7-2.65 1.89-6 2.08-9.45 2.29-2.41.14-6 .77-8-.46-1.15-.7-3-.53-3.41.68-.14.38-5.45-.7-6.29-.59-1.2.17-1.76.86-2.73 1.21-1.15.43.19.45-1.47.23-.5-.07-1-.59-1.52-.72a5.79 5.79 0 0 0-3.3.27 11.74 11.74 0 0 0-1.27.66c-2.2.94-2.57 1.07-5 .72a54.47 54.47 0 0 0-5.87-.78 31.69 31.69 0 0 0-13.66 2.55c-1.77.75-.19 2.79 1.59 2.05A27.38 27.38 0 0 1 104 551c3.25 0 6 1 9.11 1.27a7.66 7.66 0 0 0 3.61-.51c2-.73 1.52-1.49 4.3-.67.52.16.81.68 1.39.79a4.8 4.8 0 0 0 2.79-.11c.49-.19.77-.62 1.2-.82.16-.62.66-.86 1.5-.71a3.43 3.43 0 0 1 2.34.32c2.06.27 4.08.34 5.44-.49a9.6 9.6 0 0 1-2.08-1l3.42-.68a3.22 3.22 0 0 1-1.34 1.66c2.9 1 6.2.65 9.54.47a26 26 0 0 0 9.51-1.93 5 5 0 0 1-1.36-2l3.56.71a13.42 13.42 0 0 1-2.2 1.26 9.34 9.34 0 0 0 5.27 2c5.49.64 11.6-.08 17.14-.17 2.09.03 2.1-2.39 0-2.39ZM301.69 540.78c-6.42.19-12.78.53-19.17 1.06s-14.54 2.24-20.74.78c-3.68-.87-5.66-1.45-9.31 0-2.24.9-4.4 2.78-7.22 1.62-1.3-.53-1.69-1.51-3.32-1.79-4.37-.76-7.69 2.83-12.3 2.42-2.11-.19-4.12-.84-6.29-.72-1.94.1-3.14.84-4.86 1.41a12.86 12.86 0 0 1-7 .6c-1-.19-2-.56-3.08-.73a32.44 32.44 0 0 0-8.12 0c-5.86.54-11.69 1.35-17.53 2-2 .22-1.16 2.52.84 2.29 6.34-.73 12.86-1.86 19.27-2.06 4.85-.15 9.94 2.65 14.58 1.27 3.68-1.09 4.22-2.52 9.12-2a32.75 32.75 0 0 0 5.78.6c2.29-.15 3.53-1.06 5.57-1.64 1.18-.34 2.84-.89 4.15-.36.62.25 1.11 1.09 1.77 1.43 2.36 1.2 4.88.61 7.22-.32 1.77-.7 3.81-2.11 5.93-2.11 2 0 5 1.6 7.15 1.75 6.27.41 13.13-.71 19.36-1.18s12.45-1.13 18.65-1.93c1.78-.23 1.36-2.44-.45-2.39ZM325.51 538.36a101.41 101.41 0 0 1-16.14 3.11c-2.09.22-1.21 2.62.87 2.39a92 92 0 0 0 16.1-3.22c1.85-.55 1.09-2.81-.83-2.28ZM430.63 520.21c-9.08 2.27-18.14 4.58-27.26 6.74-9.6 2.29-19.34 4-29.47 3-2-.19-1.94 2.13 0 2.31 19.55 1.9 39.4-5.33 57.54-9.86 1.86-.4 1.07-2.66-.81-2.19ZM207.76 484.29 163.12 489c-1.93.21-1.11 2.42.81 2.21l44.65-4.72c1.95-.17 1.12-2.4-.82-2.2ZM275.57 482l-3-1.3a3.1 3.1 0 0 0 .15 3 11.58 11.58 0 0 0 2.85-1.7ZM331.36 478.74a.51.51 0 0 0 .07-.15ZM328.28 477.39a2.21 2.21 0 0 0 0 2.31l2-.34Z" class="coloreafef3 svgShape"/>
      <path fill="#eafef3" d="M331.43 478.59a.51.51 0 0 1-.07.15l.06-.15c.51-1-.59-2-2.08-1.82-9 1.26-18 2.67-27 4-4.61.65-9.1.55-13.7 1-1.86.19-14.44 4-12.61-.35.52-1.24-1.8-2.32-3-1.3-2.58 2.25-6 2.6-9.46 1.28a15.69 15.69 0 0 0-4.51-1.46 19.62 19.62 0 0 0-5.62.85 41.68 41.68 0 0 1-12.91.57c-1.9-.2-2.72 2-.8 2.18a47.75 47.75 0 0 0 10 .16c2.1-.21 4.06-.79 6.12-1.06 3.33-.42 4.72.45 7.31 1.36a13.15 13.15 0 0 0 9.56-.27 3.1 3.1 0 0 1-.15-3l3 1.3a11.58 11.58 0 0 1-2.82 1.72 6.41 6.41 0 0 0 3.86 2.56c4.66 1.3 9.85-1.5 14.52-1.73 12.59-.61 24.83-2.8 37.14-4.84a2.21 2.21 0 0 1 0-2.31l2 2-2 .34a3.67 3.67 0 0 0 4.86 1.09c1.8-.96.18-3.11-1.7-2.27ZM375 475.36c-2 0-2 2.37 0 2.37s2-2.37 0-2.37ZM401.23 475.4c-2 0-2 2.28 0 2.28s1.95-2.28 0-2.28ZM511.13 470.64a3.37 3.37 0 0 0-1 2.47l3.16-.38Z" class="coloreafef3 svgShape"/>
      <path fill="#eafef3" d="M561.68 467.9c-7.23 1.63-14.45 3.2-21.86 4.35-4.15.65-8.32 1.17-12.54 1.56-1.56.14-3.11.29-4.67.41-.62.06-11.16 1-8.22-2.15 1-1.1-.68-2.28-2.13-2.08a299.68 299.68 0 0 1-52.76 2.81c-2-.07-1.95 2.21 0 2.29a317.58 317.58 0 0 0 50.6-2 3.37 3.37 0 0 1 1-2.47l2.13 2.09-3.16.38a3.9 3.9 0 0 0 2.27 3.21c3.47 1.93 8.72.9 12.6.5a239 239 0 0 0 37.54-6.65c1.91-.48 1.16-2.7-.8-2.25ZM486.9 483.23a127 127 0 0 0-20.55-.21c-2 .14-2.06 2.54 0 2.41a139.56 139.56 0 0 1 20.55.19c2.04.16 2-2.21 0-2.39ZM991.55 453.87c-29 3.92-59.3 2.67-88.63 2.29a329.73 329.73 0 0 1-42.92-3.47c-12.94-1.85-26.56 1.05-39.46 2-1.68.13-2.44 2.24-.44 2.45 6.27.64 12.55-.38 18.72-1.15 7.47-.92 14.39-1.34 21.87-.25a306.3 306.3 0 0 0 43.2 3c29.34.14 59.51 1.37 88.5-2.61 1.96-.27 1.12-2.53-.84-2.26ZM802.7 454l-21.7-2.57c-1.91-.22-2.74 2-.81 2.21l21.72 2.55c1.89.23 2.71-1.97.79-2.19Z" class="coloreafef3 svgShape"/>
    </g>
    <g opacity=".51" fill="#000000" class="color000 svgShape" transform="matrix(0.279805, 0, 0, 0.279805, 5.665648, 221.302338)" style="">
      <path fill="#eafef3" d="m1636.42 493 3.13 1.82q1.7-2.73 3.4-5.44a19.58 19.58 0 0 0-6.53 3.62Z" class="coloreafef3 svgShape"/>
      <path fill="#eafef3" d="M1703.78 487.52c-14-.48-28.1-.21-42.11-.2-6.25 0-13.05.13-18.72 2.08q-1.71 2.72-3.4 5.44l-3.13-1.82a19.58 19.58 0 0 1 6.53-3.62c.33-.53.66-1.06 1-1.59.57-.91-.09-2.18-1.62-2.13-59.6 1.88-119.57 1.9-178.69 8.53-2.07.23-1.19 2.58.86 2.36 57.74-6.29 116.52-6.92 174.76-8l1.45-2.18 1.62 2.13-3.07.05-3.15 4.76c-1 1.45 1.53 3.15 3.13 1.82 7-5.8 18.88-4.69 28.3-4.67 12.07 0 24.19.33 36.24 0 2.5-.12 2.5-2.88 0-2.96Z" class="coloreafef3 svgShape"/>
      <path fill="#eafef3" d="m1640.71 486.38-1.45 2.18 3.07-.05ZM1719.42 497.33l1.48-1.19a3.2 3.2 0 0 1-1.48-.56ZM1721.93 491.72l-3.29 2.64 4.88-.58Z" class="coloreafef3 svgShape"/>
      <path fill="#eafef3" d="M1833.9 490.28c-11.23.66-22.45 1.4-33.67 2.11-10.54.67-22.53 2.46-32.23-1.62a2.13 2.13 0 0 0-2 .2c-5.39 5-15.32 2.32-22.54 1.67a38.48 38.48 0 0 0-10.34.16c-3 .55-8.72 3.87-12.21 3.34l-1.48 1.19v-1.75a3.2 3.2 0 0 0 1.48.56l3.34-2.68c1.19-.95 0-2.24-1.59-2l-30.66 3.63c-2 .24-1.17 2.56.85 2.32l25.8-3.05 3.29-2.64 1.59 2.06-4.88.58-1.54 1.22a1.05 1.05 0 0 0 0 1.75c2.9 2.12 6.19 1.49 9.59.33 2.63-.9 5-2.13 7.88-2.56a38.08 38.08 0 0 1 9.3.08c7.83.76 17.55 3 23.68-1.78-.41-.15-.82-.3-1.22-.47l2-.19c-.25.23-.52.45-.79.66 9 3.34 19.1 2.35 28.83 1.74 12.51-.79 25-1.55 37.52-2.4 2.1-.14 2.1-2.58 0-2.46Z" class="coloreafef3 svgShape"/>
      <path fill="#eafef3" d="M1766.33 492.93c.4.17.81.32 1.22.47.27-.21.54-.43.79-.66ZM1935.55 500c-24.47.78-49 .92-73.45 1q-17.8 0-35.6.17c-6.29.06-12.59.06-18.88.24-5.14.14-9.43 1.48-14 3.09-2.93 1-.38 4.28 2.53 3.26 11-3.82 23.5-2.76 35.35-2.85 11.53-.08 23.06-.11 34.59-.15 23.17-.08 46.34-.24 69.5-1 3.18-.13 3.19-3.91-.04-3.76ZM1770.13 472.81l-22.85-1.71c-1.93-.15-1.92 2.12 0 2.26l22.85 1.73c1.94.14 1.93-2.09 0-2.28ZM1834.12 472.77h-45.71c-2 0-2 2.37 0 2.37h45.71c2.04.02 2.04-2.36 0-2.37ZM1431.9 510.63c-2 0-2 2.3 0 2.3s1.97-2.3 0-2.3ZM1404.48 505.49h-4.57c-1.94 0-1.94 2.27 0 2.27h4.57c1.94 0 1.94-2.27 0-2.27ZM1345.06 507.18c-2 0-2 2.33 0 2.33s2-2.33 0-2.33ZM1213 515.72c-6.9-.93-13.81-1.9-20.72-2.79-2-.26-2.85 2-.84 2.29 6.89 1 13.81 1.88 20.71 2.81 1.96.27 2.85-2.03.85-2.31ZM1157.71 512c-6.85-.57-13.71-1.15-20.56-1.69-2-.16-2 2.16 0 2.33 6.85.61 13.71 1.18 20.56 1.75 2.03.16 2.01-2.23 0-2.39Z" class="coloreafef3 svgShape"/>
    </g>
    <path fill="#eafef3" d="M 319.993 364.142 C 306.136 364.593 292.275 364.558 278.407 364.042 C 277.848 364.022 277.848 364.666 278.407 364.685 C 292.262 365.229 306.123 365.264 319.993 364.792 C 320.546 364.772 320.549 364.123 319.993 364.142 Z" opacity=".51" class="coloreafef3 svgShape" style=""/>
    <path fill="#eafef3" d="M 253.39 376.731 C 250.824 377.187 248.253 377.627 245.695 378.113 C 245.137 378.223 245.371 378.866 245.937 378.771 C 248.507 378.335 251.066 377.85 253.629 377.372 C 254.193 377.28 253.953 376.63 253.39 376.731 Z M 107.282 413.003 C 105.857 413.562 104.436 414.155 103.029 414.751 C 102.531 414.964 102.973 415.528 103.477 415.327 C 104.906 414.768 106.322 414.175 107.738 413.587 C 108.245 413.375 107.794 412.795 107.282 413.003 Z M 96.19 415.627 L 94.271 415.627 C 93.711 415.627 93.711 416.279 94.271 416.282 L 96.19 416.282 C 96.762 416.298 96.762 415.627 96.19 415.627 Z M 83.401 415.644 C 82.858 415.644 82.858 416.279 83.401 416.279 C 83.944 416.279 83.947 415.644 83.401 415.644 Z M 77.634 415.277 C 73.591 415.075 69.545 414.841 65.496 414.684 C 64.92 414.661 64.937 415.321 65.496 415.353 C 69.536 415.593 73.588 415.755 77.634 415.948 C 78.208 415.977 78.205 415.305 77.634 415.277 Z M 82.094 420.778 C 77.01 419.525 71.73 419.285 66.554 420.07 C 65.972 420.159 66.221 420.82 66.797 420.736 C 71.815 419.996 76.928 420.228 81.859 421.416 C 82.399 421.547 82.629 420.91 82.094 420.778 Z" class="coloreafef3 svgShape" style=""/>
  </g>
</svg>