<svg viewBox="0 0 3000 500" xmlns="http://www.w3.org/2000/svg">
  <g id="SvgjsG1008" transform="matrix(5.459271, 0, 0, 5.459271, 1.078944, -1749.261108)" style="">
    <svg xmlns="http://www.w3.org/2000/svg" enable-background="new 0 0 1024 512" viewBox="0 0 1024 512" width="550" height="550">
      <path d="M0 417.2V512h1024v-83.4c-13.4-1.1-26.9-1.8-40.4-2-23.6-.5-47.2.2-71 1.6-20.9 1.2-41.8 3-62.8 5-12.5 1.2-24.9 2.4-37.4 3.7-11.4 1.1-22.8 2.3-34.2 3.4-15.5 1.5-30.9 2.9-46.4 4.1-19.8 1.5-39.6 2.7-59.4 3.2-96.8 2.6-192.9-9.9-289.7-9.7-54.4.1-109.5 4.2-162.8-1.2-34.8-3.5-67.5-11-101.2-16.6-2.3-.4-4.6-.8-7-1.1-18.6-2.9-38.2-5.1-57.6-5.6-18.5-.5-36.8.5-54.1 3.8z" class="colore29250 svgShape" style="fill: rgb(250, 228, 181);"/>
      <path fill="#e59a5c" d="M0 421.9V512h1024v-67.9c-.4-.1-28.4-10.3-28.8-10.4-34.1-10.4-45.9.7-81.7 4.1-105.5 9.9-205.3 8.7-305 21.4-51.7 6.6-104.6 2.1-157.7-7.4-40.3-7.2-82-9.2-122.9-6-38 3-75.4 13.4-113.5 12.2-38.7-1.2-76.6-11.1-113.2-22.7-19.5-6.2-45.7-12-67.8-14.2-13.6-1.4-25.5-1.4-33.4.8z" class="colore59a5c svgShape"/>
      <path fill="#e8a873" d="M.5 425.3V512H1024v-63.4c-13.8-5.2-43.6-9.2-68.4.2-82.5 31.3-145.4 13.8-211.1 14.1-75.3.3-156.5 19.1-231.7 19.4-19.4.1-39 .2-54.2-4.5-11.6-3.5-20.5-9.7-32.9-12.3-24.6-5.2-60.3 3.8-93.3 9.8-85.7 15.6-169.1-2.8-222.2-27.4-8.9-4-67.5-16.1-109.7-22.6z" class="colore8a873 svgShape"/>
      <path fill="#7c3403" d="M168.9 449.1c0 .8 1.9 1.5 5.3 2.1.8.2 1.7.3 2.7.4 1.5.2 3.3.4 5.1.6h.1c1.9.2 4 .3 6.2.5.3 0 .7 0 1.1.1 2.4.1 5 .3 7.7.4 1.9.1 3.8.1 5.8.2h.3c2.7 0 5.5.1 8.3.1h3.6c1.7 0 3.4 0 5.1-.1h1.3c3.3-.1 6.4-.2 9.3-.4 2.7-.1 5.1-.3 7.4-.5 3.9-.3 7.2-.7 9.8-1.2 1.8-.3 3.2-.6 4.2-1 1.2-.4 1.8-.8 1.8-1.3 0-.7-1.7-1.4-4.8-2-2.5-.5-5.9-.9-10-1.3-2.8-.2-5.8-.4-9.1-.6-1.3-.1-2.7-.1-4.1-.2-.7 0-1.5-.1-2.2-.1h-.5c-3.8-.1-7.8-.2-11.9-.2h-8.2c-1.2 0-2.4 0-3.6.1-1.1 0-2.2.1-3.2.1h-.2c-1 0-1.9.1-2.8.1-.4 0-.8 0-1.2.1h-1.3c-.4 0-.8 0-1.2.1h-.1c-6.3.4-11.5.9-15.2 1.6-3.4.8-5.5 1.6-5.5 2.4z" class="color7c3403 svgShape"/>
      <path fill="#9f4204" d="M174.2 451.2c.8.2 1.7.3 2.7.4 1.5.2 3.3.4 5.1.6h.1c1.9.2 4 .3 6.2.5.3 0 .7 0 1.1.1l5.4-3.6 1.7-1.1-.2-3.1-.2-2.7-1-13.4-6.7 2-4.3 1.3c-2.2.6-4.2 1.9-5.7 3.7-2 2.3-3.3 5.4-3.6 9.1l-.2 1.9-.4 4.3z" class="color9f4204 svgShape"/>
      <path fill="#c75305" d="m195.1 428.9 1 13.4.2 2.7.2 3.1 6.6 5.3c2.7 0 5.5.1 8.3.1h3.6l-1.8-2.1-5.4-6.6-12.7-15.9z" class="colorc75305 svgShape"/>
      <path fill="#7c3403" d="M182.1 452.2c2 .2 4 .4 6.2.5.3 0 .7 0 1.1.1 2.4.1 5 .3 7.7.4 1.9.1 3.8.1 5.8.2h.3c2.7 0 5.5.1 8.3.1l-11.8-8.6-3.5-2.6-4 2.9-.7.5-1.7 1.2-.7.5-1.3.9-2.5 1.8-1.9 1.4-.9.6-.4.1z" class="color7c3403 svgShape"/>
      <path fill="#7c3403" d="M174.2 451.2c.8.2 1.7.3 2.7.4 1.5.2 3.3.4 5.1.6h.1c1.9.2 4 .3 6.2.5.6-.8 1.1-1.7 1.5-2.6.5-1 .9-2.1 1.3-3.3.1-.4.2-.7.3-1.1 0-.1.1-.3.1-.5.7-3.8.4-8-1.4-11.8-.4-.9-1-1.7-1.6-2.5l-4.3 1.3c-2.2.6-4.2 1.9-5.7 3.7-2 2.3-3.3 5.4-3.6 9.1l-.2 1.9-.5 4.3z" opacity=".5" class="color7c3403 svgShape"/>
      <path fill="#502102" d="M188.3 452.7c.3 0 .7 0 1.1.1 2.4.1 5 .3 7.7.4-.7-1.3-1.5-2.7-2.2-4-.1-.2-.2-.4-.4-.7-.3-.5-.6-1-.9-1.6-.3-.6-.7-1.2-1.2-1.8v-.1l-.1.1-.8.5-1.7 1.2-3.1 2.2-2.4 1.7-1.1.8-.6.4-.3.2c1.8.3 3.8.5 6 .6z" opacity=".5" class="color502102 svgShape"/>
      <path fill="#9f4204" d="M202.9 453.4c2.8.1 5.7.1 8.6.1h1.3c2.6 0 5.1 0 7.5-.1h1.3l6.6-5 2.1-1.6-.1-1.6-.4-5.4-1.3-16.3-8.2 3.2-5.3 2c-2.7 1.1-5.1 2.9-7 5.2-.6.8-1.2 1.6-1.7 2.5l-.3.6c-.2.3-.3.7-.5 1l-.3.6c-.1.2-.2.5-.3.7-.1.2-.2.5-.3.7-.1.2-.2.5-.2.8-.1.2-.1.5-.2.8-.1.2-.1.4-.2.6-.1.3-.1.5-.2.8-.1.3-.1.5-.1.8-.1.3-.1.6-.1 1v.7l-.5 5.2-.1 1-.1 1.7z" class="color9f4204 svgShape"/>
      <path fill="#c75305" d="m228.5 423.5 1.3 16.3.4 5.4.1 1.6 8 5.7c3.9-.3 7.2-.7 9.8-1.2 1.8-.3 3.2-.6 4.2-1l-1.4-1.5-1.6-1.8-20.8-23.5z" class="colorc75305 svgShape"/>
      <path fill="#7c3403" d="M212.7 453.4c2.6 0 5.1 0 7.6-.1h1.3c3.3-.1 6.4-.2 9.3-.4 2.7-.1 5.1-.3 7.4-.5 3.9-.3 7.2-.7 9.8-1.2l-8.8-5.6-9.5-6-5.8 4.6-.6.5-1.4 1.3-.8.7-1.6 1.3-3.1 2.5-.3.2-1.2.9-.9.7-1.1.9-.3.2z" class="color7c3403 svgShape"/>
      <path fill="#7c3403" d="M202.9 453.4c2.8.1 5.7.1 8.6.1h1.3c2.6 0 5.1 0 7.5-.1.7-1.1 1.3-2.2 1.8-3.3.8-1.6 1.4-3.3 1.8-5.1 0-.1.1-.3.1-.4v-.1c1.1-4.9.7-10.3-1.7-14.9-.5-1-1.2-2-2-2.8l-5.3 2c-2.7 1.1-5.1 2.9-7 5.2-.6.8-1.2 1.6-1.7 2.5l-.3.6c-.2.3-.3.7-.5 1l-.3.6c-.1.2-.2.5-.3.7-.1.2-.2.5-.3.7-.1.2-.2.5-.2.8-.1.2-.1.5-.2.8-.1.2-.1.4-.2.6-.1.3-.1.5-.2.8-.1.3-.1.5-.1.8-.1.3-.1.6-.1 1v.7l-.5 5.2-.1 1-.1 1.6z" opacity=".5" class="color7c3403 svgShape"/>
      <path fill="#502102" d="M212.8 453.4c2.6 0 5.1 0 7.5-.1h1.3c3.3-.1 6.4-.2 9.3-.4-.9-1.5-1.8-3.1-2.7-4.6-.1-.3-.3-.5-.5-.8-.4-.6-.7-1.2-1.1-1.9-.2-.3-.3-.5-.5-.8-.3-.5-.7-.9-1-1.3l-1.1.9-.5.4-1.5 1.2-3.8 3.1-2 1.5-1 .8-.1.1-1.3 1-.7.6-.3.3z" opacity=".5" class="color502102 svgShape"/>
    </svg>
  </g>
</svg>