<?xml version="1.0" standalone="no"?>
<!DOCTYPE svg PUBLIC "-//W3C//DTD SVG 20010904//EN"
 "http://www.w3.org/TR/2001/REC-SVG-20010904/DTD/svg10.dtd">
<svg version="1.0" xmlns="http://www.w3.org/2000/svg"
 width="640.000000pt" height="1280.000000pt" viewBox="0 0 640.000000 1280.000000"
 preserveAspectRatio="xMidYMid meet">
<metadata>
Created by potrace 1.15, written by Peter Selinger 2001-2017
</metadata>
<g transform="translate(0.000000,1280.000000) scale(0.100000,-0.100000)"
fill="#000000" stroke="none">
<path d="M3060 12781 c-40 -21 -80 -89 -80 -136 0 -17 -7 -55 -16 -84 -8 -29
-19 -85 -23 -126 -6 -55 -15 -82 -34 -107 -14 -18 -40 -74 -58 -123 -22 -63
-45 -106 -76 -143 -52 -61 -93 -176 -93 -262 0 -81 17 -97 24 -24 10 91 25
135 57 165 19 18 29 37 29 56 0 58 16 66 146 74 176 12 297 25 316 33 13 6 20
2 27 -17 5 -14 15 -28 20 -32 7 -4 11 -49 11 -114 0 -69 4 -111 12 -119 9 -9
7 -17 -9 -34 -11 -13 -24 -33 -28 -46 -9 -30 -26 -38 -117 -52 -78 -13 -108
-10 -108 11 0 6 36 46 80 89 l80 78 0 96 c0 56 -4 97 -11 101 -6 4 -36 -9 -67
-28 -31 -19 -77 -45 -102 -58 -32 -16 -40 -24 -27 -27 10 -2 31 1 46 6 36 13
51 0 51 -45 0 -29 3 -33 25 -33 35 0 31 -14 -10 -39 -19 -11 -35 -27 -35 -35
0 -23 -57 -84 -106 -112 -65 -38 -163 -35 -106 3 32 22 28 30 -19 38 -63 11
-79 -14 -24 -39 18 -8 -36 -46 -65 -46 -16 0 -36 8 -46 17 -16 17 -18 16 -38
-11 -12 -16 -45 -57 -74 -90 -102 -115 -182 -326 -198 -521 l-7 -87 -67 -72
c-37 -40 -86 -104 -109 -142 -23 -38 -57 -90 -76 -116 -45 -64 -72 -145 -56
-170 15 -25 14 -28 -10 -28 -58 0 -102 -314 -64 -462 l16 -59 -55 -60 c-58
-64 -119 -171 -131 -229 -12 -56 -32 -88 -130 -205 -166 -198 -158 -186 -295
-486 -65 -142 -87 -254 -70 -355 11 -62 10 -74 -3 -95 -26 -40 -32 -104 -13
-152 16 -44 16 -44 -17 -118 -24 -51 -43 -79 -62 -89 -73 -39 -177 -186 -247
-349 l-36 -86 -90 -45 c-106 -53 -148 -84 -224 -164 -110 -114 -200 -274 -253
-451 -28 -93 -38 -110 -158 -257 -77 -95 -144 -218 -179 -328 -19 -63 -23 -96
-23 -210 0 -123 3 -142 28 -209 l27 -75 -20 -54 c-55 -146 -49 -395 15 -655
20 -84 43 -215 55 -319 29 -262 56 -327 199 -480 69 -74 72 -80 86 -151 19
-98 39 -148 92 -229 55 -84 123 -144 225 -199 83 -45 109 -72 132 -137 49
-137 122 -220 249 -281 68 -32 93 -51 146 -111 68 -76 139 -120 196 -120 40 0
47 -6 80 -69 43 -78 104 -128 176 -142 62 -12 64 -15 83 -99 3 -14 37 -61 77
-105 81 -91 95 -117 104 -200 12 -104 -12 -447 -38 -544 -20 -80 -22 -107 -22
-386 1 -288 14 -535 36 -695 13 -88 49 -184 152 -407 42 -88 87 -193 101 -232
36 -101 61 -147 109 -199 73 -79 161 -100 273 -67 129 38 298 201 424 409 48
80 54 86 85 86 74 0 174 -98 275 -271 29 -50 73 -112 97 -138 25 -25 53 -64
64 -87 34 -71 88 -81 165 -33 27 18 76 42 109 55 33 12 92 37 130 55 74 35 93
37 280 28 67 -3 96 8 180 72 122 92 260 128 381 99 77 -19 98 -8 160 78 65 93
107 137 163 173 38 25 55 29 111 29 79 0 98 15 125 100 25 77 57 138 104 197
55 70 94 95 160 104 81 11 101 38 101 131 0 66 3 78 50 165 85 158 91 166 167
202 130 62 133 70 144 351 10 284 18 314 105 399 49 48 75 85 108 152 l44 90
-33 102 c-38 116 -71 269 -80 372 -6 58 -3 81 15 133 19 55 22 80 18 185 -3
113 -6 127 -36 191 -17 37 -32 76 -32 86 0 10 -6 23 -14 29 -11 9 -24 3 -61
-29 -25 -22 -58 -43 -73 -46 -15 -3 -72 -19 -126 -35 -55 -16 -104 -29 -110
-29 -8 0 -10 37 -7 115 3 124 -11 253 -35 311 -25 59 -6 82 82 99 17 3 46 17
65 31 66 49 89 27 119 -120 22 -107 25 -116 44 -116 6 0 22 -22 33 -50 12 -28
28 -50 36 -50 17 0 15 12 -31 170 l-31 105 3 220 c2 134 0 228 -6 240 -13 26
-79 95 -91 95 -5 0 -6 -7 -3 -16 15 -39 -28 -68 -117 -78 -26 -3 -81 -17 -121
-31 -82 -28 -118 -31 -135 -11 -6 7 -27 44 -47 82 -52 103 -102 186 -130 215
-67 70 15 152 136 136 24 -3 59 -20 92 -46 45 -34 54 -38 59 -23 5 14 11 11
40 -19 19 -19 58 -66 88 -103 29 -37 55 -65 58 -62 9 8 -66 123 -96 149 -16
13 -36 37 -44 53 -9 16 -36 49 -61 74 -25 24 -46 52 -46 61 0 27 -27 44 -45
29 -25 -21 -42 3 -26 34 13 24 7 54 -45 201 -25 73 -102 191 -178 273 -66 73
-76 89 -86 140 -6 31 -20 84 -31 118 -11 33 -24 101 -30 150 -6 62 -18 107
-38 148 -23 48 -27 65 -20 90 21 73 8 146 -36 198 -19 22 -25 41 -25 76 0 29
-8 63 -21 87 -17 32 -20 49 -15 94 25 229 13 352 -44 441 -35 54 -39 107 -15
186 20 67 19 91 -10 162 -14 34 -25 63 -25 66 0 2 10 6 22 9 l22 6 -21 23
c-12 13 -38 53 -58 91 -24 44 -43 67 -55 67 -10 0 -21 7 -24 16 -3 9 -6 100
-6 204 0 188 0 188 -26 219 -14 17 -34 53 -43 79 -15 42 -26 53 -104 105 -48
32 -94 68 -102 81 -9 13 -20 61 -25 106 -6 50 -18 99 -31 124 -12 23 -39 75
-59 116 -21 41 -64 104 -96 139 l-59 65 0 120 c0 67 -4 144 -9 172 -7 41 -5
56 8 76 23 35 30 106 16 157 -8 30 -29 62 -67 102 l-56 59 13 45 c18 64 8 159
-23 220 -30 61 -48 78 -109 104 -53 22 -60 44 -33 91 28 49 19 92 -35 166 -27
38 -50 75 -50 84 -1 22 -31 56 -67 74 -43 22 -49 36 -57 141 -9 125 -52 331
-80 385 -82 160 -90 171 -139 207 -74 54 -82 83 -56 186 41 160 13 274 -102
418 -69 87 -71 91 -59 141 24 106 8 194 -48 267 -24 32 -27 44 -25 103 3 75
-5 104 -44 161 -22 32 -24 41 -15 63 14 30 16 100 3 108 -13 8 -33 -19 -40
-56 -4 -17 -13 -34 -20 -36 -21 -7 -5 66 25 109 28 40 31 77 8 86 -12 4 -14
14 -10 35 8 39 -14 87 -58 132 -42 41 -73 46 -126 17z m118 -53 c2 -9 -9 -23
-26 -33 -15 -9 -32 -27 -38 -38 -14 -33 -44 -35 -44 -3 0 14 -4 26 -10 26 -19
0 -10 39 13 55 29 21 101 17 105 -7z m-20 -200 c18 -18 14 -56 -7 -70 -18 -11
-18 -13 -3 -37 16 -24 16 -25 -3 -16 -18 9 -57 9 -125 2 -20 -1 -26 3 -28 21
-5 32 16 79 42 97 25 18 107 20 124 3z m-22 -222 c-20 -24 -40 -56 -46 -70
-11 -31 -25 -33 -40 -6 -14 25 -38 15 -42 -17 -2 -22 -13 -29 -60 -46 -32 -12
-60 -18 -64 -15 -3 4 2 17 10 30 9 14 13 27 10 30 -7 8 15 49 35 66 42 35 138
72 185 72 l48 0 -36 -44z m116 -56 c5 -25 11 -56 14 -71 7 -33 -28 -50 -116
-56 -75 -5 -104 7 -79 32 8 9 42 27 74 40 62 25 81 50 70 93 -3 12 -3 28 1 34
10 15 26 -18 36 -72z m44 -627 c20 -91 24 -99 53 -109 34 -13 62 -54 36 -54
-50 0 -135 64 -135 101 0 23 -30 25 -70 4 -36 -19 -37 -28 -5 -49 41 -27 48
-51 32 -107 -8 -27 -13 -58 -10 -68 8 -31 -42 -78 -102 -96 -86 -25 -84 -54 5
-55 83 -1 89 -24 17 -63 l-42 -22 48 -5 c26 -3 48 -9 48 -15 1 -5 -27 -20 -62
-32 -67 -22 -127 -28 -401 -38 -136 -5 -158 -4 -158 9 0 21 18 30 35 16 20
-16 32 -6 39 35 8 38 32 55 84 55 15 1 41 7 57 15 l30 15 -33 -6 c-19 -3 -49
-3 -67 0 -30 6 -33 10 -32 41 1 30 6 36 32 45 16 5 35 20 40 31 6 13 31 30 63
41 77 29 67 42 -25 34 -107 -10 -169 -24 -195 -46 -19 -15 -20 -20 -9 -34 18
-21 8 -85 -24 -153 -14 -28 -25 -61 -25 -72 0 -12 -4 -21 -10 -21 -18 0 -11
50 15 100 32 64 32 73 -6 87 -27 11 -30 15 -19 28 7 8 19 15 26 15 19 0 18 34
-1 50 -9 7 -15 22 -13 34 2 16 11 20 45 21 24 1 50 8 61 18 10 9 31 17 46 17
15 0 55 9 89 20 34 11 81 25 105 31 l43 10 -27 21 c-15 12 -43 24 -63 27 -87
15 -10 80 94 81 66 0 83 -11 67 -42 -26 -47 35 -243 62 -200 2 4 0 30 -5 57
-9 47 -8 51 16 70 33 27 32 58 -2 74 -27 12 -27 13 -8 27 11 7 31 23 43 34 18
15 38 20 80 20 32 1 71 7 87 15 42 19 44 18 51 -12z m104 -231 c0 -23 -23 -44
-75 -69 -52 -24 -51 -43 4 -64 40 -15 42 -17 20 -22 -43 -12 -54 -23 -40 -41
12 -14 8 -16 -37 -16 -58 0 -70 11 -48 45 12 19 14 30 5 52 -9 23 -7 29 11 43
14 11 21 25 18 41 -3 21 1 24 30 27 18 2 32 -1 32 -7 0 -6 14 -11 30 -11 23 0
30 4 30 20 0 11 5 20 10 20 6 0 10 -8 10 -18z m-60 -282 c0 -44 17 -40 55 15
27 39 27 5 -1 -44 -28 -53 -41 -62 -50 -36 -4 9 -19 15 -35 15 -26 0 -29 3
-29 34 0 34 9 44 43 45 12 1 17 -7 17 -29z m-97 -76 c4 -4 -3 -20 -14 -35
l-20 -29 28 0 c15 0 62 9 103 20 79 21 150 26 150 11 0 -11 -66 -42 -138 -66
-29 -9 -56 -24 -59 -34 -4 -9 -11 -19 -16 -23 -7 -4 -6 -17 2 -36 10 -23 10
-35 1 -51 -15 -30 -28 -26 -47 14 -21 43 -37 46 -28 4 4 -19 2 -41 -6 -55 -7
-13 -10 -26 -8 -28 2 -2 28 0 58 6 93 17 109 -7 31 -47 -29 -15 -50 -32 -50
-42 0 -21 48 -103 60 -103 13 0 13 -47 0 -55 -5 -3 -24 4 -41 17 -24 18 -43
23 -87 22 -61 -2 -133 -23 -135 -39 -1 -6 31 -12 72 -15 82 -6 83 -16 1 -45
-70 -25 -107 -20 -125 15 -17 33 -35 40 -35 12 0 -28 27 -59 56 -65 31 -6 238
9 302 22 23 5 42 7 42 4 0 -29 -53 -62 -135 -82 -22 -6 -49 -17 -60 -25 -18
-13 -18 -14 3 -20 12 -4 22 -14 22 -21 0 -19 -71 -59 -143 -81 -74 -23 -81
-16 -95 97 -12 97 -27 136 -54 145 -11 3 -51 -2 -89 -11 l-69 -17 0 -67 c0
-36 7 -91 15 -121 20 -74 11 -80 -116 -80 -63 0 -109 -5 -132 -15 -51 -21 -72
-19 -85 10 -7 15 -20 25 -33 25 -19 0 -21 4 -15 30 4 24 2 30 -11 30 -13 0
-12 5 7 25 23 24 23 25 3 25 -11 0 -42 -7 -69 -15 -27 -8 -62 -15 -79 -15
l-30 0 35 22 c26 16 31 23 18 26 -9 2 -26 -2 -37 -7 -24 -13 -61 -14 -61 -3 0
21 42 44 84 47 56 4 87 20 79 41 -3 10 8 30 33 55 l38 39 -34 -5 c-19 -4 -46
-9 -59 -11 -22 -5 -21 -1 17 40 23 25 42 54 42 63 0 10 9 32 20 48 25 38 25
45 0 45 -29 0 -25 22 10 55 18 17 30 39 30 54 0 13 7 31 15 40 62 68 58 61 39
82 -29 32 -3 39 126 37 63 -1 142 3 175 10 33 6 137 19 230 27 196 18 205 20
205 46 0 10 9 28 20 39 21 21 32 24 43 14z m-493 -69 c0 -8 -5 -17 -11 -21
-16 -9 -30 18 -17 33 12 15 28 8 28 -12z m740 -126 c0 -6 -5 -19 -10 -30 -13
-22 -42 -26 -35 -4 3 8 7 22 10 30 5 17 35 21 35 4z m-90 -35 c0 -16 -37 -37
-50 -29 -17 10 -11 43 8 47 24 6 42 -2 42 -18z m-1075 -34 c15 -16 15 -20 3
-20 -8 0 -23 9 -33 20 -15 16 -15 20 -3 20 8 0 23 -9 33 -20z m1065 -119 c0
-14 -27 -21 -76 -21 -32 0 -44 4 -44 15 0 12 13 15 60 15 33 0 60 -4 60 -9z
m83 -136 c-3 -17 -29 -29 -48 -21 -14 5 -15 9 -5 22 14 16 56 16 53 -1z
m-1258 -64 c3 -5 -5 -22 -18 -37 -30 -35 -57 -27 -57 16 0 28 3 30 34 30 19 0
37 -4 41 -9z m623 -153 c18 -18 14 -46 -9 -69 -18 -18 -20 -25 -10 -40 13 -21
2 -26 -17 -7 -14 14 -16 68 -2 68 6 0 10 14 10 30 0 32 9 37 28 18z m-618
-213 c0 -30 -10 -55 -21 -55 -5 0 -9 11 -9 24 0 14 -4 28 -10 31 -12 7 -13 48
-3 59 11 11 43 -33 43 -59z m1776 10 c8 -43 -1 -55 -23 -33 -10 11 -13 25 -9
42 9 37 24 32 32 -9z m-658 19 c-4 -3 -42 -14 -85 -25 -43 -11 -91 -25 -107
-31 -26 -10 -27 -12 -10 -18 10 -4 65 -5 122 -2 158 8 124 -23 -65 -59 -70
-13 -93 -4 -93 36 0 32 -9 36 -41 19 -16 -8 -49 -17 -74 -21 -25 -3 -45 -9
-45 -12 0 -4 -6 -15 -13 -25 -12 -16 -16 -17 -35 -5 -20 12 -27 11 -61 -8 -35
-20 -40 -21 -60 -7 -11 8 -21 22 -21 30 0 8 -4 14 -9 14 -10 0 -14 -10 -25
-63 -9 -36 -47 -35 -56 2 -4 17 -15 27 -38 33 -45 12 -41 34 8 42 22 3 40 11
40 17 0 32 168 53 224 28 19 -9 29 -8 47 5 28 19 52 20 79 4 15 -10 22 -9 37
4 21 20 139 41 252 46 19 1 32 -1 29 -4z m198 -58 c27 7 28 6 15 -10 -21 -26
-49 -38 -71 -31 -15 5 -20 15 -20 42 l0 36 24 -22 c18 -17 30 -20 52 -15z
m372 -18 c5 -24 -28 -38 -103 -45 -72 -7 -92 10 -25 21 22 3 40 10 40 15 0 11
49 30 70 28 8 -1 16 -10 18 -19z m-1384 -63 c3 -8 1 -17 -4 -20 -6 -4 -10 -15
-10 -26 0 -26 32 -25 48 2 16 25 35 20 42 -12 11 -44 44 -51 176 -34 66 8 130
14 144 14 69 -3 -266 -77 -360 -80 -60 -2 -70 -9 -70 -52 0 -38 -41 -77 -79
-77 -40 0 -182 -45 -251 -80 -30 -15 -66 -31 -80 -35 -14 -4 -54 -21 -89 -38
-59 -29 -64 -30 -76 -14 -9 13 -10 29 -4 60 24 109 41 141 110 209 46 46 73
66 83 62 21 -8 20 -32 -5 -99 -19 -51 -23 -56 -45 -51 -23 6 -44 -15 -44 -43
0 -26 99 -1 315 79 61 23 115 63 115 87 0 18 -9 16 -48 -7 -27 -17 -37 -18
-48 -9 -12 10 -19 8 -37 -10 -34 -31 -40 -26 -35 31 7 65 44 103 112 113 25 4
59 18 76 30 33 24 54 24 64 0z m553 -25 c6 -24 42 -26 138 -9 34 6 75 9 91 7
27 -4 23 -7 -36 -35 -37 -17 -74 -42 -83 -57 -27 -41 -56 -54 -167 -76 -58
-11 -152 -33 -210 -50 -107 -31 -164 -37 -190 -20 -12 8 -12 11 3 28 22 24 21
28 -5 36 -44 11 -2 26 205 70 114 25 212 48 217 51 15 9 2 25 -20 25 -22 0
-34 15 -26 35 3 9 19 15 42 15 27 0 37 -5 41 -20z m-836 -57 c4 -46 -4 -100
-18 -121 -12 -20 -67 -52 -88 -52 -9 0 -5 66 6 99 10 27 15 32 35 27 13 -4 24
-2 24 3 0 5 4 21 10 35 11 30 29 34 31 9z m1883 -59 c14 -37 6 -83 -16 -95
-13 -7 -29 -18 -36 -26 -37 -37 -112 -3 -112 51 0 15 16 30 58 53 64 35 97 41
106 17z m-704 -59 c0 -8 -9 -15 -20 -15 -20 0 -26 11 -13 23 12 13 33 7 33 -8z
m-280 -39 c0 -8 -9 -18 -20 -21 -27 -9 -25 -18 11 -60 36 -41 33 -59 -13 -81
-31 -14 -28 -15 65 -9 61 4 97 3 97 -4 0 -14 -103 -35 -460 -96 -173 -30 -362
-65 -420 -79 -205 -50 -246 -22 -47 32 106 29 239 57 387 82 102 17 107 19 75
36 -21 11 -36 12 -67 4 -21 -6 -115 -14 -208 -18 -143 -6 -172 -10 -182 -25
-13 -16 -105 -56 -218 -92 -30 -10 -112 -44 -182 -76 -69 -33 -133 -59 -140
-59 -8 0 -25 -12 -39 -26 -22 -23 -69 -54 -84 -54 -25 0 33 116 81 162 43 39
253 143 357 177 105 34 231 61 279 61 19 0 44 -7 56 -16 31 -21 61 -9 78 32
16 38 14 38 109 39 50 1 89 9 135 27 73 29 267 76 318 77 21 1 32 -4 32 -13z
m57 -58 c24 -23 32 -61 11 -52 -19 8 -59 74 -46 74 7 0 22 -10 35 -22z m959 3
c-23 -25 -114 -64 -133 -57 -25 10 3 35 54 47 24 6 46 15 49 20 3 5 15 9 26 9
20 0 20 -1 4 -19z m-706 -210 c0 -5 -19 -14 -42 -20 -24 -6 -83 -22 -133 -35
-49 -13 -119 -30 -155 -37 -60 -11 -69 -17 -129 -77 -70 -70 -128 -102 -225
-122 -66 -14 -121 -7 -134 17 -6 10 -6 30 0 49 17 64 -19 91 -110 81 -50 -5
-86 -36 -75 -63 3 -8 -5 -26 -17 -39 l-22 -24 33 -14 c33 -13 33 -14 11 -21
-30 -10 -23 -28 15 -41 16 -5 32 -14 34 -20 6 -14 -126 -37 -183 -32 -57 5
-78 20 -78 58 0 16 -4 29 -9 29 -5 0 -27 -21 -50 -46 -44 -47 -71 -98 -71
-134 0 -33 -49 -75 -110 -95 -30 -9 -76 -26 -102 -37 -102 -43 -22 -64 86 -22
9 3 16 1 16 -5 0 -6 -8 -11 -18 -11 -10 0 -27 -7 -38 -15 -22 -16 -80 -20 -89
-5 -4 6 -15 4 -29 -5 -18 -12 -33 -14 -66 -6 -23 5 -44 12 -47 14 -2 3 4 18
15 34 11 15 23 48 26 73 3 25 19 79 35 120 23 59 34 76 52 78 13 2 39 15 58
28 43 29 71 31 78 4 5 -18 10 -15 55 25 70 63 173 129 242 154 244 90 801 182
844 139 9 -9 18 -9 39 1 14 7 65 14 112 17 46 2 87 6 89 9 9 9 92 5 92 -4z
m65 -60 c17 -7 13 -12 -32 -35 -29 -14 -53 -31 -53 -36 0 -5 18 -21 41 -36 38
-24 40 -27 25 -43 -20 -22 -12 -31 27 -31 40 0 30 -20 -19 -37 -51 -19 -133
-12 -151 13 -7 10 -13 33 -13 51 0 18 -5 33 -10 33 -6 0 -15 11 -20 25 -6 16
-17 25 -32 25 -27 0 -55 16 -46 26 10 9 114 34 183 43 79 11 77 11 100 2z
m-1505 -120 c0 -5 -24 -23 -54 -40 -30 -16 -57 -35 -61 -41 -3 -5 -13 -10 -22
-10 -9 0 -31 -11 -50 -26 -33 -25 -93 -54 -113 -54 -5 0 -10 7 -10 15 0 20 75
69 183 121 91 42 127 53 127 35z m2195 -31 c9 -15 -14 -40 -36 -40 -21 0 -25
20 -7 38 15 15 35 15 43 2z m-731 -185 c22 -11 40 -30 52 -58 10 -23 29 -47
41 -53 58 -28 85 -77 53 -94 -33 -18 -58 -11 -105 30 -25 22 -55 40 -65 40
-11 0 -47 -14 -79 -31 -42 -22 -67 -30 -85 -25 -34 8 -56 33 -56 62 0 99 146
175 244 129z m-1724 -51 c0 -43 -48 -114 -77 -114 -21 0 -15 31 17 88 33 56
60 69 60 26z m1290 -42 c0 -16 11 -51 25 -78 32 -63 31 -71 -5 -79 -16 -3 -40
-15 -53 -25 -13 -10 -63 -30 -111 -43 -48 -14 -98 -34 -110 -46 -50 -47 -113
-12 -102 56 5 32 4 35 -6 22 -7 -9 -17 -16 -21 -17 -17 -1 -143 -57 -159 -70
-10 -8 -18 -21 -18 -28 0 -19 -41 -44 -72 -44 -32 0 -36 18 -12 55 12 18 13
28 4 44 -14 27 -21 26 -102 -5 -64 -24 -95 -52 -45 -41 77 18 87 18 87 4 0 -7
-10 -22 -21 -33 -12 -10 -32 -42 -45 -70 -12 -28 -29 -54 -37 -57 -25 -9 -47
27 -54 84 -3 30 -14 68 -24 85 -19 32 -12 54 18 54 7 0 13 5 13 10 0 17 -33
11 -95 -19 -80 -38 -104 -66 -112 -128 -6 -56 11 -123 31 -123 20 0 66 -39 66
-56 0 -11 -4 -12 -18 -3 -18 11 -129 -7 -425 -71 -49 -10 -95 -16 -103 -13 -8
3 -14 18 -14 33 0 16 -4 32 -10 35 -6 4 -10 -8 -10 -27 0 -43 -15 -58 -57 -58
-23 0 -33 -5 -33 -15 0 -8 -7 -15 -15 -15 -17 0 -30 42 -21 66 6 15 8 15 30 1
27 -18 36 -13 36 20 0 36 26 90 56 118 29 27 99 36 106 13 2 -6 28 8 62 35 31
26 85 61 119 78 34 17 82 46 107 64 129 93 378 191 625 244 50 11 110 27 134
36 74 26 148 16 89 -13 -36 -17 -4 -13 147 17 77 16 143 29 148 30 4 1 7 -12
7 -27z m1154 -74 c-4 -26 -15 -61 -25 -78 -20 -33 -74 -70 -101 -70 -30 0 -20
18 20 40 l37 20 -39 -6 c-38 -7 -39 -6 -32 19 3 14 2 29 -4 32 -19 12 -10 23
40 43 28 12 52 28 55 36 17 53 14 51 35 30 17 -16 19 -28 14 -66z m-2554 53
c0 -13 -44 -73 -62 -85 -20 -12 -24 -9 -33 26 -6 23 -2 30 27 48 34 21 68 26
68 11z m6 -173 c-4 -35 -12 -68 -18 -75 -15 -18 -36 -16 -40 5 -6 27 11 95 29
114 29 32 36 21 29 -44z m-124 -34 c-2 -43 -8 -96 -13 -116 -10 -39 -42 -70
-64 -62 -7 3 -15 -3 -19 -13 -6 -15 -8 -15 -16 -3 -12 19 -13 80 -1 80 5 0 11
-7 15 -15 9 -23 26 -18 26 9 0 15 -7 26 -20 29 -15 4 -19 11 -15 34 2 15 7 45
10 65 5 30 13 40 43 56 20 11 42 18 47 17 6 -1 9 -34 7 -81z m1724 45 c6 -11
122 -7 194 7 14 2 -14 -15 -62 -37 -49 -23 -88 -46 -88 -52 0 -5 7 -7 15 -3 8
3 38 8 67 11 48 6 51 5 35 -9 -16 -12 -50 -22 -144 -42 -13 -2 -23 -9 -23 -14
0 -9 135 -4 168 6 15 4 16 -11 1 -38 -8 -15 -17 -18 -35 -14 -21 6 -24 3 -24
-21 0 -16 5 -57 10 -93 11 -74 3 -90 -44 -90 -17 0 -76 -13 -131 -29 -267 -77
-684 -90 -971 -30 -115 24 -137 34 -114 49 8 5 26 10 40 10 28 0 55 7 260 70
74 22 178 50 231 60 52 11 121 29 152 39 32 11 117 33 190 50 138 31 193 48
185 57 -3 3 -67 -9 -142 -27 -112 -26 -139 -29 -151 -19 -21 18 -10 26 58 43
71 19 107 41 107 67 0 24 43 54 67 46 10 -3 25 -1 33 4 21 13 107 12 116 -1z
m-1634 -155 c29 21 57 20 65 0 15 -40 -86 -63 -107 -25 -15 30 -12 50 5 27 13
-17 15 -17 37 -2z m937 -60 c2 -2 2 -7 -2 -10 -10 -10 -98 6 -92 17 6 8 83 2
94 -7z m874 -65 c5 -41 1 -69 -12 -69 -10 0 -30 51 -25 66 2 8 6 21 9 29 8 28
22 15 28 -26z m1017 -19 c-19 -12 -40 -13 -40 0 0 5 8 13 18 19 22 13 44 -5
22 -19z m-648 -47 c23 -20 23 -43 1 -43 -20 0 -53 28 -53 47 0 18 30 16 52 -4z
m-108 -8 c18 -18 7 -60 -15 -60 -20 0 -41 46 -27 62 14 17 23 16 42 -2z m776
8 c0 -12 -33 -43 -47 -43 -20 0 -16 16 10 33 24 17 37 21 37 10z m30 -77 c0
-32 -24 -50 -55 -42 -33 8 -32 32 3 50 39 22 52 19 52 -8z m-999 -6 c5 0 9 -7
9 -15 0 -19 -34 -20 -49 -2 -13 16 -3 30 17 22 7 -3 18 -5 23 -5z m-1429 -17
c22 -20 23 -32 2 -61 -11 -15 -20 -20 -27 -14 -7 5 -33 13 -59 16 -27 4 -48
13 -48 19 1 48 93 76 132 40z m-159 1 c17 -17 -39 -64 -78 -64 -23 0 -18 37 7
54 23 16 60 21 71 10z m1487 -9 c10 -12 10 -19 2 -27 -9 -9 -21 -7 -47 8 -29
15 -32 20 -18 26 29 11 50 9 63 -7z m-1640 -34 c0 -12 -40 -41 -57 -41 -16 0
-17 22 -1 38 14 14 58 16 58 3z m1450 -11 c24 -13 26 -38 5 -46 -8 -3 -29 -1
-46 5 -28 9 -39 7 -85 -15 -47 -23 -53 -29 -48 -50 9 -36 -4 -45 -29 -21 -13
12 -36 32 -52 43 -45 33 -26 54 71 81 80 23 145 24 184 3z m-875 -14 c171 -42
244 -73 229 -97 -9 -15 -74 -10 -80 6 -9 22 -39 18 -56 -7 -18 -27 -44 -19
-58 17 -6 16 -17 25 -32 25 -13 0 -29 4 -37 9 -18 11 -58 -3 -88 -31 -12 -11
-29 -18 -37 -15 -20 8 -31 70 -17 96 15 28 50 27 176 -3z m-695 -5 c0 -20 -52
-47 -69 -36 -18 11 -12 24 17 39 37 20 52 20 52 -3z m2296 -49 c23 -34 46
-116 38 -137 -3 -6 -24 -21 -49 -33 l-43 -21 -11 31 c-6 17 -11 45 -11 62 0
17 -5 49 -11 70 -10 35 -9 42 7 53 28 21 56 12 80 -25z m-1966 13 c19 -22 2
-55 -38 -72 -21 -8 -44 -19 -52 -23 -11 -5 -15 -26 -17 -76 l-2 -69 14 41 c20
63 34 84 55 84 14 0 20 -7 20 -23 0 -18 5 -23 23 -23 21 1 22 -3 22 -64 0 -82
-21 -120 -65 -120 -41 0 -37 -16 9 -40 22 -11 42 -24 46 -30 8 -14 -38 -30
-85 -30 -32 0 -39 4 -42 22 -5 37 -25 31 -32 -10 -3 -22 -13 -45 -21 -52 -24
-20 -18 -30 19 -30 36 0 66 -21 66 -45 0 -27 -73 -230 -88 -245 -13 -13 -14
-12 -8 10 53 192 55 233 15 245 -25 8 -55 -13 -39 -29 16 -16 12 -51 -21 -209
l-32 -147 -53 -56 c-30 -31 -54 -63 -54 -72 0 -13 -3 -12 -15 4 -14 19 -15 18
-35 -6 -22 -28 -25 -47 -10 -70 8 -12 13 -13 30 -2 18 11 20 10 20 -12 0 -14
-11 -37 -24 -53 -35 -42 -41 -70 -21 -100 17 -25 17 -95 -1 -215 l-6 -37 -84
-22 c-66 -17 -84 -26 -84 -40 0 -24 -4 -26 -95 -44 -44 -9 -96 -25 -117 -36
-23 -12 -58 -19 -92 -19 -34 0 -56 -5 -59 -12 -3 -10 -7 -10 -17 -2 -15 15 -4
54 15 54 8 0 17 5 21 11 4 6 10 93 14 193 9 204 21 256 62 256 30 0 48 17 48
46 0 13 5 26 10 29 18 11 -1 26 -23 20 -21 -6 -21 -5 -3 9 10 8 38 15 65 15
43 0 185 28 259 52 37 12 38 31 1 39 -18 4 -25 13 -27 38 -4 39 -19 41 -54 4
-44 -47 -144 -67 -179 -36 -15 13 -24 14 -49 6 -26 -9 -30 -9 -30 6 0 9 10 37
21 62 15 33 19 56 14 87 -5 31 -1 52 14 82 13 25 17 42 11 46 -15 9 -38 -52
-60 -161 -11 -53 -23 -100 -26 -105 -3 -6 -19 -7 -35 -4 -24 5 -29 3 -29 -12
0 -11 -6 -28 -14 -39 -14 -18 -16 -18 -31 -3 -20 20 -24 95 -11 217 10 96 -5
112 -28 30 -36 -126 -85 -637 -57 -598 6 8 11 25 11 38 0 52 46 119 67 98 9
-9 25 -96 25 -141 0 -22 4 -76 9 -120 5 -44 5 -96 0 -115 -8 -34 -9 -34 -18
-12 -9 23 -10 22 -26 -20 -14 -33 -20 -40 -27 -28 -7 11 -11 9 -19 -11 -20
-53 -24 -119 -9 -137 26 -30 28 -50 7 -77 -17 -21 -19 -33 -13 -68 7 -41 8
-41 13 -12 8 42 31 37 47 -9 30 -84 41 -496 14 -496 -5 0 -18 15 -29 34 -25
40 -27 99 -6 149 17 41 20 113 5 122 -5 3 -16 -8 -25 -25 -8 -16 -20 -30 -25
-30 -6 0 -10 -15 -10 -32 0 -18 -5 -50 -10 -70 -13 -44 -9 -52 57 -142 52 -70
91 -144 123 -233 12 -35 26 -63 30 -63 12 0 -10 89 -36 149 -26 58 -30 81 -14
81 18 0 58 -74 79 -145 12 -38 32 -144 45 -235 17 -111 35 -194 56 -253 18
-48 30 -90 27 -93 -3 -3 -21 9 -41 26 -39 34 -48 28 -17 -11 20 -27 84 -151
95 -186 6 -18 1 -26 -26 -43 -71 -43 -102 -24 -142 92 -11 34 -27 63 -34 66
-17 5 -52 -75 -52 -123 0 -105 110 -169 198 -115 46 28 60 25 76 -15 9 -20 22
-35 31 -35 9 0 45 -16 79 -35 35 -19 74 -35 87 -35 45 -1 107 -38 181 -108 61
-59 70 -72 55 -78 -12 -4 -32 4 -63 25 -47 34 -57 30 -24 -11 25 -33 38 -65
65 -163 l22 -80 79 -5 79 -5 54 -58 54 -58 -38 -39 c-38 -39 -68 -50 -80 -31
-3 6 4 15 15 21 24 13 27 57 6 86 -14 19 -15 19 -49 0 -40 -21 -109 -101 -139
-161 -25 -49 -35 -56 -65 -44 -14 5 -42 9 -63 9 -40 0 -70 20 -70 46 0 8 -5
14 -10 14 -6 0 -15 11 -20 25 -5 14 -15 25 -21 25 -8 0 -7 5 2 16 14 17 39 15
104 -9 22 -8 58 -17 79 -20 35 -6 42 -3 72 27 19 19 34 38 34 44 0 18 -120 84
-142 79 -12 -4 -30 -2 -40 4 -17 9 -17 12 -3 46 8 19 15 39 15 44 0 15 -77
-29 -98 -56 -11 -14 -22 -20 -24 -14 -2 6 -20 -7 -41 -30 -20 -23 -40 -41 -44
-41 -3 0 -21 11 -38 25 -28 21 -37 23 -61 14 -46 -17 -106 8 -114 46 -4 17
-13 40 -20 52 -21 33 1 75 38 71 19 -2 28 -9 30 -25 4 -27 47 -63 75 -63 11 0
28 -7 38 -16 24 -21 59 -12 101 25 21 19 29 33 25 45 -9 23 -67 46 -115 46
-46 0 -89 29 -94 63 -2 14 -11 23 -26 25 -28 4 -45 36 -36 65 4 12 21 40 39
62 38 47 59 85 51 92 -3 3 -23 -6 -44 -21 -44 -30 -52 -32 -52 -11 0 8 -7 15
-15 15 -8 0 -15 -4 -15 -9 0 -5 -21 -32 -47 -61 -37 -41 -43 -54 -32 -61 11
-7 6 -15 -23 -39 -45 -38 -103 -116 -112 -152 -14 -60 -71 -84 -126 -52 -26
16 -60 62 -60 81 0 5 30 7 68 5 78 -4 117 13 93 42 -7 9 -19 16 -27 16 -31 0
-64 25 -74 55 -6 18 -20 41 -30 50 -24 21 -26 53 -5 81 26 38 3 35 -31 -4 -17
-20 -34 -35 -37 -32 -3 3 17 55 44 115 43 93 50 116 45 148 -6 34 -4 38 10 33
8 -3 19 -6 24 -6 4 0 10 -10 14 -22 5 -19 8 -21 16 -8 14 22 12 46 -5 60 -24
20 -18 35 48 115 109 135 118 148 107 159 -16 16 -12 58 9 96 25 48 43 45 45
-8 1 -23 9 -50 18 -59 15 -14 17 -10 23 49 8 72 5 100 -10 105 -5 1 -57 -35
-115 -82 -113 -91 -148 -110 -85 -45 48 50 35 52 -25 4 -37 -29 -46 -33 -48
-19 -2 9 3 24 11 33 8 9 20 28 27 42 l13 25 -24 -18 c-73 -52 -65 -50 -97 -33
-19 10 -42 13 -67 9 -53 -9 -65 11 -65 109 0 43 -5 86 -11 96 -9 15 -5 29 20
73 53 95 37 94 -39 -1 -28 -35 -54 -77 -57 -93 -4 -17 -14 -32 -25 -35 -61
-16 -8 -176 72 -217 38 -19 62 -19 98 2 22 13 35 15 52 7 22 -10 21 -11 -29
-74 -93 -118 -82 -110 -158 -110 -78 0 -119 16 -115 45 3 26 -53 168 -68 173
-15 5 -30 -16 -30 -44 0 -27 -21 -46 -39 -35 -27 17 32 111 70 111 13 0 19 7
19 23 0 26 49 114 79 141 11 11 21 28 21 39 0 11 14 35 30 54 25 28 28 37 19
54 -13 24 -16 21 43 43 33 12 64 35 101 77 33 36 62 59 75 59 11 0 34 12 52
26 51 43 73 104 38 104 -15 0 -125 -68 -189 -117 -30 -24 -59 -43 -64 -43 -14
0 56 69 103 101 28 20 42 37 42 52 0 23 17 47 33 47 4 0 6 -4 2 -9 -3 -5 -1
-12 4 -15 12 -8 34 20 26 33 -3 6 -1 19 4 30 9 17 6 20 -27 26 -52 9 -111 46
-160 99 -52 57 -61 89 -35 125 64 85 86 186 28 121 -17 -19 -65 -28 -65 -12 0
12 111 82 225 143 97 52 99 53 67 60 -17 3 -39 12 -47 19 -12 10 -18 7 -32
-19 -10 -17 -21 -31 -25 -31 -29 0 28 71 85 107 l39 25 -31 19 c-17 10 -47 19
-67 19 -44 0 -49 13 -30 88 9 33 16 72 16 86 0 31 11 33 35 6 23 -26 52 -26
60 1 10 30 -2 64 -35 102 -16 19 -34 46 -39 60 -12 32 -27 35 -36 7 -3 -11
-13 -20 -21 -20 -37 0 4 53 72 91 50 29 103 84 91 95 -3 3 -38 6 -78 8 -62 2
-78 -1 -97 -18 -17 -15 -25 -17 -34 -8 -8 8 -20 4 -45 -18 -28 -25 -43 -30
-83 -30 -27 0 -51 4 -55 9 -3 6 6 32 19 58 14 26 28 60 31 74 21 107 300 378
407 396 29 4 43 13 54 34 8 16 27 38 43 50 16 11 39 44 51 72 53 122 102 214
128 242 46 51 83 75 113 75 35 0 37 -17 9 -79 -11 -24 -20 -49 -20 -57 0 -23
26 -5 43 31 21 43 36 44 44 4 6 -30 7 -31 20 -13 8 10 26 41 39 67 37 72 40
50 5 -38 -17 -42 -31 -83 -31 -91 0 -17 48 -19 120 -3 43 9 50 14 50 34 0 16
11 30 35 44 23 13 42 35 51 58 8 21 21 52 30 68 l15 30 -5 -45 c-3 -25 -8 -55
-12 -65 -5 -14 -4 -17 3 -10 6 6 21 38 33 73 25 68 54 112 74 112 7 0 33 23
58 50 47 52 67 60 88 35z m810 -15 c24 -24 25 -43 6 -59 -16 -14 -43 -4 -66
23 -8 11 -29 16 -61 16 -53 0 -63 10 -26 28 39 19 124 15 147 -8z m-930 0 c0
-12 -35 -31 -44 -23 -8 9 14 33 30 33 8 0 14 -4 14 -10z m1920 -62 c14 -25 30
-54 37 -65 18 -29 -13 -71 -82 -113 -48 -28 -69 -35 -113 -35 l-55 0 -21 65
c-15 46 -27 66 -40 69 -15 2 -17 -1 -12 -15 4 -11 13 -47 20 -82 16 -72 12
-77 -59 -84 l-40 -3 -7 80 c-5 44 -9 91 -10 104 -4 32 25 50 53 33 17 -11 24
-10 50 13 59 49 130 20 150 -60 15 -58 41 -82 73 -67 34 15 41 64 17 118 -20
44 -39 55 -91 51 -45 -4 -29 27 20 39 60 15 80 6 110 -48z m-1720 13 c0 -16
-8 -37 -17 -46 -16 -16 -17 -16 -29 0 -7 9 -10 24 -7 33 18 49 53 57 53 13z
m-390 -43 c0 -16 -9 -41 -20 -55 -11 -14 -20 -33 -20 -41 0 -19 -56 -120 -83
-149 -13 -15 -32 -23 -53 -23 l-33 0 62 131 c69 146 108 199 132 179 8 -7 15
-26 15 -42z m-120 17 c0 -8 -7 -15 -15 -15 -16 0 -20 12 -8 23 11 12 23 8 23
-8z m-110 -9 c0 -8 -6 -16 -13 -19 -19 -7 -41 8 -33 22 10 16 46 14 46 -3z
m750 4 c0 -15 -38 -50 -55 -50 -18 0 -18 1 -5 34 7 19 17 26 35 26 14 0 25 -4
25 -10z m105 -40 c9 -15 -14 -40 -36 -40 -22 0 -23 4 -9 31 12 21 35 25 45 9z
m513 -2 c-6 -16 -36 -34 -44 -25 -9 9 15 37 33 37 8 0 13 -5 11 -12z m1786 -9
c-7 -13 -67 -39 -86 -39 -17 1 63 50 80 50 7 0 10 -5 6 -11z m-2134 -17 c0
-21 -18 -42 -37 -42 -13 0 -18 41 -6 53 14 14 43 7 43 -11z m108 -9 c2 -8 -5
-13 -17 -13 -21 0 -35 13 -24 24 10 10 36 3 41 -11z m668 -34 c14 -23 29 -36
38 -33 17 7 74 -50 82 -83 4 -16 1 -30 -9 -40 -24 -24 -56 -1 -63 48 -9 57
-24 58 -24 1 0 -65 -16 -77 -119 -91 -136 -18 -126 -22 -139 64 -5 42 -16 82
-22 90 -27 33 -32 15 -25 -85 l7 -100 -56 0 -56 0 0 51 c0 33 -4 48 -11 44 -6
-4 -9 -28 -8 -53 l3 -47 -39 -7 c-22 -4 -61 -7 -86 -7 l-47 -1 -4 60 c-5 67
-31 113 -67 118 -30 5 -34 -17 -17 -86 35 -132 14 -148 -152 -116 -33 6 -92
-11 -92 -27 0 -14 171 -11 339 6 239 24 426 51 695 100 136 25 259 45 273 45
34 0 24 -23 -13 -31 -16 -3 -38 -10 -49 -16 -26 -14 -269 -79 -403 -108 -56
-12 -105 -25 -109 -28 -7 -8 26 -47 40 -47 5 0 15 7 21 15 11 15 203 68 285
78 74 9 32 -10 -89 -42 -167 -43 -177 -48 -239 -128 -34 -45 -51 -54 -51 -28
0 8 -4 15 -8 15 -11 0 -87 -81 -101 -106 -22 -44 -207 -80 -271 -54 -24 10
-36 10 -61 0 l-31 -13 22 -17 c32 -24 20 -48 -30 -56 -44 -7 -54 -28 -17 -40
12 -4 47 -6 77 -6 30 1 71 -2 90 -7 35 -8 35 -8 -20 -15 -79 -11 -369 -12
-550 -3 -169 8 -282 -4 -258 -28 2 -3 65 -10 139 -16 204 -17 202 -30 -5 -24
-98 2 -181 6 -183 8 -8 9 60 365 79 408 25 59 47 69 153 69 120 0 114 19 -10
35 -103 13 -116 23 -75 60 16 14 31 17 80 12 33 -3 60 -3 60 -1 0 2 -13 10
-29 18 -39 21 -46 44 -22 77 11 15 30 56 41 90 31 94 32 94 131 73 98 -20 350
-23 489 -4 339 45 437 56 462 52 21 -3 37 -16 54 -43z m1374 -34 c0 -8 -4 -15
-10 -15 -5 0 -18 -9 -29 -21 l-19 -21 -11 20 c-9 17 -7 24 11 36 28 20 58 20
58 1z m140 0 c-18 -22 -106 -85 -118 -85 -5 0 -12 7 -16 15 -4 11 13 25 62 50
74 38 91 42 72 20z m-149 -132 c15 -70 24 -83 56 -83 22 0 24 -2 13 -16 -8 -8
-25 -14 -39 -12 -21 3 -28 11 -39 53 -8 28 -21 58 -29 67 -13 14 -13 20 -3 33
21 25 28 18 41 -42z m159 48 c0 -13 -49 -46 -89 -59 -41 -14 -41 -14 -41 -3 0
5 13 14 29 21 16 6 37 20 47 31 18 20 54 26 54 10z m50 -70 c0 -35 -2 -37 -57
-46 -53 -8 -58 11 -12 49 42 36 69 35 69 -3z m-960 -27 c0 -13 11 -51 25 -84
26 -63 55 -169 55 -207 0 -18 -6 -23 -25 -23 -13 0 -42 -7 -64 -16 -81 -32
-102 -11 -120 121 -12 85 -23 107 -43 87 -14 -14 -16 -125 -3 -180 10 -42 -11
-66 -69 -81 -77 -19 -156 17 -156 72 0 35 40 107 81 144 42 38 139 91 208 114
80 26 91 34 91 66 0 14 4 21 10 18 6 -3 10 -17 10 -31z m160 32 c0 -3 -14 -14
-31 -27 -24 -16 -33 -19 -42 -10 -9 10 -7 16 7 27 18 13 66 20 66 10z m9 -132
c28 -35 26 -52 -4 -66 -14 -6 -25 -15 -25 -20 0 -4 -4 -8 -9 -8 -11 0 -3 57
10 83 7 13 6 17 -6 17 -8 0 -15 5 -15 10 0 19 29 10 49 -16z m-644 -64 c-20
-22 -80 -44 -95 -35 -17 11 -1 24 48 39 63 20 68 19 47 -4z m691 -56 c15 -39
15 -47 3 -55 -19 -12 -79 -11 -79 1 0 6 9 10 20 10 17 0 20 7 20 38 0 33 6 52
16 52 1 0 10 -21 20 -46z m-782 -26 c-4 -7 -18 -27 -31 -44 -40 -54 -24 -144
26 -144 41 0 101 -12 101 -20 0 -12 -169 -29 -396 -41 -320 -17 -298 -18 -302
8 -7 46 63 54 339 39 112 -6 168 -5 173 2 3 5 -1 26 -9 46 -8 19 -15 50 -15
69 0 28 7 39 43 65 43 32 85 43 71 20z m1600 -110 c-7 -16 -56 -55 -79 -64
-14 -6 -16 -1 -13 22 2 23 10 32 38 41 46 16 61 16 54 1z m52 -87 c-22 -24
-129 -77 -175 -86 -47 -10 -33 8 32 39 64 31 117 62 131 76 19 19 31 -8 12
-29z m-800 -50 c-3 -4 -19 -14 -36 -21 -29 -12 -30 -14 -14 -31 16 -18 16 -19
-8 -19 -55 0 -37 56 22 70 19 4 36 8 38 9 2 1 1 -3 -2 -8z m856 -28 c10 -9 18
-19 18 -22 0 -3 -32 -7 -70 -9 -39 -1 -70 0 -70 3 0 10 65 45 84 45 11 0 28
-7 38 -17z m-992 -3 c0 -9 -31 -30 -44 -30 -12 0 -6 28 7 33 20 9 37 8 37 -3z
m-60 -38 l22 -17 -21 -19 c-12 -11 -21 -25 -21 -32 0 -7 -20 -25 -44 -39 -24
-14 -50 -32 -56 -40 -25 -30 -28 -24 -45 78 -5 29 -12 40 -32 48 -40 15 -16
28 62 32 39 1 80 4 91 5 12 1 32 -6 44 -16z m1026 -46 c8 -33 -3 -49 -29 -42
-22 5 -57 -9 -57 -24 0 -5 12 -10 28 -12 24 -4 25 -5 7 -13 -11 -5 -35 -21
-53 -37 -33 -28 -62 -37 -62 -17 0 22 21 49 39 49 20 0 36 26 22 35 -5 2 -23
-2 -40 -11 -30 -15 -71 -12 -71 6 0 5 19 14 43 20 68 17 125 40 137 56 18 20
29 17 36 -10z m-1867 5 c11 -7 9 -10 -8 -16 -28 -9 -74 2 -66 15 8 12 55 13
74 1z m471 0 c0 -5 5 -89 11 -187 12 -215 9 -244 -29 -244 -26 0 -115 29 -127
42 -4 3 -2 16 4 27 9 15 8 25 0 40 -10 15 -9 26 4 54 9 19 17 46 17 60 0 14 4
28 9 31 4 3 11 18 14 34 4 17 16 33 31 40 18 8 26 19 26 36 0 35 -15 40 -47
17 -32 -23 -94 -32 -100 -14 -2 7 13 17 36 24 22 7 48 20 57 31 18 19 94 26
94 9z m-190 -21 c-20 -13 -60 -13 -60 0 0 6 17 10 38 10 27 0 33 -3 22 -10z
m270 -5 c0 -9 12 -18 30 -22 33 -6 52 -45 31 -66 -17 -17 -13 -184 5 -232 28
-73 20 -93 -43 -102 -51 -7 -50 -12 -59 240 l-7 197 22 0 c12 0 21 -6 21 -15z
m-1322 -2 c-10 -2 -28 -2 -40 0 -13 2 -5 4 17 4 22 1 32 -1 23 -4z m917 -2 c5
-9 -7 -12 -101 -27 -18 -2 -49 -16 -70 -31 -49 -33 -142 -45 -156 -19 -6 11
-23 16 -55 16 l-45 0 5 -152 c3 -84 11 -179 18 -211 26 -112 4 -121 -298 -125
-133 -2 -233 -8 -233 -13 0 -18 -17 -9 -27 15 -9 18 -22 24 -63 29 -29 4 -60
13 -70 22 -9 8 -23 15 -31 15 -9 0 -24 7 -35 15 -17 13 -17 14 -2 15 23 0 32
18 18 35 -16 19 2 50 40 67 22 9 33 23 40 50 19 68 -23 121 -47 58 -13 -34
-67 -70 -106 -70 -23 0 -31 -7 -43 -35 -20 -49 -18 -90 8 -135 34 -59 21 -66
-115 -62 -132 3 -157 15 -113 55 24 22 25 26 10 38 -13 11 -15 29 -11 109 2
52 11 141 18 198 l13 102 191 0 c104 0 363 5 574 10 284 7 388 7 398 -1 10 -9
36 -7 106 9 138 32 173 37 182 23z m69 -59 c10 -17 -85 -92 -116 -92 -44 0 7
63 72 89 32 13 38 13 44 3z m-1574 -31 c0 -17 -4 -33 -10 -36 -6 -4 -10 8 -10
29 0 20 5 36 10 36 6 0 10 -13 10 -29z m2340 4 c0 -14 7 -28 15 -30 53 -17 52
-15 28 -35 -31 -25 -30 -50 1 -50 19 0 25 -6 28 -27 2 -17 10 -29 21 -31 13
-3 17 4 17 30 1 27 2 30 11 15 6 -10 9 -30 7 -45 -2 -21 -9 -28 -32 -30 -34
-4 -84 15 -95 37 -14 27 -24 191 -12 191 6 0 11 -11 11 -25z m-1219 -40 c4
-50 0 -77 -11 -70 -5 3 -10 32 -10 63 0 58 16 64 21 7z m1096 30 c3 -9 -3 -25
-12 -35 -10 -11 -21 -37 -24 -57 -7 -44 -27 -53 -42 -20 -15 33 -5 72 26 103
28 28 43 30 52 9z m-2231 -132 c-3 -27 -8 -90 -12 -140 -3 -54 -11 -93 -17
-93 -11 0 -3 232 9 263 13 35 26 16 20 -30z m1428 22 c-7 -17 -51 -31 -62 -20
-9 9 27 35 50 35 11 0 15 -5 12 -15z m-2530 -50 c-3 -8 1 -22 10 -30 22 -22
20 -51 -5 -91 l-20 -33 30 -107 c44 -152 42 -171 -18 -222 -44 -38 -49 -39
-64 -24 -16 15 -20 14 -63 -7 -38 -18 -49 -20 -55 -9 -13 20 -11 40 11 110 24
78 26 145 4 169 -23 26 -3 72 42 98 19 11 34 26 34 32 0 8 -7 6 -18 -4 -18
-17 -52 -23 -52 -10 0 4 10 17 21 29 12 13 27 33 33 46 11 22 80 68 103 68 7
0 10 -7 7 -15z m2714 -4 c19 -11 12 -86 -8 -86 -16 0 -36 56 -27 79 7 18 16
20 35 7z m-253 -30 c-5 -23 -2 -29 14 -34 23 -6 28 -40 11 -67 -13 -21 -37 -5
-64 43 l-21 38 28 24 c36 32 40 31 32 -4z m834 -40 c21 -14 3 -31 -32 -31 -18
0 -43 -7 -55 -16 -13 -9 -26 -13 -30 -10 -12 12 15 41 49 53 42 15 50 15 68 4z
m-3481 -36 c-14 -14 -35 -56 -47 -93 -11 -37 -34 -83 -51 -102 -16 -19 -29
-40 -30 -46 0 -6 -11 -21 -25 -34 -21 -20 -25 -33 -25 -80 0 -32 7 -77 15
-100 20 -58 19 -81 -5 -87 -11 -3 -23 -16 -26 -29 -4 -15 -14 -24 -25 -24 -10
0 -30 -12 -45 -27 -25 -25 -27 -25 -37 -8 -15 28 -11 183 7 235 9 25 16 52 16
61 0 9 11 33 25 53 14 20 25 44 25 53 0 21 29 53 47 53 7 0 13 7 13 16 0 18
177 200 187 191 3 -4 -5 -18 -19 -32z m4532 -14 c0 -14 -10 -21 -37 -26 -21
-4 -44 -12 -51 -17 -15 -13 -35 2 -24 19 8 13 70 41 95 42 10 1 17 -6 17 -18z
m-1490 -50 c0 -13 -37 -24 -50 -16 -6 4 -8 11 -5 16 8 12 55 12 55 0z m1544
-7 c20 -53 -5 -115 -52 -129 -21 -6 -22 -4 -20 37 3 42 2 43 -24 40 -45 -5
-32 17 25 43 62 29 63 30 71 9z m-1694 -13 c0 -13 -26 -21 -65 -21 -33 0 -51
11 -38 24 10 9 103 7 103 -3z m-354 -45 c10 -8 17 -17 14 -20 -10 -10 -50 6
-50 20 0 18 11 18 36 0z m1954 -61 c0 -8 -6 -15 -14 -15 -8 0 -22 -10 -30 -22
-17 -24 -41 -13 -31 14 12 30 75 49 75 23z m-2720 -8 c14 -1 35 -8 47 -15 29
-16 185 -31 343 -33 100 0 119 -3 95 -11 -42 -15 -890 -16 -930 -2 -21 8 -29
16 -27 30 5 27 11 30 25 11 7 -10 38 -22 71 -28 95 -17 278 14 301 51 4 7 16
9 29 5 11 -4 32 -8 46 -8z m2850 -29 c0 -13 -20 -41 -50 -70 -55 -53 -92 -62
-111 -27 -7 14 -17 19 -30 16 -60 -16 35 54 112 82 71 25 79 25 79 -1z m-1595
-9 c-22 -4 -49 -8 -60 -8 l-20 0 20 9 c11 5 38 8 60 8 l40 0 -40 -9z m365 -12
c0 -13 -10 -33 -23 -45 -34 -32 -48 -11 -27 42 13 34 50 36 50 3z m-500 -13
c0 -9 -8 -18 -19 -21 -10 -2 -23 -15 -29 -28 -8 -17 -27 -29 -67 -40 -31 -9
-63 -14 -71 -11 -18 7 -19 56 -1 56 8 0 24 9 37 20 13 11 35 23 49 26 14 3 31
7 36 9 30 10 65 4 65 -11z m-2070 -19 c0 -8 -78 -45 -95 -45 -27 0 -16 18 15
25 16 4 32 11 35 16 6 9 45 13 45 4z m274 -17 c9 -15 16 -69 20 -154 4 -73 13
-172 21 -220 8 -49 15 -94 15 -101 0 -16 -93 -49 -163 -58 -110 -13 -227 -60
-227 -90 0 -24 -14 -17 -38 20 -19 30 -28 35 -61 35 l-39 0 -11 63 c-31 174
-37 324 -11 277 4 -8 18 -53 29 -100 26 -101 40 -122 30 -43 -4 32 -8 95 -8
139 -1 66 3 86 18 106 43 54 272 147 363 148 39 0 50 -4 62 -22z m1576 13
c-12 -7 -149 -29 -194 -32 -6 0 5 -5 24 -12 45 -16 49 -40 11 -78 -40 -40 -64
-35 -72 14 -6 41 -15 54 -26 43 -5 -4 -9 -104 -11 -222 l-3 -214 -44 0 c-39 0
-45 3 -51 25 -4 16 -13 25 -26 25 -10 0 -30 11 -43 25 -49 48 -20 159 55 209
60 39 51 76 -10 41 -36 -21 -37 -20 -44 35 -4 28 -11 50 -16 50 -6 0 -10 -6
-10 -14 0 -8 -6 -27 -14 -43 -8 -15 -18 -41 -23 -58 -8 -27 -13 -31 -61 -36
-57 -7 -102 -31 -102 -54 0 -21 -18 -19 -24 3 -2 9 -7 47 -11 84 -4 37 -11 70
-16 73 -11 7 -12 -6 -13 -160 -1 -154 -10 -175 -75 -175 -78 1 -161 52 -161
100 0 39 23 92 43 101 12 5 33 16 47 24 14 8 34 15 46 15 23 0 44 18 44 37 0
21 -53 15 -116 -14 -78 -35 -139 -37 -164 -3 l-19 25 -10 -28 c-6 -16 -11 -43
-11 -60 0 -22 -7 -36 -21 -45 -19 -12 -20 -15 -5 -37 9 -13 16 -36 16 -49 0
-14 7 -41 16 -60 18 -38 12 -86 -10 -86 -33 0 -71 95 -90 225 l-13 85 34 26
c34 26 44 61 20 70 -17 6 -185 -11 -210 -21 -16 -7 -18 -2 -15 46 l3 54 50 1
c28 0 66 4 85 7 19 4 170 11 335 17 315 11 572 26 665 40 77 11 259 12 240 1z
m535 -7 c-19 -14 -19 -16 -2 -25 15 -9 17 -28 17 -172 0 -156 -10 -224 -23
-159 -4 20 -14 31 -30 36 -37 9 -40 42 -17 184 25 155 24 152 52 152 23 -1 23
-1 3 -16z m-539 -36 c9 -14 -40 -58 -67 -58 -22 0 -27 38 -7 58 15 15 65 16
74 0z m392 -75 c5 -10 12 -36 16 -58 4 -22 9 -52 12 -67 5 -27 4 -28 -33 -28
-81 0 -112 62 -50 100 28 17 29 20 10 20 -32 0 -37 16 -11 34 29 21 45 20 56
-1z m-3128 -38 c10 -12 9 -16 -4 -21 -18 -7 -49 13 -40 27 8 14 30 11 44 -6z
m4695 -41 c0 -28 5 -57 11 -65 18 -22 24 -53 15 -68 -7 -11 -10 -11 -17 0 -20
32 -37 88 -41 137 -4 48 -3 53 14 50 15 -3 18 -13 18 -54z m-408 11 c28 -15
67 -45 86 -69 21 -24 62 -56 99 -76 85 -44 94 -54 114 -114 22 -66 69 -131
106 -147 33 -14 52 -51 43 -86 -4 -18 -12 -23 -39 -23 -25 0 -43 -10 -78 -45
-49 -48 -85 -58 -108 -30 -11 13 -10 22 5 53 10 20 17 44 16 52 -4 23 -139
247 -172 285 -40 45 -107 71 -148 57 -25 -9 -32 -7 -52 14 -33 35 -42 30 -23
-13 9 -21 18 -44 21 -50 7 -18 -17 -16 -39 4 -20 18 -23 7 -8 -31 13 -34 3
-33 -37 6 -31 30 -33 31 -33 10 0 -26 -8 -27 -39 -6 -23 16 -23 16 -16 -7 47
-151 219 -359 348 -422 32 -16 61 -35 64 -43 6 -17 -41 -124 -68 -152 -9 -10
-22 -28 -28 -40 -18 -34 -46 -27 -98 24 -57 55 -45 68 27 30 58 -30 60 -31 60
-11 0 9 7 18 15 21 28 11 15 33 -52 87 -136 108 -237 235 -343 430 -30 56 -63
103 -72 105 -46 9 -49 -176 -5 -308 14 -41 35 -106 47 -145 51 -166 219 -377
287 -360 34 8 40 -15 9 -42 -35 -30 -60 -29 -126 4 -110 55 -273 249 -397 476
-89 162 -96 172 -119 169 -33 -6 -36 -18 -15 -58 25 -47 27 -72 4 -81 -11 -4
-24 3 -40 23 -38 48 -27 8 30 -111 127 -262 281 -502 348 -542 41 -25 100 -38
96 -21 -3 16 77 71 98 66 16 -3 15 -6 -7 -33 -14 -16 -32 -44 -41 -61 -8 -16
-31 -39 -51 -49 -31 -17 -38 -17 -62 -5 -36 20 -161 154 -220 237 -26 37 -72
95 -102 128 -30 33 -85 107 -123 165 -99 152 -96 148 -109 130 -13 -20 -3 -85
22 -133 11 -22 18 -41 16 -43 -3 -2 -20 12 -38 31 -19 19 -37 35 -41 35 -4 0
-4 -29 -1 -65 2 -36 2 -65 -1 -65 -3 0 -14 19 -26 43 -11 23 -45 67 -76 97
-51 50 -55 53 -55 29 0 -38 74 -176 179 -334 51 -76 104 -162 118 -190 84
-166 126 -197 264 -194 49 1 92 -1 96 -4 12 -13 -8 -38 -54 -67 -56 -35 -108
-39 -169 -11 -90 41 -244 216 -428 486 -96 141 -136 189 -148 177 -7 -7 4 -41
30 -99 23 -48 44 -101 48 -118 l7 -29 -40 32 c-22 17 -46 38 -53 47 -18 22
-30 19 -30 -8 0 -25 112 -220 188 -327 64 -90 149 -178 196 -202 21 -11 73
-25 115 -31 90 -14 98 -31 31 -65 -34 -17 -58 -21 -97 -19 -67 5 -106 34 -331
251 -169 162 -246 226 -259 212 -3 -3 -1 -23 5 -43 7 -21 8 -41 3 -47 -5 -6
-11 -24 -13 -41 -2 -24 -8 -31 -30 -33 -59 -7 -20 -80 104 -198 173 -164 259
-196 428 -159 36 8 76 14 89 15 20 0 22 -2 10 -16 -7 -9 -40 -30 -73 -47 -54
-28 -70 -32 -141 -31 -61 1 -96 7 -148 27 -82 32 -208 113 -297 192 -74 64
-116 90 -125 75 -3 -5 4 -23 15 -38 14 -18 20 -40 18 -58 -2 -25 -8 -29 -35
-32 -18 -2 -33 -8 -33 -14 0 -6 44 -54 98 -107 96 -94 175 -150 249 -177 51
-18 161 -17 212 1 58 20 55 -2 -9 -55 l-50 -42 -103 20 c-91 18 -125 32 -304
124 -194 98 -204 102 -220 85 -17 -17 -17 -19 0 -31 22 -17 22 -26 -3 -26 -27
0 -25 -18 9 -72 57 -90 197 -178 325 -205 80 -16 126 -12 198 19 27 11 51 18
55 15 9 -10 -55 -103 -93 -137 -41 -36 -43 -36 -146 -10 -99 26 -199 65 -329
130 -56 28 -104 49 -107 46 -8 -8 -6 -212 3 -225 3 -6 -1 -11 -10 -11 -27 0
-13 -42 22 -66 48 -32 187 -67 268 -67 83 0 128 19 207 90 31 27 54 41 56 34
5 -16 -38 -80 -91 -135 -65 -68 -97 -73 -292 -47 -88 11 -173 21 -189 21 -29
0 -29 0 -22 -47 6 -50 24 -72 85 -105 42 -23 40 -44 -6 -53 -43 -8 -103 -49
-103 -70 0 -8 10 -20 22 -26 33 -18 203 -24 270 -10 54 12 60 16 95 69 63 94
97 78 49 -23 -43 -93 -66 -102 -280 -116 -88 -6 -172 -14 -186 -19 l-25 -9 23
-6 c25 -8 27 -22 7 -49 -8 -11 -15 -26 -15 -33 0 -8 -10 -27 -21 -42 -25 -34
-20 -46 21 -54 44 -9 38 -34 -11 -47 -31 -9 -39 -14 -30 -23 8 -8 42 -7 128 2
190 19 238 52 299 201 34 85 48 99 39 40 -11 -74 -33 -144 -58 -181 -33 -49
-103 -83 -262 -125 -77 -20 -147 -40 -156 -45 -9 -5 -19 -21 -21 -36 -3 -16
-7 -34 -9 -42 -3 -9 8 -17 29 -23 17 -5 32 -13 32 -19 0 -6 -32 -44 -72 -85
l-71 -74 45 0 c145 0 428 128 428 193 0 40 52 180 61 166 11 -19 -1 -169 -17
-200 -35 -71 -162 -144 -356 -208 -181 -60 -223 -104 -158 -166 16 -16 30 -35
30 -42 0 -7 5 -13 10 -13 22 0 8 -21 -30 -45 -25 -16 -40 -33 -40 -45 0 -11
-4 -20 -10 -20 -5 0 -10 -7 -10 -16 0 -14 8 -16 48 -10 228 30 396 142 491
326 25 46 45 80 47 75 1 -6 7 -35 14 -67 12 -52 11 -59 -10 -105 -13 -26 -54
-78 -90 -115 -62 -62 -83 -75 -272 -167 -200 -97 -206 -101 -210 -133 -3 -18
-8 -41 -13 -50 -6 -15 -2 -18 20 -18 14 0 35 5 46 11 11 6 25 8 32 6 7 -2 -4
-11 -24 -20 -28 -11 -37 -21 -37 -39 0 -12 -3 -33 -7 -45 -9 -27 9 -30 39 -8
25 19 46 19 46 0 0 -8 -14 -40 -31 -70 -17 -31 -28 -62 -25 -70 23 -61 331 95
455 231 81 88 95 127 101 284 3 74 8 130 12 125 18 -28 40 -183 36 -250 -7
-109 -38 -156 -162 -254 -112 -87 -350 -251 -366 -251 -17 0 -11 -51 11 -86
11 -19 33 -41 47 -48 23 -12 27 -21 27 -57 0 -51 13 -58 83 -38 60 17 206 114
260 173 67 73 83 120 96 275 7 81 15 136 22 138 17 6 46 -74 51 -143 11 -127
-36 -244 -138 -344 -37 -36 -99 -94 -138 -129 -39 -35 -71 -72 -71 -82 0 -10
-5 -29 -11 -43 -9 -20 -8 -32 10 -68 11 -25 21 -54 21 -66 0 -44 28 -35 102
32 105 95 204 211 234 272 17 34 28 79 33 126 l7 73 19 -35 c16 -29 19 -54 19
-146 -1 -109 -12 -154 -37 -154 -23 0 -296 -260 -297 -282 0 -4 16 -4 35 -1
l35 6 -19 -43 c-21 -47 -19 -66 9 -75 10 -3 23 -19 29 -35 31 -90 178 49 217
204 6 25 4 28 -10 23 -26 -10 -19 6 18 42 42 41 46 33 46 -102 l0 -100 -115
-118 -115 -117 0 -54 c0 -65 19 -99 47 -82 29 18 61 85 78 163 16 78 30 111
46 111 5 0 12 -7 16 -16 20 -53 -158 -527 -204 -541 -17 -6 -7 27 43 140 24
53 39 97 33 97 -22 0 -88 -73 -104 -117 -50 -134 -161 -308 -249 -391 -38 -36
-69 -55 -106 -66 -71 -21 -173 -21 -191 0 -17 20 2 34 48 34 56 0 151 37 217
84 160 114 279 344 278 536 0 133 -50 251 -210 503 -181 283 -318 553 -367
724 -48 164 -58 250 -52 453 7 226 24 329 116 670 55 207 108 484 171 890 47
302 50 318 88 480 62 258 173 502 347 765 267 404 573 653 1248 1015 164 88
242 101 334 55z m-2862 -5 c8 -12 -33 -53 -45 -45 -16 10 -12 33 8 44 22 13
29 13 37 1z m1385 -71 c12 -39 18 -74 15 -77 -3 -4 -18 0 -33 9 -20 10 -28 24
-30 49 -4 43 6 102 18 95 4 -3 18 -37 30 -76z m-568 -63 c11 -26 5 -56 -11
-56 -16 0 -33 39 -26 60 9 27 23 25 37 -4z m672 -22 c9 -3 16 -13 16 -21 0
-12 -8 -13 -42 -8 -51 9 -60 13 -53 26 7 10 55 12 79 3z m-2806 -16 c-6 -17
-36 -34 -44 -25 -4 4 1 14 12 22 23 18 37 19 32 3z m2443 -29 c23 -47 19 -84
-11 -94 -30 -9 -40 2 -40 45 0 38 14 90 25 90 2 0 14 -19 26 -41z m-457 -19
c18 -44 44 -65 97 -74 47 -8 67 -30 48 -52 -11 -14 -26 -15 -88 -10 -41 3 -76
8 -78 10 -2 1 -6 40 -10 85 -7 91 5 106 31 41z m556 -24 c0 -8 -5 -18 -10 -21
-13 -8 -42 14 -34 26 9 15 44 10 44 -5z m-2634 -28 c0 -42 89 -249 121 -284
22 -24 23 -30 12 -51 -27 -50 -112 -88 -170 -76 -42 8 -65 43 -83 123 -20 88
-21 154 -1 170 11 9 12 17 4 32 -8 15 -7 24 8 40 20 23 92 78 103 78 3 0 6
-15 6 -32z m1414 3 c15 -29 12 -71 -6 -78 -21 -8 -34 14 -34 60 0 41 22 51 40
18z m97 -58 c13 -19 12 -24 -6 -42 -22 -22 -47 -29 -36 -11 4 6 0 22 -9 35 -9
13 -16 29 -16 35 0 19 52 6 67 -17z m271 -5 c-2 -17 -11 -24 -30 -26 -35 -4
-39 24 -5 38 34 14 39 12 35 -12z m222 -3 c0 -9 -12 -21 -27 -28 -15 -6 -36
-20 -45 -29 -21 -21 -38 -23 -62 -5 -24 18 -17 48 14 64 37 19 120 17 120 -2z
m-924 -57 c7 -23 -16 -48 -46 -48 -9 0 -49 -11 -89 -25 -70 -24 -91 -25 -91
-5 0 12 74 50 97 50 10 0 34 11 53 25 44 30 67 31 76 3z m1040 -9 c3 -6 0 -15
-7 -20 -22 -13 -49 -11 -49 5 0 23 43 35 56 15z m764 -29 c8 -5 12 -12 8 -15
-9 -10 -78 -25 -113 -25 -33 0 -63 15 -53 26 20 19 133 30 158 14z m-494 -28
c15 -9 44 -67 44 -87 0 -8 -10 -19 -22 -24 -27 -11 -80 -65 -99 -101 -7 -14
-12 -39 -11 -57 2 -17 -2 -34 -7 -38 -17 -10 -32 33 -41 118 -9 92 0 175 21
188 17 11 100 12 115 1z m134 -23 c-6 -10 -20 -19 -32 -19 -21 0 -21 0 2 25
26 27 46 24 30 -6z m-342 -1 c35 -43 48 -247 19 -292 -21 -31 -57 -34 -81 -7
-9 10 -28 71 -42 137 -14 65 -27 120 -29 123 -3 2 -5 -52 -5 -121 l0 -126 -49
20 c-65 28 -79 57 -51 105 11 19 20 36 20 38 0 2 -17 7 -37 11 -43 8 -53 18
-53 55 0 41 23 52 128 59 155 11 169 11 180 -2z m-374 -20 c12 -6 24 -16 28
-22 14 -20 8 -71 -12 -103 -31 -52 -41 -44 -55 42 -8 55 -20 74 -36 58 -10
-10 -10 -33 0 -107 16 -117 13 -131 -26 -111 -15 8 -36 16 -45 19 -26 8 -24
70 3 107 27 39 21 52 -35 67 -44 11 -60 32 -36 47 39 24 170 26 214 3z m-540
-7 c9 -10 22 -50 27 -87 6 -38 21 -101 35 -141 13 -39 24 -89 24 -110 l0 -40
-84 -32 c-47 -17 -128 -54 -182 -81 -99 -51 -134 -60 -151 -37 -16 21 -59 135
-102 276 -36 117 -39 137 -28 159 28 59 192 109 363 111 67 1 84 -2 98 -18z
m-1004 -6 c0 -19 -56 -82 -65 -73 -4 4 2 23 14 42 18 29 29 39 49 45 1 1 2 -6
2 -14z m2565 -31 c6 -23 18 -51 28 -61 43 -49 8 -95 -83 -112 -74 -12 -90 -5
-90 43 0 94 54 180 109 174 21 -2 28 -11 36 -44z m-1315 1 c0 -19 -24 -30 -41
-19 -9 5 -7 11 6 21 24 17 35 17 35 -2z m1085 -25 c8 -13 -13 -39 -40 -50 -20
-9 -20 -9 2 -9 55 -2 69 -28 31 -55 -48 -34 -108 -4 -108 54 0 23 7 35 33 50
35 22 72 26 82 10z m-2810 -104 c20 -111 44 -160 85 -174 32 -12 39 -29 15
-38 -8 -4 -15 -12 -15 -20 0 -23 -77 -96 -97 -92 -35 7 -44 50 -44 212 1 84 3
161 6 170 3 9 7 24 10 33 10 30 23 0 40 -91z m1735 49 c10 -12 9 -16 -5 -21
-19 -8 -46 5 -53 24 -5 17 43 15 58 -3z m3242 -18 c45 -35 88 -100 74 -114 -4
-4 -16 3 -25 17 -51 78 -90 79 -138 5 -57 -87 -83 -95 -113 -35 -26 50 -26 94
0 120 27 27 50 26 50 -2 0 -34 11 -68 21 -68 5 0 9 6 9 14 0 7 7 19 16 27 9 7
13 21 10 34 -12 47 36 48 96 2z m-4040 -16 c16 -8 32 -29 41 -55 8 -22 23 -61
32 -86 21 -57 45 -165 45 -207 0 -40 -18 -44 -25 -5 -27 143 -77 286 -116 336
-19 25 -25 41 -11 34 4 -2 19 -10 34 -17z m1637 -150 c12 -8 10 -12 -12 -22
-20 -9 -31 -9 -38 -2 -25 25 18 44 50 24z m2479 -19 c15 -16 54 -66 87 -111
40 -56 80 -98 123 -128 34 -25 61 -50 59 -56 -2 -6 -35 -24 -73 -39 -39 -16
-109 -58 -157 -94 -83 -63 -89 -65 -107 -49 -27 24 -127 232 -140 292 -20 89
15 150 110 192 60 26 67 26 98 -7z m-2808 -8 c0 -16 -23 -44 -35 -44 -15 0
-21 31 -8 43 8 8 43 9 43 1z m394 -136 c21 -35 48 -125 44 -150 -3 -23 -30
-40 -80 -52 -37 -9 -68 22 -68 68 0 32 1 34 46 39 48 5 71 18 60 35 -4 6 -20
5 -43 -4 -58 -20 -80 -18 -87 10 -12 47 18 74 81 75 23 1 37 -5 47 -21z
m-1122 0 c-13 -13 -215 -98 -220 -93 -14 14 53 54 143 86 61 21 95 25 77 7z
m916 0 c17 -17 15 -57 -3 -64 -23 -9 -65 4 -72 23 -4 10 3 22 18 34 28 22 41
23 57 7z m-821 -43 l-28 -25 24 -9 c47 -18 99 -108 146 -252 33 -98 29 -117
-32 -161 -28 -21 -61 -38 -73 -38 -12 0 -44 -18 -70 -40 -27 -22 -59 -40 -71
-40 -12 0 -32 -10 -43 -22 l-22 -23 -38 43 c-53 59 -150 250 -150 295 0 23 9
46 24 65 16 18 23 36 20 49 -7 24 61 89 103 99 16 4 48 18 71 32 55 31 109 51
142 51 l25 0 -28 -24z m651 13 c24 -24 8 -78 -24 -78 -15 0 -27 45 -19 71 7
22 25 25 43 7z m527 -3 c0 -12 -40 -19 -61 -11 -9 3 -12 11 -9 16 8 14 70 9
70 -5z m-636 -21 c36 -46 54 -152 26 -156 -25 -4 -94 149 -79 173 10 17 32 9
53 -17z m-180 -12 c12 -22 43 -203 36 -210 -10 -10 -36 23 -66 84 -16 35 -31
64 -32 64 -1 0 -1 -21 1 -47 l2 -48 -29 55 c-43 83 -45 95 -19 108 37 18 96
15 107 -6z m90 -86 c33 -68 39 -106 18 -106 -16 0 -41 50 -51 100 -4 19 -10
43 -12 53 -3 9 -1 17 5 17 5 0 24 -29 40 -64z m719 52 c-7 -20 -48 -23 -48 -4
0 11 9 16 26 16 16 0 24 -5 22 -12z m-313 -40 c-10 -46 -18 -52 -45 -30 l-23
18 28 22 c38 30 48 28 40 -10z m-1856 -190 c-7 -13 -13 -33 -14 -46 -1 -28
-47 -75 -70 -70 -15 3 -13 8 12 40 15 20 36 50 45 67 9 17 22 31 28 31 7 0 7
-7 -1 -22z m4151 -9 c11 -6 6 -8 -17 -9 -38 0 -63 9 -63 22 0 10 55 2 80 -13z
m548 -29 c22 -73 17 -90 -47 -147 -61 -55 -78 -62 -99 -41 -21 21 -13 43 34
99 36 42 43 55 30 57 -20 4 -21 16 -2 31 10 8 16 9 21 1 10 -16 25 -12 25 8 0
19 8 32 19 32 3 0 12 -18 19 -40z m-4075 3 c11 -20 16 -63 8 -63 -7 0 -31 51
-31 66 0 7 19 4 23 -3z m-1097 -18 c3 -8 -3 -30 -15 -48 -12 -19 -21 -44 -21
-56 0 -12 -6 -21 -15 -21 -19 0 -19 4 6 78 21 61 34 76 45 47z m5004 1 c0 -15
-45 -56 -61 -56 -18 0 -8 39 13 54 28 20 48 20 48 2z m-3905 -109 c18 -33 23
-47 12 -39 -20 17 -77 102 -77 115 0 19 37 -24 65 -76z m3752 44 c3 -10 14
-23 26 -29 20 -10 18 -11 -15 -11 -42 -1 -50 6 -41 37 7 27 23 29 30 3z
m-3861 -16 c4 -14 3 -29 -1 -33 -8 -8 -35 26 -35 45 0 24 29 14 36 -12z m-733
-43 c-11 -15 -32 -50 -46 -77 -31 -62 -70 -100 -93 -91 -16 6 -15 8 1 26 13
15 16 30 13 65 l-6 45 39 0 c34 0 39 3 39 23 0 17 8 25 33 33 42 13 45 9 20
-24z m-217 -13 c15 -30 15 -32 -5 -46 -12 -8 -30 -32 -41 -54 -22 -41 -40 -51
-40 -21 0 19 33 123 45 142 11 18 24 11 41 -21z m1668 -35 c9 -8 16 -21 16
-28 0 -7 16 -28 36 -47 49 -46 134 -148 134 -160 0 -5 -15 -9 -32 -9 -39 0
-92 -30 -108 -60 -6 -12 -17 -20 -23 -17 -47 17 -57 18 -57 3 0 -9 5 -16 11
-16 6 0 9 -10 7 -22 -2 -15 -18 -31 -49 -47 l-46 -25 -101 90 c-56 49 -120 98
-142 110 l-41 21 26 32 c33 38 207 155 261 175 52 19 89 19 108 0z m-1624 -80
c0 -14 9 -37 20 -51 24 -30 26 -63 5 -63 -8 0 -15 -4 -15 -9 0 -6 -12 -4 -26
4 -15 7 -33 11 -40 8 -23 -8 -48 5 -36 20 5 6 13 23 17 37 8 26 53 80 67 80 4
0 8 -12 8 -26z m4456 -5 c3 -6 1 -16 -4 -21 -13 -13 -45 8 -36 23 7 12 31 11
40 -2z m-436 -29 c0 -22 -16 -35 -25 -20 -9 14 4 52 16 45 5 -4 9 -15 9 -25z
m-2980 -25 c10 -12 9 -16 -4 -21 -18 -7 -49 13 -40 27 8 14 30 11 44 -6z
m3250 0 c13 -16 6 -35 -14 -35 -8 0 -19 7 -27 16 -10 13 -10 17 2 25 19 12 25
11 39 -6z m292 -12 c24 -22 23 -55 -3 -71 -27 -17 -19 -25 15 -16 17 4 26 13
26 26 0 17 5 20 29 15 25 -5 31 -2 41 23 14 33 19 35 70 19 19 -5 79 -14 134
-19 54 -5 107 -12 117 -15 29 -10 22 -25 -11 -25 -37 0 -37 -7 -4 -51 14 -19
30 -44 35 -56 7 -18 16 -23 47 -23 47 0 66 -18 93 -89 18 -50 27 -170 12 -184
-3 -4 -12 2 -20 13 -16 23 -61 37 -160 50 -40 5 -90 18 -110 29 -21 10 -54 22
-73 26 -79 17 -283 91 -402 146 -69 33 -130 59 -135 59 -5 0 -19 8 -32 17 -23
16 -23 17 -5 24 10 4 38 8 61 8 23 1 48 8 57 16 11 12 30 14 90 8 l76 -6 0 35
c0 30 14 58 29 58 2 0 13 -7 23 -17z m-3257 -169 c9 -14 15 -28 12 -30 -7 -8
-57 37 -52 47 10 15 22 10 40 -17z m582 -75 c17 -17 4 -39 -23 -39 -28 0 -44
28 -23 41 19 12 33 11 46 -2z m1732 -8 c26 -17 -25 -23 -61 -7 l-33 14 40 1
c22 0 46 -3 54 -8z m-1893 -97 c56 -47 70 -76 33 -67 -22 6 -109 89 -109 104
0 19 25 7 76 -37z m-1481 15 c9 -28 -2 -84 -20 -99 -8 -7 -15 -21 -15 -32 0
-15 5 -18 20 -13 15 5 31 -3 60 -29 26 -23 54 -38 81 -42 22 -4 47 -13 55 -21
19 -19 18 -72 -1 -79 -13 -5 -11 -11 10 -30 14 -13 25 -34 25 -47 0 -30 -23
-62 -38 -53 -18 11 -14 34 6 45 14 9 13 10 -10 11 -16 0 -28 -4 -28 -10 0 -30
-80 22 -178 114 -69 65 -85 98 -77 154 9 61 27 104 56 131 29 27 46 27 54 0z
m3255 11 c12 -8 10 -10 -10 -9 -14 1 -36 5 -50 9 -23 7 -22 8 10 9 19 0 42 -4
50 -9z m2130 -14 c0 -8 -5 -18 -10 -21 -17 -11 -40 3 -34 20 8 19 44 20 44 1z
m-3959 -55 c57 -56 64 -80 19 -56 -42 22 -100 74 -100 91 0 28 34 13 81 -35z
m2708 17 c19 -6 48 -19 65 -28 83 -48 226 -74 488 -90 212 -12 249 -23 280
-84 11 -22 37 -57 58 -76 31 -29 40 -47 55 -110 35 -154 30 -409 -11 -505 -8
-20 -29 -44 -46 -55 l-31 -19 34 -3 c34 -3 34 -4 41 -63 8 -72 11 -183 7 -210
-3 -15 4 -22 31 -31 38 -13 48 -28 30 -49 -10 -12 -10 -18 -1 -29 9 -11 10
-20 1 -36 -9 -16 -9 -25 0 -35 8 -10 8 -19 1 -34 -6 -11 -7 -22 -2 -25 13 -9
20 -68 9 -95 -5 -15 -5 -28 2 -36 8 -10 3 -28 -19 -72 -31 -59 -54 -144 -66
-243 -4 -30 -13 -64 -19 -75 -7 -11 -16 -36 -20 -56 -3 -20 -19 -48 -36 -64
-31 -29 -42 -30 -150 -9 l-35 7 23 -25 c12 -13 22 -28 22 -32 0 -5 -36 -6 -79
-5 -67 4 -78 2 -68 -10 17 -20 71 -41 107 -41 44 0 47 -22 10 -82 -39 -63 -49
-118 -26 -137 17 -15 22 -51 6 -51 -13 0 -40 -54 -40 -83 0 -53 -43 -61 -93
-17 -40 35 -57 38 -57 11 0 -11 -11 -32 -23 -48 -30 -35 -67 -152 -67 -209 0
-35 -5 -47 -35 -72 -21 -19 -63 -39 -105 -52 -53 -16 -81 -31 -109 -59 -50
-50 -58 -82 -30 -130 21 -37 21 -39 3 -66 -25 -39 -103 -95 -131 -95 -14 0
-36 9 -50 20 -14 11 -33 20 -42 20 -43 -1 -136 -85 -150 -136 -22 -79 -71
-103 -271 -129 -63 -8 -150 -27 -192 -42 -93 -33 -101 -29 -123 64 -8 34 -32
109 -55 167 -49 131 -50 146 -10 146 32 0 38 16 20 50 -14 26 11 44 49 35 35
-7 95 -75 131 -148 25 -50 50 -72 50 -44 0 9 -13 49 -30 90 -16 42 -30 87 -30
101 0 14 -4 26 -9 26 -13 0 -22 87 -11 116 8 21 13 24 25 14 32 -26 48 19 18
52 -15 17 -15 18 5 18 11 0 33 -11 49 -24 15 -13 38 -26 51 -30 12 -4 34 -17
50 -30 32 -26 239 -156 248 -156 13 0 -31 43 -124 120 -99 84 -162 165 -162
210 0 15 -7 33 -15 40 -18 15 -19 59 -2 81 22 28 118 91 132 85 8 -3 15 -17
17 -32 2 -22 11 -29 43 -39 71 -22 215 -96 215 -110 0 -31 107 -83 137 -67 10
6 0 17 -37 43 -29 19 -62 40 -75 47 -14 8 -25 25 -30 49 -3 20 -20 56 -36 79
-16 24 -29 46 -29 50 0 16 -73 95 -120 129 -50 36 -63 68 -40 91 14 14 52 125
51 152 -1 32 9 28 59 -24 112 -115 320 -225 320 -169 0 8 -11 22 -25 31 -15
10 -49 63 -82 127 -43 83 -64 114 -89 129 -19 11 -44 38 -56 59 -14 25 -32 42
-48 46 -14 3 -44 17 -68 31 -36 20 -42 29 -37 46 18 55 17 74 -3 85 -11 6 -22
23 -25 38 -10 47 -21 57 -44 42 -11 -7 -28 -9 -37 -6 -14 5 -14 10 -4 26 10
16 9 23 -3 38 -9 10 -19 26 -22 36 -4 9 -14 17 -23 17 -9 0 -28 9 -42 21 -83
64 -106 79 -117 79 -7 0 -18 7 -25 15 -16 19 -18 19 71 -4 41 -11 108 -38 149
-60 41 -23 120 -64 176 -91 55 -27 107 -56 115 -66 18 -21 143 -104 158 -104
6 0 11 7 11 15 0 21 14 19 47 -8 49 -40 114 -67 135 -56 21 12 43 2 77 -35 25
-27 51 -34 51 -15 0 17 -339 366 -384 395 -23 15 -61 41 -85 57 -24 17 -100
59 -170 95 -69 35 -132 69 -139 75 -10 8 -12 23 -8 48 6 35 3 39 -31 59 l-38
22 28 24 c31 27 34 34 10 34 -10 0 -40 11 -68 24 -27 13 -77 32 -110 42 -60
18 -164 73 -165 86 -1 28 159 14 249 -22 25 -10 80 -32 122 -48 113 -45 409
-189 409 -199 0 -5 19 -14 43 -20 23 -7 59 -23 79 -37 22 -15 40 -21 44 -15 4
7 10 6 18 -1 10 -8 99 -39 114 -40 1 0 2 4 2 9 0 5 -31 32 -70 60 -38 28 -70
53 -70 56 0 13 27 -1 149 -75 145 -88 165 -95 169 -64 3 21 -69 104 -91 104
-6 0 -42 22 -81 48 -39 27 -128 79 -197 116 -69 38 -136 77 -150 88 l-24 19
25 -7 c29 -7 141 -60 220 -104 57 -31 75 -37 65 -21 -8 14 -227 134 -339 186
-177 83 -564 203 -706 220 -30 3 -97 15 -148 26 -51 11 -128 22 -170 26 l-77
7 60 8 c33 4 70 12 83 18 30 13 99 13 160 -1 45 -11 53 -10 85 10 42 26 50 26
42 2 -5 -16 1 -22 34 -32 35 -10 44 -10 58 3 10 9 38 19 63 23 l45 7 -29 -31
c-17 -17 -28 -31 -25 -31 2 0 19 -4 37 -9 29 -9 33 -7 47 19 10 19 26 31 52
37 l38 10 -40 17 c-27 12 -36 19 -27 25 10 6 10 11 -3 21 -22 19 -5 27 71 35
52 6 85 1 240 -39 203 -52 363 -102 446 -140 31 -14 64 -26 72 -26 8 0 52 -15
98 -33 107 -43 147 -51 154 -32 8 20 76 20 115 0 31 -17 49 -13 49 10 0 27
114 32 198 9 12 -4 22 -2 22 4 0 6 -18 13 -39 17 -22 3 -47 15 -56 25 -18 20
-7 34 15 19 8 -5 40 -8 70 -8 l55 0 -45 21 c-65 29 -124 27 -185 -6 -43 -23
-57 -27 -99 -21 -64 8 -94 21 -250 107 -71 40 -174 89 -229 110 -55 20 -102
40 -105 43 -3 3 9 5 27 5 19 0 30 4 26 10 -9 15 -414 141 -529 164 -65 14 -81
31 -44 45 22 9 22 10 2 10 -12 1 -38 15 -59 31 -21 17 -47 30 -59 30 -12 1 2
10 34 24 72 30 158 74 192 97 32 23 61 24 78 3 16 -19 65 -15 65 6 0 8 -11 17
-24 20 -33 8 -49 34 -32 54 17 20 89 21 117 2 19 -14 59 -21 98 -18 13 2 17 8
13 22 -3 10 0 21 7 24 15 6 104 -3 145 -16z m1035 -23 c-8 -20 -67 -55 -93
-55 -33 0 -26 34 12 53 42 21 88 22 81 2z m108 -10 c1 -9 -72 -27 -80 -20 -2
2 9 10 25 19 30 17 53 17 55 1z m-4118 -26 c32 -25 35 -52 4 -47 -26 4 -69 68
-45 68 8 0 26 -9 41 -21z m4134 -21 c-6 -19 -90 -59 -116 -56 -40 5 -25 22 40
45 74 26 81 27 76 11z m-3889 -13 c33 -16 48 -45 25 -45 -20 0 -61 28 -68 46
-7 18 7 18 43 -1z m1995 -36 c-7 -12 -104 -12 -104 0 0 5 12 11 28 13 40 4 83
-3 76 -13z m2005 2 c21 -14 5 -43 -21 -39 -29 4 -39 48 -11 48 10 0 24 -4 32
-9z m-4060 -60 c29 -36 40 -71 24 -71 -23 0 -72 42 -87 74 -33 70 7 68 63 -3z
m3825 19 c15 0 47 5 71 11 110 28 49 -19 -93 -71 -81 -29 -99 -18 -63 40 5 8
12 23 15 34 6 17 8 18 24 2 10 -9 31 -16 46 -16z m-4700 -65 c11 -43 146 -82
195 -56 28 16 37 -5 21 -53 -16 -49 -35 -63 -59 -42 -17 16 -21 16 -54 0 -33
-16 -68 -15 -92 3 -6 5 -25 27 -44 51 -18 23 -39 42 -47 42 -18 0 -17 2 1 47
24 58 35 66 56 48 9 -9 20 -27 23 -40z m2831 16 c7 -12 -28 -23 -49 -15 -9 3
-13 10 -10 15 7 12 51 12 59 0z m75 -61 c19 -6 12 -8 -32 -9 -31 -1 -60 4 -63
9 -7 12 58 12 95 0z m-1983 -106 c10 -14 28 -37 41 -51 12 -14 22 -34 22 -45
0 -21 49 -54 95 -64 19 -4 54 -32 98 -77 66 -69 81 -97 52 -97 -9 0 -38 -12
-66 -26 -42 -22 -54 -25 -75 -15 -37 16 -47 54 -32 119 l12 55 -32 28 c-18 16
-39 29 -46 29 -17 0 -76 -65 -76 -84 0 -22 -87 -96 -113 -96 -27 0 -61 32 -76
73 -25 65 0 75 63 27 39 -29 66 -37 80 -23 3 4 -6 17 -21 30 l-28 22 38 1 c42
0 47 12 15 38 -64 52 -73 83 -42 145 33 64 52 67 91 11z m-933 -43 c6 -5 37
-19 68 -31 32 -12 60 -25 63 -30 3 -5 -7 -15 -22 -22 -19 -10 -27 -21 -26 -35
2 -15 -5 -23 -25 -28 l-27 -7 28 -22 c28 -23 27 -36 -4 -36 -23 0 -35 -20 -18
-30 10 -7 10 -11 -1 -24 -11 -14 -10 -20 5 -36 10 -11 13 -20 7 -20 -7 0 -12
-4 -12 -10 0 -5 8 -10 18 -10 23 0 64 -29 57 -41 -11 -17 -35 -9 -73 26 -52
47 -79 107 -65 145 13 33 -1 65 -17 40 -5 -8 -10 -32 -10 -53 0 -31 -3 -38
-17 -35 -16 3 -18 16 -18 102 0 93 -1 99 -22 107 -32 12 -29 31 2 23 22 -5 25
-3 25 18 0 14 3 27 6 30 7 7 62 -7 78 -21z m776 3 c0 -4 -12 -21 -27 -40 -16
-18 -38 -47 -51 -64 -35 -45 -54 -39 -30 10 26 53 108 124 108 94z m-215 -86
c-4 -13 -17 -41 -29 -63 -16 -31 -28 -41 -51 -43 -17 -2 -34 -8 -39 -13 -6 -5
-20 -9 -33 -9 -34 0 -60 57 -47 102 11 35 11 35 84 22 23 -3 49 0 70 9 48 21
52 20 45 -5z m2224 -22 c14 -17 -5 -26 -54 -26 -39 0 -53 14 -28 29 26 15 69
13 82 -3z m-2067 -156 c9 -17 33 -40 53 -51 39 -23 42 -34 19 -67 -21 -30 -47
-28 -87 8 -42 36 -57 38 -57 7 0 -28 19 -47 78 -76 44 -23 54 -48 27 -71 -20
-17 -82 -4 -98 20 -15 24 -25 25 -49 3 -17 -15 -18 -15 -18 5 0 31 56 203 75
230 22 30 37 28 57 -8z m-299 -47 c29 -15 30 -17 12 -24 -33 -13 -72 -10 -85
6 -28 34 19 46 73 18z m873 -60 c-13 -33 -51 -83 -63 -83 -20 0 -15 45 8 74
24 30 65 37 55 9z m-236 -23 c13 -25 9 -72 -6 -77 -17 -6 -74 46 -74 66 0 24
9 31 41 31 18 0 32 -7 39 -20z m4011 -177 c16 -34 34 -65 39 -68 18 -11 10
-43 -16 -64 -33 -26 -51 -27 -59 -1 -5 17 -15 20 -58 20 -29 0 -70 7 -92 14
-26 9 -47 11 -63 5 -13 -5 -28 -7 -33 -3 -5 3 -9 36 -9 75 0 55 -3 69 -15 69
-22 0 -19 47 5 60 10 6 54 19 97 29 l78 19 48 -47 c27 -26 61 -73 78 -108z
m-4651 132 c11 -13 11 -30 0 -88 -18 -105 -15 -100 -61 -94 -57 7 -109 57 -60
57 22 0 31 19 31 68 0 60 57 96 90 57z m920 -40 c0 -17 -44 -49 -60 -43 -15 5
27 58 46 58 8 0 14 -7 14 -15z m-330 -30 c17 -18 21 -28 13 -36 -23 -23 -85
24 -68 51 10 17 30 11 55 -15z m1494 -11 c18 -7 22 -34 5 -34 -19 0 -50 21
-44 31 7 11 17 11 39 3z m-1791 -76 c21 -24 21 -38 3 -63 -12 -16 -16 -17 -30
-6 -9 7 -16 21 -16 31 0 10 -10 24 -22 32 -28 19 -15 40 20 32 15 -3 35 -15
45 -26z m265 -15 c-4 -33 -34 -38 -52 -10 -12 20 4 37 37 37 14 0 18 -6 15
-27z m1482 -30 c0 -20 -28 -53 -47 -53 -16 0 -17 42 -1 58 18 18 48 15 48 -5z
m-1271 -35 c-12 -20 -14 -21 -17 -5 -2 10 2 25 9 34 18 21 23 0 8 -29z m1466
12 c4 -6 -7 -10 -24 -10 -17 0 -31 5 -31 10 0 6 11 10 24 10 14 0 28 -4 31
-10z m112 -55 c23 0 13 -20 -9 -20 -14 0 -24 7 -26 19 -3 13 0 16 10 10 7 -5
19 -9 25 -9z m-2111 -37 c4 -6 2 -14 -4 -16 -20 -6 -14 -20 14 -35 20 -10 23
-15 12 -20 -33 -12 -87 35 -75 67 7 19 42 22 53 4z m4387 -10 c16 -12 15 -16
-8 -60 -41 -76 -27 -157 20 -118 8 7 15 8 15 2 0 -5 -6 -15 -14 -22 -10 -8
-12 -18 -7 -33 6 -15 2 -29 -11 -47 -23 -31 -15 -60 17 -60 21 0 71 -31 87
-55 13 -17 9 -65 -8 -90 -9 -14 -37 -31 -66 -41 -47 -15 -54 -15 -112 1 -87
24 -167 54 -193 71 -22 14 -23 20 -23 157 0 156 9 203 42 234 24 22 95 48 169
62 63 13 73 12 92 -1z m-3743 -11 c0 -8 -9 -22 -20 -32 -17 -16 -20 -16 -20
-2 0 26 11 47 26 47 8 0 14 -6 14 -13z m-180 -31 c0 -44 -9 -66 -26 -66 -17 0
-18 26 -3 69 14 41 29 40 29 -3z m480 -16 c0 -5 -21 -10 -47 -10 -35 0 -44 3
-33 10 20 13 80 13 80 0z m855 -114 c47 -20 49 -51 3 -43 -18 3 -46 10 -63 17
-29 11 -29 12 -11 26 24 17 28 17 71 0z m-1584 -46 c24 -13 25 -40 1 -40 -21
0 -42 18 -42 37 0 16 15 17 41 3z m1903 -46 c22 -8 10 -24 -19 -24 -25 0 -39
12 -28 24 8 8 27 8 47 0z m-1776 -48 c2 -10 -1 -23 -7 -29 -16 -16 -34 6 -26
33 8 24 28 22 33 -4z m1888 -7 c3 -6 0 -18 -9 -26 -11 -12 -19 -13 -36 -4 -31
17 -27 41 8 41 17 0 33 -5 37 -11z m1925 -210 c27 -14 8 -39 -30 -39 -35 0
-53 13 -45 33 7 19 45 22 75 6z m-2543 -35 c-4 -24 -24 -29 -32 -8 -8 20 13
49 27 35 5 -5 7 -17 5 -27z m-768 1 c0 -6 -129 -45 -149 -45 -13 1 -13 3 3 12
36 21 146 46 146 33z m2040 -8 c19 -15 50 -58 50 -70 0 -5 -14 3 -31 17 -17
14 -37 26 -44 26 -17 0 -28 17 -20 30 8 13 26 12 45 -3z m1570 -23 c0 -21 -18
-54 -30 -54 -13 0 -13 26 0 51 13 23 30 25 30 3z m-135 -118 c19 -14 19 -15
-8 -27 -23 -10 -30 -10 -47 6 -11 10 -20 22 -20 27 0 13 55 9 75 -6z m85 -41
c0 -8 -7 -15 -15 -15 -16 0 -20 12 -8 23 11 12 23 8 23 -8z m-210 -92 c86 -23
114 -59 65 -81 -27 -13 -34 -32 -10 -32 15 0 15 1 40 -193 14 -105 15 -130 4
-143 -18 -21 -65 -13 -120 21 -88 55 -257 187 -267 210 -9 20 -3 40 42 133
l54 108 68 -4 c38 -2 94 -10 124 -19z m-3880 -133 c0 -30 -14 -47 -25 -30 -9
15 5 71 16 64 5 -3 9 -18 9 -34z m2465 4 c9 -9 14 -18 11 -21 -7 -7 -46 16
-46 27 0 15 17 12 35 -6z m-266 -3 c19 -12 6 -43 -16 -39 -21 4 -31 48 -11 48
7 0 19 -4 27 -9z m-2249 -248 c-7 -24 -16 -43 -20 -43 -8 0 7 117 17 133 14
21 15 -44 3 -90z m3688 50 c58 -44 29 -60 -43 -23 -22 11 -45 20 -52 20 -19 0
-27 21 -12 31 20 13 69 0 107 -28z m-3473 -13 c0 -36 -29 -33 -33 3 -3 23 0
28 15 25 12 -2 18 -12 18 -28z m-9 -85 c8 -31 -2 -58 -19 -53 -14 5 -21 42
-13 64 8 22 25 17 32 -11z m3587 -52 c30 1 44 -6 69 -31 25 -24 30 -34 21 -43
-9 -9 -15 -9 -26 0 -12 9 -16 7 -20 -9 -3 -11 -13 -20 -22 -20 -20 0 -105 83
-105 103 0 22 12 28 29 13 9 -8 33 -14 54 -13z m-3809 -27 c-3 -14 -10 -26
-15 -26 -10 0 -12 31 -3 55 10 26 26 1 18 -29z m336 23 c14 -25 4 -72 -13 -66
-7 2 -19 15 -27 29 -12 22 -12 29 -1 42 18 21 28 20 41 -5z m-121 -56 c7 -15
9 -44 5 -73 -4 -28 -2 -62 5 -81 7 -22 8 -36 1 -44 -7 -9 -5 -22 7 -44 16 -28
16 -33 3 -41 -24 -15 11 -65 47 -66 15 -1 36 -2 45 -3 10 0 33 -14 51 -31 38
-33 57 -38 57 -16 0 22 -59 66 -89 66 -32 0 -74 40 -69 66 5 28 22 27 61 -4
26 -21 44 -28 62 -25 18 4 27 0 32 -13 3 -11 14 -29 24 -42 9 -12 15 -31 12
-42 -7 -25 13 -49 54 -67 60 -25 56 -95 -6 -101 -43 -4 -38 -31 9 -46 25 -8
40 -21 52 -48 14 -29 25 -38 53 -44 47 -9 53 -23 16 -37 -44 -16 -33 -31 27
-37 60 -6 89 -26 51 -34 -13 -3 -37 -7 -53 -8 -18 -2 -37 -14 -50 -31 -20 -27
-20 -29 -4 -75 21 -58 12 -70 -39 -54 -20 6 -39 9 -41 7 -10 -9 22 -35 52 -43
26 -7 32 -14 34 -41 3 -29 6 -32 25 -27 12 4 37 10 56 13 47 8 37 -18 -11 -32
-47 -13 -52 -19 -44 -51 5 -20 11 -25 26 -20 11 3 29 9 40 12 39 12 21 -23
-20 -40 -52 -21 -64 -50 -56 -140 l5 -68 -43 -46 c-42 -44 -46 -46 -107 -49
-83 -5 -124 18 -135 73 -4 22 -22 55 -43 78 -53 60 -85 144 -79 212 3 36 1 54
-7 54 -6 0 -20 6 -31 14 -16 13 -17 18 -6 36 11 19 11 25 -2 39 -24 26 -31 75
-12 90 17 14 12 36 -17 68 -30 33 -16 53 38 53 58 0 65 16 31 67 -31 46 -32
58 -5 76 l21 15 -28 41 c-19 29 -34 41 -51 41 -14 0 -37 13 -54 29 -32 32 -37
51 -14 51 19 0 19 9 -2 32 -26 29 -5 41 48 29 24 -6 53 -11 63 -11 17 0 16 3
-6 23 -30 28 -45 82 -29 101 8 10 6 17 -8 30 -24 21 -41 14 -34 -14 4 -14 0
-20 -11 -20 -10 0 -16 8 -16 23 0 40 12 67 29 67 34 0 30 13 -20 63 -37 38
-47 53 -38 63 13 16 59 -2 59 -23 0 -7 5 -13 10 -13 6 0 10 25 10 56 0 89 31
119 59 57z m3385 7 c26 -17 76 -59 112 -93 53 -52 64 -69 64 -96 0 -29 2 -32
22 -25 20 6 21 5 9 -10 -7 -9 -21 -16 -31 -16 -13 0 -23 -19 -39 -72 -11 -40
-21 -86 -21 -103 0 -39 -14 -60 -34 -52 -8 3 -47 48 -85 99 -39 51 -93 120
-121 153 -27 33 -50 68 -50 78 0 10 12 41 26 70 57 111 69 117 148 67z m386
-19 c0 -21 -23 -44 -33 -34 -11 10 -8 38 5 51 14 14 28 6 28 -17z m-3680 -21
c21 -11 41 -62 31 -79 -18 -29 -80 41 -67 75 6 17 11 17 36 4z m14 -131 c28
-33 34 -69 12 -69 -21 0 -56 48 -56 76 0 32 13 30 44 -7z m3025 -43 c28 -15
67 -64 58 -73 -3 -3 -19 -2 -35 2 -37 8 -77 48 -69 69 8 20 11 20 46 2z
m-2114 -96 c-4 -20 -15 -34 -32 -41 -53 -20 -58 -1 -12 54 36 43 55 38 44 -13z
m2066 -99 c30 -32 73 -85 95 -117 34 -52 39 -66 39 -116 -1 -54 1 -58 22 -58
31 0 29 -10 -12 -50 -20 -19 -40 -50 -45 -70 -6 -19 -19 -46 -30 -58 l-20 -24
-31 29 c-61 56 -75 71 -133 147 -35 46 -72 82 -90 90 -39 16 -98 82 -94 104 2
10 13 18 26 20 13 2 40 27 67 62 93 121 124 127 206 41z m-2666 -31 c3 -5 3
-15 0 -20 -7 -12 -45 5 -45 20 0 13 37 13 45 0z m3019 -159 c3 -4 -1 -17 -9
-27 -11 -15 -16 -16 -26 -7 -10 10 -9 15 1 28 14 17 26 19 34 6z m-3486 -17
c17 -5 22 -14 22 -40 0 -19 -2 -34 -5 -34 -3 0 -24 12 -46 26 -33 21 -38 28
-29 40 14 15 24 17 58 8z m2825 -216 c96 -168 91 -154 67 -187 -24 -35 -25
-45 -5 -37 24 9 28 -18 10 -54 -16 -31 -16 -31 4 -21 30 17 46 14 30 -5 -21
-25 -65 -44 -105 -44 -29 0 -43 7 -68 33 -33 36 -176 286 -176 309 0 17 72 71
132 98 24 11 44 20 45 20 0 0 30 -51 66 -112z m-1225 42 c12 -16 34 -35 49
-42 40 -19 87 -117 88 -182 0 -49 0 -50 -37 -59 -49 -12 -140 8 -176 37 -15
12 -35 25 -44 29 -25 9 -23 62 2 94 11 14 25 44 31 67 10 38 12 39 25 21 17
-23 18 -48 3 -90 -12 -33 -6 -85 11 -85 16 0 29 34 40 106 12 73 13 70 -36
100 -11 6 -15 17 -11 27 8 22 29 13 55 -23z m894 -67 c14 -16 53 -81 88 -147
52 -99 63 -128 66 -180 3 -33 6 -80 8 -104 3 -39 2 -43 -17 -40 -16 2 -23 15
-32 53 -6 28 -30 94 -53 147 -23 54 -42 110 -42 125 0 31 -32 107 -49 117 -13
8 -15 56 -3 56 5 0 20 -12 34 -27z m-1924 -9 c38 -26 27 -37 -30 -29 -57 8
-74 17 -64 34 10 16 68 13 94 -5z m1820 -133 c17 -4 29 -20 41 -56 10 -28 23
-60 29 -72 22 -40 15 -78 -15 -93 -36 -16 -13 -25 29 -11 43 15 48 14 48 -10
0 -12 -17 -37 -37 -57 -49 -46 -189 -114 -228 -110 -27 3 -31 8 -56 88 -14 47
-36 109 -48 138 -24 59 -27 115 -8 129 22 18 161 62 192 62 17 -1 40 -4 53 -8z
m-963 -54 c-3 -12 -9 -59 -14 -103 -7 -53 -19 -98 -36 -129 -27 -51 -31 -85
-15 -116 9 -16 22 -19 85 -19 l75 0 0 -54 c0 -36 -5 -60 -16 -70 -17 -17 -79
-23 -69 -6 3 6 13 10 21 10 9 0 14 7 12 18 -4 20 -47 29 -58 12 -11 -19 -30
-2 -30 26 0 17 -6 24 -18 24 -27 0 -48 28 -62 80 -7 24 -23 66 -36 93 -27 53
-26 60 16 82 17 9 32 26 36 40 3 13 12 29 20 36 17 14 19 49 3 49 -8 0 -8 5 1
15 7 8 18 15 25 15 7 0 15 9 18 21 5 17 9 19 26 9 15 -7 20 -17 16 -33z m627
-62 c29 -53 35 -84 17 -102 -8 -8 -6 -19 4 -40 9 -16 19 -47 23 -68 4 -22 13
-54 21 -72 7 -18 13 -53 13 -78 0 -38 -3 -45 -20 -45 -13 0 -22 9 -26 27 -10
46 -11 49 -19 28 -29 -84 -39 -81 -54 13 -44 273 -45 247 2 244 20 -2 37 0 37
5 0 4 -14 31 -30 58 -34 58 -39 88 -12 83 9 -2 29 -26 44 -53z m-779 -13 c29
-31 27 -42 -9 -42 -13 0 -26 -4 -29 -10 -13 -21 -25 -8 -25 28 0 61 20 69 63
24z m555 16 c5 -7 13 -31 17 -53 3 -22 21 -78 40 -124 18 -47 31 -91 28 -98
-3 -8 -18 -17 -34 -20 -36 -7 -38 -23 -4 -23 21 0 25 -5 25 -30 0 -16 5 -30
10 -30 24 0 7 -19 -22 -25 -18 -4 -76 -27 -129 -51 -108 -49 -119 -51 -142
-26 -25 27 -59 141 -54 176 12 80 39 180 55 204 10 15 23 36 28 47 12 23 105
64 145 65 15 0 31 -6 37 -12z m-300 -48 c5 -45 -15 -113 -31 -107 -13 4 -22
88 -12 125 9 37 39 24 43 -18z m-970 -78 c5 -15 -23 -26 -45 -17 -17 6 -17 7
2 21 21 16 37 14 43 -4z m-10 -84 c-5 -15 -58 -24 -58 -10 0 15 12 22 38 22
14 0 22 -5 20 -12z m937 -48 c-3 -5 -24 -10 -46 -10 -24 0 -38 4 -34 10 3 6
24 10 46 10 24 0 38 -4 34 -10z m35 -265 c0 -16 -36 -39 -49 -30 -5 3 -7 14
-4 25 6 24 53 28 53 5z"/>
<path d="M2720 11070 c0 -13 120 -13 140 0 10 7 -9 10 -62 10 -46 0 -78 -4
-78 -10z"/>
<path d="M3120 10874 c-25 -7 -72 -13 -105 -13 -93 -2 -165 -60 -165 -135 0
-27 1 -28 38 -22 50 10 157 60 195 93 18 14 55 36 84 49 28 13 54 28 58 33 8
15 -48 12 -105 -5z"/>
<path d="M2713 10864 c-28 -12 -2 -104 29 -104 6 0 17 -8 24 -17 13 -17 15
-17 34 6 25 29 26 62 3 90 -18 21 -67 35 -90 25z"/>
<path d="M2489 10845 c-4 -5 -9 -28 -12 -50 l-6 -40 15 34 c14 31 16 79 3 56z"/>
<path d="M2570 10742 c-43 -35 -1 -72 44 -39 21 16 18 50 -5 55 -9 1 -26 -6
-39 -16z"/>
<path d="M3155 10645 c-5 -2 -27 -6 -47 -10 -42 -7 -48 -23 -20 -48 22 -20 83
-22 100 -5 7 7 12 25 12 40 0 27 -13 34 -45 23z"/>
<path d="M2537 10573 c-16 -15 -6 -53 18 -69 33 -22 55 -5 55 42 0 32 -2 34
-33 34 -19 0 -37 -3 -40 -7z"/>
<path d="M2434 10395 c5 -42 3 -72 -8 -101 -18 -51 -6 -73 56 -105 l41 -21 24
31 c14 17 30 31 37 31 45 0 85 119 43 128 -30 6 -62 -6 -91 -33 -42 -39 -57
-30 -77 48 -22 88 -33 98 -25 22z"/>
<path d="M2365 8851 c-28 -10 -62 -24 -75 -32 l-25 -14 33 -3 c35 -4 142 40
142 57 0 15 -17 13 -75 -8z"/>
<path d="M2505 8810 c-8 -12 42 -12 70 0 16 7 11 9 -22 9 -23 1 -45 -3 -48 -9z"/>
<path d="M3297 8544 c-14 -14 -7 -35 11 -32 9 2 17 10 17 17 0 16 -18 25 -28
15z"/>
<path d="M2433 8413 c-52 -10 -5 -38 53 -31 40 4 39 33 -1 34 -16 1 -40 0 -52
-3z"/>
<path d="M1640 7890 c-28 -21 -22 -37 8 -21 20 10 38 41 24 41 -4 0 -18 -9
-32 -20z"/>
<path d="M1732 7795 c-7 -14 -12 -31 -12 -38 1 -16 39 34 40 51 0 21 -16 13
-28 -13z"/>
<path d="M1556 7751 c-7 -11 56 -24 78 -15 9 3 16 10 16 15 0 12 -87 12 -94 0z"/>
<path d="M1686 7683 c-21 -43 -66 -191 -66 -221 0 -43 19 -12 39 64 10 38 28
94 40 124 24 64 24 60 11 60 -5 0 -16 -12 -24 -27z"/>
<path d="M1110 7630 c0 -22 7 -25 29 -11 16 10 6 31 -15 31 -8 0 -14 -9 -14
-20z"/>
<path d="M1523 7309 c9 -5 17 -21 17 -34 0 -30 11 -32 34 -6 10 11 29 22 44
26 41 10 7 25 -58 25 -42 -1 -51 -3 -37 -11z"/>
<path d="M802 5564 c-5 -11 -15 -36 -22 -57 -12 -38 -12 -38 -32 -20 -21 18
-21 18 -14 -21 15 -82 89 -186 132 -186 19 0 18 6 -11 65 -20 40 -25 66 -25
130 0 87 -11 121 -28 89z"/>
<path d="M840 4674 c-16 -42 -12 -69 20 -112 30 -42 86 -85 127 -97 18 -5 25
-1 32 18 6 14 19 28 30 32 30 9 26 35 -4 35 -57 0 -116 45 -157 119 -21 38
-35 39 -48 5z"/>
<path d="M1200 4619 c-7 -11 -9 -23 -6 -26 7 -7 46 26 46 39 0 17 -30 7 -40
-13z"/>
<path d="M1557 4484 c-14 -14 -6 -24 19 -24 16 0 24 5 22 13 -5 14 -31 21 -41
11z"/>
<path d="M1231 4452 c-10 -20 10 -62 29 -62 5 0 43 -21 84 -46 41 -25 83 -44
93 -42 23 4 65 85 61 118 -3 28 -22 33 -170 44 -78 5 -88 4 -97 -12z"/>
<path d="M1564 4313 c-69 -74 -65 -118 8 -93 47 17 65 43 27 40 -41 -4 -42 -1
-15 34 14 19 26 37 26 40 0 14 -23 4 -46 -21z"/>
<path d="M3025 8031 c-3 -6 4 -15 16 -21 11 -7 30 -32 41 -57 11 -24 22 -42
25 -39 10 10 -8 96 -23 111 -17 17 -50 20 -59 6z"/>
<path d="M2415 7970 c-9 -15 3 -60 15 -60 13 0 13 57 1 65 -5 3 -13 0 -16 -5z"/>
<path d="M2305 7934 c-13 -14 -31 -49 -41 -77 -9 -29 -23 -62 -31 -75 -15 -24
-10 -42 12 -42 16 0 25 22 25 62 0 29 1 30 35 25 32 -5 37 -3 45 19 17 45 10
114 -12 114 -5 0 -20 -12 -33 -26z"/>
<path d="M2671 7933 c1 -16 5 -39 9 -53 6 -20 8 -14 9 28 1 28 -3 52 -9 52 -5
0 -10 -12 -9 -27z"/>
<path d="M2654 7683 c-11 -12 -45 -22 -93 -28 -42 -5 -75 -14 -74 -20 0 -5 21
-14 45 -19 52 -10 275 7 291 23 8 8 7 11 -3 11 -7 0 -11 2 -9 5 3 2 41 -2 84
-9 78 -14 78 -14 103 11 43 43 19 49 -126 31 -109 -13 -131 -14 -154 -2 -35
18 -43 18 -64 -3z"/>
<path d="M1990 7589 c-40 -16 -60 -40 -60 -71 0 -22 5 -28 22 -28 26 0 151 81
141 91 -14 14 -78 19 -103 8z"/>
<path d="M1928 7449 c-26 -15 -22 -56 7 -75 29 -19 45 -12 45 21 0 13 8 29 18
34 15 9 15 12 2 21 -19 12 -50 12 -72 -1z"/>
<path d="M2276 7451 c-3 -5 -3 -16 0 -24 3 -10 -2 -18 -16 -22 l-22 -7 23 -16
c20 -14 23 -14 35 3 8 10 14 26 14 36 0 21 -26 44 -34 30z"/>
<path d="M2243 7333 c-19 -7 -15 -33 5 -33 25 0 46 16 38 29 -7 11 -22 13 -43
4z"/>
<path d="M2481 7088 c-24 -25 -29 -78 -7 -78 24 0 46 29 46 60 0 39 -14 45
-39 18z"/>
<path d="M1898 6979 c-34 -37 -52 -49 -66 -45 -46 15 -72 -66 -48 -148 17 -57
63 -106 99 -106 24 0 22 61 -3 93 -11 14 -20 32 -20 40 0 8 9 26 20 40 11 14
20 30 20 35 0 17 69 71 98 78 65 14 69 26 16 49 -54 22 -64 20 -116 -36z"/>
<path d="M2585 6920 c-3 -11 -11 -20 -16 -20 -5 0 -9 -4 -9 -8 0 -5 17 -6 37
-3 27 5 39 12 41 26 3 11 1 17 -3 13 -4 -4 -16 -3 -26 2 -14 8 -19 6 -24 -10z"/>
<path d="M2466 6874 c-11 -8 -27 -14 -37 -14 -19 0 -26 -22 -36 -110 l-6 -60
46 0 46 0 3 98 c2 53 3 98 3 99 0 1 -9 -5 -19 -13z"/>
<path d="M1441 6473 c-14 -10 -47 -29 -75 -43 -71 -35 -100 -88 -99 -184 1
-102 43 -206 83 -206 21 0 50 25 50 44 0 7 -6 21 -14 32 -15 19 -15 19 -29 0
-20 -28 -37 -11 -37 37 0 67 19 119 57 154 39 37 58 40 92 17 19 -14 25 -14
32 -3 12 20 11 35 -7 77 -9 20 -19 49 -23 65 -6 27 -6 27 -30 10z"/>
<path d="M1474 6245 c-4 -8 -3 -23 0 -32 6 -15 9 -15 28 4 21 22 18 43 -8 43
-8 0 -17 -7 -20 -15z"/>
<path d="M1561 5778 c-2 -77 52 -288 75 -288 19 0 19 -1 -20 125 -19 60 -39
130 -44 155 l-10 45 -1 -37z"/>
<path d="M1860 4517 c0 -5 8 -22 17 -38 17 -29 43 -46 43 -29 0 12 -59 78 -60
67z"/>
<path d="M670 4121 c12 -23 29 -35 36 -28 10 9 -16 47 -32 47 -11 0 -12 -4 -4
-19z"/>
<path d="M660 4056 c0 -18 26 -40 34 -27 9 14 -4 41 -20 41 -8 0 -14 -6 -14
-14z"/>
<path d="M5610 3450 c0 -12 34 -30 57 -30 16 1 15 3 -6 20 -25 21 -51 26 -51
10z"/>
<path d="M5175 2246 c-46 -21 -47 -23 -23 -28 15 -3 44 1 65 8 60 21 115 17
157 -11 40 -27 60 -32 54 -12 -7 21 -94 58 -150 62 -41 4 -64 -1 -103 -19z"/>
<path d="M4865 1860 c3 -5 24 -15 45 -21 27 -8 40 -18 40 -29 0 -12 28 -31 87
-59 47 -23 91 -40 96 -38 14 4 -131 112 -183 136 -47 22 -95 28 -85 11z"/>
<path d="M4262 1638 c-19 -19 -14 -37 13 -50 32 -14 41 -5 29 29 -11 31 -25
38 -42 21z"/>
<path d="M2260 1264 c-7 -19 -7 -31 1 -40 17 -20 29 -7 29 32 0 40 -16 45 -30
8z"/>
<path d="M2505 970 c-3 -5 5 -12 19 -16 28 -7 66 3 66 17 0 12 -77 12 -85 -1z"/>
<path d="M2372 938 c-15 -15 -16 -41 0 -36 6 2 18 14 26 26 12 19 12 22 0 22
-8 0 -19 -5 -26 -12z"/>
<path d="M2222 813 c3 -44 5 -47 37 -56 18 -4 40 -6 49 -2 12 4 8 12 -21 36
-20 16 -39 38 -42 49 -12 37 -26 20 -23 -27z"/>
<path d="M2411 771 c-18 -12 -5 -31 20 -31 14 0 19 6 17 17 -4 20 -18 26 -37
14z"/>
<path d="M2294 585 c-8 -21 4 -35 32 -35 26 0 32 18 12 38 -16 16 -37 15 -44
-3z"/>
<path d="M2952 12035 c-19 -8 -37 -26 -43 -42 -6 -15 -20 -38 -32 -51 -17 -18
-19 -27 -11 -40 16 -25 37 -26 65 -3 21 18 23 22 11 42 -12 19 -10 25 22 58
51 53 48 62 -12 36z"/>
<path d="M2780 11916 c-6 -8 -10 -25 -8 -38 4 -22 5 -22 13 -3 4 11 15 28 23
38 13 15 13 17 0 17 -9 0 -21 -7 -28 -14z"/>
<path d="M2875 11853 c-33 -7 -95 -35 -95 -44 0 -14 104 -16 133 -2 25 13 38
43 18 43 -5 0 -15 2 -23 4 -7 2 -22 2 -33 -1z"/>
</g>
</svg>
