<?xml version="1.0" standalone="no"?>
<!DOCTYPE svg PUBLIC "-//W3C//DTD SVG 20010904//EN"
 "http://www.w3.org/TR/2001/REC-SVG-20010904/DTD/svg10.dtd">
<svg version="1.0" xmlns="http://www.w3.org/2000/svg"
 width="1037.000000pt" height="1280.000000pt" viewBox="0 0 1037.000000 1280.000000"
 preserveAspectRatio="xMidYMid meet">
<metadata>
Created by potrace 1.15, written by Peter Selinger 2001-2017
</metadata>
<g transform="translate(0.000000,1280.000000) scale(0.100000,-0.100000)"
fill="#000000" stroke="none">
<path d="M5201 12784 c-19 -8 -51 -30 -72 -49 -21 -19 -51 -37 -66 -41 -100
-22 -109 -27 -164 -83 -40 -40 -61 -73 -74 -110 -18 -54 -39 -71 -89 -71 -67
0 -124 -30 -217 -116 -79 -73 -101 -99 -136 -169 -38 -75 -89 -135 -114 -135
-20 0 -40 -70 -34 -115 6 -39 4 -44 -20 -61 -27 -18 -51 -42 -117 -111 -50
-53 -126 -85 -227 -94 -134 -12 -254 -65 -307 -135 -21 -26 -29 -51 -33 -102
-11 -105 -43 -138 -149 -154 -150 -21 -190 -31 -257 -62 -171 -81 -250 -216
-187 -318 32 -51 28 -66 -21 -87 -23 -10 -49 -26 -56 -35 -35 -42 -97 -65
-242 -90 -287 -50 -431 -130 -446 -249 -11 -86 -54 -127 -131 -127 -168 0
-344 -95 -398 -216 -12 -28 -35 -61 -50 -73 -28 -22 -112 -51 -149 -51 -14 0
-43 -22 -77 -57 -66 -70 -104 -126 -151 -219 -20 -39 -60 -107 -90 -151 -30
-44 -72 -113 -92 -154 -25 -50 -57 -94 -99 -135 -69 -68 -123 -162 -176 -309
-18 -49 -40 -100 -48 -113 -8 -12 -49 -43 -91 -69 -146 -90 -189 -136 -237
-253 -56 -139 -56 -276 2 -361 19 -28 34 -57 34 -65 0 -7 -24 -29 -54 -48 -69
-44 -154 -144 -261 -304 -94 -142 -111 -192 -103 -297 7 -79 29 -121 68 -130
38 -8 51 -33 79 -147 21 -83 22 -92 8 -165 -19 -96 -43 -152 -96 -222 -34 -46
-41 -62 -41 -101 0 -35 5 -52 20 -65 20 -18 22 -18 49 -2 41 24 48 22 123 -28
37 -25 71 -45 76 -45 12 0 54 -47 92 -103 l32 -49 -31 -66 c-16 -37 -38 -96
-47 -132 -38 -148 23 -293 150 -357 128 -64 162 -118 176 -279 6 -62 17 -122
28 -147 39 -89 120 -154 217 -178 49 -12 95 -42 95 -63 0 -23 52 -120 75 -142
14 -13 25 -34 25 -49 0 -94 131 -224 227 -225 45 0 83 -17 120 -52 39 -37 58
-93 73 -208 28 -218 72 -270 240 -285 46 -5 82 -14 93 -23 10 -9 42 -57 72
-107 120 -204 176 -258 280 -270 74 -9 121 -28 159 -63 37 -35 53 -75 71 -176
37 -211 201 -552 398 -826 33 -47 76 -116 95 -155 78 -155 475 -510 803 -716
143 -90 196 -134 255 -212 85 -113 136 -240 179 -442 34 -162 104 -273 205
-323 81 -41 157 -48 293 -27 196 29 264 -7 333 -175 68 -167 142 -277 270
-399 107 -103 199 -161 318 -202 206 -71 393 -39 533 93 73 70 119 143 170
271 75 190 96 208 209 182 92 -21 140 -49 163 -93 25 -49 56 -76 116 -104 70
-32 209 -32 315 1 209 64 397 209 474 366 36 75 65 106 178 191 l100 76 103
-7 c209 -14 271 30 397 285 42 85 88 192 103 238 15 45 38 96 52 112 14 17 63
51 109 77 46 26 97 60 113 77 16 17 40 43 53 57 21 23 35 26 145 37 135 13
221 39 302 91 105 67 194 195 221 316 6 28 15 109 20 181 9 146 27 204 83 262
36 38 114 80 197 107 119 38 183 82 247 168 81 110 106 267 62 385 -30 78 -34
133 -15 170 9 17 65 82 126 146 119 126 143 163 164 258 20 88 39 311 31 363
-3 24 -28 89 -55 144 l-49 100 44 93 c58 124 79 236 72 378 -13 226 -103 419
-227 488 -27 15 -50 31 -50 35 0 4 19 42 42 84 37 68 42 85 46 158 7 139 -43
297 -127 402 -96 119 -321 264 -431 279 -59 8 -60 11 -34 140 15 74 15 86 0
135 -35 120 -131 242 -282 356 l-81 61 -194 4 c-269 4 -265 2 -278 224 l-7
131 -79 86 c-50 55 -92 92 -117 102 -66 26 -203 45 -281 39 -94 -8 -122 10
-132 88 -4 29 -16 71 -27 92 -33 65 -115 144 -185 177 l-63 30 24 32 c47 62
76 129 76 174 0 53 -10 74 -61 130 -21 23 -41 53 -45 68 -7 27 9 55 32 55 25
0 84 141 99 236 14 92 -15 137 -187 290 l-67 59 36 60 c42 71 73 156 73 199 0
18 -10 52 -22 76 -30 58 -74 80 -180 89 -89 8 -112 16 -143 51 -17 19 -20 37
-21 120 -1 81 -6 107 -26 152 -49 105 -132 164 -250 177 -73 8 -98 24 -98 62
0 29 -47 75 -102 100 -46 21 -66 24 -160 22 l-107 -2 -6 67 c-3 37 -8 77 -11
90 -5 27 -46 47 -115 57 -25 4 -50 10 -56 13 -8 5 -8 60 -1 182 10 183 5 297
-13 333 -7 12 -24 34 -39 48 -19 18 -32 44 -39 80 -6 30 -20 68 -31 84 -14 22
-20 47 -20 92 0 76 -9 101 -57 154 -48 53 -96 83 -186 117 l-72 27 -35 73
c-19 40 -53 93 -76 120 -58 68 -57 66 -65 188 -6 101 -10 120 -42 186 -40 82
-116 163 -164 173 -56 12 -73 25 -99 76 -14 29 -56 82 -92 119 -37 37 -86 89
-109 117 -66 79 -128 99 -202 67z m74 -204 l30 -7 -38 -18 c-33 -17 -43 -17
-90 -6 -28 7 -69 15 -89 18 -42 6 -50 20 -15 25 30 6 165 -2 202 -12z m33
-102 c42 -10 60 -24 48 -35 -3 -4 -66 -10 -138 -15 -73 -4 -144 -9 -158 -10
-20 -2 -26 2 -28 21 -5 29 7 41 50 52 38 10 164 3 226 -13z m-351 -40 c46 -17
41 -32 -8 -25 -46 6 -54 11 -44 26 8 14 11 14 52 -1z m-47 -153 c36 -37 50
-43 50 -22 0 23 30 56 46 50 8 -3 26 -27 40 -54 13 -27 28 -49 33 -49 15 0 29
24 33 54 5 43 23 42 52 -1 l26 -38 0 32 c0 36 9 63 20 63 5 0 25 -17 45 -37
l36 -38 16 23 c8 12 21 22 27 22 6 0 31 -25 55 -55 24 -30 45 -55 47 -55 2 0
1 24 -2 53 -5 48 -4 51 10 33 11 -14 16 -41 16 -90 0 -109 -2 -113 -68 -121
-110 -12 -615 -10 -639 3 -69 38 8 53 279 56 228 2 288 9 255 28 -9 4 -123 13
-254 18 -285 12 -338 17 -353 35 -9 11 -5 17 22 28 18 8 53 33 78 55 57 52 85
53 130 7z m658 -64 c5 -30 -15 -52 -28 -31 -5 8 -10 25 -10 38 0 32 34 25 38
-7z m-904 -103 c17 -28 -7 -42 -70 -42 -89 2 -94 33 -8 53 50 12 64 10 78 -11z
m1029 -17 c23 -22 -109 -59 -144 -40 -28 15 -19 43 16 51 34 7 116 0 128 -11z
m-723 -140 c0 -30 -39 -73 -64 -69 -31 4 -31 34 0 63 32 30 64 33 64 6z m-535
-31 c8 -26 -1 -40 -26 -40 -22 0 -26 29 -7 48 17 17 26 15 33 -8z m640 -16
c20 -21 16 -73 -7 -88 -13 -8 -22 -6 -37 8 -25 23 -27 58 -5 80 20 20 29 20
49 0z m-252 -31 c6 -30 0 -53 -14 -53 -5 0 -9 21 -9 46 0 48 14 53 23 7z m386
-17 c13 -27 15 -28 65 -21 76 12 99 11 103 -2 12 -35 -129 -49 -199 -20 -39
17 -49 42 -26 65 19 19 41 10 57 -22z m-641 -63 c117 -6 131 -14 79 -43 -24
-13 -29 -13 -56 3 -30 17 -30 17 -56 -10 l-26 -28 -33 38 -32 39 -42 -22 c-46
-24 -107 -24 -107 0 0 22 63 41 115 35 25 -3 96 -8 158 -12z m428 -24 c70 -13
108 -42 101 -78 -7 -36 2 -54 19 -40 8 6 14 19 14 29 0 32 29 45 105 45 89 0
115 -17 115 -76 0 -52 -8 -67 -44 -87 -26 -14 -59 -16 -217 -15 -272 2 -392
33 -201 52 89 9 112 21 112 56 0 39 -10 54 -45 65 -41 13 -75 0 -75 -30 0 -11
-7 -20 -15 -20 -18 0 -45 50 -45 85 0 24 2 25 58 25 32 0 85 -5 118 -11z
m-248 -28 c5 -29 -13 -50 -29 -34 -15 15 -3 66 14 60 7 -2 14 -14 15 -26z
m787 -63 c8 -28 15 -55 15 -60 0 -5 21 -61 46 -124 32 -83 46 -131 47 -172 2
-56 1 -57 -26 -60 -39 -5 -54 11 -67 70 -19 91 -50 102 -50 18 0 -69 -14 -102
-42 -98 -20 3 -24 12 -33 77 -12 88 -31 104 -40 34 -9 -74 -24 -96 -80 -116
-66 -23 -185 -18 -242 12 -43 22 -53 36 -53 81 0 31 -24 58 -35 40 -4 -6 -10
-32 -13 -58 l-7 -47 -43 -3 -43 -3 17 26 c15 22 16 36 7 91 -5 35 -8 66 -7 67
2 2 36 0 76 -4 139 -14 230 -10 297 12 57 20 68 20 117 9 47 -11 56 -11 79 4
49 32 59 110 25 197 -16 39 -18 55 -9 65 19 23 47 -2 64 -58z m-917 -35 c2 -7
-4 -16 -12 -19 -19 -7 -49 14 -40 28 8 13 46 6 52 -9z m1323 -13 c23 -13 25
-36 3 -44 -28 -11 -54 3 -54 30 0 26 18 31 51 14z m-503 -37 c2 -21 -4 -39
-22 -59 l-25 -29 -1 43 c0 75 41 114 48 45z m-699 14 c13 -16 5 -27 -20 -27
-21 0 -33 15 -24 30 9 14 31 12 44 -3z m1412 -87 c4 -8 11 -33 16 -54 4 -22
14 -42 22 -44 11 -4 13 4 8 40 -3 25 -4 48 0 52 12 12 84 -38 90 -63 15 -61
-49 -93 -250 -126 -86 -14 -165 -25 -175 -25 -16 0 -23 13 -36 65 -20 80 -20
104 -1 111 25 10 65 -24 86 -74 15 -35 22 -43 29 -32 10 16 3 57 -12 77 -17
22 -4 57 24 67 35 12 64 -12 78 -65 6 -20 19 -48 30 -61 32 -38 41 -7 20 71
-10 36 -16 69 -13 74 8 13 75 3 84 -13z m-1583 -120 c12 -82 6 -100 -34 -100
-36 0 -48 40 -35 113 20 115 52 109 69 -13z m115 39 c12 -23 17 -52 15 -89 -3
-55 -3 -55 -37 -58 -18 -2 -38 1 -43 6 -8 8 5 127 18 170 6 22 28 9 47 -29z
m155 -67 c5 -74 -8 -102 -49 -102 l-30 0 6 73 c4 39 14 83 22 96 14 21 16 22
31 7 9 -9 17 -39 20 -74z m-398 29 c0 -45 -20 -77 -44 -68 -22 9 -20 43 5 83
25 41 39 36 39 -15z m1300 19 c32 -34 55 -93 46 -116 -4 -11 -17 -14 -48 -12
l-42 3 -12 65 c-8 44 -9 69 -2 78 16 18 27 15 58 -18z m-2065 -79 c-5 -13 -9
-12 -20 8 -13 25 -11 45 9 70 9 11 12 6 14 -23 2 -21 0 -46 -3 -55z m505 60
c0 -35 -34 -81 -49 -66 -7 7 -2 24 15 53 14 23 27 42 30 42 2 0 4 -13 4 -29z
m-300 -13 c16 -10 24 -10 41 0 18 12 24 12 34 0 8 -7 15 -22 17 -33 3 -17 -3
-20 -45 -23 -55 -4 -77 9 -77 44 0 28 3 29 30 12z m180 -7 c0 -20 -27 -48 -36
-38 -4 3 -4 18 0 32 7 29 36 34 36 6z m245 -21 c0 -27 -22 -39 -31 -16 -8 22
3 49 19 43 6 -2 12 -14 12 -27z m220 -130 c256 -15 356 -26 365 -40 10 -17 34
-229 27 -237 -7 -6 -204 5 -607 32 -390 27 -510 40 -527 57 -18 19 -10 38 17
38 33 0 126 39 146 61 18 21 18 21 -3 38 -16 14 -49 19 -133 24 -131 8 -237
25 -247 40 -8 12 671 3 962 -13z m554 -66 c33 -24 51 -74 51 -147 0 -68 -13
-92 -47 -85 -14 3 -19 16 -24 68 -5 62 -27 121 -50 135 -20 13 -22 -5 -5 -63
9 -32 16 -77 16 -100 0 -38 -2 -42 -25 -42 -32 0 -45 26 -45 92 0 29 -5 72
-10 96 -6 24 -8 47 -5 53 10 16 118 11 144 -7z m200 -11 c7 -14 15 -56 18 -92
6 -68 18 -96 35 -85 7 4 8 41 3 99 -7 93 0 120 25 90 6 -8 16 -49 21 -91 19
-148 51 -155 59 -13 l5 94 14 -45 c23 -78 28 -86 64 -103 49 -23 100 -22 123
4 23 25 8 56 -25 51 -27 -4 -39 24 -19 45 13 12 20 13 37 3 55 -29 81 -129 40
-150 -27 -15 -220 -29 -390 -30 l-137 0 9 38 c7 26 4 58 -7 110 -18 76 -15 94
11 72 23 -19 37 -49 50 -103 6 -26 15 -47 20 -45 6 2 10 39 11 83 0 44 1 83 2
88 4 15 19 6 31 -20z m311 22 c0 -2 -14 -12 -31 -21 -32 -16 -58 -7 -45 15 7
11 76 16 76 6z m-2231 -49 c13 -16 -4 -26 -44 -26 -13 0 -31 3 -39 6 -27 10 1
34 39 34 18 0 38 -6 44 -14z m2918 -80 c83 -28 113 -43 113 -56 0 -17 -62 -80
-79 -80 -9 0 -25 7 -35 15 -11 8 -31 15 -45 15 -43 0 -54 15 -59 74 -5 67 -2
68 105 32z m-3151 -101 c8 -55 -9 -86 -34 -61 -13 12 -13 21 -2 60 7 25 16 46
21 46 4 0 11 -20 15 -45z m124 10 c0 -65 -40 -113 -48 -58 -4 26 23 93 37 93
6 0 11 -16 11 -35z m210 -7 c0 -52 -19 -92 -44 -96 -17 -4 -18 1 -14 42 6 46
30 96 48 96 6 0 10 -19 10 -42z m200 -52 c0 -86 -4 -90 -87 -81 -84 8 -98 15
-90 46 9 32 44 89 56 89 11 0 21 -35 21 -72 0 -18 5 -28 14 -28 10 0 19 20 26
58 7 31 17 63 23 70 19 24 37 -16 37 -82z m94 58 c12 -33 6 -122 -10 -138 -18
-18 -24 -19 -43 -7 -15 10 -8 73 15 129 14 35 28 41 38 16z m-416 -53 c4 -66
-10 -85 -32 -43 -25 49 -18 106 13 100 12 -2 17 -17 19 -57z m895 44 c47 -6
52 -11 47 -50 -12 -101 -17 -119 -32 -129 -32 -19 -52 5 -59 68 -4 31 -9 59
-12 62 -15 16 -27 -13 -27 -66 0 -66 -5 -70 -76 -70 -65 0 -84 13 -84 58 1 47
15 111 29 125 18 18 39 -12 49 -68 l8 -50 17 57 c18 59 38 80 72 73 11 -2 41
-7 68 -10z m-383 -48 c0 -46 11 -78 24 -74 6 2 16 25 23 51 7 27 15 51 18 54
23 24 38 -95 15 -123 -18 -22 -116 -21 -128 1 -16 29 18 142 39 129 5 -4 9
-21 9 -38z m551 -14 c22 -57 -8 -178 -40 -159 -27 17 -42 151 -19 174 21 21
48 14 59 -15z m497 11 c182 -8 182 -8 163 -115 -22 -126 -91 -135 -91 -12 0
27 -6 58 -14 69 -14 18 -15 18 -25 -9 -6 -16 -11 -43 -11 -62 0 -50 -9 -65
-40 -65 -33 0 -40 14 -40 78 0 89 -33 97 -43 11 -7 -57 -20 -79 -48 -79 -24 0
-33 16 -39 75 -3 35 -9 50 -20 50 -11 0 -17 -16 -21 -59 -8 -67 -24 -86 -75
-86 -44 0 -64 -23 -64 -73 -1 -128 -61 -211 -104 -144 -20 29 -29 120 -19 177
8 42 11 45 41 48 24 2 31 7 24 15 -11 14 -16 57 -13 141 l1 59 143 -6 c78 -4
211 -10 295 -13z m1012 -27 c0 -12 9 -35 20 -52 22 -33 26 -55 9 -55 -15 0
-62 108 -55 126 8 21 26 8 26 -19z m-494 -1 c1 0 4 -42 6 -92 l5 -92 -33 -5
c-94 -16 -263 -30 -279 -24 -16 7 -17 16 -11 109 4 56 9 105 12 110 4 6 293 0
300 -6z m360 3 c3 -6 -1 -18 -10 -27 -15 -15 -17 -15 -32 0 -19 19 -11 38 16
38 10 0 22 -5 26 -11z m-239 -39 c18 -34 12 -100 -9 -114 -9 -5 -20 -8 -23 -5
-11 12 -28 116 -22 133 9 24 39 16 54 -14z m553 -89 c-10 -19 -50 -30 -50 -14
0 3 12 22 28 42 25 33 27 34 30 14 2 -12 -2 -31 -8 -42z m179 42 c-14 -16 -69
-43 -89 -43 -5 0 -10 5 -10 10 0 15 62 50 89 50 21 0 22 -2 10 -17z m-2449
-73 c13 -9 12 -12 -4 -25 -29 -22 -66 -19 -66 4 0 29 40 40 70 21z m922 -91
c21 -39 24 -139 6 -157 -7 -7 -39 -12 -75 -12 l-63 0 0 74 c0 109 22 113 36 6
4 -31 11 -50 20 -50 17 0 28 60 21 107 -7 39 7 76 26 71 7 -3 20 -20 29 -39z
m162 28 c14 -10 16 -25 14 -87 l-3 -75 -13 43 c-17 57 -36 45 -27 -19 6 -40 4
-50 -9 -55 -9 -4 -19 -5 -21 -2 -2 2 -10 46 -16 97 -11 79 -11 94 2 102 20 13
52 11 73 -4z m-1559 -17 c-3 -5 -22 -10 -41 -10 -21 0 -33 4 -29 10 3 6 22 10
41 10 21 0 33 -4 29 -10z m985 -50 c0 -46 -33 -92 -64 -88 -30 4 -33 36 -4 40
20 3 23 9 23 43 0 22 4 46 8 53 15 22 37 -7 37 -48z m-1190 15 c-16 -20 -40
-19 -40 0 0 17 43 38 48 23 2 -5 -2 -15 -8 -23z m354 19 c18 -7 21 -30 6 -39
-12 -8 -60 21 -60 35 0 11 30 13 54 4z m184 -20 c-2 -15 -10 -31 -19 -37 -19
-12 -69 -1 -69 15 0 22 33 48 62 48 26 0 29 -3 26 -26z m2769 -31 c-3 -10 -5
-2 -5 17 0 19 2 27 5 18 2 -10 2 -26 0 -35z m-2612 12 c0 -15 -8 -21 -30 -23
-43 -3 -63 11 -45 33 20 24 75 16 75 -10z m1199 -10 c6 -16 -8 -102 -18 -112
-11 -11 -24 10 -27 42 -5 64 0 85 20 85 10 0 21 -7 25 -15z m-859 -35 c0 -18
-62 -25 -85 -10 -13 9 -13 11 0 20 23 15 85 8 85 -10z m2160 -25 c0 -15 -8
-21 -33 -23 -18 -2 -40 2 -48 9 -23 19 3 41 45 37 28 -2 36 -7 36 -23z m-2795
-21 c204 -14 588 -48 895 -79 79 -8 357 -19 635 -24 272 -6 579 -12 682 -14
124 -3 192 -8 202 -16 11 -9 64 -6 238 14 354 41 361 42 387 16 14 -14 21 -32
19 -49 -4 -36 -32 -36 -36 1 -3 22 -8 27 -30 27 -32 0 -177 -23 -317 -50 -63
-12 -169 -21 -284 -25 -264 -9 -346 -25 -423 -86 -32 -27 -63 -19 -53 12 8 24
-8 39 -40 39 -11 0 -52 -16 -92 -36 -68 -33 -77 -35 -140 -30 -38 4 -149 10
-248 14 -99 4 -188 11 -198 16 -10 5 -55 10 -100 11 -119 3 -251 23 -339 51
-76 24 -79 24 -134 8 -80 -23 -153 -15 -242 26 l-73 33 -20 -21 c-28 -31 -88
-30 -127 3 -48 40 -143 31 -212 -20 -41 -30 -70 -32 -77 -5 -6 23 -18 26 -127
35 -56 4 -86 12 -104 26 -16 12 -41 19 -71 19 -72 1 -124 16 -146 45 -26 32
-72 45 -159 45 -53 0 -67 3 -58 12 30 30 375 31 792 2z m2309 -3 c12 -21 5
-31 -20 -31 -24 0 -33 18 -19 35 17 20 27 19 39 -4z m139 3 c30 -21 28 -36 -5
-32 -20 2 -29 9 -31 26 -4 26 5 28 36 6z m-313 -15 c0 -8 -12 -15 -27 -17 -31
-4 -37 12 -10 27 21 13 37 9 37 -10z m-2997 -23 c6 -27 -25 -48 -49 -35 -24
12 -24 35 -1 48 24 15 46 9 50 -13z m2830 12 c19 -19 14 -28 -13 -28 -24 0
-34 18 -18 33 9 10 17 9 31 -5z m-2854 -84 c30 -11 16 -35 -31 -56 -37 -17
-69 -22 -142 -22 -64 -1 -95 3 -98 11 -12 35 210 90 271 67z m3846 -174 c0
-11 -58 -28 -126 -36 -67 -7 -35 13 49 31 78 17 77 17 77 5z m-3260 -64 c85
-8 234 -18 330 -22 96 -3 182 -10 190 -15 19 -10 -38 -36 -165 -76 l-90 -28
-460 3 c-253 2 -511 7 -573 12 -108 7 -116 10 -150 39 -21 18 -52 41 -70 53
-19 12 -30 24 -25 29 30 30 717 33 1013 5z m2936 -5 c-30 -33 -188 -55 -226
-31 -12 8 -12 10 2 15 28 11 160 33 202 34 38 1 39 0 22 -18z m-4156 -6 c0 -5
-116 -39 -167 -50 -41 -8 -43 8 -3 25 39 16 170 36 170 25z m2715 -75 c144
-13 216 -26 241 -45 19 -15 19 -15 0 -30 -11 -8 -36 -15 -55 -15 -32 0 -33 -1
-16 -13 10 -8 14 -17 9 -20 -5 -3 -124 -7 -263 -9 -275 -3 -263 -6 -275 53 -4
20 -17 30 -51 43 -51 20 -57 33 -17 39 56 8 311 6 427 -3z m975 -5 c0 -18 27
-20 32 -3 3 8 12 6 29 -7 33 -25 63 -65 54 -73 -11 -11 -256 -15 -267 -4 -13
13 33 65 74 85 42 21 78 22 78 2z m1408 -12 c-10 -2 -26 -2 -35 0 -10 3 -2 5
17 5 19 0 27 -2 18 -5z m-3718 -118 c321 -21 589 -42 815 -65 758 -77 1405
-109 1575 -78 85 16 139 14 159 -6 20 -21 7 -43 -39 -70 -39 -23 -185 -35
-217 -18 -31 17 -162 30 -458 47 -148 8 -283 18 -300 21 l-30 6 23 -25 23 -24
-28 -57 -27 -56 -221 0 c-160 1 -230 5 -255 14 -127 49 -146 60 -189 105 -61
64 -136 92 -248 94 -103 1 -138 -18 -139 -77 0 -20 -6 -42 -13 -49 -9 -9 -81
-12 -279 -12 -301 0 -329 5 -356 68 -7 18 -25 50 -40 71 -32 48 -38 126 -8
126 10 0 123 -7 252 -15z m-760 -118 l0 -114 -187 -6 c-235 -9 -347 -9 -367
-1 -9 3 -16 17 -16 31 0 43 -100 112 -187 129 -41 8 -62 30 -36 37 60 17 262
27 701 35 l92 2 0 -113z m-1020 73 c0 -14 -35 -30 -69 -30 -45 0 -78 -19 -92
-52 -13 -31 -54 -68 -76 -68 -23 0 -26 26 -7 66 21 44 77 73 144 74 25 1 54 5
65 10 27 12 35 12 35 0z m4910 -51 c-65 -11 -150 -11 -150 0 0 12 58 17 135
12 l60 -5 -45 -7z m730 -37 c0 -12 -121 -40 -205 -47 -77 -7 -130 4 -130 26 0
7 14 17 30 20 45 10 305 10 305 1z m-907 -29 c10 -2 16 -10 14 -16 -4 -14
-257 -16 -319 -4 -47 10 -49 24 -5 30 38 6 284 -2 310 -10z m-408 -132 c16 -7
14 -9 -14 -14 -45 -9 -115 -9 -138 0 -14 6 -8 9 22 14 57 9 107 9 130 0z
m1406 -1 c30 -16 23 -30 -16 -30 -22 0 -35 5 -35 13 0 27 19 34 51 17z m-4803
-21 c17 -6 33 -17 36 -25 4 -12 14 -14 36 -9 28 6 30 5 30 -22 1 -89 34 -97
82 -18 46 77 68 71 68 -18 0 -55 -9 -67 -56 -77 -32 -7 -771 -41 -957 -43 -64
-1 -93 25 -83 76 4 20 15 46 26 59 l18 23 11 -30 c27 -74 27 -73 47 -36 60
106 84 124 84 63 0 -22 6 -45 13 -51 16 -13 29 0 71 67 15 23 31 40 36 37 6
-3 10 -33 10 -65 0 -91 30 -92 61 -2 25 75 69 69 69 -9 0 -49 23 -69 43 -37 8
13 18 37 22 53 17 77 85 89 85 15 0 -30 27 -30 72 0 42 29 43 29 58 11 8 -10
23 -33 32 -50 33 -59 71 -50 83 20 8 49 3 56 -27 35 -28 -20 -48 -21 -48 -2 0
11 35 46 46 46 0 0 15 -5 32 -11z m386 -83 l-5 -51 30 35 c17 19 31 40 31 47
0 27 37 11 98 -42 35 -30 67 -55 72 -55 14 0 43 48 36 59 -4 5 -22 7 -42 4
-35 -6 -35 -6 -32 28 2 27 9 36 31 43 38 14 76 -8 103 -59 11 -22 25 -40 30
-40 5 0 17 17 27 38 10 20 25 37 33 37 9 0 27 -27 43 -62 l28 -63 12 52 c21
88 54 93 92 15 l23 -47 6 35 c7 43 17 60 34 60 22 0 47 -36 60 -87 16 -63 37
-63 53 1 27 107 89 116 119 17 l11 -36 10 25 c27 64 81 67 98 6 19 -65 36 -58
47 19 2 14 12 21 32 23 33 4 46 -10 46 -52 l0 -30 34 37 c18 20 38 37 43 37
20 0 44 -38 51 -80 4 -24 13 -45 19 -47 12 -4 43 46 43 70 0 23 40 67 61 67
20 0 20 0 -1 -30 -25 -35 -19 -50 19 -50 16 0 40 -9 54 -20 33 -26 46 -25 52
5 3 14 7 36 10 50 4 18 12 25 28 25 30 0 59 -33 81 -93 15 -39 22 -48 40 -45
26 4 33 40 11 58 -27 22 -16 30 43 29 85 0 122 -17 146 -64 34 -65 51 -53 54
38 2 42 7 77 12 77 5 0 19 -18 30 -39 11 -22 39 -52 62 -68 61 -41 61 -60 1
-69 -58 -8 -656 1 -943 16 -265 13 -943 49 -1087 57 -62 3 -113 7 -113 9 0 21
58 150 77 171 24 25 26 26 39 9 8 -12 11 -36 8 -70z m4650 36 c10 -17 -14 -36
-48 -36 -39 0 -62 15 -52 33 8 13 92 15 100 3z m-2816 -36 c6 -29 -10 -35 -61
-21 -54 14 -62 19 -52 35 4 6 28 10 58 8 41 -2 53 -7 55 -22z m-3104 -17 c12
-35 -16 -94 -56 -119 -25 -16 -43 -20 -77 -16 -85 11 -89 56 -5 56 41 0 45 2
65 43 38 75 56 84 73 36z m-254 -80 c0 -20 -6 -41 -13 -47 -12 -10 -118 -42
-139 -42 -16 0 37 125 55 128 12 3 17 -3 17 -22 0 -52 43 -40 55 16 9 40 25
18 25 -33z m5650 51 c0 -10 -68 -26 -76 -17 -4 3 -3 10 1 16 8 14 75 15 75 1z
m-5846 -46 c8 -22 7 -87 -2 -101 -4 -6 -20 -16 -35 -22 -23 -9 -29 -8 -34 5
-12 31 32 134 57 134 5 0 11 -7 14 -16z m3887 -13 c48 -48 33 -140 -18 -112
-21 11 -73 100 -73 125 0 28 57 20 91 -13z m1584 -1 c15 -6 7 -9 -30 -8 -39 0
-45 2 -25 8 32 10 31 10 55 0z m-965 -56 c35 -10 70 -14 101 -10 54 7 109 -8
91 -26 -20 -20 -205 -31 -351 -20 -76 5 -143 12 -150 16 -8 5 -8 13 -1 27 13
24 70 26 109 3 26 -15 30 -15 67 4 48 26 65 26 134 6z m-410 -7 c27 -14 35
-53 10 -50 -71 8 -160 26 -160 32 0 27 107 40 150 18z m-2188 -21 c59 -6 110
-15 114 -19 12 -11 -17 -37 -43 -37 -59 0 -163 -73 -163 -115 0 -12 -7 -28
-15 -35 -20 -16 -277 -29 -602 -30 -218 0 -261 2 -257 14 8 21 89 76 124 82
19 4 41 20 56 40 17 21 45 40 80 54 30 11 66 28 81 37 14 10 47 21 72 25 63
10 422 0 553 -16z m4632 5 c17 -27 -82 -71 -162 -71 -29 0 -33 3 -30 23 4 32
61 57 130 57 31 0 59 -4 62 -9z m-5580 -32 c33 -15 42 -40 20 -56 -21 -16
-118 -17 -145 -3 -24 13 -24 25 1 50 23 23 84 27 124 9z m-308 -21 c9 -15 -18
-34 -79 -54 -41 -14 -51 -14 -58 -3 -13 21 -11 57 4 62 25 11 126 7 133 -5z
m4603 3 c26 -16 -92 -43 -195 -44 -103 -2 -137 11 -100 39 23 16 270 20 295 5z
m-5089 -21 c13 -9 10 -14 -14 -34 -37 -30 -21 -42 54 -37 134 7 142 7 154 -12
16 -26 -10 -42 -86 -56 -67 -12 -88 -24 -88 -52 0 -35 -38 -22 -66 24 -15 23
-35 47 -44 54 -10 7 -23 26 -30 43 -13 32 -17 33 -65 30 -26 -2 -27 0 -16 14
8 9 28 20 45 25 43 13 138 13 156 1z m3525 0 c247 -11 288 -17 293 -44 6 -27
-24 -64 -58 -71 -17 -4 -51 -24 -75 -45 -69 -60 -108 -65 -480 -64 -305 1
-736 22 -887 44 -82 12 -120 28 -116 49 5 23 44 39 150 62 51 11 107 29 125
40 28 18 58 22 201 28 249 12 588 12 847 1z m2428 -24 c7 -19 -1 -26 -30 -26
-25 0 -29 10 -11 28 16 16 35 15 41 -2z m-1410 -70 c11 -29 -27 -52 -99 -61
-59 -8 -107 7 -102 33 4 18 36 21 89 7 20 -5 32 -1 52 19 26 26 51 26 60 2z
m-2539 -15 c3 -5 -1 -14 -9 -21 -8 -7 -15 -20 -15 -30 0 -16 -5 -16 -81 2 -92
22 -154 21 -154 -2 0 -17 -54 -22 -56 -5 -3 34 296 87 315 56z m2945 -20 c46
-29 -103 -62 -201 -46 l-42 7 44 24 c34 18 62 23 115 23 39 1 76 -3 84 -8z
m-4299 -26 c0 -18 -48 -31 -62 -17 -16 16 0 32 33 32 19 0 29 -5 29 -15z
m3175 -14 c-18 -7 -55 -4 -55 5 0 2 17 4 38 3 28 0 32 -2 17 -8z m175 -41 c0
-5 -11 -10 -25 -10 -14 0 -25 5 -25 10 0 6 11 10 25 10 14 0 25 -4 25 -10z
m-2675 -97 c17 -16 40 -33 51 -39 30 -18 8 -28 -69 -32 -82 -4 -157 11 -157
33 0 20 83 61 129 64 7 1 28 -11 46 -26z m183 11 c35 -24 48 -65 26 -81 -40
-29 -94 -5 -94 42 0 22 23 55 38 55 4 0 18 -7 30 -16z m436 -68 c-9 -24 -96
-37 -109 -16 -4 6 6 32 21 57 l27 47 33 -37 c19 -20 31 -43 28 -51z m-1478 49
c6 -26 -17 -75 -36 -75 -16 0 -22 44 -11 73 13 34 39 35 47 2z m131 -5 c-11
-54 -57 -106 -57 -64 0 21 41 94 53 94 5 0 7 -13 4 -30z m262 -56 c-13 -16
-35 -18 -44 -4 -7 11 9 45 34 74 15 17 16 17 19 -19 2 -20 -2 -43 -9 -51z
m121 52 c0 -25 -22 -51 -33 -39 -11 10 -8 48 5 61 15 15 28 6 28 -22z m140 19
c0 -19 -49 -67 -64 -62 -20 7 -17 27 8 52 28 28 56 33 56 10z m1530 -15 c6
-12 10 -33 8 -48 -2 -21 -10 -28 -38 -34 -44 -10 -80 -2 -80 17 0 22 60 85 81
85 10 0 23 -9 29 -20z m309 11 c12 -8 12 -14 1 -41 -16 -39 -52 -64 -80 -55
-30 10 -25 49 11 79 33 28 46 31 68 17z m260 -10 c27 -15 28 -57 2 -71 -21
-11 -189 -14 -215 -4 -17 7 -21 31 -7 52 23 38 165 52 220 23z m122 9 c26 -14
25 -56 -2 -70 -38 -21 -69 36 -37 68 15 15 15 15 39 2z m-2571 -33 c0 -29 -15
-51 -29 -43 -14 9 -14 49 1 64 15 15 28 6 28 -21z m985 22 c13 -20 -5 -59 -31
-65 -35 -9 -88 8 -92 29 -6 31 106 64 123 36z m625 -21 c10 -19 12 -30 4 -38
-25 -25 -315 -24 -354 0 -13 8 -13 12 2 27 12 11 39 18 82 21 55 4 67 1 85
-17 l21 -21 53 30 c61 35 86 35 107 -2z m110 -13 c0 -41 -2 -45 -25 -45 -30 0
-32 19 -8 61 24 41 33 36 33 -16z m330 11 c0 -39 -12 -52 -61 -61 -25 -5 -39
-2 -48 8 -10 13 -6 21 24 51 22 22 45 36 60 36 22 0 25 -5 25 -34z m-2746 -15
c3 -4 -1 -17 -9 -27 -12 -16 -16 -17 -24 -5 -5 8 -7 20 -4 28 6 15 29 18 37 4z
m3384 -8 c5 -16 -22 -27 -44 -19 -13 5 -14 9 -4 22 15 17 41 15 48 -3z m-3530
-26 c4 -21 -15 -47 -34 -47 -18 0 -28 38 -13 56 16 19 43 14 47 -9z m-134 -2
c6 -17 -13 -65 -26 -65 -4 0 -8 18 -8 40 0 41 21 57 34 25z m386 -4 c0 -11 -5
-23 -11 -27 -15 -9 -33 12 -26 30 9 23 37 20 37 -3z m2103 -60 c50 -19 24 -63
-45 -75 -46 -8 -48 -21 -8 -44 16 -9 30 -20 30 -23 0 -15 -56 -41 -108 -51
-133 -24 -158 -39 -104 -63 89 -40 -136 -67 -568 -68 -398 0 -409 3 -418 138
-7 111 -4 110 -226 109 -198 0 -266 -11 -266 -44 0 -10 -5 -20 -12 -22 -8 -3
-5 -15 11 -36 28 -40 30 -39 -124 -48 -88 -5 -111 -9 -87 -15 47 -10 58 -23
46 -56 -14 -42 -17 -43 -599 -123 -213 -30 -382 -66 -517 -111 -144 -48 -158
-49 -158 -10 0 74 43 141 134 208 214 158 633 277 1141 323 295 28 1813 36
1878 11z m1662 -11 c97 -14 123 -27 143 -69 20 -42 41 -46 58 -12 16 31 35 42
62 34 29 -7 28 -21 -5 -55 l-27 -28 67 0 c37 0 67 -4 67 -8 0 -17 -53 -32
-158 -44 -96 -10 -114 -10 -160 5 -42 14 -57 15 -75 6 -12 -7 -61 -15 -110
-18 -89 -6 -114 -21 -55 -33 18 -3 99 -11 180 -17 145 -11 198 -22 198 -40 0
-5 -12 -13 -27 -19 -21 -6 8 -10 115 -15 157 -8 255 -24 230 -38 -26 -15
-1108 -15 -1373 -1 -132 7 -249 15 -261 17 -20 4 -18 10 32 107 28 57 57 121
63 144 16 61 69 80 251 94 134 11 693 3 785 -10z m1415 -84 c0 -17 22 -26 63
-26 45 0 61 -13 54 -42 -7 -27 -54 -58 -90 -58 -13 0 -42 8 -63 17 -31 13 -35
17 -19 21 38 8 62 42 31 42 -16 0 -31 34 -21 50 9 15 45 12 45 -4z m-2650 -40
c0 -18 -33 -30 -60 -21 -37 12 -23 35 20 35 28 0 40 -4 40 -14z m3653 -93 c4
-3 2 -12 -4 -20 -13 -15 -79 -18 -79 -3 0 21 67 40 83 23z m-893 -41 c0 -27
-31 -52 -67 -52 -25 0 -33 4 -33 18 0 33 53 66 88 54 6 -2 12 -11 12 -20z
m-4720 12 c22 -5 28 -9 18 -15 -18 -12 -288 -11 -288 0 0 17 205 27 270 15z
m4517 -81 c-20 -2 -52 -2 -70 0 -17 2 0 4 38 4 39 0 53 -2 32 -4z m1171 -11
c4 -12 -66 -48 -75 -38 -3 3 2 17 11 31 18 27 56 32 64 7z m57 -62 c18 -34 18
-40 5 -40 -8 0 -40 51 -40 65 0 16 22 1 35 -25z m-3955 -5 c253 -17 388 -31
424 -45 14 -5 32 -23 41 -40 20 -39 33 -38 50 5 12 27 22 35 49 40 19 4 44 4
56 0 20 -6 21 -12 16 -50 -4 -25 -3 -46 3 -49 5 -4 30 12 56 34 35 30 55 40
81 40 31 0 37 -4 50 -35 16 -40 16 -40 76 -19 78 26 155 4 96 -27 -33 -18
-331 -24 -470 -10 -158 17 -187 25 -200 62 -10 28 -34 49 -57 49 -16 0 -13
-24 7 -59 15 -28 15 -33 2 -42 -10 -7 -189 -8 -585 -2 -313 4 -795 8 -1070 8
-484 -1 -504 -1 -615 -24 -69 -14 -155 -24 -213 -25 -95 -1 -100 0 -120 25
-12 15 -31 30 -43 33 -31 9 -68 52 -61 70 10 25 25 19 67 -24 60 -61 96 -48
66 24 -8 20 -11 38 -6 41 13 8 48 -12 60 -35 14 -27 62 -50 88 -43 29 7 28 27
-3 51 -33 27 -32 32 11 32 46 0 70 -14 89 -51 13 -24 22 -30 43 -27 23 3 29
10 38 48 9 37 15 46 36 48 19 2 31 -5 48 -27 14 -20 30 -31 46 -31 20 0 24 5
24 30 0 17 1 31 3 32 34 21 1479 16 1817 -7z m-2552 -185 c17 0 15 13 -10 65
-26 53 -18 67 20 37 61 -50 117 -82 144 -82 15 0 28 -4 28 -9 0 -23 -173 -69
-384 -102 -78 -12 -79 -12 -99 12 -22 28 -67 113 -67 129 0 25 31 8 37 -20 8
-41 31 -51 131 -58 65 -4 86 -2 93 9 14 22 11 38 -11 56 -13 11 -20 30 -20 52
l0 35 63 -62 c34 -34 68 -62 75 -62z m6302 86 c0 -12 -50 -46 -69 -46 -20 0
-11 28 15 49 26 20 54 19 54 -3z m-6532 -13 c-3 -30 -25 -42 -34 -19 -9 22 2
46 21 46 12 0 15 -8 13 -27z m4307 2 c0 -13 -8 -21 -24 -23 -29 -4 -44 9 -35
32 10 25 59 18 59 -9z m268 8 c16 -3 25 -9 20 -14 -12 -12 -125 -28 -156 -22
-33 6 -47 31 -26 44 13 9 98 5 162 -8z m-649 -12 c8 -12 -24 -38 -56 -46 -35
-9 -51 21 -23 41 21 16 71 19 79 5z m251 -1 c4 -6 3 -25 0 -42 l-7 -32 -15 28
c-15 28 -12 56 6 56 5 0 13 -5 16 -10z m1825 5 c0 -11 -63 -36 -77 -31 -26 10
5 36 43 36 19 0 34 -2 34 -5z m-273 -71 c4 -13 -23 -44 -38 -44 -16 0 -22 29
-9 46 14 16 41 15 47 -2z m-187 -3 c0 -12 -29 -41 -40 -41 -17 0 -20 19 -4 34
17 17 44 21 44 7z m-3717 -11 c150 -11 213 -22 231 -40 8 -9 6 -15 -8 -24 -50
-30 -134 -107 -156 -145 -14 -22 -34 -43 -45 -45 -11 -2 -42 -8 -70 -13 -60
-10 -62 -25 -3 -36 92 -16 94 -18 75 -28 -9 -6 -144 -14 -299 -19 -156 -6
-330 -16 -388 -25 -58 -8 -120 -15 -138 -15 l-32 0 16 38 c75 175 91 239 67
263 -6 6 -32 14 -57 16 -26 3 -45 7 -43 10 3 2 32 8 66 14 34 5 83 17 109 26
26 8 70 19 97 23 75 11 422 11 578 0z m2262 -37 l59 -8 -109 -34 c-61 -18
-122 -38 -137 -43 -33 -12 -63 -44 -87 -93 -26 -53 -66 -62 -341 -75 -469 -21
-608 -30 -639 -41 -31 -11 -100 -5 -102 9 -1 4 -2 22 -4 40 -4 53 -66 202 -89
217 -12 7 -43 16 -71 20 -133 20 43 24 725 20 404 -3 762 -8 795 -12z m794
-39 c-14 -17 -39 -7 -39 15 0 27 12 33 32 15 13 -13 15 -20 7 -30z m-5041 24
c20 -20 14 -38 -12 -38 -28 0 -40 14 -32 35 7 18 28 19 44 3z m687 -28 c8 -25
-13 -59 -67 -111 -43 -41 -45 -62 -7 -67 46 -7 40 -19 -15 -31 -60 -13 -70
-22 -70 -60 -1 -22 -11 -27 -121 -60 -135 -41 -146 -46 -139 -65 6 -15 6 -15
-171 -61 -71 -19 -133 -31 -137 -27 -4 4 -11 73 -14 153 -8 165 2 203 59 233
30 16 570 112 644 115 24 1 33 -4 38 -19z m4770 -1 c5 -6 5 -13 -1 -19 -13
-13 -205 -32 -270 -28 l-49 4 47 22 c79 38 243 51 273 21z m1443 -45 c12 -4
22 -10 22 -15 0 -15 -58 -39 -94 -39 -43 0 -54 15 -30 41 17 19 58 24 102 13z
m-1053 -54 c0 -34 -201 -65 -490 -74 -159 -6 -167 -5 -121 8 70 21 542 87 591
83 11 -1 20 -9 20 -17z m858 -52 c-34 -35 -42 -38 -72 -33 -31 6 -38 2 -82
-45 -51 -55 -66 -90 -30 -70 11 5 23 15 26 20 3 6 15 10 26 10 15 0 19 -7 19
-38 0 -59 -60 -172 -133 -250 -90 -96 -93 -103 -56 -138 28 -27 31 -28 43 -11
19 24 26 21 26 -10 0 -56 -64 -125 -102 -111 -7 3 -28 42 -46 86 -39 96 -104
174 -171 206 -68 32 -62 48 49 134 205 157 495 317 533 295 5 -3 -8 -23 -30
-45z m-2955 -125 c-32 -2 -86 -2 -120 0 -35 2 -9 3 57 3 66 0 94 -1 63 -3z
m2397 -43 c9 -14 -86 -55 -213 -91 -97 -27 -252 -51 -356 -53 -43 -1 -63 22
-27 31 12 3 21 12 21 21 0 13 12 14 78 9 60 -5 85 -3 108 9 16 9 65 19 109 24
44 5 112 20 150 33 75 27 120 33 130 17z m-3879 -42 c43 -48 48 -98 9 -98 -39
0 -97 28 -127 61 -25 27 -48 38 -48 22 0 -3 7 -14 16 -24 9 -10 14 -25 11 -32
-7 -19 -109 -30 -189 -21 -56 6 -67 11 -99 45 l-37 38 5 -38 c6 -44 -5 -52
-52 -40 -36 10 -105 65 -105 84 0 7 8 16 18 21 19 8 328 22 470 20 l94 -1 34
-37z m-671 1 c34 -30 65 -77 65 -98 0 -37 -114 -9 -150 36 -19 25 -27 73 -13
86 16 17 65 5 98 -24z m804 -9 c36 -40 73 -52 87 -28 4 7 -2 18 -14 26 -29 19
-28 32 4 32 27 0 114 -75 114 -98 0 -15 -30 -23 -97 -24 -68 -2 -144 32 -187
82 -31 38 -27 50 21 50 28 0 42 -8 72 -40z m-993 12 c6 -4 14 -17 18 -29 4
-11 18 -28 31 -37 54 -36 15 -63 -74 -53 -66 8 -98 25 -112 60 -11 27 -10 32
10 48 24 19 104 26 127 11z m1448 -3 c13 -7 30 -25 37 -40 14 -35 16 -35 45
-8 12 12 27 18 32 15 11 -7 27 -65 20 -72 -3 -2 -42 7 -88 21 -46 14 -92 25
-102 25 -24 0 -24 45 0 59 22 13 26 13 56 0z m-171 -17 c17 -18 40 -72 31 -72
-12 0 -61 30 -73 44 -15 18 -8 46 12 46 8 0 21 -8 30 -18z m-1706 -40 c10 -21
28 -39 45 -46 35 -13 36 -29 1 -45 -25 -11 -29 -9 -68 33 -23 26 -50 46 -59
46 -25 0 -16 32 13 46 32 16 48 8 68 -34z m193 23 c30 -15 48 -54 35 -74 -10
-17 -71 -13 -95 7 -18 14 -21 25 -17 45 4 14 15 28 25 30 9 3 18 5 20 6 2 0
16 -6 32 -14z m4143 -26 c54 -28 77 -48 77 -69 0 -28 26 -32 176 -24 101 5
143 3 148 -5 4 -6 4 -11 -1 -11 -4 0 -35 -4 -68 -9 -33 -5 -102 -15 -153 -22
l-93 -12 -45 46 c-24 25 -64 55 -89 66 -47 21 -53 29 -33 49 17 17 33 15 81
-9z m-1677 -4 c7 -17 -12 -45 -31 -45 -20 0 -26 28 -9 45 20 19 33 19 40 0z
m112 -19 c3 -20 0 -27 -10 -24 -7 3 -14 17 -16 32 -3 20 0 27 10 24 7 -3 14
-17 16 -32z m505 17 c13 -8 -4 -24 -40 -40 -31 -12 -38 -12 -59 2 -30 19 -30
33 -1 45 20 9 81 5 100 -7z m-3559 -9 c22 -21 20 -34 -5 -34 -29 0 -59 18 -59
35 0 20 44 19 64 -1z m3356 -33 c15 -56 58 -75 148 -65 76 9 130 7 185 -7 71
-19 40 -39 -61 -40 -84 0 -148 -11 -144 -24 2 -6 23 -9 47 -8 40 3 45 0 51
-21 9 -38 -4 -64 -39 -75 -63 -20 -226 -32 -482 -37 -143 -3 -280 -7 -305 -11
-43 -5 -44 -6 -16 -14 15 -4 167 -11 337 -15 170 -4 309 -11 309 -15 0 -4 -10
-9 -22 -11 -15 -2 -22 -9 -20 -20 4 -27 -35 -41 -102 -35 -44 4 -68 1 -90 -11
-23 -11 -56 -15 -123 -14 -91 1 -127 11 -149 40 -10 13 -38 15 -180 12 -280
-7 -290 -5 -241 34 34 27 34 33 0 68 l-27 28 31 -6 c46 -9 53 13 14 45 -25 21
-29 29 -19 39 6 6 18 12 26 12 7 0 10 5 7 10 -7 11 -97 13 -134 3 -23 -6 -23
-6 9 -17 17 -6 32 -15 32 -21 1 -5 -24 -24 -54 -41 -48 -27 -57 -29 -73 -18
-11 9 -45 14 -84 14 -79 1 -138 13 -159 33 -13 13 -11 17 14 31 29 15 28 15
-38 16 -81 0 -98 -6 -98 -34 0 -33 -10 -38 -38 -20 -23 15 -27 15 -54 -1 -16
-9 -56 -19 -89 -22 -46 -5 -59 -9 -55 -20 9 -23 -43 -35 -138 -31 -109 4 -123
-11 -44 -47 l53 -25 -115 2 c-63 2 -142 -1 -175 -6 l-60 -9 35 -12 34 -11 -74
-12 c-165 -25 -389 -21 -398 7 -6 17 -33 13 -100 -14 -34 -14 -64 -25 -67 -25
-3 0 -3 11 1 25 6 25 6 25 -66 25 -90 0 -225 -20 -490 -71 -349 -68 -416 -86
-447 -120 -32 -34 -142 -72 -195 -67 l-33 3 -7 75 c-4 41 -12 88 -18 104 -10
27 -12 28 -58 22 -26 -4 -83 -9 -127 -12 -76 -5 -79 -5 -60 11 11 10 45 28 75
42 30 13 72 33 94 44 115 62 466 150 871 219 289 49 431 61 840 67 392 6 613
-4 643 -29 25 -21 765 -17 997 5 99 10 272 20 385 23 229 6 269 10 275 27 28
81 39 86 55 28z m-4770 -40 c0 -11 -5 -23 -11 -27 -15 -9 -33 12 -26 30 9 23
37 20 37 -3z m1636 -2 c16 -26 -55 -40 -75 -15 -9 11 -9 15 1 19 24 10 67 7
74 -4z m4345 -19 c24 -16 88 -73 142 -127 l98 -99 81 8 c104 10 131 19 253 83
125 66 186 82 255 65 95 -23 166 -98 219 -232 20 -49 28 -59 59 -70 46 -15
182 -15 242 2 51 14 210 100 320 174 l75 51 178 0 c116 0 176 3 174 10 -7 22
-131 54 -212 55 -78 0 -118 11 -101 27 4 4 79 8 166 8 222 -1 233 -10 174
-143 -12 -29 -30 -55 -38 -58 -8 -3 -51 6 -96 20 -93 30 -136 32 -206 11 -54
-16 -147 -76 -206 -133 -33 -32 -49 -62 -32 -62 12 0 51 25 94 61 62 51 136
86 213 100 63 12 66 11 110 -14 75 -44 142 -129 208 -264 67 -136 100 -172
182 -199 64 -21 183 -21 267 1 82 21 144 14 228 -27 74 -37 162 -120 192 -184
22 -44 23 -85 5 -170 -5 -24 0 -41 24 -79 17 -27 31 -54 31 -60 0 -19 52 -61
109 -90 30 -15 97 -38 150 -51 124 -32 171 -55 236 -118 62 -62 105 -140 105
-194 0 -45 -19 -66 -67 -77 -22 -4 -34 -14 -41 -33 -8 -24 -10 -20 -21 38 -31
157 -117 252 -314 349 -177 86 -214 131 -302 369 -81 218 -101 232 -365 243
-249 11 -335 35 -413 115 -36 37 -66 100 -87 181 -15 60 -69 133 -115 157 -28
15 -57 21 -100 20 -78 -1 -148 -35 -246 -120 -40 -35 -103 -78 -139 -96 -61
-31 -71 -33 -170 -33 -96 0 -110 2 -163 29 -71 37 -160 128 -205 214 -45 84
-74 116 -129 142 -72 34 -150 25 -278 -31 -94 -41 -106 -44 -190 -44 -110 0
-153 18 -298 129 -90 68 -155 107 -199 120 -28 8 -21 26 15 41 49 21 79 18
128 -15z m-4526 1 c-19 -32 -255 -81 -255 -54 0 16 24 23 140 43 131 23 122
22 115 11z m-1585 -45 c0 -48 -17 -106 -31 -106 -13 0 -11 95 3 125 17 37 28
30 28 -19z m914 13 c34 -27 33 -41 -1 -33 -38 9 -75 33 -68 44 10 16 41 11 69
-11z m199 -23 c28 -20 35 -36 16 -36 -19 0 -69 41 -69 56 0 16 7 14 53 -20z
m5235 -30 c33 -17 68 -54 59 -63 -13 -12 -91 -3 -109 14 -22 20 -22 27 -2 47
19 19 18 19 52 2z m-327 -16 c18 0 9 -28 -18 -55 -33 -32 -140 -88 -153 -80
-17 11 -11 34 20 69 34 38 108 79 128 71 8 -3 18 -5 23 -5z m-4971 -10 c0 -5
-8 -14 -18 -19 -27 -14 -132 -40 -132 -32 0 4 24 19 53 33 53 27 97 36 97 18z
m-885 -86 c18 -14 19 -17 4 -42 -20 -37 -53 -36 -57 1 -7 55 14 71 53 41z
m5966 -14 c13 -7 53 -38 87 -69 119 -104 130 -111 190 -111 64 0 65 -14 6 -47
-90 -52 -214 -84 -244 -63 -13 9 -10 15 18 39 72 62 20 53 -145 -24 -66 -30
-130 -55 -143 -55 -33 0 -119 -52 -176 -107 -68 -64 -41 -67 87 -8 111 51 162
64 174 45 17 -28 -86 -96 -160 -105 -52 -7 -127 -52 -215 -130 -71 -61 -110
-79 -125 -55 -3 5 22 39 55 75 34 36 60 73 59 83 -4 40 3 61 32 106 17 26 45
54 63 63 41 21 41 20 22 38 -35 35 -12 95 37 95 39 0 101 28 145 64 35 30 41
46 17 46 -42 0 -25 54 30 96 68 52 120 58 186 24z m-6134 -6 c4 -13 -23 -44
-38 -44 -16 0 -22 29 -9 46 14 16 41 15 47 -2z m6892 -95 c60 -21 66 -63 15
-118 -75 -83 -336 -209 -779 -376 l-70 -26 30 31 c26 27 27 30 8 30 -21 0 -47
-18 -121 -81 -23 -20 -58 -40 -76 -43 -19 -4 -39 -13 -46 -21 -14 -17 -50 -20
-50 -5 0 5 27 32 61 60 133 111 313 216 328 191 8 -12 35 13 66 62 21 32 55
37 55 7 0 -27 23 -35 56 -18 38 18 45 41 10 32 -33 -8 -35 11 -4 43 27 28 34
29 41 2 7 -28 36 -19 102 31 28 20 82 54 122 74 73 39 99 66 62 66 -11 0 -42
-11 -69 -25 -94 -48 -169 -42 -120 10 55 59 290 105 379 74z m-3258 -86 c21
-55 -4 -144 -40 -143 -33 1 -55 105 -32 149 17 32 59 28 72 -6z m-661 -13 c0
-42 -20 -80 -42 -80 -28 0 -70 46 -66 73 3 22 30 33 86 36 18 1 22 -4 22 -29z
m436 11 c44 -20 84 -63 84 -91 0 -36 -29 -45 -152 -49 -97 -2 -123 0 -143 13
-14 9 -25 23 -25 31 0 8 -9 19 -21 25 -17 10 -25 6 -55 -26 -44 -46 -56 -36
-52 42 l3 59 45 6 c25 3 97 7 160 7 93 1 123 -2 156 -17z m371 -3 c16 -15 23
-33 23 -59 0 -42 -18 -62 -52 -57 -20 3 -23 9 -26 57 -5 85 10 101 55 59z
m4593 -26 c0 -46 -20 -92 -41 -92 -18 0 -9 39 13 54 l21 15 -24 19 c-20 17
-21 22 -10 36 26 31 41 19 41 -32z m-6565 28 c-3 -5 -15 -10 -25 -10 -10 0
-22 5 -25 10 -4 6 7 10 25 10 18 0 29 -4 25 -10z m754 -7 c11 -10 32 -40 45
-68 30 -63 21 -70 -77 -61 -124 11 -152 28 -75 43 l42 8 -3 48 c-2 44 -1 47
22 47 14 0 34 -8 46 -17z m186 -3 c23 -26 36 -95 21 -116 -10 -14 -15 -13 -39
6 -29 23 -80 113 -70 124 14 14 71 5 88 -14z m1266 10 c23 -13 49 -61 49 -92
0 -20 7 -16 51 31 40 43 52 52 60 40 24 -39 0 -87 -61 -117 -29 -14 -36 -24
-41 -57 -4 -21 -15 -45 -25 -52 -11 -8 -41 -28 -68 -46 -28 -18 -64 -54 -82
-82 -62 -95 -74 -105 -139 -115 -85 -14 -305 -24 -347 -16 -31 6 -38 13 -52
51 -20 52 -94 122 -161 154 -51 24 -57 44 -17 64 68 35 219 54 521 67 123 5
225 11 228 14 2 2 0 13 -6 24 -18 33 -13 87 10 116 22 27 48 33 80 16z m1461
-5 c0 -5 -6 -14 -15 -19 -17 -11 -51 10 -41 26 7 12 54 6 56 -7z m-3086 -19
c18 -14 18 -17 4 -57 -17 -51 -52 -69 -97 -53 -26 9 -28 14 -26 58 1 28 7 52
15 57 21 14 82 10 104 -5z m5620 -27 c27 -18 76 -60 110 -95 57 -58 80 -97
133 -217 14 -31 31 -52 48 -60 16 -6 55 -29 87 -49 71 -46 111 -49 194 -14 31
13 75 27 98 30 51 9 166 -15 230 -47 45 -23 52 -31 82 -102 19 -43 40 -107 49
-144 28 -124 40 -147 111 -208 36 -32 88 -80 115 -107 44 -43 57 -50 121 -63
39 -8 92 -26 118 -40 39 -21 49 -33 62 -74 9 -26 32 -83 51 -125 32 -70 35
-84 35 -173 0 -139 17 -161 203 -265 103 -58 182 -133 215 -204 20 -45 23 -65
20 -125 -4 -81 -31 -144 -100 -236 -67 -89 -98 -158 -98 -221 0 -71 21 -115
104 -219 76 -95 103 -143 122 -216 18 -65 17 -100 -2 -164 -23 -80 -80 -135
-190 -187 -54 -25 -106 -57 -127 -79 -64 -66 -63 -155 1 -262 53 -88 76 -170
68 -236 -20 -148 -136 -255 -333 -307 -109 -30 -154 -52 -208 -101 -81 -75
-105 -156 -73 -246 8 -23 13 -80 12 -148 -1 -171 -39 -250 -157 -326 -99 -64
-164 -80 -313 -77 -159 3 -176 -4 -324 -127 -58 -49 -128 -103 -155 -121 -28
-17 -56 -38 -62 -45 -6 -8 -14 -54 -18 -104 -9 -110 -36 -220 -75 -302 -25
-54 -35 -65 -75 -84 -48 -23 -145 -111 -145 -131 0 -6 -7 -20 -17 -30 -13 -14
-31 -18 -94 -18 -135 0 -166 37 -88 103 l41 35 -56 12 c-95 20 -191 -21 -298
-126 -67 -65 -92 -122 -85 -188 11 -112 -26 -210 -114 -299 -67 -67 -157 -113
-251 -129 -52 -9 -73 -8 -123 6 -53 15 -68 26 -135 96 -88 92 -103 98 -332
125 -155 18 -203 12 -237 -32 -22 -27 -29 -47 -61 -183 -53 -222 -158 -335
-345 -375 -250 -53 -458 34 -629 262 -36 49 -104 162 -152 256 -128 248 -145
259 -414 255 -122 -1 -167 2 -214 16 -153 45 -217 136 -217 306 0 108 10 159
66 332 68 212 86 308 92 500 7 197 -5 308 -52 493 -40 160 -111 351 -222 600
-141 315 -161 366 -185 475 -21 95 -23 130 -23 375 0 236 3 286 23 396 58 321
114 459 353 860 96 161 152 227 224 267 l60 33 -47 -7 c-37 -5 -48 -3 -48 7 0
18 372 386 465 460 141 113 159 113 64 1 -34 -40 -59 -75 -56 -78 8 -8 77 58
112 106 57 80 86 109 121 120 29 10 35 17 40 51 9 57 38 89 79 89 23 0 45 9
67 29 35 30 90 61 108 61 7 0 -44 -54 -113 -120 -122 -117 -295 -332 -392
-485 -94 -148 -157 -243 -185 -278 -16 -22 -39 -56 -51 -77 -14 -24 -39 -48
-70 -65 -27 -14 -55 -36 -64 -48 -11 -17 -32 -24 -82 -32 -74 -11 -99 -35 -36
-35 l38 0 -29 -15 c-37 -20 -51 -38 -81 -102 -76 -163 -121 -548 -96 -810 14
-143 43 -269 107 -466 55 -170 71 -204 87 -188 20 20 37 12 37 -19 0 -17 7
-47 15 -67 17 -41 19 -79 5 -88 -17 -11 -11 -71 10 -98 11 -14 30 -29 41 -32
19 -6 19 -8 4 -19 -15 -11 -9 -36 65 -266 116 -365 141 -430 178 -473 14 -15
14 -18 2 -15 -25 5 -23 -80 4 -194 42 -170 58 -344 61 -658 2 -157 4 -289 4
-294 2 -22 30 20 36 55 4 21 11 41 16 45 5 3 9 52 9 109 0 110 8 129 40 100
29 -26 34 -75 17 -147 -9 -35 -18 -99 -22 -143 -3 -44 -8 -100 -10 -125 l-4
-45 13 30 c36 79 48 178 53 455 7 336 -12 545 -53 596 -14 17 -14 14 -9 -33 4
-29 2 -60 -3 -70 -10 -16 -11 -16 -20 8 -6 14 -18 66 -27 115 -25 135 -71 310
-131 501 -59 188 -63 212 -36 209 25 -2 18 69 -13 145 -29 67 -34 146 -10 155
8 4 15 10 15 14 0 9 -7 12 -95 46 -47 18 -54 23 -32 23 67 2 89 53 47 109 -12
16 -25 58 -31 97 -13 82 -43 168 -65 186 -14 11 -18 10 -29 -4 -7 -10 -16 -14
-19 -9 -3 5 -21 69 -41 143 -49 183 -63 360 -47 588 13 173 26 248 63 345 15
42 24 55 32 47 8 -8 8 -59 -1 -183 -36 -521 -18 -603 348 -1528 220 -557 285
-744 332 -955 18 -82 22 -133 22 -280 1 -198 -2 -222 -70 -499 -24 -98 -50
-217 -58 -265 -70 -410 20 -629 319 -777 157 -77 318 -104 352 -58 21 29 -1
38 -87 35 -124 -4 -184 12 -234 64 -22 23 -69 66 -104 95 -128 109 -192 254
-200 456 -5 144 10 227 69 377 22 53 39 106 39 117 0 11 7 20 15 20 8 0 18 16
24 38 21 78 83 539 79 587 -3 29 -28 108 -61 190 -81 201 -138 409 -108 390 7
-4 19 -23 27 -41 8 -19 21 -34 29 -34 30 0 13 38 -51 115 -73 87 -82 104 -117
197 -14 35 -38 86 -56 114 -36 59 -64 133 -57 151 3 7 13 13 21 13 14 0 14 4
-2 31 -10 17 -35 44 -55 61 -24 19 -38 38 -38 52 0 13 -9 31 -21 42 -47 42
-136 260 -190 461 -17 65 -38 129 -46 141 -30 48 -43 383 -24 617 8 90 21 149
75 326 82 270 148 434 230 569 35 58 71 121 80 142 20 42 137 158 160 158 9 0
16 8 16 19 0 25 66 97 114 124 22 12 54 42 71 67 17 25 45 52 62 60 16 8 64
41 105 72 41 31 135 94 209 139 74 45 154 96 179 113 24 17 49 34 54 38 19 13
0 18 -32 9 -20 -6 -32 -6 -32 0 0 5 2 9 4 9 19 0 171 33 211 46 219 70 504
194 555 241 14 13 77 60 141 104 64 44 142 102 173 129 55 48 58 49 84 36 15
-8 39 -30 55 -50 69 -88 201 -145 339 -146 117 0 189 24 281 92 40 30 82 60
95 67 13 7 21 18 19 25 -12 31 32 54 104 55 34 1 57 -7 95 -30z m-5864 -6 c25
-27 63 -92 56 -98 -10 -9 -218 -11 -234 -2 -34 18 -74 60 -74 79 0 29 33 21
70 -17 38 -40 67 -44 101 -15 23 19 23 21 6 34 -18 14 -11 26 23 39 24 9 25 8
52 -20z m2143 6 c11 -16 -4 -59 -20 -59 -10 0 -15 10 -15 28 0 39 20 56 35 31z
m272 -24 c-29 -26 -86 -41 -114 -31 -26 11 -2 26 56 35 29 4 57 13 63 19 7 7
14 9 17 6 3 -3 -6 -16 -22 -29z m-4057 16 c0 -16 -29 -33 -52 -29 -22 3 -22 4
7 20 34 20 45 22 45 9z m3890 -37 c0 -16 -26 -19 -35 -4 -4 6 -4 18 -1 27 5
12 9 13 21 3 8 -7 15 -19 15 -26z m434 21 c10 -27 -71 -45 -131 -29 -31 8 -29
20 5 32 44 17 119 14 126 -3z m299 8 c15 -15 -27 -43 -64 -43 -41 0 -56 12
-36 28 22 18 88 28 100 15z m-3319 -71 c-20 -31 -44 -3 -29 35 5 15 7 15 23 0
13 -14 14 -21 6 -35z m-124 6 c37 -60 22 -108 -33 -108 -41 0 -67 17 -67 45 0
39 -21 41 -52 4 -24 -28 -30 -31 -38 -19 -5 8 -10 27 -10 42 0 25 5 29 58 43
31 9 62 18 67 20 33 11 57 3 75 -27z m4385 0 c14 -6 25 -17 25 -24 0 -17 -57
-47 -76 -40 -20 8 -17 53 4 65 21 13 17 13 47 -1z m-1065 -13 c10 -12 5 -21
-30 -52 -54 -49 -93 -115 -94 -161 -1 -31 -5 -37 -31 -44 -47 -13 -406 -32
-447 -24 -47 9 -48 21 -3 36 21 7 35 18 35 28 0 9 11 40 25 67 13 28 25 61 25
75 1 59 35 68 260 71 85 1 169 5 185 9 47 12 62 11 75 -5z m-4690 -22 c-1 -5
-7 -19 -15 -33 -22 -38 -18 -50 20 -66 23 -9 35 -21 35 -34 0 -15 7 -20 28
-20 47 0 55 -13 30 -46 -160 -209 -298 -279 -298 -150 0 32 34 44 59 22 23
-21 34 -20 55 3 30 34 44 89 34 135 -11 52 -27 67 -75 75 -47 8 -54 32 -18 65
38 35 146 71 145 49z m1088 -5 c19 -19 14 -76 -7 -97 -57 -57 -192 -50 -235
10 -26 38 -20 54 26 66 50 13 58 10 58 -23 0 -29 32 -64 60 -64 23 0 26 25 9
64 -18 38 -5 56 39 56 21 0 43 -5 50 -12z m7392 -2 c0 -8 -11 -28 -24 -43 -32
-36 -52 -22 -35 25 8 24 17 32 35 32 14 0 24 -6 24 -14z m-4560 -15 c0 -11
-55 -31 -86 -31 -28 0 -42 19 -23 31 18 12 109 12 109 0z m4413 -23 c-14 -74
-53 -113 -61 -61 -3 17 50 93 64 93 2 0 1 -15 -3 -32z m-5836 7 c31 -8 93 -15
138 -16 44 0 89 -4 99 -8 38 -15 -6 -25 -139 -31 -147 -7 -175 -17 -224 -79
l-31 -39 57 -7 c32 -3 67 -10 78 -14 18 -7 16 -10 -15 -19 -19 -6 -60 -19 -90
-30 -30 -11 -93 -26 -139 -32 -46 -6 -154 -29 -240 -51 -164 -41 -363 -75
-381 -64 -5 3 -10 41 -10 83 0 49 -6 88 -15 106 -19 36 -19 36 4 36 30 0 33
15 7 39 -19 18 -33 21 -99 19 -75 -2 -107 8 -93 30 12 20 267 51 581 72 94 6
190 12 215 14 129 8 244 5 297 -9z m5703 -8 c0 -13 -5 -28 -12 -35 -18 -18
-63 -14 -82 7 -20 22 -14 43 9 35 7 -3 22 -1 32 5 31 18 53 13 53 -12z m-8360
-131 c0 -12 -7 -31 -15 -42 -15 -19 -15 -19 -30 0 -19 26 -19 45 2 68 20 22
43 8 43 -26z m1477 27 c5 -14 -43 -36 -98 -47 -21 -3 -49 -16 -64 -28 -62 -49
-49 -112 27 -124 l41 -7 -36 -18 c-19 -10 -53 -40 -74 -65 -86 -105 -103 -118
-228 -168 -246 -99 -544 -252 -592 -304 -40 -44 -69 -9 -104 125 -28 111 -26
148 11 181 16 15 56 53 88 84 48 47 85 70 203 127 343 165 807 302 826 244z
m2671 0 c-21 -2 -55 -2 -75 0 -21 2 -4 4 37 4 41 0 58 -2 38 -4z m-1185 -34
c81 -12 129 -35 106 -50 -26 -18 -272 7 -309 31 -43 28 71 39 203 19z m3356
-18 c-40 -31 -67 -42 -74 -31 -13 22 26 48 74 49 l24 1 -24 -19z m-1249 -116
c0 -16 -36 -28 -71 -23 -22 3 -21 4 11 20 43 22 60 22 60 3z m-2677 -42 c-13
-2 -33 -2 -45 0 -13 2 -3 4 22 4 25 0 35 -2 23 -4z m2487 -41 c0 -23 -44 -46
-95 -50 -30 -2 -55 -1 -55 2 0 4 24 18 53 31 52 25 97 32 97 17z m-396 -8 c33
-13 14 -24 -39 -24 -51 0 -65 7 -48 23 8 9 66 9 87 1z m-289 -24 c0 -20 -51
-38 -66 -23 -7 7 -9 19 -5 28 8 21 71 17 71 -5z m955 8 c0 -18 -79 -88 -101
-88 -25 0 -35 25 -18 46 30 36 119 68 119 42z m370 -2 c0 -24 -164 -155 -177
-142 -10 10 17 44 80 97 71 59 97 71 97 45z m-1730 -20 c0 -18 -30 -30 -43
-17 -5 5 -6 14 -3 20 10 16 46 13 46 -3z m220 0 c0 -14 -29 -31 -38 -22 -2 3
-2 12 1 21 8 19 37 20 37 1z m-1025 -21 c0 -13 -8 -21 -24 -23 -28 -4 -46 11
-37 33 9 25 61 16 61 -10z m329 16 c7 -11 -28 -21 -81 -21 -41 0 -65 14 -41
23 22 9 117 7 122 -2z m-639 -41 c-18 -20 -65 -28 -65 -12 0 11 30 38 50 44
26 9 35 -10 15 -32z m153 18 c3 -13 -3 -18 -22 -18 -27 0 -41 14 -31 31 10 16
49 6 53 -13z m-279 -7 c25 -16 1 -31 -50 -31 -36 0 -49 4 -49 14 0 22 71 34
99 17z m-150 -10 c29 -18 -33 -33 -178 -42 -80 -5 -200 -18 -266 -30 -208 -36
-192 -34 -177 -17 23 28 148 52 477 91 61 8 130 6 144 -2z m2006 -22 c89 -22
81 -59 -16 -84 -77 -20 -333 -52 -529 -65 -157 -11 -383 -9 -498 6 -58 7 -82
-5 -82 -39 0 -12 -20 -39 -46 -64 -51 -47 -49 -51 31 -55 28 -2 50 -7 50 -13
0 -5 -25 -19 -55 -29 -44 -16 -89 -20 -225 -23 -128 -2 -192 -8 -260 -24 -64
-15 -139 -22 -262 -26 l-172 -5 -65 31 c-92 44 -114 41 -188 -25 -20 -18 -56
-38 -80 -44 -24 -6 -110 -33 -193 -60 -82 -28 -170 -55 -194 -61 -28 -7 -55
-23 -76 -46 -29 -32 -36 -35 -69 -29 -40 8 -85 48 -134 119 -41 60 -42 60
-202 -26 -129 -70 -205 -126 -223 -164 -10 -23 -8 -28 18 -49 l30 -23 -18 -31
-18 -30 25 0 c14 0 26 -4 26 -9 0 -29 -171 -243 -247 -311 -95 -83 -180 -71
-237 35 -32 60 -31 212 2 274 72 136 336 397 432 426 13 4 36 16 50 26 23 17
171 86 312 145 75 32 408 117 578 148 193 35 518 67 980 96 159 10 805 29
1120 33 96 1 224 4 283 5 60 1 128 -3 152 -9z m200 -19 c10 -17 -14 -39 -57
-52 -54 -16 -70 1 -35 36 27 27 80 36 92 16z m-3014 -89 l24 -19 -27 -12 c-27
-13 -78 -7 -78 9 0 14 30 41 45 41 7 0 23 -9 36 -19z m3319 -36 c0 -16 -17
-41 -52 -75 -29 -27 -57 -50 -61 -50 -10 0 32 72 68 118 31 38 45 41 45 7z
m-3446 9 c27 -10 18 -21 -36 -42 -29 -11 -107 -41 -173 -67 -126 -49 -177 -55
-183 -22 -3 14 4 17 37 17 25 0 43 6 49 15 4 9 31 19 62 24 38 6 59 15 68 30
11 15 25 21 52 21 21 0 43 7 50 15 13 15 47 20 74 9z m8047 -40 c107 -31 189
-106 189 -174 0 -26 -8 -25 -39 4 -15 14 -77 50 -139 81 -112 56 -138 79 -111
96 20 12 38 11 100 -7z m-5737 -57 c21 -35 -43 -57 -66 -23 -9 14 22 48 40 44
8 -2 20 -11 26 -21z m-3473 -65 c10 -31 27 -83 40 -115 24 -63 20 -80 -12 -51
-30 26 -55 86 -69 162 -19 105 11 109 41 4z m4553 -23 c-59 -61 -91 -85 -101
-76 -7 8 66 86 111 119 61 44 56 24 -10 -43z m-3808 30 c10 -16 -6 -26 -53
-34 -38 -6 -43 -5 -43 12 0 11 3 23 7 26 11 11 81 8 89 -4z m-833 -58 c9 -16
17 -38 17 -50 0 -11 20 -45 45 -76 50 -61 68 -97 59 -120 -7 -17 -27 -14 -76
11 -32 16 -48 43 -48 77 0 14 -7 41 -15 60 -16 38 -21 127 -7 127 4 0 15 -13
25 -29z m685 -8 c-4 -23 -48 -31 -48 -10 0 9 6 18 13 20 25 11 38 7 35 -10z
m3672 -33 c-38 -28 -153 -72 -181 -68 -23 3 -22 4 11 22 41 23 159 65 180 65
10 1 6 -6 -10 -19z m-3799 -20 c26 -15 24 -30 -5 -30 -25 0 -51 22 -39 33 9
10 21 9 44 -3z m3203 -3 c17 -12 14 -17 -33 -57 -54 -45 -63 -72 -29 -94 13
-8 22 -5 41 12 24 23 47 29 47 13 0 -17 -60 -60 -113 -79 -114 -43 -275 -68
-919 -143 -224 -26 -232 -25 -222 40 4 28 1 42 -14 61 -17 21 -30 25 -91 28
-174 10 -371 -50 -371 -112 0 -13 10 -30 22 -38 l23 -15 -33 -17 c-17 -9 -38
-29 -46 -44 -23 -45 -48 -61 -172 -108 -65 -24 -208 -90 -317 -144 -108 -55
-206 -100 -217 -100 -30 0 -25 41 8 72 15 14 51 38 80 54 91 48 124 110 88
159 -14 19 -14 19 -33 -3 -10 -12 -40 -37 -68 -55 -30 -19 -51 -42 -55 -57 -4
-17 -24 -35 -65 -58 -65 -35 -119 -86 -112 -105 2 -7 19 -11 40 -9 37 3 53 -9
40 -31 -4 -7 -101 -104 -214 -215 l-206 -202 -36 28 c-50 38 -67 72 -67 132 0
77 44 162 135 258 133 142 332 275 610 408 229 109 374 154 502 154 55 0 71 3
67 13 -7 20 167 64 341 87 283 36 634 72 653 66 9 -3 24 -25 32 -48 11 -31 20
-43 35 -43 18 0 20 7 20 60 0 33 4 66 8 72 12 18 84 35 118 28 23 -5 29 -13
34 -43 12 -70 15 -82 28 -82 17 0 37 20 37 36 0 7 -11 25 -25 40 -31 34 -20
60 31 70 55 10 97 -6 113 -44 18 -39 30 -40 62 -6 29 31 55 43 134 59 80 17
88 17 109 2z m304 -94 c-2 -12 -21 -20 -66 -28 -61 -11 -80 -7 -67 16 11 17
46 28 93 28 36 1 43 -2 40 -16z m-3661 -59 c6 -17 -45 -40 -59 -26 -18 18 -1
44 29 40 14 -2 28 -8 30 -14z m1567 -13 c18 -7 18 -8 -5 -24 -28 -21 -40 -21
-64 -4 -37 28 16 49 69 28z m-1980 -17 c23 -9 20 -34 -3 -34 -22 0 -35 15 -26
30 7 12 8 12 29 4z m1804 -16 c2 -11 -6 -22 -23 -30 -21 -10 -29 -9 -42 5 -14
13 -14 19 -3 32 17 21 64 16 68 -7z m-162 -49 c10 -16 -10 -31 -37 -27 -22 3
-22 4 -5 21 20 20 32 22 42 6z m1594 -189 c0 -11 -101 -42 -215 -67 -100 -21
-298 -24 -317 -5 -11 11 -9 17 11 33 28 23 72 24 134 3 43 -15 53 -15 129 2
189 40 258 49 258 34z m40 -69 c0 -10 -41 -25 -97 -36 -18 -4 -33 -4 -33 -1 0
4 15 15 33 26 33 20 97 27 97 11z m-706 -27 c9 -11 39 -18 101 -24 50 -4 104
-14 122 -21 27 -11 49 -10 140 5 59 10 118 22 130 27 28 11 40 -6 14 -20 -11
-6 -43 -16 -73 -22 -29 -6 -67 -20 -84 -30 -39 -24 -126 -26 -148 -4 -38 38
-94 37 -176 -5 -42 -21 -104 -88 -141 -152 -34 -57 -66 -81 -219 -162 l-125
-65 -95 29 c-52 17 -101 30 -110 30 -17 0 -131 -112 -149 -147 -21 -42 26 -91
75 -79 13 4 24 2 24 -3 0 -5 -27 -50 -60 -99 -33 -50 -64 -103 -70 -117 -5
-14 -17 -25 -25 -25 -9 0 -33 -17 -54 -39 -30 -30 -48 -40 -87 -45 -32 -5 -55
-15 -65 -28 -22 -29 -40 -15 -32 25 l6 32 -33 -30 c-42 -39 -85 -124 -71 -138
7 -7 16 -6 29 6 18 16 42 23 42 12 0 -3 -11 -26 -24 -52 -14 -27 -32 -74 -41
-105 -17 -61 -35 -78 -80 -78 -39 0 -78 24 -124 76 -81 92 -112 252 -63 322
26 36 77 66 98 58 21 -8 17 -24 -11 -50 -27 -25 -34 -66 -11 -66 8 0 21 9 29
20 13 18 27 18 27 -1 0 -4 -16 -26 -35 -49 -46 -55 -45 -70 3 -70 20 0 46 -7
56 -15 27 -21 35 -19 46 11 6 14 22 41 36 60 23 30 24 34 8 34 -10 0 -28 -10
-41 -22 -30 -28 -40 -17 -20 25 9 19 21 73 26 121 17 151 81 246 208 314 82
43 89 53 58 82 -36 33 -18 51 44 43 36 -4 55 -1 74 12 37 24 34 8 -5 -32 -29
-30 -30 -33 -11 -33 11 0 35 11 54 25 19 14 54 38 79 54 111 73 122 92 65 115
-64 27 -98 117 -47 124 55 8 112 -38 112 -90 0 -37 18 -36 71 5 50 38 57 53
29 60 -15 4 -20 13 -20 39 0 19 3 38 7 41 11 11 33 -14 33 -38 0 -35 24 -49
73 -42 48 7 347 117 371 136 9 8 16 23 16 36 0 37 24 47 44 19z m7110 -87 c72
-74 154 -236 144 -284 -3 -12 -26 15 -69 82 -36 55 -76 105 -90 112 -13 6 -50
23 -81 37 -46 20 -58 30 -58 47 0 34 28 59 67 59 29 0 44 -9 87 -53z m-6387
-53 c5 -15 -41 -34 -84 -34 -30 0 -34 2 -23 15 23 28 99 42 107 19z m467 -39
c-7 -33 -42 -77 -55 -69 -8 5 10 64 31 105 16 30 32 5 24 -36z m-124 30 c10
-13 11 -18 1 -28 -10 -9 -15 -8 -26 7 -23 31 1 50 25 21z m-172 -76 c3 -38
-33 -101 -87 -153 l-31 -30 0 30 c0 52 29 131 60 164 36 38 54 35 58 -11z
m122 29 c0 -14 -40 -58 -52 -58 -13 0 -9 24 8 48 16 23 44 30 44 10z m-520
-62 c0 -8 -192 -113 -263 -145 -35 -16 -90 -34 -120 -41 -31 -6 -61 -18 -67
-25 -7 -8 -16 -12 -22 -9 -16 10 12 33 96 79 154 83 376 167 376 141z m185
-25 c7 -12 -34 -41 -57 -41 -25 0 -23 16 4 34 25 18 44 20 53 7z m825 -130 c0
-33 -16 -49 -32 -33 -14 14 -1 62 17 62 10 0 15 -10 15 -29z m-2563 -28 c4
-11 -45 -43 -67 -43 -17 0 -11 38 8 49 21 13 54 10 59 -6z m2628 -4 c11 -16
-4 -59 -20 -59 -10 0 -15 10 -15 28 0 39 20 56 35 31z m-1165 -13 c0 -8 -43
-51 -95 -97 -52 -46 -95 -85 -95 -86 0 -7 39 17 45 27 12 20 91 53 123 52 25
-1 32 3 32 18 0 25 32 42 72 38 l31 -3 -109 -118 c-60 -65 -127 -132 -148
-148 -38 -28 -40 -28 -53 -9 -7 10 -27 26 -45 34 -32 16 -32 16 -71 -21 -50
-49 -137 -164 -137 -182 0 -9 8 -12 26 -8 20 3 27 -1 34 -19 11 -27 41 -32 60
-9 26 31 19 6 -20 -79 -50 -111 -93 -245 -88 -282 3 -25 6 -20 27 36 13 36 37
94 54 129 25 53 36 66 71 82 22 10 49 19 59 19 29 0 19 -20 -13 -27 -33 -6
-50 -28 -50 -63 0 -12 -9 -33 -20 -47 -11 -14 -20 -31 -20 -38 0 -7 -10 -34
-22 -61 -20 -44 -22 -66 -23 -216 0 -125 3 -170 13 -180 21 -21 37 11 67 135
33 137 52 185 76 198 11 5 19 18 19 28 0 10 9 40 21 66 22 50 19 95 -6 95 -25
0 -17 17 28 55 48 42 103 72 114 62 3 -4 -3 -20 -14 -35 -69 -94 -136 -299
-204 -632 -11 -52 -28 -107 -39 -122 -22 -30 -27 -107 -9 -125 6 -6 14 -85 19
-189 8 -185 12 -207 54 -272 14 -22 41 -91 62 -153 48 -147 134 -356 173 -419
l30 -49 -32 -25 c-59 -44 -94 -56 -160 -56 -83 0 -168 41 -243 117 -69 71
-110 154 -135 278 -11 55 -27 107 -35 115 -14 14 -15 11 -9 -27 4 -23 4 -47 0
-53 -12 -19 -43 18 -60 70 -9 26 -31 66 -51 88 -54 63 -154 306 -154 373 0 12
-15 53 -32 92 -33 72 -33 72 -33 237 0 135 4 186 24 280 50 243 132 435 253
595 118 155 228 254 190 170 -14 -31 -16 -65 -3 -65 27 0 131 144 131 182 0
38 181 201 265 239 48 22 55 23 55 5z m-475 -56 c8 -13 -13 -40 -31 -40 -17 0
-18 22 -2 38 15 15 25 15 33 2z m95 -18 c0 -17 -46 -52 -70 -52 -16 0 14 41
42 57 29 16 28 16 28 -5z m-1155 -13 c0 -8 -10 -15 -22 -17 -25 -4 -33 22 -10
31 18 8 32 2 32 -14z m2005 12 c0 -5 -7 -11 -14 -14 -8 -3 -23 -21 -32 -39
-19 -38 -32 -48 -51 -41 -20 8 -16 27 15 55 42 40 82 58 82 39z m-2240 -46 c0
-19 -28 -38 -45 -31 -20 7 -19 33 2 44 20 12 43 5 43 -13z m1944 -39 c-3 -8
-31 -31 -62 -52 -31 -20 -79 -58 -107 -84 -53 -49 -94 -80 -107 -80 -45 0 119
161 217 213 38 20 66 22 59 3z m-1860 -15 c10 -11 16 -30 14 -42 -3 -22 -4
-22 -40 10 -21 18 -38 37 -38 42 0 17 47 9 64 -10z m796 -37 c0 -23 -39 -74
-56 -74 -21 0 -17 33 7 64 23 29 49 35 49 10z m1821 -149 c-8 -38 -9 -36 -10
32 -1 39 2 80 7 90 11 28 14 -75 3 -122z m-1951 38 c0 -31 -33 -84 -100 -156
-37 -42 -86 -107 -109 -145 -44 -75 -64 -97 -81 -87 -6 4 -26 -10 -45 -32
l-34 -38 -1 31 c0 24 12 43 53 86 30 30 70 84 90 121 21 36 55 80 77 97 22 17
40 37 40 44 0 18 48 79 73 92 25 14 37 10 37 -13z m1121 -70 c-5 -10 -24 -31
-42 -48 l-32 -30 33 48 c32 45 61 66 41 30z m-1071 -81 c0 -15 -54 -59 -100
-82 -25 -12 -53 -29 -63 -38 -9 -8 -20 -12 -25 -8 -9 10 58 69 123 106 53 31
65 35 65 22z m7708 -67 c2 -41 -15 -87 -33 -88 -12 -1 -98 103 -91 110 9 9 70
21 96 20 22 -2 25 -7 28 -42z m-6969 -31 c-34 -35 -49 -42 -49 -23 0 19 73 85
78 71 2 -8 -11 -29 -29 -48z m231 44 c0 -25 -12 -58 -21 -58 -10 0 -12 53 -2
63 10 11 23 8 23 -5z m-980 -55 c0 -12 -33 -43 -47 -43 -17 0 -17 10 4 32 16
18 43 25 43 11z m-165 -140 c-7 -40 -24 -77 -31 -70 -2 2 1 27 8 56 13 59 34
71 23 14z m-227 -175 c3 -48 21 -64 39 -34 5 7 34 16 67 19 l59 6 -6 -77 c-3
-51 -14 -98 -32 -141 -18 -45 -23 -67 -16 -74 16 -16 36 17 60 98 40 133 53
128 59 -23 6 -142 2 -147 -112 -139 -121 8 -194 46 -216 113 -10 31 -9 44 9
94 21 56 21 61 6 91 -10 18 -14 41 -11 55 9 35 43 66 69 62 19 -3 22 -10 25
-50z m1422 -74 c-6 -43 -15 -110 -20 -149 -16 -118 -12 -338 6 -384 15 -37 15
-44 -1 -92 -22 -66 -12 -78 44 -49 23 11 46 18 51 15 6 -3 10 -22 10 -42 0
-48 20 -113 35 -113 7 0 15 -8 18 -17 3 -10 35 -103 71 -208 49 -140 63 -191
54 -196 -7 -3 -36 -12 -65 -19 -35 -8 -67 -25 -97 -51 -69 -61 -75 -57 -73 64
2 109 -13 156 -62 201 -25 23 -26 33 -4 76 16 32 15 42 -13 219 -38 244 -40
496 -5 660 22 103 47 179 56 169 3 -2 0 -40 -5 -84z m934 40 c13 -5 15 -15 10
-43 -8 -43 -31 -84 -44 -76 -14 9 -12 99 2 113 14 14 12 14 32 6z m-2033 -276
c-16 -52 -35 -50 -27 3 4 23 12 51 19 63 11 21 12 21 15 -4 2 -13 -1 -41 -7
-62z m918 -203 c-5 -38 -14 -74 -20 -80 -16 -16 -29 16 -23 55 6 33 42 105 50
98 2 -2 -1 -35 -7 -73z m1235 39 c9 -3 13 -10 10 -15 -8 -14 -38 -11 -60 6
-18 14 -18 14 8 15 14 0 33 -3 42 -6z m-990 -65 c6 -31 -7 -69 -24 -69 -6 0
-10 28 -10 61 0 51 2 60 14 50 7 -6 16 -25 20 -42z m-237 -349 l-3 -35 -12 28
c-7 16 -12 52 -11 80 l1 52 14 -45 c8 -25 13 -61 11 -80z m98 -3 c3 -23 9 -50
11 -59 3 -10 1 -18 -4 -18 -10 0 -32 82 -32 116 0 31 19 2 25 -39z m-56 -169
c5 -29 13 -73 16 -98 4 -25 22 -78 41 -118 38 -82 134 -357 134 -385 0 -27
-21 -16 -57 31 -84 110 -198 525 -167 606 11 29 22 17 33 -36z m1444 -320 c3
-21 2 -38 -3 -38 -11 0 -20 27 -20 63 0 41 16 23 23 -25z m-994 -88 c163 -87
306 -285 331 -458 5 -40 22 -101 36 -135 49 -115 66 -212 44 -247 -13 -21 -25
-5 -45 65 -29 105 -56 115 -171 66 -38 -16 -101 -38 -140 -50 -40 -12 -77 -28
-84 -36 -7 -8 -23 -15 -35 -15 -36 0 -164 69 -188 102 -12 16 -37 36 -55 44
-42 17 -36 30 46 102 67 58 88 101 77 160 -3 20 -7 53 -8 72 -2 34 -1 35 31
32 23 -1 32 2 32 13 0 17 -52 123 -100 204 l-30 52 22 20 c66 58 140 60 237 9z
m1037 -34 c3 -14 4 -33 2 -43 -3 -15 -7 -13 -20 12 -8 17 -19 41 -23 53 -6 22
-5 23 14 13 11 -7 23 -22 27 -35z m199 -566 c8 -24 -1 -40 -21 -40 -8 0 -14
10 -14 23 0 40 24 51 35 17z m-1177 -263 c12 -11 22 -27 22 -34 0 -11 -5 -11
-22 -2 -30 15 -68 50 -68 61 0 14 42 -2 68 -25z m1190 -44 c4 -24 -39 -60 -58
-48 -11 7 -14 58 -3 69 4 4 19 6 33 4 17 -2 26 -10 28 -25z m-869 -52 c7 -13
6 -24 -3 -36 -13 -18 -14 -18 -25 4 -13 24 -8 51 8 51 6 0 15 -8 20 -19z"/>
<path d="M5220 11658 c0 -7 5 -20 10 -28 9 -13 11 -13 19 -1 5 8 7 20 4 28 -6
17 -33 17 -33 1z"/>
<path d="M5116 11398 c-8 -31 -8 -103 1 -111 21 -22 51 59 39 108 -8 31 -32
33 -40 3z"/>
<path d="M5264 11386 c-9 -23 0 -79 13 -83 16 -5 27 39 19 72 -7 27 -24 33
-32 11z"/>
<path d="M4755 11151 c-9 -16 4 -68 22 -86 14 -14 63 -21 63 -10 0 32 -73 114
-85 96z"/>
<path d="M4650 11105 c0 -26 4 -33 14 -29 21 8 28 34 15 50 -19 23 -29 16 -29
-21z"/>
<path d="M4558 10873 c-20 -33 -18 -113 2 -113 12 0 23 39 22 74 -1 30 -16 54
-24 39z"/>
<path d="M5347 10844 c-19 -19 3 -101 24 -89 5 4 9 16 9 28 -1 28 -24 70 -33
61z"/>
<path d="M5174 10816 c-8 -20 11 -66 26 -66 15 0 12 42 -5 64 -13 18 -15 18
-21 2z"/>
<path d="M5264 10816 c-9 -23 0 -79 13 -83 16 -5 27 39 19 72 -7 27 -24 33
-32 11z"/>
<path d="M4875 10260 c-9 -15 4 -30 26 -30 23 0 26 25 3 34 -21 8 -22 8 -29
-4z"/>
<path d="M4442 10005 c26 -28 357 -61 372 -37 9 14 -28 20 -184 27 -69 3 -141
9 -160 12 -19 3 -32 2 -28 -2z"/>
<path d="M3280 9828 c36 -14 240 -24 240 -10 0 18 -29 22 -148 21 -91 0 -111
-3 -92 -11z"/>
<path d="M3613 9733 c15 -2 39 -2 55 0 15 2 2 4 -28 4 -30 0 -43 -2 -27 -4z"/>
<path d="M1525 8518 c-64 -8 -108 -29 -93 -44 10 -9 239 13 251 25 21 21 -63
32 -158 19z"/>
<path d="M4718 7534 c-22 -7 -23 -20 -2 -28 44 -17 157 -1 126 18 -13 8 -105
15 -124 10z"/>
<path d="M4942 7524 c-27 -12 2 -24 61 -24 45 0 58 3 50 11 -13 13 -91 22
-111 13z"/>
<path d="M4366 7451 c-3 -5 22 -13 57 -17 76 -10 368 -7 380 5 4 4 -56 11
-135 14 -197 9 -296 9 -302 -2z"/>
<path d="M2898 7439 c-32 -4 -68 -13 -80 -20 -38 -20 3 -31 74 -19 35 5 87 10
116 10 37 0 52 4 52 14 0 25 -60 30 -162 15z"/>
<path d="M5068 7443 c12 -2 30 -2 40 0 9 3 -1 5 -23 4 -22 0 -30 -2 -17 -4z"/>
<path d="M7402 7139 c2 -8 33 -24 69 -36 77 -27 162 -28 167 -1 4 22 -48 37
-157 45 -69 5 -83 4 -79 -8z"/>
<path d="M6160 7228 c-19 -11 -30 -23 -23 -25 16 -6 83 24 83 36 0 17 -22 13
-60 -11z"/>
<path d="M4822 5848 c-48 -48 -58 -79 -18 -52 24 15 76 76 76 88 0 15 -20 2
-58 -36z"/>
<path d="M4798 5659 c-10 -5 -22 -19 -28 -29 -15 -28 13 -27 40 2 31 34 25 49
-12 27z"/>
<path d="M4720 5535 c-13 -14 -21 -28 -18 -31 9 -9 46 14 58 36 16 30 -11 26
-40 -5z"/>
<path d="M4650 5418 c-101 -44 -153 -71 -142 -75 12 -5 178 61 197 78 13 12
-24 10 -55 -3z"/>
<path d="M4387 5274 c-4 -4 -7 -21 -7 -38 l1 -31 20 24 c20 24 21 42 3 48 -6
2 -13 0 -17 -3z"/>
<path d="M4244 4525 c-7 -52 2 -118 17 -110 12 8 12 155 0 155 -6 0 -13 -20
-17 -45z"/>
<path d="M4560 3223 c0 -24 57 -193 71 -208 26 -27 -17 132 -54 201 -14 26
-16 27 -17 7z"/>
<path d="M4820 3050 c0 -6 9 -23 19 -38 26 -35 89 -223 131 -387 18 -71 37
-134 42 -139 13 -16 9 87 -7 166 -37 174 -138 408 -177 408 -4 0 -8 -5 -8 -10z"/>
<path d="M4657 2938 c3 -18 23 -91 45 -161 21 -71 58 -228 84 -350 48 -233 72
-301 59 -167 -19 207 -154 710 -190 710 -2 0 -2 -15 2 -32z"/>
<path d="M9147 2793 c13 -43 30 -123 37 -178 l12 -100 9 59 c18 130 -18 296
-63 296 -19 0 -19 -2 5 -77z"/>
<path d="M9107 2704 c-11 -11 -8 -182 3 -189 17 -11 32 48 28 112 -4 60 -16
91 -31 77z"/>
<path d="M4864 1916 c-8 -32 -1 -203 9 -212 16 -16 21 12 22 111 0 68 -4 108
-12 116 -9 9 -13 6 -19 -15z"/>
<path d="M7934 1778 c3 -17 26 -65 51 -107 25 -41 45 -81 45 -89 0 -7 4 -11 9
-8 12 8 -2 66 -26 113 -64 123 -92 155 -79 91z"/>
<path d="M8030 1767 c0 -8 14 -52 30 -97 18 -50 30 -101 30 -131 0 -52 12 -63
31 -27 26 48 -15 200 -67 249 -19 18 -24 19 -24 6z"/>
<path d="M4468 1609 c-14 -35 -20 -107 -9 -113 6 -4 14 -1 17 7 8 21 0 125 -8
106z"/>
<path d="M4522 1503 c-5 -10 -19 -67 -32 -128 -18 -89 -22 -128 -17 -202 6
-85 5 -93 -13 -103 -22 -12 -26 -50 -8 -68 19 -19 29 -14 22 13 -5 22 -3 25
21 25 18 0 29 6 32 20 8 30 15 24 43 -32 27 -56 50 -73 50 -37 0 12 -16 81
-36 152 -34 121 -36 139 -31 227 7 132 -5 183 -31 133z"/>
<path d="M4324 1239 c5 -89 23 -179 36 -179 4 0 10 14 14 31 5 28 9 31 36 27
17 -3 33 -1 35 2 5 8 -21 115 -31 132 -3 5 -16 0 -29 -12 -20 -19 -23 -19 -29
-5 -3 9 -6 24 -6 34 0 9 -7 26 -16 37 -14 17 -15 12 -10 -67z"/>
<path d="M7095 965 c3 -17 10 -57 15 -90 l9 -60 -2 77 c-2 46 -7 82 -15 90
-10 10 -11 6 -7 -17z"/>
<path d="M7238 885 c-15 -67 -21 -158 -10 -151 14 8 24 78 20 136 -3 41 -4 43
-10 15z"/>
<path d="M4745 6949 c-97 -23 -51 -44 81 -37 86 5 123 20 94 38 -19 12 -122
11 -175 -1z"/>
<path d="M4808 6833 c12 -2 32 -2 45 0 12 2 2 4 -23 4 -25 0 -35 -2 -22 -4z"/>
<path d="M656 6404 c-19 -50 8 -195 34 -179 11 7 14 135 4 173 -7 25 -29 29
-38 6z"/>
<path d="M2829 6350 c-122 -8 -145 -16 -104 -37 19 -10 25 -20 22 -34 -7 -25
11 -24 40 2 31 30 81 36 382 50 141 6 265 15 276 20 24 9 -467 9 -616 -1z"/>
<path d="M2430 6314 c-144 -14 -188 -23 -192 -39 -5 -19 59 -16 228 10 268 42
248 57 -36 29z"/>
<path d="M3355 6276 c-19 -14 -16 -15 33 -16 39 0 53 4 50 13 -7 18 -60 20
-83 3z"/>
<path d="M2903 6203 c-23 -9 -14 -20 22 -26 41 -7 165 9 179 23 10 10 -177 13
-201 3z"/>
<path d="M2621 6177 c-29 -14 -39 -37 -17 -37 26 0 86 28 86 39 0 15 -39 14
-69 -2z"/>
<path d="M1326 6060 c-28 -11 -57 -27 -65 -36 -15 -15 -13 -16 20 -11 53 8
109 34 109 51 0 20 -4 20 -64 -4z"/>
<path d="M1051 5494 c-57 -53 -72 -74 -52 -74 15 0 99 69 121 100 36 51 -2 37
-69 -26z"/>
<path d="M4075 6010 c-10 -16 4 -30 29 -30 29 0 39 10 25 27 -13 15 -45 17
-54 3z"/>
<path d="M2717 3978 c-17 -13 -43 -134 -34 -161 2 -6 19 -12 37 -12 31 0 35
-3 42 -39 15 -70 48 -86 59 -30 6 32 3 36 35 -43 9 -24 22 -34 50 -42 20 -6
47 -20 60 -32 52 -48 64 -10 64 197 l0 143 -32 5 c-18 3 -62 8 -98 11 -36 3
-87 8 -115 11 -34 4 -56 1 -68 -8z"/>
<path d="M2970 2884 c0 -24 26 -112 39 -133 8 -12 12 -12 26 2 9 10 25 17 36
17 14 0 19 5 17 18 -3 12 -13 17 -35 16 -26 -2 -32 2 -36 25 -3 15 -15 38 -26
52 -19 23 -20 23 -21 3z"/>
<path d="M3206 2881 c-3 -4 0 -28 8 -52 l13 -44 8 37 c4 21 5 45 1 53 -6 17
-22 20 -30 6z"/>
<path d="M3543 3331 c1 -41 7 -66 15 -69 16 -5 15 32 -3 88 l-14 45 2 -64z"/>
<path d="M3640 3113 c0 -16 6 -38 14 -49 14 -18 15 -18 22 0 8 22 -6 68 -23
74 -9 2 -13 -7 -13 -25z"/>
<path d="M3732 2633 c61 -127 118 -355 118 -479 0 -65 16 -112 32 -96 39 39
-40 420 -119 577 -16 32 -52 75 -63 75 -3 0 11 -35 32 -77z"/>
<path d="M3962 2539 c2 -8 24 -68 48 -134 23 -66 52 -145 64 -175 l21 -55 3
37 c4 45 -45 195 -89 273 -29 52 -59 86 -47 54z"/>
<path d="M3700 2335 c0 -37 18 -85 32 -85 11 0 10 23 -3 76 -14 52 -29 58 -29
9z"/>
</g>
</svg>
