<?xml version="1.0" standalone="no"?>
<!DOCTYPE svg PUBLIC "-//W3C//DTD SVG 20010904//EN"
 "http://www.w3.org/TR/2001/REC-SVG-20010904/DTD/svg10.dtd">
<svg version="1.0" xmlns="http://www.w3.org/2000/svg"
 width="1280.000000pt" height="908.000000pt" viewBox="0 0 1280.000000 908.000000"
 preserveAspectRatio="xMidYMid meet">
<metadata>
Created by potrace 1.15, written by Peter Selinger 2001-2017
</metadata>
<g transform="translate(0.000000,908.000000) scale(0.100000,-0.100000)"
fill="#00bcd4" stroke="none">
<path d="M5995 9074 c-247 -12 -493 -27 -640 -40 -1460 -126 -2794 -511 -3764
-1087 -1211 -719 -1762 -1664 -1545 -2646 75 -337 250 -669 515 -976 667 -773
1837 -1371 3334 -1704 872 -194 1815 -281 2803 -259 1841 41 3563 497 4702
1246 269 176 434 307 634 501 514 501 766 1032 766 1613 -1 1121 -1024 2145
-2766 2769 -861 308 -1788 490 -2869 565 -203 14 -1003 26 -1170 18z m1190
-218 c238 -18 260 -20 515 -47 1900 -202 3554 -882 4350 -1786 289 -329 451
-634 523 -987 19 -95 22 -141 21 -326 0 -241 -14 -330 -80 -530 -195 -591
-755 -1168 -1564 -1613 -1952 -1071 -5093 -1322 -7590 -606 -1339 385 -2344
1003 -2842 1749 -135 203 -240 448 -289 680 -20 90 -23 136 -23 320 -1 185 2
231 21 326 72 353 234 658 523 987 461 524 1237 992 2185 1317 903 309 1917
488 3030 534 200 8 1024 -4 1220 -18z"/>
<path d="M11015 2943 c-291 -35 -498 -117 -636 -253 -107 -106 -134 -164 -134
-290 0 -88 2 -100 34 -160 70 -134 229 -251 437 -319 270 -88 617 -88 888 0
242 79 411 216 460 373 26 82 19 185 -19 263 -56 114 -198 231 -362 298 -178
72 -476 111 -668 88z m313 -153 c429 -54 694 -284 572 -496 -84 -147 -324
-257 -621 -285 -376 -36 -779 105 -869 303 -127 279 383 545 918 478z"/>
<path d="M11400 1695 c-287 -64 -474 -211 -509 -400 -21 -111 19 -216 118
-315 128 -127 317 -198 556 -207 268 -11 490 57 637 196 94 88 133 167 133
271 0 63 -5 86 -31 140 -67 142 -213 243 -439 306 -84 23 -376 29 -465 9z
m401 -150 c205 -39 357 -147 384 -274 26 -122 -115 -261 -330 -323 -70 -20
-102 -23 -245 -23 -184 1 -241 12 -365 69 -204 96 -266 252 -152 382 137 155
421 223 708 169z"/>
<path d="M11952 649 c-243 -43 -402 -169 -402 -318 0 -134 122 -247 330 -304
107 -29 333 -29 440 0 209 58 330 169 330 303 0 133 -116 242 -321 300 -85 25
-290 35 -377 19z m301 -154 c143 -30 247 -100 247 -165 0 -92 -196 -180 -401
-180 -200 0 -399 90 -399 180 0 64 104 135 243 165 82 18 226 18 310 0z"/>
</g>
</svg>
