<?xml version="1.0" standalone="no"?>
<!DOCTYPE svg PUBLIC "-//W3C//DTD SVG 20010904//EN"
 "http://www.w3.org/TR/2001/REC-SVG-20010904/DTD/svg10.dtd">
<svg version="1.0" xmlns="http://www.w3.org/2000/svg"
 width="1280.000000pt" height="1028.000000pt" viewBox="0 0 1280.000000 1028.000000"
 preserveAspectRatio="xMidYMid meet">
<metadata>
Created by potrace 1.15, written by Peter Selinger 2001-2017
</metadata>
<g transform="translate(0.000000,1028.000000) scale(0.100000,-0.100000)"
fill="#4caf50" stroke="none">
<path d="M6970 10269 c-295 -37 -500 -189 -624 -461 -34 -74 -97 -259 -136
-398 -66 -233 -138 -410 -209 -513 -38 -56 -114 -125 -145 -133 -75 -19 -111
30 -110 151 1 85 26 170 108 365 19 47 48 130 63 185 25 90 28 115 28 260 0
141 -3 167 -23 224 -28 77 -80 161 -135 218 l-40 42 -100 -51 c-197 -101 -404
-256 -508 -381 -284 -340 -338 -709 -174 -1187 29 -85 69 -200 89 -255 33 -90
36 -108 34 -185 -4 -101 -26 -154 -79 -182 -59 -32 -114 -10 -153 62 -35 64
-53 176 -76 459 -37 469 -83 675 -190 840 -95 146 -286 220 -650 251 -63 5
-131 10 -151 10 l-35 0 -52 -162 c-82 -260 -97 -342 -96 -548 0 -160 3 -182
27 -263 73 -237 185 -396 553 -783 122 -127 233 -252 247 -277 42 -71 100
-254 101 -314 0 -42 -5 -57 -24 -78 -51 -54 -145 -50 -203 10 -25 26 -44 69
-85 192 -86 256 -195 456 -315 581 -66 69 -177 138 -249 156 -35 8 -89 25
-122 36 -149 53 -434 3 -669 -117 -49 -25 -86 -51 -84 -57 15 -40 85 -264 141
-451 158 -536 299 -742 580 -849 171 -66 274 -70 471 -21 115 28 221 32 286
10 24 -8 71 -37 103 -63 86 -69 84 -68 96 -56 19 19 -1 64 -56 124 -71 76
-154 129 -305 194 -219 94 -382 205 -519 353 -89 96 -180 232 -205 307 -18 53
-18 57 -2 74 24 23 96 21 172 -7 195 -70 495 -320 665 -556 83 -114 162 -199
205 -219 47 -23 111 -20 153 6 44 27 104 120 132 204 93 278 -18 658 -303
1040 -159 213 -228 343 -282 529 -59 204 -46 447 26 486 59 31 188 -124 328
-393 125 -240 162 -350 190 -565 37 -285 97 -451 197 -542 123 -113 199 -64
328 209 88 187 124 329 133 520 6 152 -9 259 -69 496 -64 252 -58 359 33 561
58 131 174 283 214 283 30 0 40 -70 38 -260 l-1 -185 -56 -224 c-110 -443
-111 -626 -5 -702 29 -21 45 -24 114 -24 71 0 89 4 147 33 87 43 158 102 234
193 132 160 228 331 363 647 198 463 301 612 372 541 19 -19 21 -29 16 -77 -7
-70 -92 -243 -216 -441 -95 -152 -124 -219 -119 -272 7 -70 32 -67 273 39 529
231 997 314 1267 226 26 -9 50 -19 52 -22 2 -4 -80 -7 -182 -7 -212 -1 -317
-17 -540 -84 -490 -148 -1135 -520 -1529 -883 -529 -488 -924 -1161 -1118
-1910 -33 -127 -29 -166 20 -215 27 -27 41 -33 74 -33 44 0 42 -2 71 76 16 45
52 59 96 38 69 -33 75 -63 60 -304 -13 -210 14 -304 128 -442 222 -268 592
-364 947 -245 l72 24 -6 -101 c-10 -155 -72 -418 -109 -464 -6 -7 -9 -15 -6
-17 9 -9 155 209 247 368 162 281 270 602 288 859 9 133 21 82 22 -92 1 -188
-29 -393 -84 -583 l-16 -57 -49 0 c-70 0 -83 -23 -88 -154 -4 -85 -9 -111 -33
-165 -36 -79 -37 -106 -4 -127 49 -32 195 13 278 85 35 31 37 31 70 17 59 -24
197 -210 185 -247 -2 -6 -30 -20 -63 -30 -58 -18 -59 -18 -73 2 -7 10 -26 26
-43 34 -26 14 -32 14 -58 1 -25 -13 -37 -33 -54 -86 -3 -9 -40 -24 -100 -39
-86 -22 -109 -23 -224 -17 -431 22 -476 20 -577 -24 -34 -14 -46 -16 -49 -6
-8 21 -72 46 -116 46 -49 0 -114 -31 -136 -64 -34 -52 -36 -86 -10 -152 34
-86 34 -165 0 -199 -21 -22 -33 -25 -98 -25 -66 0 -78 -3 -114 -29 -87 -63
-116 -206 -58 -293 78 -118 227 -227 461 -339 357 -170 371 -178 417 -223 61
-61 84 -122 68 -177 -7 -22 -18 -42 -26 -45 -31 -12 -224 111 -385 245 -47 40
-109 87 -137 107 -135 90 -295 141 -408 130 -48 -5 -73 -1 -120 15 -70 26
-177 30 -215 9 -28 -15 -31 -18 -104 -120 -62 -87 -127 -150 -186 -180 -56
-28 -181 -60 -244 -61 -109 -2 -109 -4 -6 -102 102 -97 174 -154 236 -186 l40
-21 -66 -68 c-37 -37 -69 -74 -72 -82 -12 -40 -312 275 -405 426 -10 17 -13
16 -27 -19 -50 -115 -19 -310 90 -570 47 -114 99 -193 178 -271 118 -116 250
-184 399 -208 72 -11 75 -12 101 -54 48 -76 115 -142 172 -170 50 -25 62 -26
134 -21 155 12 299 77 589 266 252 165 337 207 462 231 134 26 162 44 143 94
-5 12 -20 16 -59 16 -71 0 -156 -19 -359 -79 -93 -28 -173 -51 -179 -51 -5 0
2 9 15 20 34 26 84 107 93 147 7 37 3 51 -67 242 -44 119 -48 137 -38 167 23
67 111 112 199 100 46 -6 73 -20 196 -103 114 -77 189 -91 247 -44 43 35 31
78 -82 297 -57 110 -125 241 -152 292 -43 83 -48 101 -48 157 0 74 11 110 47
147 39 41 81 45 145 15 83 -37 120 -92 197 -287 34 -85 44 -124 52 -210 11
-116 23 -174 45 -207 19 -31 41 -29 57 4 19 36 54 226 62 328 9 115 -16 333
-51 446 -3 13 1 15 21 12 16 -4 48 -34 93 -92 38 -47 102 -122 144 -166 86
-92 84 -69 18 -235 -72 -180 -137 -315 -207 -430 -88 -144 -96 -160 -122 -239
-25 -77 -27 -121 -5 -164 37 -73 104 -117 179 -117 55 0 75 9 120 58 144 154
272 433 326 712 12 63 23 116 25 118 1 2 14 -4 28 -13 20 -13 23 -21 17 -38
-5 -12 -16 -62 -25 -112 -9 -49 -24 -107 -33 -128 -15 -35 -15 -38 2 -57 27
-29 81 -37 106 -14 12 11 18 26 15 39 -5 21 20 60 87 134 l37 41 52 -33 c29
-19 99 -60 156 -92 91 -51 101 -59 85 -70 -10 -6 -108 -58 -218 -114 -110 -56
-208 -112 -217 -123 -20 -22 -24 -68 -7 -68 6 0 43 11 82 24 274 91 468 120
666 97 102 -12 105 -13 260 -98 86 -47 166 -91 178 -99 12 -8 24 -14 26 -14 4
0 -17 132 -28 177 -4 18 2 24 42 39 76 29 157 90 204 152 24 31 46 61 50 65
14 18 78 -21 98 -60 40 -79 51 -209 26 -290 -17 -53 -206 -433 -215 -432 -3 0
-25 28 -50 62 -137 187 -410 318 -695 334 -204 11 -480 -30 -694 -102 -106
-35 -151 -58 -151 -75 0 -14 40 -12 103 4 182 47 413 19 596 -73 159 -81 167
-144 25 -191 -50 -17 -65 -27 -70 -45 -9 -35 19 -73 94 -130 91 -70 132 -131
132 -200 0 -97 -67 -142 -168 -114 -40 11 -71 36 -209 171 -170 164 -262 237
-374 293 -74 38 -178 75 -209 75 -48 0 -10 -74 64 -125 30 -21 97 -87 148
-147 167 -196 279 -381 399 -658 104 -240 187 -348 318 -413 60 -29 74 -32
161 -32 79 0 102 4 136 22 51 27 103 85 111 124 3 16 17 39 32 50 22 18 35 20
81 15 157 -17 178 -18 195 -9 15 9 34 -3 109 -66 50 -42 128 -100 174 -129 85
-54 312 -172 331 -172 8 0 6 10 -4 30 -38 73 -7 144 157 371 58 80 131 186
163 235 173 272 236 528 189 774 -21 115 -55 202 -144 376 -131 256 -151 379
-74 461 31 33 37 35 75 29 73 -12 140 -55 234 -150 94 -97 140 -164 182 -268
55 -134 43 -227 -77 -593 -113 -346 -129 -448 -91 -597 36 -142 116 -273 245
-402 74 -75 382 -323 391 -315 2 2 25 33 51 69 26 36 116 135 200 221 234 239
270 306 268 499 -1 167 -45 318 -175 603 -64 140 -71 179 -38 221 65 83 176
38 292 -118 114 -155 168 -287 236 -576 51 -215 74 -295 113 -385 106 -243
330 -443 614 -550 36 -14 147 -46 246 -71 208 -53 188 -57 263 56 101 152 173
330 200 495 19 113 19 183 1 277 -32 168 -97 290 -220 414 -124 124 -233 192
-536 334 -102 47 -212 104 -244 125 -99 65 -142 148 -99 190 13 14 28 16 68
11 71 -8 139 -33 316 -116 183 -86 255 -113 368 -135 109 -22 250 -16 339 15
71 25 167 91 207 144 l27 36 -38 67 c-116 209 -261 372 -419 471 -68 42 -184
87 -280 108 -115 25 -363 23 -565 -5 -295 -41 -441 -53 -547 -47 -249 14 -405
81 -405 172 0 19 11 39 39 64 72 68 219 99 471 100 190 0 398 42 522 105 161
81 282 232 307 382 5 29 1 34 -73 89 -396 293 -807 439 -1139 405 -324 -34
-576 -176 -855 -486 -64 -72 -124 -136 -132 -142 -15 -13 -23 -5 -192 194 -16
20 -25 38 -20 43 5 5 113 68 239 140 127 72 266 155 310 185 79 52 84 54 353
120 l273 68 -28 24 c-15 13 -68 56 -118 95 -49 38 -90 73 -90 77 0 3 6 30 14
60 17 65 10 221 -13 301 -8 30 -18 65 -22 76 -5 20 0 23 63 34 37 7 192 48
343 90 151 43 311 86 355 95 44 10 84 22 88 25 21 18 -303 199 -490 274 -542
217 -1159 246 -1668 77 l-80 -26 65 -2 c106 -4 350 -23 420 -33 119 -18 350
-64 350 -70 0 -17 -198 -33 -445 -36 -162 -2 -300 -8 -345 -16 -73 -13 -75
-14 -78 -44 -6 -61 74 -119 194 -138 l40 -7 -68 -71 -68 -71 -112 7 c-138 9
-313 -7 -405 -36 l-68 -21 50 -22 c56 -25 207 -65 336 -91 l87 -16 -25 -57
c-13 -31 -28 -60 -33 -64 -4 -5 -66 1 -136 12 -176 28 -365 42 -477 35 -120
-7 -119 -7 -106 -42 28 -82 136 -143 424 -243 99 -34 182 -63 184 -65 4 -4
-30 -134 -36 -134 -2 0 -30 11 -63 25 -194 82 -422 145 -613 170 -121 15 -477
21 -477 8 0 -25 148 -104 390 -208 198 -86 354 -163 436 -217 53 -35 77 -58
61 -58 -22 0 -150 48 -312 117 -383 163 -512 203 -657 206 -127 2 -156 -25
-119 -109 24 -53 131 -164 210 -216 l53 -36 -53 -28 c-30 -14 -66 -35 -81 -45
-14 -11 -30 -19 -36 -19 -5 0 -56 27 -113 60 -57 33 -107 61 -113 63 -5 2 -1
15 9 30 33 51 -10 127 -72 127 -32 0 -48 -12 -86 -64 -14 -19 -16 -18 -90 5
-75 23 -77 24 -77 56 0 52 57 106 166 159 50 24 95 51 98 60 21 55 -16 99 -84
99 -49 0 -87 -27 -95 -67 -20 -92 -83 -114 -136 -48 -15 19 -31 46 -34 60 -6
24 -3 26 87 49 128 33 380 119 514 174 316 130 591 305 955 608 164 136 528
501 663 664 499 602 827 1215 1027 1920 42 148 110 461 108 498 -1 20 -2 20
-6 2 -129 -566 -322 -1023 -653 -1543 -589 -925 -1438 -1667 -2325 -2033
l-140 -58 -8 29 c-17 65 -107 94 -145 45 -11 -13 -22 -42 -25 -63 -4 -22 -17
-48 -32 -62 -42 -39 -72 -21 -119 72 -65 130 -61 245 10 308 35 30 84 41 84
18 0 -29 -32 -147 -55 -205 -27 -67 -32 -113 -12 -113 6 0 53 42 102 92 251
258 411 652 454 1116 4 51 11 95 14 98 14 14 77 -40 98 -82 32 -68 23 -191
-32 -409 -35 -141 -42 -187 -43 -270 0 -85 3 -107 23 -149 l24 -48 35 53 c42
66 113 213 141 294 73 213 97 465 66 710 -45 360 -190 717 -410 1009 l-65 86
29 0 c51 0 168 28 260 63 l89 33 21 -115 c15 -76 67 -249 156 -515 139 -418
183 -577 210 -761 21 -139 21 -371 1 -485 -8 -46 -14 -86 -12 -87 9 -10 112
236 140 335 53 184 70 325 69 557 -1 258 -39 562 -107 855 -9 35 -14 66 -12
68 3 2 20 -25 40 -60 146 -261 222 -549 246 -934 9 -136 8 -171 -5 -228 -13
-54 -13 -75 -5 -102 10 -31 15 -34 49 -34 102 0 236 184 216 294 -4 20 0 65
10 108 50 218 31 518 -47 753 -132 397 -412 756 -793 1015 -56 38 -184 110
-196 110 -4 0 -9 -10 -11 -22 -3 -20 -7 -16 -30 24 -62 104 -193 216 -312 268
-127 54 -288 91 -487 110 -120 12 -159 27 -180 67 -69 129 130 225 404 194
117 -13 207 -35 467 -115 253 -77 325 -90 480 -83 89 3 142 11 185 25 33 12
60 20 61 19 1 -1 9 -60 18 -132 9 -71 31 -202 48 -290 30 -159 31 -162 170
-475 212 -475 299 -696 374 -950 61 -205 114 -465 114 -562 0 -134 48 131 71
392 22 248 -3 670 -49 857 -24 94 -24 97 -9 84 25 -20 64 -113 91 -213 32
-118 68 -338 97 -590 13 -109 26 -198 29 -198 8 0 56 177 72 265 20 106 16
437 -5 552 -37 195 -90 351 -184 533 -88 172 -177 294 -318 435 -128 128 -247
218 -370 281 -41 22 -75 42 -75 45 0 3 11 11 25 17 89 41 208 154 349 330 l98
123 -18 42 c-78 175 -206 359 -349 502 -193 192 -344 255 -562 233 -173 -18
-335 -104 -608 -323 -163 -130 -224 -174 -282 -204 -53 -27 -124 -28 -146 -3
-47 51 4 123 208 292 195 162 262 240 319 375 27 64 30 80 30 190 1 106 -2
127 -24 180 l-25 60 -95 1 c-52 1 -124 -2 -160 -7z m-536 -2164 c190 -40 485
-168 559 -241 103 -103 53 -217 -87 -199 -76 10 -158 55 -297 162 -216 168
-326 228 -459 253 -36 7 -69 16 -74 21 -34 31 218 34 358 4z m-414 -216 c133
-21 197 -74 555 -453 257 -272 351 -338 516 -359 55 -7 88 -15 85 -22 -78
-175 -134 -334 -161 -460 -6 -27 -15 -12 -99 155 -111 226 -200 363 -303 471
-91 96 -158 147 -251 194 -135 67 -206 83 -432 95 -175 9 -244 24 -318 67 -74
42 -103 121 -66 178 35 54 173 117 289 134 85 12 112 12 185 0z m-367 -530
c216 -32 412 -128 530 -259 75 -83 85 -153 29 -205 -33 -31 -74 -39 -157 -33
-100 8 -164 49 -334 214 -80 77 -171 157 -202 177 -64 41 -166 77 -218 77 -28
1 -32 3 -19 10 46 27 248 38 371 19z m-332 -259 c137 -43 178 -84 379 -380
151 -222 201 -287 318 -417 l83 -93 -12 -62 c-16 -85 -25 -374 -19 -596 3
-100 2 -182 -1 -182 -12 0 -59 124 -74 195 -8 39 -20 147 -25 240 -12 204 -30
302 -75 413 -116 286 -356 509 -605 561 -130 28 -190 84 -190 180 0 70 25 120
71 143 44 23 72 23 150 -2z m-216 -601 c166 -51 328 -204 374 -354 43 -139 37
-193 -28 -248 -91 -77 -166 -28 -211 138 -33 121 -82 205 -163 283 -39 37 -92
88 -119 113 -26 25 -48 54 -48 63 0 39 78 41 195 5z m1850 -341 c-2 -7 -11
-195 -20 -418 -15 -375 -29 -596 -41 -645 -4 -18 -13 -20 -84 -20 -43 0 -81 2
-83 5 -3 3 5 47 18 98 61 233 54 500 -19 782 -13 52 -24 95 -23 96 1 1 43 18
92 39 50 21 104 47 120 57 35 21 46 23 40 6z m-125 -1970 c25 -58 21 -102 -11
-137 l-21 -23 -32 31 c-65 63 -158 80 -201 36 -14 -13 -25 -29 -25 -35 0 -5
-23 -10 -52 -11 -29 0 -46 -3 -38 -6 32 -12 170 -76 280 -131 112 -55 115 -58
118 -92 4 -63 -7 -66 -94 -22 -43 22 -96 47 -117 56 -21 8 -58 36 -82 60 -45
47 -100 76 -143 76 -35 0 -105 -43 -122 -74 -7 -15 -17 -25 -21 -24 -3 2 -34
39 -67 83 -33 44 -82 101 -110 127 l-49 46 61 7 c201 21 650 96 665 111 10 9
40 -31 61 -78z m2458 -172 c48 -13 123 -29 166 -35 44 -6 81 -13 83 -15 5 -5
-168 -186 -189 -197 -16 -8 -26 -5 -51 15 -18 15 -67 52 -109 83 -43 31 -78
60 -78 64 0 9 79 109 86 109 3 0 44 -11 92 -24z m-2081 -403 c45 -35 85 -68
88 -73 4 -6 -2 -24 -12 -40 l-18 -29 -60 46 c-33 25 -93 67 -132 94 -76 52
-87 73 -62 120 10 19 12 18 62 -17 29 -21 89 -66 134 -101z m3927 -23 c33 -5
66 -16 75 -24 12 -13 10 -19 -17 -44 -40 -37 -178 -108 -302 -155 -69 -27
-157 -48 -325 -77 -382 -68 -518 -110 -610 -191 -47 -42 -65 -78 -65 -131 1
-61 30 -119 97 -190 148 -155 399 -256 769 -308 175 -25 336 -27 619 -10 314
20 508 1 536 -51 18 -34 2 -68 -39 -87 -61 -28 -302 -22 -540 12 -229 33 -330
33 -363 -1 -37 -37 -20 -62 139 -204 191 -173 495 -478 600 -605 171 -206 277
-374 306 -489 9 -32 14 -60 12 -62 -2 -3 -24 38 -48 89 -165 345 -542 709
-1153 1110 -488 322 -988 579 -1360 703 -330 109 -590 136 -858 88 -102 -18
-117 -12 -117 46 0 42 14 65 85 141 30 32 56 70 60 88 8 36 8 36 69 20 l45
-12 -6 -46 c-5 -42 -3 -49 21 -68 69 -54 524 -91 758 -62 86 11 103 10 223
-14 72 -14 133 -26 138 -26 4 0 -5 24 -20 53 -15 28 -29 55 -31 59 -2 4 30 22
70 41 40 18 132 73 203 122 72 49 164 112 206 141 106 71 265 121 459 143 107
12 295 13 364 1z m-3480 -466 c5 -14 4 -15 -9 -4 -17 14 -19 20 -6 20 5 0 12
-7 15 -16z m1341 -486 c58 -86 126 -223 159 -322 83 -247 69 -552 -30 -651
-113 -114 -284 54 -284 279 0 57 11 117 47 253 45 169 47 185 47 308 0 106 -4
140 -21 185 -11 30 -23 64 -27 75 -11 29 56 -49 109 -127z m1116 -360 c118
-159 205 -499 211 -819 2 -99 0 -119 -18 -149 -22 -38 -58 -49 -94 -30 -31 17
-78 95 -100 169 -25 79 -25 149 -1 293 40 237 37 326 -19 486 -34 99 -33 92
-20 92 5 0 24 -19 41 -42z"/>
<path d="M10588 10198 c-150 -256 -220 -534 -248 -978 -16 -255 -13 -388 8
-430 23 -47 51 -49 96 -10 93 82 173 258 187 410 10 123 28 202 42 197 34 -11
28 -304 -7 -422 -9 -30 -34 -72 -61 -104 -78 -91 -70 -131 27 -131 88 0 162
55 173 129 6 37 8 42 68 147 20 34 48 99 63 145 27 79 28 94 28 259 0 158 -3
185 -27 275 -48 177 -186 425 -295 528 l-29 28 -25 -43z"/>
<path d="M9268 9768 c-1 -35 -2 -117 -3 -183 -1 -66 -5 -179 -9 -250 -7 -105
-5 -150 8 -228 34 -202 80 -318 295 -747 92 -184 178 -361 191 -393 12 -31 26
-60 31 -63 5 -3 19 6 33 19 46 46 43 190 -13 522 -28 167 -26 190 11 148 44
-51 63 -127 108 -433 16 -113 37 -230 46 -260 16 -54 16 -54 30 -30 22 39 72
207 88 298 71 385 -25 819 -259 1171 -74 111 -203 254 -299 331 -66 52 -233
160 -248 160 -4 0 -9 -28 -10 -62z"/>
<path d="M11680 8995 c-372 -55 -683 -208 -935 -460 -126 -126 -179 -203 -173
-253 3 -23 8 -27 39 -30 19 -2 61 6 91 18 72 27 192 111 221 155 26 41 37 44
37 12 0 -54 -131 -199 -326 -360 -89 -73 -114 -104 -114 -140 0 -51 65 -68
155 -42 46 13 69 28 110 70 39 39 71 61 121 81 377 149 694 450 913 867 l51
97 -52 -1 c-29 -1 -91 -7 -138 -14z"/>
<path d="M8853 8969 c-77 -38 -135 -130 -155 -249 -16 -93 -2 -175 51 -288
448 -962 558 -1239 636 -1597 19 -89 22 -96 28 -65 27 148 36 468 17 650 -29
282 -99 559 -209 830 -31 75 -31 75 -5 45 41 -49 135 -204 175 -290 76 -161
139 -363 235 -755 l39 -155 6 55 c4 30 7 138 8 240 2 383 -64 707 -204 998
-87 180 -181 314 -357 508 -83 90 -178 116 -265 73z"/>
<path d="M11405 8033 c-391 -50 -748 -217 -1001 -468 -79 -78 -204 -236 -204
-257 0 -18 149 -1 247 28 48 14 153 53 233 86 223 93 384 145 480 156 76 8
102 8 89 -1 -2 -2 -83 -38 -179 -82 -466 -209 -729 -361 -900 -522 -51 -48
-53 -52 -30 -53 39 0 146 32 346 104 277 99 349 116 554 126 265 13 455 59
670 161 174 83 303 174 433 305 83 84 200 240 194 258 -11 33 -300 125 -471
151 -95 14 -377 19 -461 8z"/>
<path d="M10845 7013 c-217 -20 -468 -115 -636 -240 -53 -41 -57 -51 -33 -89
54 -82 156 -79 466 16 159 49 261 70 335 70 54 0 140 -17 131 -25 -2 -3 -101
-25 -219 -50 -527 -113 -797 -208 -1047 -368 -34 -22 -61 -41 -59 -44 5 -4
378 37 622 68 516 66 944 165 1263 293 138 55 292 127 292 135 -1 10 -166 81
-280 122 -271 95 -575 136 -835 112z"/>
<path d="M4030 6573 c-60 -10 -125 -35 -155 -57 -18 -14 -56 -58 -85 -98 -78
-107 -120 -148 -150 -148 -28 0 -66 23 -92 56 -39 49 -153 70 -234 44 -168
-55 -342 -287 -411 -549 -35 -129 -43 -382 -19 -548 16 -110 67 -313 103 -407
18 -49 45 -77 60 -63 4 5 -3 58 -15 120 l-23 112 21 135 c33 217 76 326 148
375 54 37 73 33 101 -21 62 -116 171 -125 198 -15 33 139 250 165 316 38 17
-34 18 -44 8 -79 -7 -23 -30 -57 -55 -81 -113 -111 -295 -309 -345 -377 -31
-41 -69 -103 -84 -137 -30 -68 -55 -168 -44 -179 20 -20 100 39 232 171 77 78
162 154 190 170 28 15 82 48 120 71 39 24 133 73 210 109 424 202 474 232 534
318 69 101 89 238 50 343 -23 60 -84 136 -130 159 -24 13 -27 21 -33 87 -23
242 -89 378 -211 434 -49 23 -131 30 -205 17z"/>
<path d="M1765 6517 c-126 -42 -223 -143 -247 -259 -10 -47 -9 -64 6 -111 24
-76 12 -113 -74 -230 -82 -111 -100 -150 -100 -211 0 -55 43 -167 102 -266
155 -260 486 -462 890 -545 64 -13 127 -21 140 -18 32 8 48 22 48 42 0 20 -75
94 -182 179 -89 72 -101 87 -173 208 -123 208 -150 286 -127 363 21 68 50 93
113 98 113 9 206 -72 309 -269 30 -56 63 -117 75 -134 12 -17 48 -91 80 -164
68 -154 112 -210 165 -210 27 0 31 3 25 18 -96 242 -133 511 -101 747 9 65 16
169 16 230 0 158 -23 229 -109 344 -81 107 -135 123 -285 82 -82 -22 -159 -27
-200 -11 -14 5 -42 24 -63 43 -62 56 -119 80 -198 84 -40 1 -87 -3 -110 -10z"/>
<path d="M10287 6185 c-128 -18 -228 -40 -362 -81 -115 -34 -311 -113 -285
-114 8 0 44 -5 80 -10 36 -5 180 -16 320 -25 267 -17 478 -37 569 -56 47 -10
52 -13 39 -25 -21 -21 -122 -34 -273 -34 -205 -1 -481 -17 -585 -34 -52 -9
-109 -19 -127 -21 -46 -8 -77 -36 -69 -63 20 -61 236 -132 344 -112 31 5 67 0
150 -21 313 -80 645 -88 1227 -28 110 12 276 28 369 38 l168 16 -43 55 c-198
254 -519 437 -887 506 -120 22 -502 28 -635 9z"/>
<path d="M4375 5219 c-236 -17 -419 -102 -667 -308 -116 -97 -348 -340 -348
-364 0 -3 16 -9 35 -13 54 -10 119 13 216 77 125 82 161 99 214 99 51 0 99
-20 109 -45 3 -9 6 -55 6 -101 0 -72 3 -87 21 -105 19 -19 28 -20 132 -14
l112 7 46 -30 c59 -38 89 -97 89 -174 0 -71 -28 -114 -95 -148 -63 -31 -158
-31 -260 -1 -136 41 -167 25 -135 -69 38 -108 20 -194 -46 -225 -51 -24 -149
-19 -214 11 -75 34 -116 76 -155 159 -37 78 -110 159 -152 169 -63 16 -90 -78
-59 -213 79 -345 380 -714 681 -833 71 -28 92 -32 180 -32 97 -1 104 1 175 36
162 80 277 245 311 444 19 118 52 150 256 249 173 84 221 122 283 225 55 91
77 152 89 244 23 190 -41 360 -171 453 -54 39 -94 91 -193 245 -100 157 -190
238 -280 253 -22 4 -47 8 -55 9 -8 2 -64 -1 -125 -5z"/>
<path d="M1211 5144 c-39 -32 -43 -85 -10 -112 68 -55 88 -75 99 -102 23 -55
-26 -100 -110 -100 -57 0 -99 42 -159 159 -51 99 -62 111 -107 111 -44 0 -74
-78 -50 -134 11 -26 24 -37 62 -50 60 -20 84 -42 84 -77 0 -32 -42 -71 -96
-89 -77 -26 -163 29 -213 135 -44 92 -88 109 -142 56 -37 -38 -39 -82 -4 -116
13 -14 36 -25 50 -25 39 0 84 -27 91 -54 10 -40 -14 -66 -94 -104 -69 -33 -86
-37 -159 -37 -91 0 -122 14 -156 73 -15 26 -17 40 -10 74 12 56 0 101 -32 118
-24 13 -31 11 -72 -11 -67 -35 -75 -54 -74 -155 l1 -86 -50 -50 c-51 -51 -66
-82 -55 -117 3 -10 35 -52 70 -91 59 -66 65 -77 65 -116 0 -44 24 -83 53 -85
121 -10 222 -20 264 -25 43 -5 54 -3 72 15 30 30 26 72 -15 163 -37 83 -44
130 -25 167 16 29 136 127 186 151 75 37 155 21 155 -31 0 -10 -25 -44 -55
-74 -42 -41 -55 -61 -55 -84 0 -50 79 -100 115 -73 32 23 40 49 45 155 l6 110
42 37 c45 40 116 66 155 56 14 -3 35 -14 48 -25 l24 -20 -32 -33 c-39 -40 -63
-95 -63 -143 0 -71 82 -112 126 -64 15 17 20 42 24 131 5 107 6 111 35 135 29
25 32 26 140 20 193 -11 394 -53 610 -129 147 -51 403 -170 520 -240 178 -106
274 -148 342 -148 77 0 164 76 182 158 16 79 -2 116 -96 192 -258 209 -652
331 -1073 334 -96 1 -224 -3 -285 -7 -104 -8 -112 -7 -154 15 -66 34 -85 65
-89 151 -3 55 -9 77 -25 95 -27 29 -68 28 -106 -4z"/>
<path d="M1836 4329 c-196 -27 -366 -91 -576 -218 -188 -114 -257 -243 -280
-525 -10 -115 -11 -120 -44 -157 -61 -67 -70 -144 -26 -217 42 -69 126 -94
228 -68 106 28 135 7 202 -146 54 -125 88 -158 163 -158 106 0 239 100 341
254 62 94 83 134 182 349 122 267 176 342 264 368 33 10 51 10 88 0 26 -7 48
-14 50 -16 6 -6 -61 -130 -105 -194 -25 -36 -82 -110 -127 -165 -195 -238
-260 -371 -258 -527 3 -164 89 -297 218 -335 47 -13 58 -13 108 1 116 34 181
-13 279 -203 93 -179 182 -260 304 -277 96 -13 230 29 283 89 16 17 48 53 72
80 23 27 97 92 163 145 139 110 195 166 232 228 24 42 25 50 20 136 -10 166
-60 278 -249 567 -136 206 -182 295 -232 447 -55 164 -89 194 -115 100 -16
-56 -3 -111 70 -299 39 -101 53 -150 57 -204 6 -92 -16 -164 -61 -198 -72 -54
-104 -43 -195 69 -85 102 -107 115 -207 115 -87 0 -144 19 -180 60 -16 18 -20
36 -20 99 1 85 25 153 110 303 25 44 45 86 45 94 0 7 -14 29 -31 48 -61 70
-139 58 -316 -51 -59 -37 -142 -84 -183 -106 -41 -21 -82 -45 -90 -52 -67 -61
-199 -57 -268 8 -77 71 -68 162 22 245 62 58 132 87 263 112 188 35 217 42
267 61 50 19 116 59 116 71 0 9 -115 43 -195 58 -83 15 -306 21 -389 9z"/>
<path d="M3462 2219 c-108 -54 -181 -151 -237 -317 -66 -193 -89 -369 -105
-807 -11 -301 -24 -388 -60 -417 -29 -23 -40 -23 -81 5 -51 34 -103 117 -135
215 -27 82 -29 97 -29 252 1 198 18 291 101 539 30 91 54 173 54 183 0 27 -26
22 -109 -17 -91 -44 -200 -150 -254 -246 -48 -87 -93 -223 -108 -328 -17 -117
-7 -324 21 -426 58 -217 202 -432 379 -565 79 -60 230 -140 263 -140 50 0 117
69 118 122 1 28 113 225 237 415 201 307 245 389 307 582 47 145 59 222 58
376 0 155 -21 246 -82 364 -47 90 -127 184 -179 210 -66 33 -94 33 -159 0z"/>
<path d="M6080 1994 c-8 -3 -24 -9 -35 -14 -11 -5 -62 -23 -114 -40 -252 -83
-476 -254 -627 -481 -91 -137 -126 -223 -127 -313 -1 -161 76 -301 223 -408
63 -45 113 -65 220 -87 174 -36 212 -63 251 -183 98 -299 345 -484 624 -464
151 10 286 79 342 174 37 63 111 122 234 187 61 32 129 75 153 96 80 71 124
217 113 379 -14 213 -97 397 -285 631 -63 78 -305 319 -359 357 l-32 23 -7
-38 c-10 -52 10 -116 58 -193 121 -192 122 -194 123 -241 0 -88 -87 -159 -153
-125 -16 8 -32 22 -35 31 -9 22 -30 18 -58 -11 -23 -24 -24 -33 -25 -158 -2
-151 -10 -177 -72 -219 -55 -39 -97 -49 -146 -36 -55 15 -100 50 -133 106 -22
39 -26 57 -25 115 1 58 7 83 41 157 44 95 49 122 26 144 -13 14 -23 11 -82
-19 -51 -26 -81 -35 -119 -36 -101 0 -149 51 -147 159 2 133 99 257 266 338
122 59 147 102 85 148 -26 20 -144 34 -178 21z"/>
</g>
</svg>
