<?xml version="1.0" standalone="no"?>
<!DOCTYPE svg PUBLIC "-//W3C//DTD SVG 20010904//EN"
 "http://www.w3.org/TR/2001/REC-SVG-20010904/DTD/svg10.dtd">
<svg version="1.0" xmlns="http://www.w3.org/2000/svg"
 width="1280.000000pt" height="1137.000000pt" viewBox="0 0 1280.000000 1137.000000"
 preserveAspectRatio="xMidYMid meet">
<metadata>
Created by potrace 1.15, written by Peter Selinger 2001-2017
</metadata>
<g transform="translate(0.000000,1137.000000) scale(0.100000,-0.100000)"
fill="#4caf50" stroke="none">
<path d="M5225 11364 c-11 -2 -57 -12 -103 -21 l-84 -16 -32 -51 c-18 -28 -74
-96 -125 -151 -74 -81 -160 -192 -173 -226 -2 -3 -37 -2 -78 3 -91 12 -147 5
-203 -23 -23 -12 -43 -22 -44 -23 -1 -1 5 -24 13 -51 9 -31 17 -112 21 -211
l6 -161 -69 -7 c-80 -8 -128 -22 -143 -40 -8 -9 -4 -50 14 -146 13 -74 22
-136 20 -138 -9 -10 -128 100 -380 350 -143 141 -287 278 -319 303 -66 51 -55
52 -129 -15 l-28 -25 16 39 c9 22 23 49 31 62 14 21 14 24 -8 38 -47 31 -241
97 -249 85 -4 -7 -12 -38 -19 -70 -7 -33 -16 -59 -20 -59 -3 0 -12 51 -18 113
-13 129 -14 130 -127 183 -103 48 -234 88 -480 149 -121 30 -229 57 -241 61
-18 5 -23 -1 -34 -43 -6 -26 -14 -56 -17 -65 -2 -10 -26 -24 -56 -34 -29 -9
-82 -32 -119 -50 -72 -36 -69 -31 -91 -167 -6 -38 8 -42 98 -28 60 10 79 10
107 -2 31 -13 36 -21 47 -73 7 -33 20 -89 28 -125 l14 -66 124 5 123 5 17 -59
c9 -33 33 -101 53 -153 l35 -93 46 6 c25 3 89 27 141 53 52 26 100 49 105 52
6 3 -25 -31 -68 -74 -104 -106 -105 -108 -62 -135 19 -12 35 -22 35 -23 0 -1
-93 -2 -208 -3 -228 -1 -380 -17 -604 -64 -241 -51 -447 -119 -612 -202 l-69
-35 89 -6 c73 -5 201 -25 211 -32 2 -1 -19 -25 -47 -53 -27 -28 -60 -69 -74
-90 -23 -38 -30 -41 -188 -91 -206 -67 -400 -138 -553 -203 -66 -28 -122 -52
-124 -54 -2 -2 16 -23 40 -47 24 -23 75 -75 112 -115 39 -41 77 -72 88 -72 10
0 60 16 111 35 51 19 93 33 94 32 2 -1 -20 -28 -48 -60 -46 -52 -47 -56 -21
-46 39 15 158 75 203 104 47 30 201 115 207 115 2 0 -24 -37 -59 -82 -35 -46
-68 -89 -72 -97 -5 -7 47 24 114 69 67 45 123 80 125 78 3 -2 -22 -61 -55
-131 -33 -71 -54 -127 -47 -127 7 0 65 15 130 34 64 18 117 31 117 28 0 -2
-35 -48 -77 -100 l-76 -95 59 33 c94 53 265 161 313 197 51 38 61 40 61 13 0
-42 31 -18 114 88 31 39 61 72 66 72 9 0 32 -57 65 -160 10 -30 22 -60 27 -67
7 -8 -1 -14 -29 -21 -697 -172 -1124 -358 -1493 -652 -129 -103 -544 -516
-625 -624 l-60 -79 0 -86 c0 -106 9 -290 13 -286 2 2 14 53 27 113 21 97 62
218 71 209 2 -2 -3 -55 -11 -117 -8 -63 -15 -119 -15 -124 0 -29 45 63 87 179
26 71 49 123 50 115 1 -8 5 -64 9 -124 4 -66 9 -104 14 -95 5 8 23 91 41 184
17 94 35 174 39 178 15 17 60 -256 60 -364 0 -71 14 -67 33 9 52 199 91 337
107 379 l18 48 -5 -88 c-4 -52 -1 -125 7 -175 l13 -87 13 61 c7 34 25 88 40
120 l28 59 18 -60 c20 -69 48 -135 57 -135 4 0 14 69 24 153 21 179 36 257 47
236 4 -8 13 -68 20 -134 6 -66 13 -122 15 -123 2 -2 16 20 31 50 42 84 174
270 160 226 -14 -44 -27 -187 -21 -231 l7 -50 78 187 c42 102 79 189 83 192 3
3 1 -12 -3 -33 -5 -21 -12 -83 -15 -138 l-6 -100 22 39 c12 22 39 87 61 144
21 58 48 121 58 141 l19 36 0 -95 c-1 -108 9 -190 22 -190 5 0 9 4 9 9 0 16
113 162 182 236 l65 69 33 -134 c30 -124 50 -179 50 -138 0 50 109 228 203
332 l53 58 -4 -88 c-2 -49 1 -107 6 -129 l9 -40 13 30 c49 114 98 209 143 278
l52 79 5 -174 5 -173 90 192 c50 105 91 188 93 184 1 -4 -4 -34 -13 -67 -8
-32 -18 -93 -21 -134 l-5 -75 19 41 c11 23 45 85 76 138 31 52 63 112 70 133
l13 38 12 -85 c12 -79 56 -278 64 -286 2 -2 14 30 27 72 22 74 123 289 154
329 14 18 15 13 16 -72 0 -55 4 -93 10 -93 6 0 10 6 10 13 0 17 112 165 157
206 l37 34 13 -37 c12 -35 11 -41 -8 -67 -23 -32 -22 -33 16 -19 22 8 29 6 54
-22 l28 -32 -37 -75 c-20 -42 -39 -81 -41 -88 -2 -6 -83 -83 -179 -171 -233
-213 -521 -507 -651 -667 -159 -194 -380 -491 -485 -649 -225 -342 -408 -820
-456 -1193 -14 -104 0 -193 45 -293 l24 -55 7 60 c13 103 8 102 83 6 10 -13
12 31 13 214 l0 230 41 -75 c22 -41 44 -79 48 -83 11 -11 38 60 53 136 l12 63
79 -81 c70 -71 78 -77 72 -50 -3 17 -9 86 -12 155 l-5 125 86 -85 c47 -46 86
-82 86 -79 0 3 -23 66 -51 139 -27 72 -49 134 -47 135 2 2 36 -36 77 -83 70
-81 74 -85 67 -52 -3 19 -9 69 -13 110 -6 71 -5 74 11 60 20 -16 86 -110 123
-174 l23 -41 0 50 c-1 28 -7 79 -15 115 -20 90 -18 94 15 25 15 -33 29 -55 29
-50 1 6 -16 76 -38 157 l-38 148 71 -68 c39 -37 86 -78 104 -91 l34 -24 -22
42 c-28 55 -82 203 -76 208 7 7 85 -97 112 -148 20 -37 24 -40 31 -23 4 10 8
85 8 167 0 81 1 147 1 147 1 0 28 -32 60 -72 93 -114 86 -108 79 -63 -4 22
-18 71 -31 109 -13 38 -23 70 -21 72 1 1 30 -38 65 -87 l63 -88 -27 -43 c-60
-95 -149 -317 -168 -420 -6 -32 -4 -39 16 -49 13 -6 33 -21 46 -32 29 -27 29
-90 2 -313 -12 -91 -19 -206 -18 -257 l3 -92 39 75 38 74 19 -36 c18 -35 18
-38 2 -66 -16 -27 -16 -32 0 -74 10 -25 31 -58 47 -74 17 -16 38 -45 47 -64
l17 -34 7 33 c9 42 16 49 72 66 51 15 49 16 66 -36 6 -20 20 -44 30 -53 17
-15 18 -14 17 26 -1 31 3 43 14 43 8 1 32 5 53 9 21 5 40 6 43 3 3 -2 -20 -30
-50 -60 -52 -54 -54 -58 -49 -99 7 -56 29 -155 43 -192 l11 -29 35 42 c56 64
67 67 121 32 26 -17 50 -31 55 -31 4 0 8 -4 8 -10 0 -5 -5 -10 -11 -10 -37 0
-382 -214 -529 -329 -256 -199 -490 -490 -596 -741 l-33 -80 37 0 c46 0 141
22 215 50 l57 21 0 60 0 60 22 -15 c13 -10 43 -16 73 -16 41 0 69 9 145 49
148 77 200 91 331 91 62 0 140 5 174 11 55 9 66 15 97 52 19 23 57 58 84 77
45 32 41 25 -48 -75 -54 -61 -98 -113 -98 -117 0 -9 60 18 115 51 30 18 40 21
44 10 2 -7 15 -24 28 -37 l25 -25 41 41 c54 52 134 92 185 92 l40 0 -152 -227
c-166 -249 -313 -491 -351 -576 -61 -138 -152 -526 -184 -787 -14 -111 -15
-107 17 -114 15 -4 52 -23 84 -42 31 -18 61 -34 66 -34 16 0 97 97 127 152
l27 50 -17 53 c-9 29 -15 72 -13 95 3 41 5 43 38 47 19 2 58 10 87 18 68 20
66 21 44 -23 -27 -53 -66 -180 -58 -188 4 -4 23 -3 42 3 20 6 35 7 35 2 0 -16
-52 -203 -61 -221 -5 -9 -9 -29 -9 -45 0 -31 61 -281 73 -301 13 -20 79 -50
138 -61 l54 -10 82 55 c96 65 122 93 168 183 18 36 64 113 102 171 l70 106
-14 39 c-8 22 -17 71 -20 109 l-6 70 36 -41 37 -40 0 -107 c0 -58 2 -106 5
-106 2 0 34 18 70 40 36 22 67 40 69 40 3 0 0 -15 -5 -32 -16 -60 -49 -352
-56 -495 l-6 -141 31 -40 c30 -37 64 -114 76 -174 8 -33 27 -45 93 -54 l50 -6
16 38 c8 22 38 80 66 129 28 50 58 113 66 140 11 37 23 56 44 68 27 16 95 95
148 172 l21 30 -29 110 c-27 102 -50 268 -36 254 4 -3 14 -43 23 -90 26 -139
81 -295 161 -456 41 -84 79 -153 85 -153 5 0 36 23 68 51 l58 50 35 -36 c20
-21 37 -41 39 -46 5 -16 104 19 159 57 63 42 82 41 189 -12 39 -20 73 -34 75
-33 9 10 56 135 83 219 57 180 93 373 108 573 4 54 10 94 13 89 3 -5 37 -16
75 -26 84 -21 171 -60 280 -126 46 -27 86 -50 89 -50 2 0 12 25 22 55 9 30 20
57 23 59 8 5 182 -94 230 -131 30 -23 36 -24 59 -12 13 7 37 28 53 46 l29 32
6 -29 c7 -33 32 -45 79 -36 l33 6 6 -75 c10 -111 49 -265 68 -265 5 0 9 4 9 9
0 11 62 51 78 51 6 0 15 -15 22 -32 10 -31 48 -85 53 -77 1 2 13 27 27 54 l25
50 70 -3 70 -4 24 73 c35 108 88 230 131 301 l38 63 -19 48 c-23 58 -23 56 0
50 19 -5 101 14 101 23 0 3 -7 19 -16 35 -8 17 -14 34 -12 39 2 5 44 -13 93
-41 488 -273 1396 -733 2235 -1131 264 -126 401 -197 495 -258 491 -318 1096
-832 1232 -1047 25 -38 31 -42 82 -49 31 -4 166 -10 301 -13 l244 -6 31 -79
c20 -52 37 -81 50 -86 11 -4 101 -13 200 -20 177 -12 508 -8 584 8 l35 8 -83
89 c-198 215 -455 532 -778 960 -626 830 -1349 1599 -2153 2291 -351 302
-1054 868 -1837 1479 -134 104 -241 190 -239 192 7 7 233 -19 314 -36 l82 -18
0 21 c0 17 -17 84 -46 176 -4 11 10 23 46 40 l51 24 -98 38 c-182 71 -517 165
-747 209 l-58 11 6 36 c28 162 37 265 36 442 0 107 -4 215 -9 240 -5 25 -8 46
-6 48 2 2 19 -43 38 -100 l35 -103 1 57 c2 94 -61 487 -99 616 -8 30 -7 33 8
27 48 -20 154 -56 158 -53 10 11 34 130 40 206 7 75 9 82 16 52 4 -19 11 -88
14 -153 5 -75 12 -121 20 -128 18 -15 144 -23 175 -11 22 9 28 19 33 59 13 90
15 91 58 19 21 -36 44 -66 49 -66 18 0 87 39 92 52 3 9 14 4 34 -14 16 -16 35
-28 42 -28 23 0 116 50 149 80 l33 30 -71 87 c-38 48 -70 91 -70 94 0 3 41 9
90 12 83 5 95 4 138 -19 51 -26 144 -47 152 -34 3 4 21 63 40 130 l34 123 -27
48 c-34 62 -37 109 -4 109 24 0 88 -29 125 -56 28 -20 28 -17 6 97 -19 103
-55 232 -83 294 l-20 46 46 -40 c26 -22 49 -39 51 -37 8 9 -126 215 -212 326
-217 280 -468 527 -668 657 l-68 44 21 42 c25 47 68 107 78 107 4 0 12 -15 19
-33 20 -56 165 -248 177 -235 9 8 -28 161 -66 271 -73 215 -179 404 -310 549
-131 147 -380 339 -542 419 -37 18 -67 36 -67 39 0 3 15 5 33 6 17 0 91 4 162
8 115 8 133 12 158 32 34 28 129 85 173 103 30 12 34 10 84 -27 45 -35 148
-92 164 -92 3 0 -5 28 -18 63 -22 56 -49 187 -39 187 2 0 37 -23 78 -50 103
-69 429 -251 433 -241 1 4 -33 82 -78 172 -44 90 -80 166 -80 170 0 4 49 -29
109 -74 101 -76 263 -179 406 -257 33 -18 56 -29 50 -23 -5 5 -66 61 -135 123
-69 62 -134 122 -145 133 l-20 20 34 -19 c19 -11 147 -94 285 -185 138 -91
279 -182 314 -202 85 -50 86 -50 465 9 64 10 117 21 117 25 0 13 -171 157
-268 226 -141 101 -329 210 -452 262 -251 106 -659 225 -940 274 -168 28 -475
30 -665 4 -502 -71 -973 -190 -1440 -365 -93 -35 -351 -144 -406 -173 -70 -35
-55 -20 44 46 62 42 97 72 97 83 0 30 -50 120 -80 146 l-29 24 47 7 c56 8 121
32 270 100 l111 50 11 70 c6 39 14 78 16 87 3 10 48 47 99 83 l94 66 -70 101
c-49 72 -66 105 -59 112 7 7 54 10 122 9 l111 -2 -29 30 c-108 113 -364 198
-512 171 -48 -9 -51 -8 -56 14 -8 30 7 97 29 130 9 14 15 28 12 30 -2 3 -31
14 -63 25 -57 20 -213 34 -259 23z m-2107 -1171 c-3 -17 -7 -18 -37 -11 l-34
9 29 18 c32 20 48 14 42 -16z m2517 -792 c16 -31 16 -33 0 -27 -9 3 -50 6 -91
6 l-74 0 38 39 c21 22 47 55 57 75 l20 36 16 -48 c9 -26 24 -63 34 -81z m616
-52 c22 -45 39 -83 37 -84 -2 -2 -19 0 -38 4 l-35 7 -5 77 c-3 42 -4 77 -3 77
2 0 21 -36 44 -81z m-2737 56 c-10 -8 -23 -15 -27 -15 -4 0 -34 -17 -65 -39
-50 -33 -73 -41 -182 -61 -164 -30 -155 -30 -155 4 0 23 6 31 25 36 77 21 77
21 88 -5 16 -34 32 -31 32 4 0 28 3 30 58 41 31 6 62 13 67 14 6 2 18 -3 27
-11 13 -12 21 -12 40 -2 13 6 25 15 28 19 5 7 58 28 74 29 6 1 1 -6 -10 -14z
m3190 -243 c7 -21 7 -21 -38 -6 -26 9 -46 18 -46 21 0 3 12 39 27 81 l27 77
12 -76 c6 -42 15 -85 18 -97z m-3640 129 c14 -26 14 -30 0 -35 -37 -14 -54 -7
-54 23 0 20 6 31 18 34 9 3 18 5 19 6 1 0 9 -12 17 -28z m-93 -28 c7 -20 4
-23 -47 -33 -31 -7 -58 -9 -61 -6 -14 14 17 55 44 59 45 7 55 3 64 -20z m-191
-43 c0 -14 -7 -20 -24 -20 -13 0 -31 -3 -40 -6 -11 -4 -16 -1 -16 10 0 17 31
34 63 35 11 1 17 -6 17 -19z m-120 -24 c0 -8 -15 -16 -37 -19 -106 -17 -107
-17 -43 7 78 29 80 30 80 12z m3060 -52 c0 -19 -3 -33 -7 -31 -5 3 -28 10 -53
17 l-45 12 45 18 c61 24 60 25 60 -16z m-3430 -25 c0 -4 -11 -9 -25 -11 -29
-6 -29 -7 -13 26 10 24 12 24 24 8 7 -9 14 -20 14 -23z m4663 -49 c-3 -11 -9
-17 -14 -15 -10 7 -1 35 11 35 5 0 6 -9 3 -20z m-1328 -242 c289 -152 572
-317 845 -493 141 -91 145 -98 20 -30 -58 31 -258 133 -444 226 -187 94 -383
199 -436 234 -53 35 -173 104 -267 155 -141 75 -170 94 -166 109 4 17 19 12
136 -44 73 -35 213 -106 312 -157z m1738 87 c14 -44 24 -81 23 -82 -1 -1 -25
12 -53 28 l-51 30 19 54 c10 30 19 62 20 72 0 16 1 15 9 -2 4 -11 19 -56 33
-100z m-217 48 c-10 -10 -19 5 -10 18 6 11 8 11 12 0 2 -7 1 -15 -2 -18z m404
-216 c0 -4 -13 -1 -30 8 -34 18 -35 20 -18 93 l13 54 17 -74 c9 -40 17 -76 18
-81z m-2172 -259 c-3 -22 -7 -19 -31 31 l-29 56 32 -31 c22 -22 31 -38 28 -56z
m-1394 -116 c8 -16 11 -34 7 -41 -6 -9 -10 -5 -15 12 -3 14 -9 32 -12 41 -10
27 5 18 20 -12z m1189 -139 c-7 -45 -23 -31 -23 20 0 36 2 39 14 27 9 -10 12
-27 9 -47z m433 -276 c0 -67 4 -149 7 -182 7 -72 1 -54 -43 124 l-31 124 33
28 c18 16 33 28 33 29 0 0 0 -55 1 -123z m-352 -37 c33 -15 46 -27 46 -41 0
-42 -23 -160 -30 -152 -12 13 -73 213 -65 213 1 0 23 -9 49 -20z m620 -68 c-6
-83 13 -230 35 -269 4 -8 21 29 41 87 19 55 37 100 40 100 3 0 28 -40 57 -88
49 -83 52 -93 67 -207 28 -204 36 -296 36 -396 0 -125 40 -268 151 -542 26
-65 53 -143 59 -175 24 -119 29 -132 54 -132 12 0 26 -3 30 -7 4 -4 23 -6 41
-4 19 1 59 -5 88 -13 l54 -16 7 -102 c3 -57 13 -132 20 -168 8 -36 13 -66 12
-67 -6 -7 -232 217 -332 328 -255 284 -476 578 -788 1051 l-117 177 18 50 c10
28 20 51 23 51 3 0 22 -34 44 -75 43 -85 180 -240 171 -195 -2 14 -12 86 -21
160 -9 74 -22 167 -29 205 l-14 70 32 24 c47 36 132 128 174 189 20 28 40 52
45 52 4 0 5 -40 2 -88z m1453 4 c39 -41 82 -97 96 -128 25 -52 29 -56 82 -73
39 -12 71 -15 103 -11 l47 6 29 -92 c46 -145 41 -139 89 -122 53 19 127 62
127 74 0 6 5 10 10 10 7 0 6 -8 -1 -22 -27 -50 -22 -269 8 -357 3 -9 -10 2
-28 24 -137 162 -500 539 -624 648 -44 39 -81 73 -83 77 -2 6 54 38 69 39 4 1
38 -32 76 -73z m-4682 -696 c64 -111 71 -136 39 -147 -7 -2 -81 169 -113 261
-8 24 10 -4 74 -114z m135 -30 c0 -4 -7 -13 -15 -20 -13 -11 -15 -8 -15 13 0
19 4 25 15 21 8 -4 15 -10 15 -14z m4385 -55 c8 -69 1 -98 -11 -49 -4 16 -15
48 -25 72 l-18 42 24 0 c22 0 24 -5 30 -65z m-4650 -185 c19 -31 35 -63 35
-70 0 -6 -12 -32 -27 -57 l-27 -46 -17 89 c-9 49 -26 126 -38 171 -27 106 -26
111 9 35 16 -35 45 -90 65 -122z m-84 -72 l59 -118 -20 -32 -20 -33 -7 25 c-6
23 -91 271 -107 315 -18 47 40 -49 95 -157z m57 -238 c-9 -14 -14 -16 -20 -7
-13 20 -9 27 12 27 18 0 19 -3 8 -20z m2109 -275 c37 -59 43 -75 38 -104 -18
-95 -45 -102 -64 -14 -7 30 -24 86 -37 125 l-23 69 21 -3 c14 -2 37 -27 65
-73z m1445 -266 c84 -92 219 -222 401 -387 26 -23 47 -45 47 -47 0 -3 -11 -3
-25 1 -13 3 -131 9 -261 12 l-237 7 -33 195 c-19 107 -47 251 -63 320 l-29
125 52 -60 c28 -33 95 -108 148 -166z m947 -316 c-1 -134 1 -134 -104 -52 -49
39 -91 73 -93 77 -2 8 150 59 181 61 15 1 17 -9 16 -86z m172 -118 c5 -33 12
-67 15 -76 8 -29 -83 -13 -138 24 -27 18 -47 35 -45 39 1 4 36 32 77 62 69 50
75 52 78 33 1 -12 7 -49 13 -82z m-666 -595 c314 -55 576 -102 583 -105 7 -3
54 12 103 32 83 34 92 36 114 22 44 -27 324 -260 592 -493 148 -127 480 -411
738 -631 571 -485 800 -686 1187 -1042 927 -852 1426 -1419 1803 -2048 80
-133 240 -443 233 -451 -9 -9 -255 176 -688 516 -718 565 -959 722 -1537 999
-617 295 -1319 638 -1908 932 l-640 319 -60 127 c-33 69 -90 179 -126 242 -37
64 -65 117 -64 119 2 2 24 0 49 -3 40 -6 49 -13 75 -52 16 -25 44 -79 61 -121
17 -42 46 -109 65 -148 31 -67 35 -71 72 -77 45 -8 57 -26 68 -101 4 -25 11
-49 16 -52 5 -3 31 2 58 11 l48 16 7 61 c3 33 6 77 6 97 0 31 5 39 34 55 19
10 46 30 60 45 25 26 25 27 11 75 -8 27 -15 63 -15 80 l0 31 67 0 c62 0 68 2
65 20 -1 11 -5 69 -9 128 l-6 109 -85 101 c-287 346 -309 368 -542 537 -375
273 -778 497 -1062 590 -106 36 -128 46 -114 54 84 51 111 74 114 94 3 19 8
22 30 18 15 -3 284 -51 597 -106z m-749 -424 c10 -8 17 -17 14 -19 -3 -3 -16
3 -30 13 -29 22 -14 27 16 6z m-888 -101 l0 -50 -18 64 c-16 52 -17 68 -7 79
10 13 13 11 18 -14 4 -16 7 -51 7 -79z m62 -1225 c0 -11 -2 -20 -5 -20 -2 0
-9 9 -15 20 -9 16 -8 20 5 20 8 0 15 -9 15 -20z m-1480 -40 c-12 -23 -23 -40
-26 -38 -6 7 18 72 30 80 19 12 18 1 -4 -42z m2998 -464 c-9 -16 -12 -18 -15
-6 -3 8 -9 28 -14 44 l-9 30 24 -24 c21 -19 23 -26 14 -44z"/>
</g>
</svg>
