<?xml version="1.0" encoding="utf-8"?>
<svg viewBox="0 0 1000 1000" xmlns="http://www.w3.org/2000/svg">
  <path fill="#faa186" d="M 323.783 815.11 C 323.148 827.111 313.626 837.267 302.481 841.742 C 291.336 846.218 278.861 845.967 266.916 844.552 C 262.108 843.983 256.725 842.879 254.102 838.801 C 251.883 835.358 252.381 830.823 253.739 826.967 C 257.238 817.022 259.307 817.833 272.378 811.444 C 276.669 809.344 286.702 805.703 289.371 801.743 C 291.247 798.958 290.958 795.313 290.846 791.949 C 290.627 785.37 290.122 769.153 297.65 766.483 C 302.061 764.922 312.057 767.415 315.835 770.13 C 321.49 774.192 323.112 775.782 323.076 781.992 C 323.029 791.633 324.286 805.547 323.783 815.103 L 323.783 815.11 Z M 208.396 751.704 C 209.839 745.587 207.336 737.623 206.544 731.522 C 206.42 730.583 206.255 729.549 205.538 728.924 C 204.888 728.355 203.957 728.272 203.101 728.3 C 199.234 728.384 197.469 732.297 195.424 734.951 C 181.208 753.379 163.842 770.972 146.055 785.94 C 141.143 790.072 135.674 794.173 129.38 795.894 C 124.965 797.102 120.277 796.88 115.659 796.436 L 115.49 831.095 C 131.741 828.612 148.897 821.888 163.744 819.013 C 166.404 818.497 169.173 817.935 171.307 816.267 C 173.64 814.438 174.857 811.574 176.032 808.845 C 181.85 794.609 212.663 775.556 221.096 762.727 C 224.355 757.766 207.008 757.584 208.403 751.704 L 208.396 751.704 Z" class="colorfaa186 svgShape" style="transform-origin: 219.857px 787.624px;"/>
  <path fill="#382d2f" d="M 181.693 801.763 C 181.693 801.763 181.679 801.722 181.673 801.695 C 179.456 801.867 176.943 803.077 174.82 803.786 C 172.404 804.596 169.995 805.453 167.605 806.344 C 158.238 809.855 148.463 816.136 138.13 815.732 C 127.662 815.321 118.522 809.763 115.799 798.258 C 115.803 797.503 115.82 796.715 115.845 795.873 C 115.845 795.845 104.919 795.743 104.185 795.812 C 99.862 796.239 95.594 796.407 91.355 797.474 C 82.899 799.607 75.042 804.088 68.958 810.325 C 67.462 811.855 66.286 813.272 65.394 815.195 C 64.288 817.584 63.723 820.597 63.963 822.977 C 64.223 825.514 65.083 827.369 66.305 828.887 C 70.466 834.058 78.091 836.614 84.399 837.589 C 90.883 838.587 97.489 838.138 103.996 837.355 C 125.297 834.797 145.661 827.869 166.761 824.595 C 167.089 824.543 167.415 824.499 167.734 824.446 C 178.649 822.667 178.052 818.143 178.494 816.747 C 179.315 814.138 180.041 811.5 180.686 808.842 C 181.214 806.651 182.429 804.004 181.693 801.742 L 181.693 801.763 Z M 323.672 800.473 C 322.938 803.164 322.29 805.095 321.405 806.8 C 320.294 808.931 318.932 810.925 317.408 812.775 C 314.325 816.514 310.586 819.678 306.645 822.472 C 302.547 825.374 297.914 828.055 292.795 828.495 C 288.071 828.899 282.818 827.687 279.368 824.262 C 277.711 822.624 276.69 820.353 276.198 818.1 C 275.872 816.622 275.859 815.046 276.396 813.63 C 277.23 811.428 279.172 810.079 280.959 808.7 C 282.781 807.301 284.71 806.054 286.544 804.676 C 287.881 803.673 288.49 802.734 288.845 802.431 C 289.432 801.933 286.101 803.503 285.244 803.829 C 281.398 805.3 263.275 814.936 260.203 816.759 C 233.946 832.304 233.156 848.048 247.325 856.012 C 249.657 857.322 252.221 858.138 254.807 858.75 C 263.12 860.733 271.472 860.645 279.591 857.932 C 283.641 856.579 287.523 854.749 291.331 852.83 C 295.424 850.763 299.722 848.821 303.647 846.475 C 306.08 845.02 308.29 843.265 310.405 841.393 C 313.23 838.881 316.198 836.595 318.888 833.92 C 321.763 831.068 325.004 828.288 326.674 824.504 C 327.559 822.486 327.759 820.449 327.737 818.281 C 327.716 815.611 323.996 799.286 323.672 800.473 Z" class="color382d2f svgShape" style="transform-origin: 195.781px 829.026px;"/>
  <path fill="#e2cfb3" d="M 373.321 803.404 C 402.955 812.954 434.62 812.879 465.674 812.48 C 534.314 811.611 602.939 809.629 671.507 806.538 C 684.06 805.974 696.906 805.304 708.474 800.363 C 719.035 795.855 727.859 788.066 736.485 780.41 C 760.255 759.308 781.126 737.503 795.895 708.914 C 814.23 673.41 826.973 633.79 837.821 595.399 C 848.822 556.457 856.641 516.533 859.779 476.134 C 861.491 454.112 861.783 431.684 856.676 410.184 C 851.569 388.691 840.594 368.019 823.182 354.736 C 799.454 336.644 767.848 334.573 738.248 333.51 C 709.382 332.467 674.461 334.078 647.596 344.772 C 626.09 353.336 613.034 366.391 596.017 382.248 C 567.846 408.512 541.202 437.99 526.921 474.05 C 514.235 506.088 511.125 543.387 488.542 569.174 C 452.861 609.912 387.494 597.312 343.218 628.134 C 317.589 645.973 300.493 682.119 299.612 713.722 C 299.267 726.066 299.216 737.902 298.076 750.171 C 297.172 759.901 300.432 763.129 308.144 768.58 C 328.188 782.747 349.97 795.869 373.328 803.398 L 373.321 803.404 Z" class="colore2cfb3 svgShape" style="transform-origin: 579.556px 572.625px;"/>
  <path d="M 738.184 336.784 C 737.474 324.935 741.595 308.857 737.151 297.916 C 734.486 291.357 731.479 286.453 728.071 281.717 C 722.421 273.87 719.818 264.234 720.721 254.627 C 721.294 248.556 721.365 242.394 720.174 237.186 C 718.837 231.339 717.147 225.257 713.193 220.998 C 707.563 214.939 698.774 214.058 692.336 209.053 C 682.182 201.156 680.425 185.472 672.56 174.917 C 665.465 165.394 654.153 161.014 643.246 158.173 C 634.628 155.929 625.619 152.933 618.068 147.688 C 611.439 143.08 611.543 137.129 605.398 131.881 C 601.108 128.217 592.533 122.732 587.231 121.69 C 575.331 119.364 573.836 126.208 568.43 125.689 C 560.022 124.88 559.651 118.652 547.483 122.61 C 537.676 125.799 531.798 131.459 524.632 140.716 C 516.796 150.838 504.147 157.198 495.328 166.699 C 490.157 172.277 485.656 178.431 481.162 184.57 C 475.621 192.149 469.991 199.898 467.08 208.836 C 461.686 225.4 467.763 240.228 471.565 256.227 C 475.693 273.588 476.731 292.099 471.143 309.232 C 466.212 324.352 440.765 335.309 437.537 350.884 C 434.983 363.188 432.081 387.015 437.489 398.38 C 444.437 412.965 479.405 421.043 495.413 425.434 C 513.334 430.343 530.306 419.398 548.233 420.543 C 566.153 421.688 588.161 404.927 606.08 406.072 C 623.049 407.154 632.215 444.839 649.12 443.604 C 661.401 444.39 691.943 461.368 740.766 412.128 C 755.905 396.86 743.927 375.651 746.204 365.837 C 750.347 347.987 738.792 347.377 738.15 336.784 L 738.184 336.784 Z" class="color4d3932 svgShape" style="transform-origin: 591.995px 283.554px;" fill="#4d3932"/>
  <path fill="#ec8e75" d="M 596.222 252.262 C 596.222 252.262 579.41 308.427 604.443 330.736 L 569.893 356.615 L 537.974 351.836 L 539.62 323.461 C 539.62 323.461 550.959 307.211 552.856 293.018 C 554.266 282.45 543.459 255.277 543.459 255.277 L 596.222 252.262 Z" class="colorec8e75 svgShape" style="transform-origin: 571.389px 304.126px;"/>
  <path fill="#faa186" d="M 615.903 228.245 C 616.656 224.255 615.41 219.217 611.851 217.469 C 607.993 215.575 606.302 215.46 601.257 220.271 C 601.257 220.271 601.217 220.114 601.15 219.835 C 586.51 210.956 571.384 204.324 557.208 191.882 C 551.62 186.979 532.568 167.193 532.208 163.147 C 532.058 163.119 525.195 169.98 524.362 170.87 C 506.85 189.4 504.516 204.154 505.083 229.87 C 505.39 243.742 507.89 257.685 513.399 270.599 C 517.786 280.889 525.156 289.673 534.745 295.031 C 550.494 303.823 572.86 301.573 598.505 255.174 C 598.505 255.174 608.454 267.52 615.903 228.238 L 615.903 228.245 Z" class="colorfaa186 svgShape" style="transform-origin: 560.529px 231.1px;"/>
  <path fill="#4d3932" d="M 530.266 161.297 C 530.266 161.297 530.266 161.297 530.266 161.297 C 530.266 161.297 530.619 161.395 530.857 161.458 C 530.952 161.499 531.047 161.541 531.087 161.562 C 531.121 161.583 531.182 161.624 531.243 161.665 C 531.318 161.74 531.385 161.816 531.412 161.843 C 531.439 161.877 531.519 161.987 531.594 162.076 C 531.702 162.247 531.837 162.459 531.864 162.506 C 532.18 163.018 532.471 163.544 532.767 164.069 C 533.299 165.005 534.151 165.685 535.129 166.066 C 538.803 170.574 543.854 177.172 550.522 186.372 C 566.208 207.986 569.801 204.115 573.153 209.238 C 557.479 204.606 535.582 174.855 528.981 162.937 C 529.52 162.48 529.971 161.913 530.26 161.29 L 530.266 161.297 Z" class="color4d3932 svgShape" style="transform-origin: 551.072px 185.11px;"/>
  <path fill="#4d3932" d="M 531.094 161.569 C 531.128 161.59 531.189 161.631 531.25 161.672 C 531.324 161.748 531.392 161.823 531.419 161.85 C 531.446 161.885 531.527 161.993 531.601 162.083 C 531.709 162.254 531.844 162.465 531.871 162.513 C 532.188 163.025 532.477 163.551 532.774 164.077 C 533.01 164.492 533.307 164.849 533.652 165.164 C 532.112 167.38 530.436 169.772 528.609 172.346 C 513.194 194.053 518.029 196.232 514.247 201.027 C 513.816 190.559 522.354 174.395 530.945 161.493 C 531.006 161.521 531.06 161.542 531.088 161.562 L 531.094 161.569 Z" class="color4d3932 svgShape" style="transform-origin: 523.949px 181.211px;"/>
  <path fill="#e8846a" d="M 609.498 235.96 C 608.989 234.454 608.371 232.967 607.651 231.556 C 607.45 231.153 606.964 230.204 606.103 229.83 C 606.485 229.548 606.881 229.286 607.256 229.044 C 608.312 228.36 609.62 227.502 610.966 227.484 C 611.299 227.481 611.566 227.204 611.56 226.871 C 611.555 226.538 611.278 226.271 610.945 226.275 C 609.246 226.295 607.774 227.255 606.588 228.027 C 605.517 228.725 604.181 229.59 603.448 230.93 C 603.043 231.674 602.856 232.509 602.689 233.247 L 601.203 239.86 C 601.126 240.186 601.336 240.514 601.662 240.585 C 601.662 240.585 601.662 240.585 601.662 240.585 C 601.987 240.662 602.314 240.454 602.384 240.128 L 603.87 233.516 C 604.023 232.823 604.183 232.111 604.512 231.516 C 604.656 231.259 604.827 231.016 605.025 230.793 C 605.127 230.889 605.255 230.958 605.404 230.973 C 605.764 231.01 606.116 231.38 606.507 232.15 C 607.193 233.509 607.791 234.934 608.28 236.378 C 608.353 236.596 608.536 236.754 608.74 236.797 C 608.855 236.825 608.971 236.818 609.086 236.778 C 609.42 236.659 609.599 236.294 609.484 235.953 L 609.498 235.96 Z" class="colore8846a svgShape" style="transform-origin: 606.376px 233.108px;"/>
  <path fill="#4a2c28" d="M 557.344 210.305 C 555.309 209.445 553.186 208.565 550.985 208.677 C 548.782 208.788 546.486 210.21 546.136 212.388 C 548.044 214 550.789 213.955 553.282 214.091 C 558.948 214.395 563.783 216.336 568.909 218.505 C 572.722 214.113 560.388 211.587 557.35 210.298 L 557.344 210.305 Z M 516.412 210.169 C 518.073 209.509 519.802 208.837 521.588 208.974 C 523.375 209.111 525.217 210.308 525.467 212.077 C 523.898 213.349 521.676 213.256 519.651 213.314 C 515.057 213.453 511.109 214.93 506.929 216.595 C 503.902 212.962 513.927 211.155 516.412 210.169 Z" class="color4a2c28 svgShape" style="transform-origin: 538.013px 213.299px;"/>
  <path fill="#ffffff" d="M 552.87 262.257 L 532.089 264.127 C 531.633 264.17 531.406 264.801 531.696 265.245 C 534.508 269.623 546.091 285.503 553.483 263.241 C 553.642 262.753 553.312 262.214 552.87 262.25 L 552.87 262.257 Z" class="colorfff svgShape" style="transform-origin: 542.524px 268.369px;"/>
  <path fill="#e8846a" d="M 536.335 251.598 C 535.08 251.247 534.152 250.656 533.524 249.815 C 531.539 247.142 533.258 243.133 534.915 239.26 C 535.471 237.966 535.993 236.748 536.325 235.683 C 536.525 235.033 537.192 234.644 537.878 234.874 C 538.529 235.076 538.9 235.772 538.692 236.43 C 538.327 237.61 537.776 238.889 537.199 240.243 C 535.941 243.175 534.382 246.819 535.515 248.343 C 536.056 249.074 537.615 249.841 541.952 249.353 C 542.632 249.278 543.247 249.765 543.326 250.445 C 543.404 251.125 542.919 251.739 542.239 251.816 C 539.798 252.088 537.841 252.018 536.342 251.605 L 536.335 251.598 Z" class="colore8846a svgShape" style="transform-origin: 538.01px 243.282px;"/>
  <path fill="#e48276" d="M 567.907 248.402 C 567.237 249.124 566.589 249.894 566.264 250.815 C 565.485 253.01 566.792 255.528 568.729 256.821 C 570.673 258.115 573.083 258.44 575.413 258.575 C 576.785 258.654 578.199 258.672 579.505 258.241 C 581.051 257.737 582.34 256.654 583.487 255.501 C 584.989 253.991 586.356 252.297 587.182 250.333 C 588.013 248.369 588.268 246.102 587.579 244.084 C 587.311 243.301 586.887 242.544 586.236 242.021 C 585.661 241.562 584.956 241.318 584.243 241.136 C 577.688 239.431 572.115 243.87 567.914 248.402 L 567.907 248.402 Z M 514.499 253.995 C 514.287 253.035 513.733 252.188 513.16 251.389 C 511.25 248.736 508.959 246.074 506.243 244.258 C 506.998 249.653 508.12 255.003 509.679 260.241 C 510.243 260.096 510.794 259.897 511.325 259.636 C 513.41 258.6 515.004 256.269 514.499 253.988 L 514.499 253.995 Z" class="colore48276 svgShape" style="transform-origin: 547.086px 250.378px;"/>
  <path d="M 546.857 334.582 C 557.908 336.968 585.44 330.323 591.411 320.756 C 592.335 319.276 593.173 317.584 594.739 316.808 C 596.081 316.14 597.67 316.302 599.164 316.484 C 611.422 317.943 623.856 319.451 635.276 324.165 C 658.216 333.634 674.15 354.712 686.99 375.956 C 697.667 393.621 707.03 412.071 714.982 431.107 C 720.94 445.364 726.174 460.39 725.71 475.811 C 724.997 499.506 709.538 522.082 687.729 531.289 C 681.764 533.802 674.906 535.785 671.509 541.288 C 669.769 544.107 669.216 547.48 668.575 550.737 C 665.279 567.513 660.326 591.147 650.927 605.415 C 647.695 610.321 640.93 623.884 636.15 627.297 C 624.845 635.386 610.802 618.134 597.511 613.949 C 584.22 609.771 571.881 602.746 558.362 599.402 C 548.12 596.873 537.475 596.521 527.136 594.453 C 500.858 589.19 477.101 572.974 450.357 571.547 C 452.664 566.469 456.558 562.316 459.882 557.838 C 480.539 529.983 478.013 491.815 474.56 457.241 C 459.952 518.291 435.137 531.108 406.368 548.942 C 385.611 540.416 375.737 539.112 354.366 532.299 C 356.36 513.616 379.064 503.41 392.683 490.503 C 413.496 470.776 425.952 445.634 438.701 419.937 C 446.6 404.033 451.4 386.793 457.935 370.273 C 464.471 353.753 471.78 343.117 485.52 331.874 C 496.353 323.007 518.822 313.711 534.096 315.092 C 546.349 316.198 534.165 331.842 546.85 334.582 L 546.857 334.582 Z" class="colore65440 svgShape" style="transform-origin: 540.206px 471.747px; fill: rgb(165, 179, 178);"/>
  <path d="M 647.228 473.609 C 646.935 473.607 646.643 473.497 646.42 473.27 C 643.377 470.194 640.8 465.03 638.547 457.482 C 635.799 448.267 632.691 437.831 633.4 427.468 C 633.444 426.836 633.977 426.249 634.621 426.411 C 635.253 426.457 635.727 426.998 635.683 427.629 C 634.995 437.585 637.91 447.373 640.738 456.834 C 642.877 464.007 645.267 468.864 648.045 471.666 C 648.492 472.119 648.488 472.839 648.037 473.283 C 647.812 473.506 647.52 473.612 647.228 473.609 Z M 593.736 510.357 C 593.655 510.077 593.698 509.759 593.896 509.467 C 596.6 505.487 601.887 501.216 610.05 496.431 C 620.027 490.587 631.318 483.971 643.657 481.042 C 644.413 480.858 645.254 481.17 645.251 481.836 C 645.384 482.456 644.884 483.097 644.137 483.275 C 632.286 486.086 621.696 492.292 611.447 498.297 C 603.686 502.848 598.706 506.829 596.243 510.459 C 595.846 511.039 595.001 511.291 594.351 511.014 C 594.025 510.876 593.809 510.636 593.729 510.357 L 593.736 510.357 Z M 666.667 544.769 C 666.639 545.06 666.474 545.338 666.167 545.533 C 661.996 548.224 655.191 550.22 645.365 551.635 C 633.365 553.352 619.772 555.307 606.565 553.447 C 605.757 553.338 605.054 552.74 605.308 552.111 C 605.413 551.486 606.149 551.078 606.95 551.187 C 619.634 552.975 632.384 551.142 644.711 549.374 C 654.054 548.03 660.45 546.186 664.246 543.73 C 664.853 543.334 665.784 543.423 666.311 543.917 C 666.575 544.164 666.696 544.47 666.667 544.763 L 666.667 544.769 Z" class="colorbf3f2e svgShape" style="transform-origin: 630.367px 489.915px; fill: rgb(119, 129, 128);"/>
  <path fill="#bfaa8e" d="M 734.044 645.393 C 733.324 645.387 732.619 645.043 732.18 644.407 C 716.702 622.047 677.345 624.982 655.951 636.916 C 654.847 637.539 653.457 637.134 652.843 636.035 C 652.223 634.929 652.617 633.539 653.714 632.93 C 676.628 620.145 718.988 617.337 735.937 641.814 C 736.659 642.853 736.401 644.278 735.364 644.99 C 734.962 645.265 734.506 645.397 734.051 645.393 L 734.044 645.393 Z M 700.601 569.84 C 700.044 569.835 699.487 569.627 699.055 569.222 C 698.134 568.359 698.08 566.91 698.941 565.993 C 716.332 547.394 754.46 533.055 777.035 551.931 C 778.01 552.741 778.139 554.183 777.333 555.155 C 776.533 556.114 775.085 556.251 774.117 555.435 C 753.592 538.28 718.444 551.842 702.283 569.12 C 701.832 569.605 701.219 569.845 700.601 569.84 Z" class="colorbfaa8e svgShape" style="transform-origin: 715.21px 593.31px;"/>
  <path d="M 318.419 789.422 C 320.682 789.345 323.02 789.133 324.976 787.994 C 327.15 786.728 328.54 784.483 329.78 782.298 C 332.632 777.272 335.164 772.061 337.344 766.711 C 339.93 760.392 342.027 753.879 344.125 747.38 C 363.836 686.277 383.547 625.173 403.251 564.07 C 403.795 562.389 404.354 560.661 405.455 559.277 C 406.699 557.711 408.504 556.713 410.289 555.803 C 430.194 545.664 453.078 541.427 475.334 543.762 C 450.926 532.908 426.51 522.048 402.101 511.195 C 387.246 504.585 372.227 497.926 356.281 494.793 C 346.357 492.844 335.079 492.609 327.274 499.015 C 322.696 502.769 319.992 508.298 317.561 513.694 C 301.562 549.176 291.151 587.191 286.831 625.908 C 283.129 659.106 283.883 692.57 283.273 725.922 C 283.116 734.19 282.893 742.458 282.486 750.717 C 282.132 757.89 278.935 769.456 280.567 776.346 C 283.297 787.866 307.851 789.778 318.426 789.422 L 318.419 789.422 Z" class="color4d4445 svgShape" style="transform-origin: 377.795px 642.318px; fill: rgb(69, 68, 77);"/>
  <path d="M 517.049 557.521 C 494.413 545.732 466.183 537.919 441.329 532.185 C 416.481 526.445 389.599 526.566 366.378 536.984 C 339.343 549.118 320.178 573.504 302.125 596.998 C 290.445 612.191 278.772 627.385 267.093 642.585 C 251.877 662.392 236.417 682.44 216.569 697.602 C 202.922 708.03 185.491 719.5 186.597 736.667 C 187.274 747.156 195.066 755.659 202.552 763.052 C 206.684 767.136 211.007 772.294 216.672 774.222 C 224.351 776.84 234.652 772.718 241.834 769.915 C 249.18 767.04 256.035 763.019 262.842 759.079 C 276.191 751.352 296.574 737.786 309.113 728.81 C 324.817 717.569 335.539 700.832 345.866 684.513 C 361.341 660.062 376.816 635.617 392.293 611.165 C 389.122 616.175 453.269 668.502 469.995 677.641 C 498.206 693.064 538.513 689.043 556.995 687.584 C 582.268 685.587 591.647 679.773 614.431 668.339 C 636.221 657.407 649.142 625.942 625.139 610.043 C 608.646 599.119 591.223 589.62 573.119 581.658 C 554.466 573.461 535.194 566.89 517.029 557.528 L 517.049 557.521 Z" class="color4d4445 svgShape" style="transform-origin: 412.449px 652.802px; fill: rgb(69, 68, 77);"/>
  <path fill="#bfaa8e" d="M 523.776 690.153 C 478.265 689.783 428.724 685.704 383.506 665.685 C 382.353 665.173 381.823 663.822 382.331 662.664 C 382.84 661.508 384.188 660.982 385.34 661.5 C 433.006 682.606 485.328 686.354 549.232 685.475 C 557.482 685.359 564.345 685.176 571.282 683.936 C 578.083 682.713 585.147 680.427 593.509 676.731 C 612.78 668.223 630.077 656.331 644.915 641.38 C 662.273 623.888 675.694 602.633 688.678 582.075 C 693.889 573.815 699.272 565.29 703.371 556.36 C 709.718 542.53 711.879 539.497 713.231 521.461 C 713.325 520.197 714.376 519.241 715.68 519.36 C 716.937 519.459 717.883 520.56 717.789 521.817 C 716.4 540.397 714.1 543.945 707.527 558.276 C 703.304 567.483 697.839 576.144 692.553 584.519 C 679.432 605.294 665.874 626.764 648.167 644.606 C 632.927 659.962 615.167 672.177 595.371 680.918 C 586.668 684.76 579.27 687.147 572.103 688.434 C 564.248 689.844 555.964 689.96 549.312 690.049 C 540.987 690.164 532.453 690.231 523.776 690.16 L 523.776 690.153 Z" class="colorbfaa8e svgShape" style="transform-origin: 549.911px 604.036px;"/>
  <path fill="#382d2f" d="M 285.19 743.837 C 284.592 743.832 284.01 743.514 283.699 742.954 C 283.241 742.129 283.532 741.084 284.364 740.622 C 304.218 729.626 316.636 709.253 328.65 689.551 C 332.02 684.027 335.5 678.313 339.086 672.913 C 350.751 655.342 362.766 642.44 376.686 627.503 L 379.596 624.381 C 380.246 623.693 381.326 623.654 382.016 624.298 C 382.712 624.949 382.754 626.03 382.106 626.725 L 379.196 629.847 C 365.384 644.676 353.452 657.484 341.945 674.813 C 338.392 680.165 334.933 685.852 331.576 691.349 C 319.336 711.43 306.678 732.194 286.034 743.632 C 285.768 743.779 285.476 743.845 285.197 743.843 L 285.19 743.837 Z M 292.683 611.653 C 292.33 611.65 291.978 611.538 291.673 611.312 C 290.915 610.741 290.75 609.673 291.318 608.91 C 306.885 587.959 346.127 545.653 355.883 540.507 C 391.335 521.81 418.742 526.531 436.883 529.655 L 441.011 530.348 C 441.948 530.505 442.583 531.381 442.435 532.316 C 442.288 533.253 441.429 533.898 440.472 533.734 C 439.155 533.52 437.763 533.277 436.31 533.028 C 418.624 529.99 391.909 525.382 357.486 543.53 C 348.241 548.408 309.093 590.729 294.067 610.95 C 293.731 611.409 293.207 611.643 292.677 611.639 L 292.683 611.653 Z" class="color382d2f svgShape" style="transform-origin: 362.976px 635.871px;"/>
  <path d="M 475.105 455.534 C 474.561 455.529 474.088 455.137 473.989 454.58 L 471.304 439.262 C 470.63 435.398 469.923 431.396 469.935 427.347 C 469.953 420.885 471.757 414.648 473.614 408.805 C 477.34 397.046 481.746 385.348 486.713 374.027 C 486.968 373.451 487.635 373.191 488.218 373.448 C 488.794 373.704 489.056 374.379 488.809 374.954 C 483.875 386.194 479.497 397.819 475.791 409.496 C 473.99 415.169 472.235 421.215 472.218 427.352 C 472.214 431.205 472.895 435.103 473.555 438.873 L 476.24 454.191 C 476.345 454.81 475.935 455.405 475.309 455.508 C 475.241 455.521 475.173 455.527 475.105 455.527 L 475.105 455.534 Z" class="colorbf3f2e svgShape" style="transform-origin: 479.352px 414.506px; fill: rgb(121, 131, 131);"/>
  <g>
    <path d="M 534.874 523.834 L 438.194 536.563 L 289.293 513.838 L 436.678 507.672 C 436.82 507.666 436.97 507.674 437.112 507.682 L 534.774 517.854 C 536.356 518.016 537.538 519.385 537.476 520.974 C 537.421 522.435 536.321 523.642 534.874 523.834 Z" class="color556a9e svgShape" style="fill: rgb(200, 200, 200); transform-origin: 413.362px 522.216px;"/>
    <path d="M 222.788 400.262 L 272.283 514.481 L 438.201 536.57 L 442.825 535.962 L 392.269 397.027 C 390.86 393.163 386.966 390.502 382.482 390.336 L 231.628 384.862 C 223.938 384.575 220.211 393.691 222.788 400.262 Z" class="color7693db svgShape" style="fill: rgb(200, 200, 200); transform-origin: 332.424px 461.254px; pointer-events: none; visibility: hidden;"/>
    <path d="M 223.367 402.74 L 269.013 519.149 L 438.202 536.57 L 388.998 401.689 C 387.59 397.825 383.696 395.163 379.212 394.998 L 228.481 389.524 C 220.79 389.237 220.79 396.161 223.367 402.74 Z" class="color7693db svgShape" style="fill: rgb(200, 200, 200); transform-origin: 330.025px 463.586px;"/>
    <path d="M 432.954 535.677 C 432.601 535.674 432.269 535.454 432.134 535.1 L 385.063 405.978 C 383.842 402.639 380.363 400.022 376.966 399.892 L 223.822 394.399 C 223.34 394.381 222.962 393.978 222.977 393.495 C 222.993 393.013 223.409 392.622 223.878 392.653 L 377.022 398.147 C 381.159 398.302 385.229 401.346 386.704 405.381 L 433.774 534.501 C 433.942 534.958 433.709 535.459 433.253 535.618 C 433.151 535.658 433.049 535.672 432.947 535.671 L 432.954 535.677 Z" class="color3b4a6e svgShape" style="transform-origin: 328.4px 464.738px; fill: rgb(154, 154, 154);"/>
    <path d="M 315.62 458.7 C 318.41 463.493 317.774 468.672 314.219 470.22 C 310.685 471.76 305.635 469.131 302.92 464.386 C 300.225 459.669 300.834 454.584 304.287 452.994 C 307.767 451.393 312.844 453.934 315.613 458.7 L 315.62 458.7 Z" class="colorb0c1eb svgShape" style="fill: rgb(234, 235, 176); transform-origin: 309.296px 462.224px;"/>
  </g>
  <path fill="#faa186" d="M 590.015 541.725 C 589.1 538.301 588.561 534.688 588.519 530.781 C 588.472 526.56 589.102 522.76 590.037 519.051 C 588.881 519.34 587.697 519.644 586.486 519.953 C 582.744 520.914 578.816 521.025 575.028 520.233 C 557.067 516.465 548.259 504.502 532.731 494.904 C 524.586 490.516 516.594 489.187 507.538 490.241 C 503.399 490.296 498.151 489.519 494.205 490.615 C 489.182 492.13 463.682 511.682 478.086 514.504 C 477.062 516.969 475.145 518.381 475.179 521.323 C 475.216 524.768 476.681 525.426 480.052 525.114 C 485.254 524.307 488.75 519.436 491.752 515.594 C 493.067 520.503 514.233 509.246 526.779 514.439 C 541.737 519.494 543.491 540.123 558.841 542.864 C 568.462 544.581 578.156 546.318 587.954 546.465 C 588.546 544.839 589.219 543.248 590.015 541.719 L 590.015 541.725 Z" class="colorfaa186 svgShape" style="transform-origin: 531.912px 517.938px;"/>
  <path fill="#e8846a" d="M 491.544 513.907 C 491.275 513.314 491.332 512.601 491.58 511.991 C 491.821 511.368 492.245 510.841 492.696 510.362 C 493.638 509.44 494.749 508.722 495.907 508.133 C 498.223 506.942 500.7 506.181 503.184 505.521 C 504.435 505.219 505.687 504.944 506.945 504.703 C 508.21 504.475 509.468 504.261 510.74 504.095 C 513.275 503.755 515.832 503.525 518.387 503.444 C 515.877 503.96 513.367 504.415 510.872 504.898 C 510.245 505.029 509.627 505.16 509.001 505.277 L 507.137 505.676 L 505.28 506.089 C 504.661 506.233 504.049 506.391 503.437 506.542 C 502.212 506.852 500.988 507.182 499.79 507.573 C 498.585 507.944 497.401 508.376 496.25 508.876 C 495.106 509.384 493.995 509.973 493.033 510.746 C 492.563 511.143 492.126 511.587 491.83 512.122 C 491.529 512.65 491.37 513.287 491.53 513.921 L 491.544 513.907 Z M 478.633 512.681 C 478.97 511.847 479.409 511.049 479.881 510.279 C 480.353 509.508 480.881 508.772 481.434 508.049 C 481.988 507.327 482.589 506.652 483.204 505.984 C 483.832 505.33 484.488 504.697 485.163 504.091 C 486.514 502.878 487.988 501.803 489.521 500.817 C 491.062 499.85 492.683 499.015 494.338 498.267 L 495.591 497.734 L 496.87 497.255 C 497.293 497.088 497.728 496.95 498.157 496.81 C 498.593 496.678 499.015 496.518 499.457 496.4 C 500.334 496.169 501.206 495.911 502.096 495.734 L 503.423 495.447 L 504.762 495.22 C 508.34 494.63 511.962 494.435 515.562 494.621 C 511.967 494.87 508.404 495.289 504.915 496.022 C 501.425 496.756 498.002 497.774 494.754 499.215 C 491.506 500.636 488.432 502.459 485.677 504.7 C 484.299 505.817 483.002 507.036 481.814 508.364 C 481.212 509.018 480.645 509.714 480.112 510.424 C 479.578 511.139 479.064 511.875 478.626 512.661 L 478.633 512.681 Z" class="colore8846a svgShape" style="transform-origin: 498.525px 504.224px;"/>
  <path fill="#382924" d="M 692.007 357.678 C 691.748 357.593 691.559 357.355 691.541 357.069 C 691.159 350.135 688.155 343.404 685.252 336.898 C 681.534 328.565 677.689 319.951 679.446 310.934 C 679.773 309.252 680.291 307.612 680.795 306.026 C 681.237 304.622 681.699 303.172 682.012 301.728 C 683.103 296.681 682.491 291.355 681.752 286.804 C 681.072 282.64 680.083 277.78 677.91 273.36 C 674.471 266.346 668.288 260.9 662.114 256.053 C 661.235 255.359 660.348 254.673 659.455 253.986 C 654.053 249.804 648.468 245.484 644.228 239.98 C 638.575 232.649 636.477 224.064 638.597 217.008 C 638.708 216.648 639.089 216.441 639.449 216.553 C 639.795 216.664 640.01 217.047 639.907 217.406 C 637.911 224.042 639.931 232.164 645.305 239.146 C 649.438 244.514 654.954 248.778 660.282 252.906 C 661.175 253.592 662.062 254.286 662.949 254.979 C 669.251 259.923 675.57 265.498 679.129 272.757 C 681.376 277.342 682.392 282.324 683.091 286.584 C 683.856 291.258 684.482 296.747 683.342 302.018 C 683.015 303.523 682.546 305 682.091 306.43 C 681.601 307.983 681.09 309.588 680.783 311.19 C 679.117 319.779 682.7 327.819 686.498 336.337 C 689.448 342.959 692.5 349.806 692.9 356.992 C 692.918 357.366 692.632 357.69 692.258 357.707 C 692.17 357.706 692.081 357.698 692 357.671 L 692.007 357.678 Z M 489.564 196.158 C 489.548 196.924 489.564 197.693 489.615 198.454 C 489.64 198.828 489.965 199.116 490.339 199.092 C 490.712 199.068 491.006 198.751 490.974 198.37 C 490.607 192.789 492.199 186.727 495.454 181.29 C 498.256 176.611 502.367 172.18 507.667 168.125 C 508.846 167.225 511.785 165.278 513.64 166.727 C 513.938 166.96 514.366 166.91 514.599 166.613 C 514.831 166.322 514.778 165.887 514.48 165.654 C 511.97 163.689 508.61 165.68 506.836 167.045 C 501.401 171.207 497.173 175.766 494.281 180.595 C 491.281 185.605 489.672 190.939 489.558 196.158 L 489.564 196.158 Z M 615.177 192.933 C 614.988 192.917 614.804 192.821 614.683 192.65 C 609.986 186.088 603.603 180.791 597.424 175.665 C 591.286 170.573 584.932 165.303 580.16 158.747 L 579.822 158.282 C 578.945 157.059 578.108 155.911 576.963 155.127 C 576.652 154.913 576.565 154.492 576.778 154.18 C 576.99 153.87 577.412 153.785 577.723 154.005 C 579.071 154.92 580.016 156.226 580.92 157.49 L 581.25 157.948 C 585.928 164.359 592.209 169.574 598.287 174.612 C 604.532 179.793 610.988 185.152 615.788 191.851 C 616.003 192.158 615.933 192.585 615.633 192.801 C 615.497 192.901 615.333 192.941 615.17 192.926 L 615.177 192.933 Z" class="color382924 svgShape" style="transform-origin: 591.334px 255.159px;"/>
  <path fill="#4a2c28" d="M 560.296 233.052 C 560.544 236.621 558.871 239.652 556.56 239.823 C 554.25 239.988 552.17 237.233 551.922 233.663 C 551.675 230.094 553.348 227.063 555.658 226.892 C 557.969 226.72 560.049 229.483 560.296 233.052 Z M 514.633 227.951 C 511.737 228.043 509.43 228.921 507.859 230.559 C 507.504 230.93 507.514 231.528 507.894 231.885 C 508.272 232.242 508.863 232.232 509.219 231.854 C 511.321 229.663 514.897 229.631 517.531 229.993 C 520.763 230.44 523.768 231.423 526.723 233.01 C 527.177 233.258 527.749 233.086 527.996 232.626 C 528.242 232.166 528.068 231.601 527.607 231.352 C 524.457 229.661 521.241 228.603 517.785 228.133 C 516.671 227.981 515.618 227.918 514.633 227.951 Z" class="color4a2c28 svgShape" style="transform-origin: 533.958px 233.083px;"/>
  <path fill="#4a2c28" d="M 555.092 226.018 C 552.198 226.109 549.889 226.987 548.318 228.627 C 547.963 228.997 547.975 229.595 548.353 229.952 C 548.732 230.308 549.323 230.299 549.678 229.922 C 551.782 227.73 555.356 227.698 557.99 228.059 C 561.223 228.507 564.228 229.489 567.183 231.076 C 567.637 231.325 568.208 231.153 568.455 230.693 C 568.703 230.233 568.528 229.667 568.068 229.418 C 564.916 227.729 561.701 226.67 558.244 226.199 C 557.131 226.048 556.078 225.985 555.092 226.018 Z M 520.784 234.545 C 521.032 238.114 519.359 241.144 517.048 241.317 C 514.737 241.481 512.658 238.726 512.41 235.157 C 512.162 231.587 513.835 228.556 516.146 228.385 C 518.457 228.22 520.536 230.976 520.784 234.545 Z" class="color4a2c28 svgShape" style="transform-origin: 540.471px 233.586px;"/>
  <g>
    <g>
      <path fill="#3f6e4f" d="M 725.293 535.162 C 724.107 541.092 725.097 547.138 727.931 552.277 C 728.877 553.987 730.032 555.605 731.372 557.078 C 741.84 567.852 755.729 575.752 763.288 589.405 C 764.802 592.139 766.054 595.097 766.926 598.333 C 770.284 609.537 761.735 618.397 756.794 627.277 C 744.31 650.875 768.188 669.479 777.55 687.971 C 779.26 690.664 781.045 693.268 782.968 695.736 C 786.816 700.671 791.203 705.081 796.601 708.464 C 800.069 710.58 803.614 710.122 806.846 708.373 C 808.459 707.499 810 706.296 811.389 704.917 C 812.347 703.854 813.641 702.753 814.157 701.359 C 818.062 692.711 821.759 683.79 826.215 675.627 C 827.706 672.903 829.276 670.266 830.968 667.756 C 839.112 655.555 853.05 651.76 864.673 645.168 C 879.404 637.203 872.547 615.115 863.593 602.496 C 859.497 596.606 860.315 588.528 863.788 582.24 C 864.97 579.995 866.478 577.912 868.117 576.04 C 887.269 555.007 911.365 528.71 902.246 496.292 C 899.204 485.949 890.48 478.346 880.443 476.039 C 878.32 475.462 876.082 475.094 873.835 474.741 C 867.103 473.668 860.289 472.673 856.268 466.36 C 843.991 447.022 859.305 425.397 861.98 405.06 C 862.772 400.606 862.794 396.146 862.831 391.598 C 862.797 389.495 862.706 387.384 862.527 385.28 C 861.818 376.877 859.726 368.659 854.395 362.227 C 851.719 359.011 848.69 356.418 845.565 354.166 C 836.19 347.409 826.071 343.689 815.5 343.604 C 811.978 343.575 808.498 343.954 805.083 344.712 C 801.666 345.47 798.299 346.614 795.002 348.115 C 790.912 349.813 787.226 352.025 783.91 354.654 C 780.593 357.283 777.646 360.322 775.026 363.692 C 758.675 386.355 759.7 413.323 765.559 439.98 C 766.725 445.309 768.089 450.633 769.548 455.905 C 771.687 465.025 775.915 473.791 777.872 482.838 C 778.364 485.096 778.709 487.377 778.844 489.677 C 779.592 494.166 778.731 498.976 776.618 502.83 C 775.56 504.757 774.191 506.448 772.554 507.744 C 771.276 508.891 769.467 509.714 767.917 509.977 C 753.476 512.369 733.901 509.7 727.355 527.074 C 726.462 529.613 725.765 532.308 725.271 535.17 L 725.293 535.162 Z" class="color3f6e4f svgShape" style="transform-origin: 814.518px 525.527px;"/>
      <path fill="#30543c" d="M 801.788 704.177 C 801.788 704.177 801.759 704.177 801.744 704.176 C 801.053 704.141 800.516 703.562 800.542 702.87 L 801.506 679.798 C 801.712 674.823 801.949 669.462 802.37 663.564 C 803.218 651.026 805.243 638.541 807.201 626.479 C 808.889 616.087 810.636 605.332 811.635 594.521 C 812.935 577.133 811.638 559.586 810.39 542.608 L 810.192 539.921 C 809.96 536.726 809.68 532.931 809.423 529.036 C 805.604 503.327 803.921 478.457 804.398 455.104 C 804.929 429.481 808.092 404.803 813.8 381.747 C 813.963 381.078 814.642 380.669 815.318 380.835 C 815.986 381 816.397 381.68 816.234 382.355 C 805.271 426.638 803.852 474.513 811.905 528.722 L 811.92 528.824 C 812.177 532.734 812.456 536.535 812.688 539.745 L 812.886 542.431 C 814.148 559.498 815.453 577.154 814.13 594.723 L 814.13 594.745 C 813.116 605.651 811.361 616.45 809.666 626.892 C 807.716 638.904 805.697 651.323 804.859 663.751 C 804.444 669.628 804.208 674.959 804.001 679.92 L 803.037 702.993 C 803.013 703.669 802.449 704.196 801.78 704.191 L 801.788 704.177 Z" class="color30543c svgShape" style="transform-origin: 808.412px 541.252px;"/>
      <path fill="#30543c" d="M 811.688 603.261 C 811.592 603.26 811.491 603.244 811.389 603.222 C 810.721 603.056 810.309 602.375 810.472 601.702 C 815.207 582.537 821.65 565.512 829.622 551.082 C 836.017 539.513 843.4 529.576 851.581 521.558 C 865.581 507.825 876.921 504.49 877.4 504.356 C 878.064 504.165 878.76 504.555 878.953 505.22 C 879.147 505.883 878.758 506.578 878.094 506.77 C 877.92 506.819 866.728 510.17 853.201 523.499 C 840.655 535.862 823.483 559.567 812.921 602.318 C 812.78 602.89 812.263 603.273 811.702 603.268 L 811.688 603.261 Z M 805.354 644.328 C 804.721 644.323 804.177 643.839 804.115 643.197 C 799.285 595.104 786.937 570.941 777.427 559.141 C 767.316 546.587 758.416 545.162 758.322 545.146 C 757.639 545.046 757.161 544.409 757.26 543.726 C 757.357 543.042 757.992 542.567 758.676 542.667 C 759.076 542.73 768.651 544.263 779.369 557.571 C 785.575 565.276 790.917 575.39 795.246 587.636 C 800.629 602.865 804.447 621.479 806.604 642.949 C 806.674 643.641 806.168 644.248 805.484 644.315 C 805.44 644.314 805.397 644.314 805.354 644.314 L 805.354 644.328 Z" class="color30543c svgShape" style="transform-origin: 817.89px 572.851px;"/>
      <path fill="#e4b752" d="M 752.421 706.423 C 774.545 702.747 810.796 699.862 854.274 708.286 C 865.469 710.457 872.951 722.015 870.957 734.121 L 860.175 799.58 C 856.672 820.828 839.541 836.231 819.583 836.068 L 789.359 835.823 C 772.376 835.685 757.527 823.345 753.008 805.628 L 735.094 735.381 C 731.695 722.044 739.788 708.518 752.414 706.415 L 752.421 706.423 Z" class="colore4b752 svgShape" style="transform-origin: 802.61px 768.159px;"/>
      <path fill="#f6c55a" d="M 750.705 706.111 C 770.893 702.819 803.975 700.242 843.66 707.792 C 853.874 709.737 860.707 720.082 858.885 730.916 L 849.054 789.499 C 845.862 808.515 830.23 822.3 812.017 822.151 L 784.434 821.927 C 768.936 821.801 755.383 810.763 751.262 794.902 L 734.906 732.032 C 731.8 720.095 739.193 707.989 750.712 706.111 L 750.705 706.111 Z" class="colorf6c55a svgShape" style="transform-origin: 796.52px 761.261px;"/>
    </g>
  </g>
</svg>