<?xml version="1.0" standalone="no"?>
<!DOCTYPE svg PUBLIC "-//W3C//DTD SVG 20010904//EN"
 "http://www.w3.org/TR/2001/REC-SVG-20010904/DTD/svg10.dtd">
<svg version="1.0" xmlns="http://www.w3.org/2000/svg"
 width="1280.000000pt" height="922.000000pt" viewBox="0 0 1280.000000 922.000000"
 preserveAspectRatio="xMidYMid meet">
<metadata>
Created by potrace 1.15, written by Peter Selinger 2001-2017
</metadata>
<g transform="translate(0.000000,922.000000) scale(0.100000,-0.100000)"
fill="#ff9800" stroke="none">
<path d="M4070 9178 c-16 -22 -30 -46 -30 -53 0 -28 54 -49 62 -24 3 9 10 8
25 -2 18 -10 24 -11 37 0 9 8 16 20 16 27 0 23 -49 94 -65 94 -8 0 -28 -19
-45 -42z"/>
<path d="M9205 9183 c-14 -21 -25 -48 -25 -61 0 -27 26 -39 51 -23 15 8 24 8
40 -1 17 -11 22 -10 34 6 12 16 12 23 -2 50 -20 41 -43 66 -59 66 -7 0 -25
-17 -39 -37z"/>
<path d="M3975 9014 c-43 -46 -46 -104 -6 -104 28 0 78 86 64 108 -16 26 -31
25 -58 -4z"/>
<path d="M4190 9019 c-10 -17 -7 -28 15 -60 31 -48 53 -59 71 -34 11 15 11 23
-3 49 -33 66 -63 83 -83 45z"/>
<path d="M9118 9028 c-25 -21 -51 -75 -45 -92 12 -31 39 -31 64 0 30 37 39 70
23 89 -15 18 -22 19 -42 3z"/>
<path d="M9333 9033 c-21 -8 -15 -45 12 -86 28 -40 45 -46 66 -21 11 14 9 23
-11 62 -24 45 -41 56 -67 45z"/>
<path d="M3856 8821 c-30 -47 -32 -64 -10 -82 21 -17 39 -5 67 44 16 29 19 42
11 55 -20 31 -42 25 -68 -17z"/>
<path d="M4303 8853 c-21 -8 -15 -45 12 -86 28 -40 45 -46 66 -21 11 14 9 23
-11 62 -24 45 -41 56 -67 45z"/>
<path d="M9014 8852 c-7 -4 -22 -26 -34 -50 -21 -41 -22 -45 -6 -60 21 -22 43
-9 73 43 29 52 8 94 -33 67z"/>
<path d="M9430 8845 c-10 -12 -10 -21 -1 -42 22 -52 46 -76 69 -68 29 9 28 43
-1 86 -26 39 -48 47 -67 24z"/>
<path d="M3745 8637 c-30 -51 -29 -51 -9 -71 21 -22 49 -6 73 42 14 27 16 43
10 55 -17 30 -47 20 -74 -26z"/>
<path d="M4400 8665 c-10 -12 -10 -21 -1 -42 22 -52 46 -76 69 -68 29 9 28 43
-1 86 -26 39 -48 47 -67 24z"/>
<path d="M8898 8663 c-38 -44 -50 -96 -23 -107 25 -9 39 2 65 48 20 37 22 47
11 60 -17 21 -34 20 -53 -1z"/>
<path d="M9537 8673 c-13 -12 -7 -48 13 -81 25 -41 47 -50 68 -28 15 15 15 19
-3 53 -31 57 -58 77 -78 56z"/>
<path d="M3643 8465 c-27 -40 -29 -68 -8 -85 12 -10 20 -7 44 19 37 39 47 67
31 86 -20 24 -44 17 -67 -20z"/>
<path d="M4504 8485 c-9 -22 2 -58 27 -88 25 -32 44 -34 59 -7 9 17 7 28 -11
58 -33 54 -63 69 -75 37z"/>
<path d="M8776 8463 c-31 -45 -33 -69 -7 -82 21 -12 38 -1 65 42 42 69 -13
107 -58 40z"/>
<path d="M9642 8488 c-18 -18 -15 -34 13 -78 26 -41 42 -49 63 -28 18 18 15
34 -13 78 -26 41 -42 49 -63 28z"/>
<path d="M3534 8281 c-31 -48 -29 -75 7 -79 21 -3 30 4 49 41 42 78 -7 111
-56 38z"/>
<path d="M4612 8308 c-18 -18 -15 -34 13 -78 26 -41 42 -49 63 -28 18 18 15
34 -13 78 -26 41 -42 49 -63 28z"/>
<path d="M8665 8276 c-29 -49 -25 -76 11 -76 32 0 82 83 64 105 -22 27 -48 17
-75 -29z"/>
<path d="M9740 8300 c-8 -16 -6 -28 12 -60 27 -47 56 -60 74 -35 11 15 10 23
-3 49 -33 66 -63 83 -83 46z"/>
<path d="M3442 8128 c-5 -7 -17 -28 -26 -46 -20 -38 -8 -65 27 -60 26 4 70 87
55 105 -13 16 -42 17 -56 1z"/>
<path d="M4710 8120 c-8 -16 -6 -28 12 -60 27 -47 56 -60 74 -35 11 15 10 23
-3 49 -33 66 -63 83 -83 46z"/>
<path d="M8561 8104 c-27 -45 -24 -78 6 -82 17 -2 28 7 48 38 31 50 29 74 -6
78 -21 2 -31 -4 -48 -34z"/>
<path d="M9853 8133 c-21 -8 -15 -45 12 -86 28 -40 45 -46 66 -21 11 14 9 23
-11 62 -24 45 -41 56 -67 45z"/>
<path d="M3335 7944 c-45 -48 -46 -108 -3 -102 14 2 31 18 45 43 28 49 28 61
3 75 -17 9 -24 6 -45 -16z"/>
<path d="M8472 7949 c-11 -11 -26 -34 -33 -51 -10 -25 -9 -32 5 -46 21 -22 44
-9 71 41 15 28 17 41 9 54 -16 26 -30 26 -52 2z"/>
<path d="M4823 7953 c-21 -8 -15 -45 12 -86 28 -40 45 -46 66 -21 11 14 9 23
-11 62 -24 45 -41 56 -67 45z"/>
<path d="M9950 7945 c-14 -17 -3 -52 29 -94 13 -17 23 -22 39 -16 30 9 28 41
-3 88 -28 40 -45 46 -65 22z"/>
<path d="M3239 7780 c-8 -5 -24 -27 -34 -50 -17 -38 -17 -42 -2 -58 22 -21 42
-10 71 40 16 29 19 41 10 55 -13 21 -25 25 -45 13z"/>
<path d="M8368 7773 c-9 -10 -23 -33 -33 -52 -15 -30 -15 -35 -2 -48 28 -28
55 -5 94 79 4 8 -25 38 -36 38 -4 0 -15 -8 -23 -17z"/>
<path d="M4919 7764 c-20 -24 28 -109 62 -109 35 0 37 38 5 86 -28 42 -46 48
-67 23z"/>
<path d="M10057 7773 c-13 -12 -7 -48 13 -81 25 -41 47 -50 68 -28 15 15 15
19 -3 53 -31 57 -58 77 -78 56z"/>
<path d="M3134 7602 c-7 -4 -22 -26 -34 -50 -21 -41 -22 -45 -6 -60 21 -22 43
-9 73 43 29 52 8 94 -33 67z"/>
<path d="M8245 7573 c-28 -42 -32 -78 -10 -87 25 -9 42 3 66 49 19 36 21 46
10 59 -21 25 -38 19 -66 -21z"/>
<path d="M5033 7593 c-20 -8 -15 -47 10 -84 27 -41 52 -48 67 -19 9 17 7 28
-11 58 -31 50 -40 56 -66 45z"/>
<path d="M10162 7588 c-18 -18 -15 -34 13 -78 26 -41 32 -44 59 -34 23 9 20
39 -9 84 -26 41 -42 49 -63 28z"/>
<path d="M3018 7413 c-38 -44 -50 -96 -23 -107 25 -9 42 3 66 49 19 36 21 46
10 59 -17 21 -34 20 -53 -1z"/>
<path d="M8136 7391 c-29 -46 -32 -64 -12 -80 19 -16 42 -4 67 35 25 42 22 78
-8 82 -16 2 -28 -7 -47 -37z"/>
<path d="M5132 7408 c-18 -18 -15 -34 13 -78 26 -41 32 -44 59 -34 23 9 20 39
-9 84 -26 41 -42 49 -63 28z"/>
<path d="M10260 7400 c-8 -16 -6 -28 12 -60 27 -47 56 -60 74 -35 11 15 10 23
-3 49 -33 66 -63 83 -83 46z"/>
<path d="M2913 7238 c-35 -46 -9 -79 54 -69 52 9 58 42 12 65 -39 19 -53 20
-66 4z"/>
<path d="M8040 7231 c-23 -43 -3 -68 51 -65 58 3 68 43 17 68 -41 21 -55 20
-68 -3z"/>
<path d="M5208 7233 c-37 -4 -52 -21 -42 -47 6 -16 87 -26 110 -13 26 15 9 70
-20 65 -6 -1 -27 -3 -48 -5z"/>
<path d="M10345 7231 c-43 -7 -60 -35 -32 -56 32 -23 116 -4 117 27 0 9 -30
38 -38 37 -4 -1 -25 -5 -47 -8z"/>
<path d="M3085 7209 c-10 -31 4 -39 67 -40 56 -2 57 -2 60 -33 3 -34 29 -46
53 -26 16 13 20 86 7 106 -4 7 -43 12 -94 13 -80 1 -87 0 -93 -20z"/>
<path d="M3294 7215 c-12 -29 4 -43 52 -47 59 -4 97 19 75 46 -18 22 -119 23
-127 1z"/>
<path d="M3504 7216 c-12 -30 4 -44 52 -48 53 -4 78 9 72 38 -3 16 -13 20 -61
22 -44 2 -59 0 -63 -12z"/>
<path d="M3717 7224 c-12 -13 -8 -43 8 -51 8 -5 37 -6 63 -3 42 4 47 8 47 30
0 23 -4 25 -55 28 -31 2 -59 0 -63 -4z"/>
<path d="M3920 7215 c-10 -12 -10 -18 0 -30 10 -12 28 -15 69 -13 52 3 56 5
56 28 0 23 -4 25 -56 28 -41 2 -59 -1 -69 -13z"/>
<path d="M4126 7215 c-10 -28 5 -43 48 -47 55 -4 73 0 80 18 12 32 -5 44 -64
44 -42 0 -59 -4 -64 -15z"/>
<path d="M4334 7215 c-11 -28 4 -43 49 -46 57 -5 74 -1 81 18 11 28 -14 43
-71 43 -38 0 -55 -4 -59 -15z"/>
<path d="M4544 7216 c-12 -30 4 -44 52 -48 53 -4 78 9 72 38 -3 16 -13 20 -61
22 -44 2 -59 0 -63 -12z"/>
<path d="M4757 7224 c-11 -11 -8 -42 4 -50 18 -11 99 -8 111 4 5 5 8 18 6 28
-3 15 -14 20 -58 22 -31 2 -59 0 -63 -4z"/>
<path d="M4956 7215 c-10 -28 -7 -80 7 -99 20 -27 51 -16 57 19 4 24 11 31 35
35 24 4 30 10 30 30 0 24 -3 25 -61 28 -49 2 -63 0 -68 -13z"/>
<path d="M8227 7224 c-11 -11 -8 -42 5 -50 6 -4 33 -7 59 -7 46 1 48 0 51 -30
4 -37 30 -56 52 -38 20 17 21 94 2 113 -14 15 -156 24 -169 12z"/>
<path d="M8426 7214 c-12 -31 13 -45 73 -42 52 3 56 5 56 28 0 24 -3 25 -61
28 -50 2 -63 0 -68 -14z"/>
<path d="M8635 7209 c-9 -28 2 -37 50 -39 63 -3 72 -1 79 15 12 33 -4 45 -64
45 -51 0 -60 -3 -65 -21z"/>
<path d="M8844 7215 c-11 -29 4 -43 51 -47 59 -4 90 14 75 43 -9 15 -21 19
-66 19 -39 0 -56 -4 -60 -15z"/>
<path d="M9057 7224 c-11 -11 -8 -42 4 -50 18 -11 99 -8 111 4 5 5 8 18 6 28
-3 15 -14 20 -58 22 -31 2 -59 0 -63 -4z"/>
<path d="M9267 7224 c-11 -11 -8 -42 4 -50 18 -11 99 -8 111 4 5 5 8 18 6 28
-3 15 -14 20 -58 22 -31 2 -59 0 -63 -4z"/>
<path d="M9470 7215 c-10 -12 -10 -18 0 -30 10 -12 28 -15 69 -13 52 3 56 5
56 28 0 23 -4 25 -56 28 -41 2 -59 -1 -69 -13z"/>
<path d="M9675 7209 c-10 -30 3 -38 64 -40 54 -2 74 9 68 41 -2 11 -18 16 -64
18 -55 3 -62 1 -68 -19z"/>
<path d="M9884 7215 c-15 -38 23 -54 108 -46 12 2 18 -7 20 -31 2 -26 8 -34
27 -36 13 -2 28 2 32 10 13 20 11 94 -3 105 -7 6 -50 11 -96 12 -66 1 -84 -2
-88 -14z"/>
<path d="M10094 7216 c-12 -30 4 -44 52 -48 53 -4 78 9 72 38 -3 16 -13 20
-61 22 -44 2 -59 0 -63 -12z"/>
<path d="M3221 7016 c-7 -8 -11 -37 -9 -68 2 -42 7 -54 22 -56 27 -6 35 8 37
67 2 36 -2 56 -12 62 -19 12 -25 11 -38 -5z"/>
<path d="M4977 7018 c-23 -12 -24 -100 -1 -119 23 -19 48 1 52 41 7 66 -15 99
-51 78z"/>
<path d="M8347 7013 c-12 -11 -8 -108 5 -121 16 -16 23 -15 42 4 18 18 21 76
6 105 -10 19 -40 26 -53 12z"/>
<path d="M10014 6996 c-3 -15 -4 -40 -2 -56 4 -23 -1 -33 -19 -45 -50 -33 -9
-74 78 -78 52 -2 54 -1 57 25 2 20 -3 31 -22 43 -21 14 -26 26 -28 73 -3 54
-5 57 -30 60 -22 3 -29 -2 -34 -22z"/>
<path d="M12130 6953 c-38 -20 -50 -52 -26 -72 20 -17 125 8 140 32 29 45 -50
72 -114 40z"/>
<path d="M11531 6908 c-12 -33 -7 -40 54 -70 53 -27 54 -27 77 -8 19 15 21 22
12 37 -18 29 -75 63 -106 63 -21 0 -31 -6 -37 -22z"/>
<path d="M12332 6908 c-19 -19 -15 -37 19 -90 23 -35 37 -48 55 -48 31 0 49
32 33 63 -39 75 -79 103 -107 75z"/>
<path d="M10735 6905 c-5 -2 -23 -6 -38 -9 -25 -6 -28 -11 -25 -39 3 -29 6
-32 43 -35 62 -5 103 6 111 30 11 36 -44 69 -91 53z"/>
<path d="M11341 6876 c-36 -37 -40 -80 -9 -100 14 -9 26 -3 63 34 46 45 54 67
33 88 -21 21 -53 13 -87 -22z"/>
<path d="M1968 6869 c-10 -5 -18 -21 -18 -34 0 -20 11 -30 56 -52 42 -21 59
-24 72 -16 39 24 17 73 -45 99 -38 16 -42 17 -65 3z"/>
<path d="M3197 6865 c-41 -40 2 -78 85 -73 49 3 53 5 56 29 4 34 -15 48 -75
56 -38 4 -53 2 -66 -12z"/>
<path d="M10922 6868 c-18 -18 -14 -38 17 -88 29 -48 59 -61 80 -36 17 21 5
69 -26 106 -26 32 -51 38 -71 18z"/>
<path d="M2582 6858 c-22 -22 -13 -48 21 -64 17 -8 43 -21 56 -29 34 -19 63
-3 59 33 -6 50 -103 93 -136 60z"/>
<path d="M1250 6846 c-6 -8 -10 -25 -8 -38 2 -19 13 -25 67 -37 59 -14 64 -14
77 3 18 26 2 54 -41 72 -44 18 -79 18 -95 0z"/>
<path d="M1780 6831 c-46 -45 -52 -103 -14 -118 12 -4 29 8 60 43 48 54 51 65
28 88 -23 23 -42 20 -74 -13z"/>
<path d="M9800 6818 c-16 -22 -30 -49 -30 -59 0 -18 25 -49 39 -49 13 0 36 24
65 67 23 34 26 45 16 62 -18 35 -56 27 -90 -21z"/>
<path d="M1049 6815 c-42 -28 -53 -49 -39 -76 15 -27 42 -24 94 12 33 21 46
37 46 54 0 41 -48 47 -101 10z"/>
<path d="M2411 6819 c-22 -23 -35 -73 -29 -106 4 -23 57 -25 68 -3 4 8 15 32
26 53 13 29 15 43 7 55 -15 26 -49 26 -72 1z"/>
<path d="M7176 6824 c-34 -33 -11 -120 29 -112 29 5 44 97 19 115 -23 17 -29
16 -48 -3z"/>
<path d="M5234 6816 c-14 -36 0 -51 49 -54 52 -3 77 9 77 38 0 22 -19 30 -76
30 -30 0 -46 -5 -50 -14z"/>
<path d="M5705 6810 c-10 -32 12 -50 61 -50 52 0 79 22 64 51 -9 15 -22 19
-65 19 -45 0 -55 -3 -60 -20z"/>
<path d="M6012 6818 c-16 -16 -15 -33 4 -52 15 -15 28 -15 86 0 22 6 31 33 17
50 -14 17 -91 18 -107 2z"/>
<path d="M6205 6820 c-3 -5 -3 -32 1 -59 5 -39 11 -52 27 -57 38 -12 53 43 31
114 -4 14 -50 16 -59 2z"/>
<path d="M6516 6815 c-12 -33 4 -45 64 -45 50 0 60 3 65 20 10 32 -3 40 -65
40 -42 0 -59 -4 -64 -15z"/>
<path d="M6838 6823 c-22 -6 -31 -32 -17 -50 9 -10 29 -13 68 -11 49 3 56 6
59 26 2 12 -3 24 -10 26 -25 8 -83 14 -100 9z"/>
<path d="M7320 6815 c-9 -11 -8 -23 6 -55 15 -34 22 -40 44 -38 21 3 25 9 28
41 2 21 -2 45 -9 53 -15 18 -53 18 -69 -1z"/>
<path d="M7596 6814 c-12 -12 -13 -20 -6 -35 9 -15 22 -19 65 -19 45 0 55 3
60 20 4 12 1 27 -5 35 -17 20 -94 19 -114 -1z"/>
<path d="M7916 6815 c-10 -28 -7 -52 9 -65 24 -20 90 17 90 50 0 23 -5 25 -46
28 -36 2 -48 -1 -53 -13z"/>
<path d="M8108 6819 c-14 -8 -16 -19 -12 -57 7 -54 27 -76 55 -61 24 13 26 90
3 113 -18 18 -23 19 -46 5z"/>
<path d="M3047 6805 c-20 -19 -39 -79 -35 -106 4 -29 33 -47 54 -34 8 6 24 35
35 65 23 65 22 55 3 74 -19 20 -38 20 -57 1z"/>
<path d="M4983 6813 c-8 -3 -13 -25 -13 -58 0 -62 16 -83 51 -65 19 11 21 18
17 62 -6 57 -22 75 -55 61z"/>
<path d="M5581 6806 c-14 -17 -3 -102 15 -117 9 -7 19 -7 35 1 19 11 21 18 15
57 -9 67 -37 93 -65 59z"/>
<path d="M8347 6803 c-4 -3 -7 -30 -7 -60 0 -57 17 -76 49 -56 19 12 26 74 11
103 -10 19 -40 27 -53 13z"/>
<path d="M6422 6788 c-18 -18 -15 -103 4 -119 25 -21 49 1 52 49 5 65 -24 102
-56 70z"/>
<path d="M12041 6791 c-18 -12 -26 -102 -12 -130 17 -31 59 -28 71 5 13 33 13
90 0 115 -11 20 -36 24 -59 10z"/>
<path d="M7001 6776 c-7 -8 -11 -37 -9 -68 3 -49 5 -53 28 -53 24 0 25 4 28
59 2 41 -1 62 -10 67 -18 12 -24 11 -37 -5z"/>
<path d="M10571 6766 c-19 -23 -25 -108 -8 -130 22 -29 63 -15 71 25 10 49 7
94 -6 107 -16 16 -43 15 -57 -2z"/>
<path d="M3406 6757 c-16 -12 -18 -21 -11 -63 9 -65 21 -84 50 -84 37 0 47 29
31 90 -17 66 -36 82 -70 57z"/>
<path d="M7536 6745 c-10 -11 -14 -26 -10 -43 3 -15 7 -37 10 -48 5 -27 32
-38 50 -23 26 22 9 116 -22 126 -7 2 -19 -3 -28 -12z"/>
<path d="M10166 6747 c-16 -11 -17 -22 -11 -66 9 -65 35 -97 66 -81 11 6 22
17 25 25 7 18 -15 97 -33 118 -19 20 -24 21 -47 4z"/>
<path d="M5182 6738 c-18 -18 -15 -103 4 -119 25 -21 49 1 52 49 5 65 -24 102
-56 70z"/>
<path d="M5361 6736 c-7 -8 -11 -35 -9 -63 3 -46 4 -48 33 -48 l30 0 0 60 c0
53 -2 60 -21 63 -11 2 -26 -4 -33 -12z"/>
<path d="M7720 6729 c-15 -26 -7 -99 11 -110 7 -4 21 -3 31 2 16 8 18 20 16
67 -3 50 -6 57 -25 60 -14 2 -26 -4 -33 -19z"/>
<path d="M11685 6734 c-12 -13 -15 -26 -9 -58 11 -68 21 -86 48 -86 36 0 49
23 41 72 -13 78 -45 107 -80 72z"/>
<path d="M3995 6708 c-29 -24 -35 -36 -30 -55 7 -30 -18 -79 -44 -86 -34 -8
-57 -106 -30 -122 15 -10 0 -68 -22 -83 -22 -16 -27 -104 -6 -119 6 -5 40 -10
74 -12 53 -2 64 1 75 18 17 28 68 28 91 1 12 -15 29 -20 62 -20 34 0 48 5 57
20 18 28 65 26 88 -2 29 -36 54 -14 58 50 2 42 0 53 -16 61 -27 14 -36 68 -16
88 24 24 -3 111 -37 120 -26 7 -48 51 -42 84 7 40 -82 111 -101 80 -3 -4 -24
-8 -46 -8 -22 0 -43 4 -46 8 -10 17 -33 9 -69 -23z"/>
<path d="M9073 6705 c-25 -25 -33 -40 -28 -55 9 -28 -16 -80 -38 -80 -31 0
-64 -109 -37 -125 18 -11 10 -52 -15 -79 -17 -19 -25 -38 -25 -64 0 -56 10
-64 83 -69 57 -4 68 -2 83 16 24 28 75 28 92 1 9 -15 23 -20 56 -20 30 0 48 6
61 20 25 27 69 26 88 -2 12 -19 19 -21 34 -12 27 16 31 107 5 126 -20 14 -38
78 -22 78 34 0 8 117 -27 126 -25 7 -52 57 -46 86 4 19 -4 32 -32 57 -25 22
-43 30 -54 25 -28 -12 -90 -14 -96 -4 -12 20 -48 9 -82 -25z"/>
<path d="M5810 6695 c-10 -12 -11 -26 -4 -53 8 -33 13 -37 45 -40 41 -3 59 19
37 45 -7 8 -17 25 -23 36 -13 27 -38 33 -55 12z"/>
<path d="M6604 6696 c-3 -8 -4 -31 -2 -52 3 -37 5 -39 40 -42 47 -4 57 21 27
72 -22 37 -55 48 -65 22z"/>
<path d="M6790 6669 c-28 -24 -33 -32 -24 -47 13 -21 70 -28 90 -11 27 22 12
90 -20 89 -6 -1 -27 -14 -46 -31z"/>
<path d="M11292 6678 c-7 -7 -12 -38 -12 -69 0 -64 15 -85 55 -75 23 6 25 10
25 69 0 64 -11 87 -40 87 -9 0 -21 -5 -28 -12z"/>
<path d="M12421 6676 c-13 -16 -6 -96 11 -128 10 -20 53 -24 64 -6 12 19 5
101 -11 125 -17 26 -47 30 -64 9z"/>
<path d="M1374 6666 c-3 -7 -4 -39 -2 -71 3 -65 23 -89 56 -69 21 14 30 118
11 140 -15 18 -58 18 -65 0z"/>
<path d="M2072 6668 c-15 -15 -16 -102 -2 -129 15 -28 58 -25 69 5 11 27 3
105 -12 124 -12 15 -39 16 -55 0z"/>
<path d="M2703 6670 c-20 -8 -23 -16 -23 -69 0 -76 33 -114 68 -79 18 18 15
123 -4 142 -8 9 -16 16 -17 15 -1 0 -12 -4 -24 -9z"/>
<path d="M6020 6670 c-8 -5 -23 -11 -33 -14 -12 -4 -17 -14 -15 -28 3 -20 10
-23 55 -26 49 -3 53 -1 59 23 11 43 -26 68 -66 45z"/>
<path d="M6276 6667 c-10 -7 -16 -22 -14 -33 3 -16 12 -19 63 -19 50 0 60 3
63 18 2 10 -2 24 -8 32 -15 19 -80 19 -104 2z"/>
<path d="M4979 6654 c-10 -12 -10 -20 -1 -34 7 -12 8 -21 2 -25 -16 -10 -12
-78 6 -103 12 -18 19 -20 35 -11 18 9 20 19 17 65 -3 50 -1 54 19 54 21 0 53
24 53 39 0 32 -106 45 -131 15z"/>
<path d="M7086 6657 c-10 -7 -17 -22 -14 -33 6 -35 138 -30 138 7 0 34 -87 53
-124 26z"/>
<path d="M7360 6655 c-22 -27 -8 -50 34 -53 22 -2 50 -1 63 2 25 7 31 34 11
54 -17 17 -93 15 -108 -3z"/>
<path d="M7851 6657 c-15 -19 -4 -46 23 -52 11 -3 39 -2 61 3 34 7 40 12 40
32 0 23 -4 25 -56 28 -39 2 -59 -1 -68 -11z"/>
<path d="M8162 6661 c-8 -4 -12 -19 -10 -32 3 -22 8 -24 57 -24 57 0 80 17 68
49 -5 12 -19 16 -54 16 -26 0 -54 -4 -61 -9z"/>
<path d="M5474 6645 c-15 -39 27 -63 90 -51 37 7 53 31 35 52 -16 20 -118 19
-125 -1z"/>
<path d="M950 6620 c-17 -32 -8 -121 13 -134 30 -19 51 5 59 65 3 29 2 61 -3
71 -13 25 -56 23 -69 -2z"/>
<path d="M10967 6633 c-4 -3 -7 -37 -7 -74 0 -66 1 -69 27 -75 19 -5 30 -2 40
11 15 22 17 98 3 126 -10 18 -50 26 -63 12z"/>
<path d="M1710 6611 c-5 -11 -10 -42 -10 -69 0 -56 17 -78 54 -68 21 5 25 13
28 58 6 70 -5 98 -36 98 -15 0 -30 -8 -36 -19z"/>
<path d="M9762 6618 c-15 -15 -16 -102 -2 -129 12 -21 55 -26 66 -8 11 18 5
121 -8 136 -13 16 -40 17 -56 1z"/>
<path d="M2381 6586 c-19 -22 -10 -126 12 -140 32 -20 52 4 55 68 3 61 -8 86
-38 86 -10 0 -23 -6 -29 -14z"/>
<path d="M8344 6586 c-3 -7 -4 -35 -2 -62 2 -39 7 -50 22 -52 38 -8 61 62 36
109 -12 22 -48 26 -56 5z"/>
<path d="M3033 6569 c-20 -7 -23 -15 -23 -68 0 -41 5 -65 16 -75 38 -39 74 0
67 72 -6 58 -28 84 -60 71z"/>
<path d="M12030 6531 c-5 -11 -10 -38 -10 -61 0 -23 5 -50 10 -61 14 -26 56
-25 71 2 14 28 6 118 -12 130 -23 14 -48 10 -59 -10z"/>
<path d="M10560 6515 c-17 -20 -8 -124 11 -136 21 -13 36 -11 54 8 14 13 16
28 11 71 -4 30 -9 59 -12 63 -9 14 -51 10 -64 -6z"/>
<path d="M3421 6506 c-7 -9 -11 -40 -9 -78 3 -58 5 -63 27 -66 15 -3 30 3 38
14 16 22 17 116 1 132 -16 16 -43 15 -57 -2z"/>
<path d="M10191 6491 c-14 -25 -14 -82 -1 -115 10 -28 47 -35 68 -14 16 16 15
86 -1 118 -16 32 -52 38 -66 11z"/>
<path d="M11712 6488 c-15 -15 -16 -102 -2 -129 15 -27 58 -25 69 4 10 27 3
107 -11 125 -13 15 -40 16 -56 0z"/>
<path d="M1392 6424 c-18 -12 -22 -25 -22 -69 0 -79 42 -112 75 -61 12 18 14
37 9 75 -8 60 -29 79 -62 55z"/>
<path d="M11302 6428 c-16 -16 -15 -110 1 -132 8 -11 23 -17 38 -14 22 3 24 8
27 66 3 66 -7 92 -37 92 -9 0 -22 -5 -29 -12z"/>
<path d="M12440 6416 c-5 -13 -6 -45 -2 -71 8 -54 31 -77 60 -59 20 13 29 102
12 134 -15 29 -58 27 -70 -4z"/>
<path d="M2073 6418 c-16 -20 -24 -107 -13 -129 14 -25 56 -25 70 0 14 27 13
114 -2 129 -16 16 -43 15 -55 0z"/>
<path d="M2705 6416 c-15 -11 -17 -22 -12 -72 8 -74 33 -99 71 -71 33 24 5
157 -33 157 -4 0 -15 -6 -26 -14z"/>
<path d="M4987 6393 c-13 -13 -7 -100 8 -113 27 -22 50 -8 53 34 5 60 -5 86
-32 86 -12 0 -26 -3 -29 -7z"/>
<path d="M8346 6378 c-32 -45 -11 -124 30 -116 15 3 20 13 22 56 4 75 -21 104
-52 60z"/>
<path d="M940 6371 c-24 -47 -8 -129 28 -138 34 -8 52 18 52 75 0 56 -14 82
-45 82 -14 0 -29 -8 -35 -19z"/>
<path d="M10960 6369 c-23 -42 14 -129 54 -129 50 0 53 27 15 128 -11 29 -54
30 -69 1z"/>
<path d="M1710 6361 c-14 -27 -13 -114 2 -129 19 -19 46 -14 64 13 19 30 15
112 -7 126 -23 14 -48 10 -59 -10z"/>
<path d="M9769 6356 c-8 -16 -9 -40 -3 -72 10 -53 34 -75 62 -58 23 15 25 130
2 144 -26 17 -50 11 -61 -14z"/>
<path d="M2381 6336 c-19 -22 -10 -126 12 -140 12 -8 22 -8 35 0 13 9 17 25
17 80 0 67 -1 69 -26 72 -14 2 -31 -4 -38 -12z"/>
<path d="M3042 6318 c-7 -7 -12 -20 -12 -30 0 -11 -7 -32 -15 -49 -28 -53 19
-94 60 -52 36 35 46 101 19 127 -19 19 -36 20 -52 4z"/>
<path d="M12032 6288 c-7 -7 -12 -17 -12 -23 0 -6 -11 -21 -25 -33 -29 -25
-31 -35 -9 -56 23 -24 52 -19 85 13 43 44 37 111 -11 111 -9 0 -21 -5 -28 -12z"/>
<path d="M10555 6280 c-4 -6 -24 -22 -46 -36 -55 -34 -49 -84 9 -84 24 0 102
67 102 88 0 29 -52 54 -65 32z"/>
<path d="M10248 6260 c-28 -23 -19 -43 32 -77 38 -26 82 -30 100 -8 20 24 2
50 -54 78 -54 26 -55 26 -78 7z"/>
<path d="M3400 6250 c-17 -32 -8 -121 13 -134 29 -18 51 5 60 63 4 32 3 60 -3
72 -14 25 -56 25 -70 -1z"/>
<path d="M11741 6238 c-12 -32 2 -53 49 -72 50 -20 74 -20 90 -1 20 24 7 49
-40 72 -59 29 -88 29 -99 1z"/>
<path d="M11152 6239 c-28 -11 -35 -39 -16 -60 25 -28 114 -26 140 2 28 31 8
53 -54 59 -29 3 -60 2 -70 -1z"/>
<path d="M1487 6233 c-12 -11 -8 -50 6 -60 24 -20 98 -25 123 -8 53 34 17 75
-65 75 -32 0 -61 -3 -64 -7z"/>
<path d="M2151 6202 c-18 -34 14 -62 79 -69 62 -6 87 9 75 46 -7 23 -21 29
-90 37 -47 6 -54 4 -64 -14z"/>
<path d="M2781 6183 c-15 -30 10 -58 64 -72 55 -14 85 -2 85 34 0 30 -21 42
-87 51 -44 5 -52 4 -62 -13z"/>
<path d="M5008 6189 c-14 -8 -18 -23 -18 -64 0 -45 3 -55 20 -60 12 -4 27 -1
35 5 20 17 19 94 -1 114 -8 9 -16 16 -17 16 -1 0 -10 -5 -19 -11z"/>
<path d="M8346 6174 c-35 -34 -8 -135 31 -120 8 3 17 6 19 6 2 0 4 27 4 59 0
44 -4 60 -16 65 -21 8 -20 8 -38 -10z"/>
<path d="M12440 6171 c-14 -28 -12 -104 3 -126 18 -24 62 -14 71 17 18 68 0
128 -39 128 -14 0 -29 -8 -35 -19z"/>
<path d="M944 6126 c-3 -7 -4 -39 -2 -71 3 -65 23 -89 56 -69 21 14 30 118 11
140 -15 18 -58 18 -65 0z"/>
<path d="M9792 6121 c-21 -13 -12 -131 11 -145 30 -19 52 4 55 62 5 77 -23
111 -66 83z"/>
<path d="M3390 6000 c-17 -32 -8 -121 13 -134 12 -8 22 -8 35 0 22 14 31 132
10 145 -22 15 -47 10 -58 -11z"/>
<path d="M5005 5973 c-12 -11 -15 -25 -11 -46 3 -16 6 -38 6 -48 0 -26 40 -36
57 -14 21 29 0 125 -28 125 -4 0 -15 -7 -24 -17z"/>
<path d="M8340 5961 c-22 -42 -4 -121 29 -121 32 0 46 122 15 134 -25 10 -33
7 -44 -13z"/>
<path d="M12435 5930 c-13 -21 -17 -108 -6 -128 15 -28 46 -28 65 0 19 26 21
109 4 126 -14 14 -54 16 -63 2z"/>
<path d="M973 5889 c-20 -7 -23 -15 -23 -68 0 -41 5 -65 16 -75 37 -37 64 -10
64 64 0 66 -20 94 -57 79z"/>
<path d="M9790 5861 c-5 -11 -10 -36 -10 -56 0 -29 -7 -43 -35 -69 -38 -36
-47 -83 -20 -106 15 -12 55 -5 55 10 0 5 12 23 28 39 15 16 32 37 39 45 14 16
20 126 9 145 -12 18 -54 13 -66 -8z"/>
<path d="M3397 5765 c-20 -20 -24 -124 -5 -143 29 -29 68 -2 68 47 0 15 8 21
31 23 42 4 65 36 45 63 -19 26 -116 34 -139 10z"/>
<path d="M5012 5768 c-7 -7 -12 -31 -12 -53 0 -54 29 -89 93 -110 64 -22 89
-13 85 28 -3 29 -8 34 -53 49 -43 14 -50 20 -53 45 -6 48 -34 67 -60 41z"/>
<path d="M8342 5758 c-6 -6 -12 -17 -12 -22 0 -6 -19 -11 -41 -11 -44 0 -67
-20 -56 -48 9 -25 113 -52 144 -38 22 10 24 16 21 69 -3 48 -6 57 -23 60 -11
1 -26 -3 -33 -10z"/>
<path d="M4288 5729 c-26 -14 -23 -56 5 -70 12 -6 32 -20 44 -31 15 -15 29
-19 47 -14 38 9 36 56 -5 90 -17 14 -34 26 -39 26 -5 0 -14 2 -22 5 -7 2 -21
0 -30 -6z"/>
<path d="M8961 5731 c-33 -9 -49 -36 -35 -58 9 -14 24 -17 70 -15 61 3 84 14
84 41 0 37 -51 51 -119 32z"/>
<path d="M4095 5720 c-31 -12 -67 -56 -63 -76 4 -22 32 -39 49 -30 69 35 94
55 97 75 6 37 -34 52 -83 31z"/>
<path d="M8029 5707 c-23 -15 -34 -31 -34 -46 0 -41 26 -47 88 -21 60 25 73
41 57 71 -15 27 -68 25 -111 -4z"/>
<path d="M5756 5704 c-18 -18 -20 -32 -6 -54 7 -11 25 -14 71 -12 34 1 65 5
70 8 13 8 11 48 -3 62 -18 18 -113 15 -132 -4z"/>
<path d="M3620 5685 c-11 -13 -10 -25 6 -71 21 -62 43 -81 74 -64 26 14 25 45
-2 100 -25 49 -55 62 -78 35z"/>
<path d="M9172 5688 c-17 -17 -15 -38 8 -83 26 -52 47 -67 71 -54 36 19 19 98
-29 137 -20 15 -35 15 -50 0z"/>
<path d="M6702 5679 c-15 -6 -22 -17 -22 -34 0 -27 8 -32 89 -56 40 -12 45
-11 57 6 18 24 18 28 -3 54 -21 24 -90 41 -121 30z"/>
<path d="M12422 5673 c-6 -10 -13 -41 -17 -70 -6 -46 -4 -53 14 -63 21 -11 60
1 61 18 1 4 5 27 10 52 5 27 4 52 -1 62 -12 23 -56 23 -67 1z"/>
<path d="M5594 5663 c-25 -26 -46 -83 -40 -109 7 -25 42 -42 58 -26 5 5 20 32
33 60 21 45 22 52 9 71 -18 25 -37 27 -60 4z"/>
<path d="M6471 5671 c-29 -8 -46 -33 -38 -55 9 -24 31 -29 92 -21 47 5 56 10
61 31 4 14 1 31 -6 39 -13 15 -66 18 -109 6z"/>
<path d="M7366 5664 c-18 -17 -20 -32 -7 -53 9 -14 119 -20 140 -7 18 12 13
54 -8 66 -30 16 -107 12 -125 -6z"/>
<path d="M4836 5637 c-37 -35 -45 -64 -24 -85 19 -19 37 -14 84 25 34 29 44
44 42 63 -2 20 -9 26 -34 28 -24 2 -40 -5 -68 -31z"/>
<path d="M5981 5646 c-9 -11 -9 -29 1 -76 10 -50 16 -62 35 -66 37 -10 56 13
50 63 -8 75 -54 117 -86 79z"/>
<path d="M995 5634 c-20 -20 -14 -54 18 -102 18 -26 28 -32 52 -30 41 4 43 33
7 94 -31 54 -51 64 -77 38z"/>
<path d="M7183 5628 c-46 -51 -56 -100 -24 -118 25 -13 45 -5 60 23 6 12 20
34 32 48 17 22 19 30 10 48 -15 28 -52 27 -78 -1z"/>
<path d="M9825 5626 c-34 -25 0 -138 45 -144 42 -6 51 21 29 86 -24 71 -40 83
-74 58z"/>
<path d="M8825 5586 c-11 -16 -15 -41 -13 -78 3 -47 6 -53 26 -56 13 -2 29 1
36 7 17 14 27 110 15 134 -14 24 -46 21 -64 -7z"/>
<path d="M7580 5575 c-11 -14 -11 -25 1 -72 16 -62 38 -85 67 -67 36 24 9 146
-34 152 -11 2 -27 -4 -34 -13z"/>
<path d="M8412 5568 c-16 -16 -15 -110 1 -133 23 -30 65 -13 73 30 15 80 -32
145 -74 103z"/>
<path d="M6342 5538 c-18 -18 -15 -113 4 -132 18 -18 32 -20 54 -6 10 6 14 25
12 71 -2 34 -5 66 -8 70 -8 13 -48 11 -62 -3z"/>
<path d="M7988 5543 c-23 -6 -30 -29 -22 -81 6 -42 32 -82 53 -82 23 0 42 33
36 64 -18 88 -31 107 -67 99z"/>
<path d="M3996 5524 c-19 -19 -22 -124 -4 -142 35 -35 68 3 68 78 0 48 -4 61
-19 70 -25 13 -27 13 -45 -6z"/>
<path d="M9728 5529 c-20 -11 -23 -55 -8 -111 12 -41 32 -53 62 -37 19 10 20
17 14 73 -4 40 -12 65 -23 74 -20 14 -23 14 -45 1z"/>
<path d="M3321 5486 c-45 -45 -50 -70 -18 -90 23 -15 64 8 94 53 27 40 28 45
7 65 -24 24 -36 20 -83 -28z"/>
<path d="M4366 5508 c-39 -56 -6 -165 42 -139 31 17 43 119 16 145 -21 22 -40
20 -58 -6z"/>
<path d="M5182 5508 c-17 -17 -15 -100 4 -126 46 -66 95 16 63 107 -12 33 -44
42 -67 19z"/>
<path d="M6791 5491 c-19 -12 -28 -116 -11 -136 17 -20 47 -19 59 3 17 32 24
111 11 127 -14 17 -38 19 -59 6z"/>
<path d="M9982 5468 c-16 -16 -15 -43 1 -57 8 -6 37 -16 66 -23 44 -10 54 -9
67 4 24 24 9 54 -37 72 -47 19 -81 20 -97 4z"/>
<path d="M12294 5448 c-54 -36 -63 -57 -38 -82 19 -19 41 -15 97 21 42 26 50
65 18 83 -26 13 -22 15 -77 -22z"/>
<path d="M1156 5448 c-13 -19 -13 -25 0 -57 33 -80 57 -97 88 -65 20 19 20 26
1 71 -30 72 -62 90 -89 51z"/>
<path d="M4756 5455 c-16 -17 -32 -96 -23 -119 10 -25 42 -37 61 -23 22 16 34
120 16 142 -16 19 -34 19 -54 0z"/>
<path d="M3658 5448 c-24 -20 -33 -104 -13 -134 33 -51 75 -11 75 71 0 68 -24
92 -62 63z"/>
<path d="M9233 5453 c-17 -6 -17 -114 0 -137 8 -11 23 -17 38 -14 22 3 24 8
27 60 4 82 -16 111 -65 91z"/>
<path d="M5568 5429 c-14 -7 -18 -23 -18 -62 0 -82 40 -123 74 -76 27 39 2
151 -33 149 -3 0 -14 -5 -23 -11z"/>
<path d="M7142 5408 c-15 -15 -16 -102 -2 -129 15 -26 58 -25 68 2 11 30 -2
119 -19 130 -19 12 -33 11 -47 -3z"/>
<path d="M5982 5397 c-18 -21 -26 -115 -12 -132 16 -19 44 -19 59 -1 20 23 27
126 10 137 -20 13 -45 11 -57 -4z"/>
<path d="M3160 5365 c-31 -16 -70 -68 -70 -93 0 -21 18 -42 37 -42 21 0 93 83
93 107 0 31 -29 44 -60 28z"/>
<path d="M8821 5351 c-18 -12 -26 -102 -12 -130 15 -27 57 -28 71 -2 5 11 10
38 10 61 0 68 -28 97 -69 71z"/>
<path d="M7596 5331 c-4 -5 -9 -36 -12 -68 -7 -65 8 -90 45 -78 33 10 55 117
29 143 -14 14 -54 16 -62 3z"/>
<path d="M8400 5304 c-11 -29 -13 -68 -4 -102 9 -31 53 -41 71 -17 15 22 17
98 3 126 -16 29 -58 25 -70 -7z"/>
<path d="M10161 5311 c-7 -12 -7 -30 -2 -48 5 -15 12 -40 15 -55 7 -31 40 -45
61 -28 19 16 19 71 1 115 -12 27 -21 35 -40 35 -15 0 -30 -8 -35 -19z"/>
<path d="M6357 5293 c-12 -11 -8 -128 5 -141 18 -18 46 -14 58 7 14 27 13 114
-2 129 -13 13 -50 16 -61 5z"/>
<path d="M8029 5284 c-10 -13 -10 -25 2 -71 16 -62 38 -85 67 -67 13 9 16 23
14 60 -4 79 -48 120 -83 78z"/>
<path d="M12172 5288 c-7 -7 -12 -37 -12 -68 0 -66 20 -94 58 -79 19 7 22 15
22 68 0 76 -33 114 -68 79z"/>
<path d="M3996 5274 c-11 -10 -16 -34 -16 -74 0 -49 3 -61 20 -70 34 -18 60 4
61 53 2 58 -1 80 -13 95 -14 16 -33 15 -52 -4z"/>
<path d="M9750 5269 c-11 -20 -7 -89 7 -125 6 -17 45 -18 61 -2 16 16 15 86
-1 118 -17 33 -52 38 -67 9z"/>
<path d="M4350 5265 c-28 -33 10 -145 49 -145 36 0 46 26 31 83 -7 29 -17 58
-23 65 -13 17 -42 15 -57 -3z"/>
<path d="M5182 5258 c-17 -17 -16 -122 3 -138 20 -16 54 -3 61 24 3 12 4 45 2
72 -3 44 -6 49 -28 52 -14 2 -31 -3 -38 -10z"/>
<path d="M6756 5241 c-3 -4 -8 -33 -12 -63 -7 -56 8 -88 41 -88 37 0 63 118
33 148 -14 14 -54 16 -62 3z"/>
<path d="M1208 5219 c-24 -14 -25 -120 -2 -143 38 -39 64 -10 64 71 0 51 -3
64 -19 73 -23 12 -22 12 -43 -1z"/>
<path d="M4742 5208 c-7 -7 -12 -21 -12 -32 0 -11 -5 -34 -12 -52 -9 -26 -9
-36 1 -48 18 -22 44 -20 66 4 22 25 32 104 15 125 -15 18 -42 19 -58 3z"/>
<path d="M3650 5195 c-13 -16 -6 -95 11 -127 12 -22 52 -23 69 -3 13 16 -1
108 -22 132 -14 17 -43 17 -58 -2z"/>
<path d="M9250 5195 c-11 -13 -8 -65 6 -117 7 -22 41 -33 59 -18 17 14 20 86
5 124 -11 30 -50 36 -70 11z"/>
<path d="M5578 5174 c-7 -9 -23 -26 -34 -39 -28 -31 -33 -46 -22 -67 13 -25
52 -22 86 7 35 29 45 67 25 95 -17 24 -38 26 -55 4z"/>
<path d="M5972 5154 c-12 -8 -22 -24 -22 -34 0 -24 47 -79 78 -91 51 -20 72
40 27 79 -14 12 -25 26 -25 32 0 21 -36 29 -58 14z"/>
<path d="M7172 5158 c-6 -6 -12 -19 -12 -28 0 -8 -9 -21 -20 -28 -22 -14 -26
-42 -8 -60 38 -38 111 22 106 87 -2 30 -7 36 -28 39 -14 2 -31 -3 -38 -10z"/>
<path d="M3072 5133 c-15 -29 -21 -105 -11 -125 13 -24 56 -23 68 1 17 30 17
121 0 132 -22 14 -48 10 -57 -8z"/>
<path d="M7636 5104 c-19 -18 -19 -20 -5 -46 20 -37 127 -65 144 -37 17 26 -5
55 -57 77 -64 26 -62 26 -82 6z"/>
<path d="M8486 5104 c-32 -31 -13 -59 61 -87 47 -19 69 -14 78 14 9 26 -8 45
-63 69 -54 24 -56 24 -76 4z"/>
<path d="M6235 5097 c-22 -7 -46 -16 -53 -20 -17 -11 -15 -56 3 -63 26 -10
106 7 126 27 23 23 24 33 3 53 -18 18 -24 18 -79 3z"/>
<path d="M7932 5091 c-64 -19 -79 -40 -54 -71 18 -22 21 -22 70 -10 58 13 87
42 72 70 -14 26 -30 28 -88 11z"/>
<path d="M8763 5084 c-46 -28 -61 -57 -43 -79 34 -41 146 21 138 77 -4 33 -43
34 -95 2z"/>
<path d="M4490 5071 c-17 -33 3 -57 59 -71 60 -14 91 -2 91 35 0 30 -19 41
-87 50 -46 6 -53 4 -63 -14z"/>
<path d="M5282 5078 c-16 -16 -15 -43 3 -58 15 -13 115 -17 134 -6 15 9 14 49
-1 64 -16 16 -120 16 -136 0z"/>
<path d="M6896 5078 c-22 -12 -20 -55 3 -67 30 -17 121 -17 132 0 14 22 10 48
-8 57 -27 14 -108 20 -127 10z"/>
<path d="M10216 5077 c-15 -11 -17 -21 -11 -70 8 -62 22 -80 57 -75 20 3 23 9
26 53 4 80 -29 123 -72 92z"/>
<path d="M3856 5067 c-47 -14 -66 -39 -50 -64 15 -25 49 -28 100 -8 46 17 64
46 44 70 -15 18 -40 18 -94 2z"/>
<path d="M9682 5044 c-58 -26 -69 -42 -52 -73 13 -26 40 -27 89 -2 64 33 77
67 34 89 -13 7 -33 2 -71 -14z"/>
<path d="M12179 5028 c-11 -20 -7 -107 6 -128 9 -15 51 -12 65 5 15 18 7 109
-11 131 -17 21 -47 17 -60 -8z"/>
<path d="M9393 5023 c-11 -8 -17 -27 -14 -49 3 -28 109 -49 140 -28 27 19 27
40 -1 58 -28 17 -108 30 -125 19z"/>
<path d="M1207 4962 c-22 -24 -22 -100 -1 -130 19 -27 28 -28 54 -2 36 36 18
150 -24 150 -7 0 -20 -8 -29 -18z"/>
<path d="M3052 4887 c-19 -22 -25 -110 -9 -131 18 -25 62 -15 71 16 10 38 7
103 -6 116 -16 16 -43 15 -56 -1z"/>
<path d="M2118 4872 c-17 -25 -70 -42 -91 -31 -25 15 -99 -55 -91 -86 7 -29
-22 -75 -48 -75 -27 0 -64 -87 -48 -113 15 -25 3 -78 -21 -84 -19 -5 -24 -15
-34 -74 -5 -26 -2 -39 9 -48 22 -18 20 -56 -3 -78 -22 -22 -35 -96 -21 -123
14 -27 66 -27 82 0 8 13 24 20 43 20 19 0 35 -7 43 -20 9 -16 23 -20 62 -20
39 0 53 4 62 20 8 13 24 20 43 20 19 0 35 -7 43 -20 17 -27 106 -29 123 -2 13
21 71 18 90 -4 15 -19 103 -19 118 0 9 11 9 20 2 35 -16 29 -13 67 5 82 22 18
11 98 -15 119 -22 17 -39 80 -22 80 14 0 14 48 0 89 -7 18 -20 33 -33 37 -26
6 -47 54 -34 77 17 32 -36 107 -76 107 -12 0 -32 10 -44 23 -20 21 -22 25 -22
48 0 12 -61 39 -89 39 -11 0 -26 -8 -33 -18z"/>
<path d="M11242 4873 c-13 -24 -73 -44 -96 -31 -25 14 -102 -64 -88 -88 12
-22 -16 -74 -41 -74 -35 0 -76 -107 -48 -124 15 -10 -10 -71 -33 -82 -28 -12
-40 -80 -20 -111 20 -32 18 -76 -6 -91 -26 -16 -30 -116 -4 -126 29 -11 54 -6
71 14 10 11 29 20 43 20 14 0 33 -9 43 -20 12 -15 29 -20 62 -20 34 0 48 5 57
20 9 13 24 20 45 20 22 0 36 -6 43 -20 15 -27 104 -29 121 -2 13 21 71 18 90
-4 16 -20 103 -18 120 2 10 12 10 20 1 35 -17 26 -15 66 3 73 26 9 20 92 -8
119 -24 22 -44 87 -28 87 32 0 4 115 -30 125 -23 8 -53 61 -39 70 29 18 -24
115 -63 115 -27 1 -67 33 -67 54 0 21 -39 46 -83 53 -28 4 -37 1 -45 -14z"/>
<path d="M10240 4825 c-18 -22 -1 -124 23 -139 33 -21 52 5 51 68 -1 30 -7 63
-14 71 -16 19 -44 19 -60 0z"/>
<path d="M12198 4781 c-19 -27 -9 -120 15 -135 12 -8 22 -8 35 0 24 16 29 115
7 138 -22 21 -41 20 -57 -3z"/>
<path d="M1206 4714 c-32 -31 -12 -154 25 -154 24 0 49 42 49 83 0 70 -39 107
-74 71z"/>
<path d="M3031 4637 c-17 -22 -18 -126 -1 -137 43 -27 70 4 70 80 0 44 -4 59
-16 64 -24 9 -41 7 -53 -7z"/>
<path d="M10259 4567 c-14 -31 1 -117 24 -131 42 -27 74 58 48 127 -14 35 -57
38 -72 4z"/>
<path d="M12211 4536 c-19 -22 -10 -126 12 -140 12 -8 22 -8 35 0 20 13 29
102 12 134 -12 23 -42 26 -59 6z"/>
<path d="M1206 4464 c-11 -10 -16 -34 -16 -68 0 -59 14 -80 52 -74 21 3 23 9
26 66 4 84 -22 116 -62 76z"/>
<path d="M3010 4381 c-5 -11 -10 -38 -10 -61 0 -23 5 -50 10 -61 12 -22 42
-25 58 -6 17 20 25 102 13 126 -15 27 -57 28 -71 2z"/>
<path d="M10282 4328 c-18 -18 -15 -113 4 -132 22 -22 51 -20 64 4 12 23 4
107 -12 128 -13 15 -40 16 -56 0z"/>
<path d="M12222 4291 c-21 -13 -12 -131 11 -145 30 -19 52 4 55 62 5 77 -23
111 -66 83z"/>
<path d="M1201 4216 c-7 -9 -11 -40 -9 -78 3 -57 5 -63 26 -66 38 -6 52 15 52
77 0 31 -5 62 -12 69 -16 16 -43 15 -57 -2z"/>
<path d="M3000 4130 c-17 -32 -8 -121 13 -134 30 -19 51 5 57 62 3 29 2 61 -2
72 -10 27 -54 27 -68 0z"/>
<path d="M10289 4069 c-13 -26 -7 -103 11 -124 17 -21 47 -19 60 4 5 11 10 38
10 61 0 23 -5 50 -10 61 -14 26 -56 25 -71 -2z"/>
<path d="M6127 4040 c-16 -5 -34 -15 -40 -24 -17 -20 -85 -47 -92 -35 -21 33
-137 -19 -145 -65 -6 -37 -55 -75 -72 -58 -21 21 -49 13 -94 -24 -46 -37 -53
-57 -30 -83 12 -14 10 -20 -15 -51 -27 -32 -30 -33 -42 -16 -21 29 -57 16 -95
-33 -42 -55 -39 -71 16 -98 6 -2 -50 -83 -58 -83 -4 0 -10 7 -14 15 -11 30
-46 16 -76 -32 -17 -26 -30 -55 -30 -64 0 -24 27 -49 46 -42 12 4 9 -7 -10
-46 -24 -47 -28 -50 -42 -36 -9 8 -19 15 -23 15 -19 0 -43 -30 -60 -75 -21
-56 -14 -85 21 -85 15 0 18 -4 13 -17 -4 -10 -11 -30 -17 -45 -8 -23 -14 -26
-38 -22 -37 8 -61 -27 -63 -92 -2 -39 2 -50 18 -58 17 -10 19 -16 11 -48 -8
-33 -14 -38 -37 -38 -34 0 -45 -19 -55 -87 -5 -44 -4 -52 15 -65 18 -13 20
-21 13 -53 -5 -26 -13 -39 -26 -41 -30 -4 -37 -18 -43 -83 -5 -50 -3 -62 11
-67 28 -11 21 -74 -11 -99 -21 -17 -27 -32 -31 -76 -3 -42 0 -58 12 -68 26
-22 19 -48 -15 -60 -22 -7 -35 -7 -48 1 -15 9 -27 6 -62 -13 -24 -14 -45 -33
-47 -44 -5 -29 -43 -55 -70 -48 -39 9 -121 -61 -98 -85 12 -11 -38 -52 -64
-52 -15 0 -35 -9 -45 -20 l-19 -21 -13 23 c-7 13 -12 37 -13 55 0 61 -98 102
-120 51 -12 -29 -45 -68 -58 -68 -17 0 -31 -25 -38 -67 -5 -34 -3 -44 17 -62
19 -18 24 -32 24 -74 0 -29 6 -62 13 -74 11 -20 10 -23 -2 -23 -9 0 -19 -12
-22 -27 -9 -36 19 -56 66 -48 34 6 35 6 13 -10 -39 -27 -22 -134 20 -135 7 0
20 -11 29 -24 17 -23 17 -24 -6 -28 -16 -3 -30 2 -41 14 -11 14 -24 18 -40 14
-53 -13 -76 -27 -84 -50 -10 -25 -49 -41 -89 -37 -27 3 -92 -43 -92 -66 0 -19
-50 -59 -69 -55 -23 6 -90 -67 -88 -97 1 -18 -29 -68 -102 -169 -57 -79 -102
-144 -100 -146 2 -1 396 -62 874 -136 837 -128 873 -132 948 -123 202 27 283
138 176 242 -36 35 -39 41 -28 59 18 29 -1 48 -58 57 -37 5 -49 3 -58 -9 -16
-21 -73 -1 -77 28 -6 38 -112 74 -124 42 -5 -13 -10 -13 -38 1 -26 12 -32 20
-28 38 7 38 -94 96 -113 65 -4 -6 -18 -1 -35 12 -35 26 -30 38 16 38 24 0 42
8 58 25 27 29 79 51 84 36 6 -17 38 -13 76 10 35 20 40 29 37 57 -3 21 39 72
59 72 32 0 56 109 28 127 -19 12 -17 64 4 85 12 12 16 27 13 43 -3 14 -7 36
-10 49 -3 14 -14 27 -24 31 -25 8 -36 62 -16 82 10 9 13 24 9 41 -5 22 -4 25
7 15 17 -16 121 -17 137 -1 7 7 12 20 12 29 0 13 11 18 45 21 35 2 44 0 40
-10 -3 -7 0 -22 5 -33 9 -16 22 -19 74 -19 67 0 94 15 82 45 -4 12 4 15 44 15
46 0 50 -2 50 -25 0 -33 32 -48 93 -42 51 4 70 20 63 50 -4 14 3 17 46 17 42
0 49 -3 44 -16 -12 -31 22 -54 80 -54 59 0 89 19 79 51 -6 17 -1 19 45 19 43
0 51 -3 46 -16 -3 -8 -1 -24 4 -35 9 -16 22 -19 74 -19 67 0 94 15 82 45 -4
12 4 15 43 15 43 0 48 -2 44 -18 -6 -26 16 -41 70 -48 50 -7 97 13 97 41 0 11
11 15 40 15 27 0 40 -4 40 -13 0 -28 36 -47 88 -47 48 0 82 17 82 41 0 5 17 9
38 9 32 0 41 -5 50 -25 11 -23 17 -25 77 -25 60 0 66 2 77 25 17 37 33 30 44
-17 8 -36 13 -43 36 -46 35 -4 52 27 45 84 -5 50 -21 74 -48 74 -16 0 -19 8
-19 43 0 34 4 44 23 52 44 19 29 155 -17 155 -33 0 -34 65 -2 95 21 19 23 29
19 71 -6 49 -25 84 -48 84 -7 0 -15 17 -18 37 -5 30 -2 39 15 51 18 13 20 21
14 70 -7 61 -19 82 -46 82 -27 0 -39 76 -14 94 14 11 16 22 11 66 -7 56 -29
90 -57 90 -12 0 -21 13 -28 39 -8 35 -7 40 11 45 17 4 19 11 15 49 -8 65 -28
102 -58 102 -19 0 -29 9 -43 39 -9 21 -16 39 -15 40 47 18 52 46 21 112 -16
34 -23 39 -52 40 -28 0 -37 6 -52 35 -20 37 -24 53 -10 45 4 -3 17 4 27 15 18
20 18 22 -11 77 -32 60 -61 76 -85 47 -12 -14 -16 -11 -40 27 -27 43 -27 43
-6 53 33 16 30 48 -6 96 -39 51 -60 58 -84 30 -18 -20 -18 -20 -50 17 -30 35
-31 37 -13 50 29 20 23 46 -21 86 -43 39 -83 47 -98 19 -9 -15 -13 -14 -40 8
-24 18 -30 30 -27 49 6 33 -2 43 -52 69 -50 25 -76 27 -93 6 -10 -13 -17 -12
-51 5 -21 11 -39 27 -39 34 0 28 -130 51 -145 26 -3 -5 -28 -10 -55 -10 -27 0
-52 5 -55 10 -7 12 -68 12 -108 0z m-577 -2296 c0 -8 -4 -12 -10 -9 -5 3 -10
10 -10 16 0 5 5 9 10 9 6 0 10 -7 10 -16z"/>
<path d="M12220 4029 c-7 -12 -9 -41 -4 -75 5 -46 10 -55 30 -60 37 -10 54 12
54 68 0 27 -5 58 -10 69 -14 25 -56 25 -70 -2z"/>
<path d="M1190 3960 c-17 -32 -8 -121 13 -134 12 -8 22 -8 35 0 21 14 30 118
11 140 -17 20 -47 17 -59 -6z"/>
<path d="M3000 3890 c-37 -37 -18 -150 25 -150 23 0 45 42 45 85 0 40 -22 85
-41 85 -5 0 -18 -9 -29 -20z"/>
<path d="M10302 3828 c-18 -18 -15 -113 4 -133 41 -41 83 15 68 91 -8 42 -13
49 -34 52 -14 2 -31 -3 -38 -10z"/>
<path d="M12230 3781 c-11 -22 -13 -74 -4 -109 9 -31 53 -41 71 -17 15 22 17
83 3 119 -12 32 -54 36 -70 7z"/>
<path d="M1180 3710 c-6 -11 -10 -46 -8 -78 3 -51 5 -57 26 -60 38 -6 52 15
52 77 0 31 -5 62 -12 69 -18 18 -46 14 -58 -8z"/>
<path d="M2996 3644 c-11 -10 -16 -34 -16 -69 0 -53 16 -85 44 -85 25 0 36 26
36 87 0 51 -3 64 -19 73 -25 13 -27 13 -45 -6z"/>
<path d="M10307 3583 c-12 -11 -8 -128 5 -141 34 -34 68 -1 68 68 0 23 -5 50
-10 61 -10 18 -50 26 -63 12z"/>
<path d="M12242 3538 c-16 -16 -15 -110 1 -133 10 -13 21 -16 40 -11 26 6 27
10 27 69 0 64 -11 87 -40 87 -9 0 -21 -5 -28 -12z"/>
<path d="M1172 3471 c-8 -4 -16 -34 -19 -67 -6 -68 9 -91 51 -80 21 5 26 14
31 60 10 78 -18 116 -63 87z"/>
<path d="M2996 3394 c-11 -10 -16 -34 -16 -69 0 -53 16 -85 44 -85 25 0 36 26
36 87 0 51 -3 64 -19 73 -25 13 -27 13 -45 -6z"/>
<path d="M10300 3321 c-29 -56 3 -151 47 -137 23 7 33 33 33 84 0 46 -16 72
-45 72 -14 0 -29 -8 -35 -19z"/>
<path d="M12244 3286 c-3 -7 -4 -39 -2 -71 3 -65 23 -89 56 -69 21 14 30 118
11 140 -15 18 -58 18 -65 0z"/>
<path d="M1139 3203 c-26 -70 6 -154 49 -127 23 15 40 118 22 139 -21 25 -59
19 -71 -12z"/>
<path d="M2997 3140 c-9 -14 -13 -37 -9 -73 9 -108 82 -101 82 8 0 76 -40 112
-73 65z"/>
<path d="M10307 3082 c-12 -13 -17 -36 -17 -74 0 -67 17 -87 55 -70 23 11 25
17 25 76 0 54 -3 67 -19 76 -25 13 -25 13 -44 -8z"/>
<path d="M12254 3036 c-3 -7 -4 -39 -2 -71 3 -65 23 -89 56 -69 21 14 30 118
11 140 -15 18 -58 18 -65 0z"/>
<path d="M1111 2943 c-23 -81 -6 -132 38 -118 24 7 44 69 39 118 -3 28 -7 32
-35 35 -29 3 -33 0 -42 -35z"/>
<path d="M3005 2887 c-11 -18 -13 -35 -6 -76 9 -58 23 -73 55 -61 18 7 21 16
21 74 0 48 -4 69 -15 76 -24 15 -38 12 -55 -13z"/>
<path d="M10296 2834 c-19 -19 -22 -124 -4 -142 35 -35 68 3 68 77 0 75 -27
103 -64 65z"/>
<path d="M12267 2793 c-14 -14 -7 -121 9 -137 37 -37 64 -10 64 64 0 31 -5 61
-12 68 -13 13 -50 16 -61 5z"/>
<path d="M1086 2725 c-16 -16 -32 -117 -21 -134 9 -16 50 -14 64 3 18 22 26
113 11 131 -16 19 -34 19 -54 0z"/>
<path d="M3020 2645 c-13 -15 -9 -112 5 -135 9 -15 51 -12 65 5 14 17 6 111
-12 132 -14 18 -43 16 -58 -2z"/>
<path d="M10275 2576 c-11 -16 -15 -41 -13 -76 2 -43 7 -54 24 -60 32 -12 46
3 55 61 13 83 -29 131 -66 75z"/>
<path d="M12290 2543 c-19 -14 -21 -21 -15 -62 9 -68 14 -79 36 -86 32 -11 49
12 49 67 0 79 -27 111 -70 81z"/>
<path d="M1029 2468 c-6 -12 -12 -44 -13 -71 -2 -92 58 -86 81 9 5 22 6 50 2
62 -11 29 -54 30 -70 0z"/>
<path d="M3041 2392 c-10 -20 -4 -96 11 -124 5 -10 20 -18 33 -18 13 0 28 8
33 18 13 23 -1 122 -19 133 -23 14 -48 10 -58 -9z"/>
<path d="M10252 2337 c-18 -21 -26 -115 -12 -132 16 -19 44 -19 59 -1 18 22
26 113 11 131 -15 18 -44 20 -58 2z"/>
<path d="M12306 2288 c-18 -29 -6 -116 19 -134 40 -29 65 9 55 84 -9 71 -45
95 -74 50z"/>
<path d="M9623 2255 c-23 -21 -26 -27 -13 -34 21 -13 16 -151 -6 -151 -9 0
-14 -12 -14 -35 0 -29 4 -35 17 -33 15 2 19 -8 26 -60 8 -54 6 -65 -8 -76 -19
-14 -11 -66 10 -66 19 0 22 -7 30 -77 6 -54 5 -63 -9 -63 -25 0 -22 -60 4 -67
14 -4 21 -17 26 -49 7 -51 -9 -82 -32 -63 -20 17 -67 -16 -59 -40 4 -15 -6
-23 -52 -44 -52 -22 -59 -23 -70 -9 -11 14 -17 13 -54 -3 -22 -11 -45 -29 -49
-41 -11 -28 -78 -53 -90 -34 -13 21 -72 -7 -65 -30 7 -22 -100 -96 -118 -81
-19 15 -66 -30 -54 -51 8 -12 3 -25 -21 -54 -18 -21 -32 -46 -32 -56 0 -9 -4
-20 -10 -23 -16 -10 -12 -20 19 -38 36 -21 51 -22 51 -1 0 9 6 14 13 11 8 -3
39 -8 70 -12 39 -5 57 -12 57 -21 0 -9 12 -14 35 -14 24 0 35 5 35 15 0 12 14
15 70 15 56 0 70 -3 70 -15 0 -10 11 -15 35 -15 25 0 35 4 35 15 0 13 12 15
68 13 57 -3 67 -6 64 -20 -2 -10 3 -18 10 -18 7 0 23 -3 36 -6 16 -5 22 -2 22
10 0 22 14 20 47 -8 15 -12 38 -29 51 -35 18 -10 21 -15 12 -26 -17 -20 6 -58
30 -52 20 5 32 -20 46 -95 5 -31 3 -38 -10 -38 -12 0 -16 -9 -16 -35 0 -28 4
-35 20 -35 18 0 20 -7 20 -65 0 -58 -2 -65 -20 -65 -16 0 -20 -7 -20 -35 0
-24 5 -35 15 -35 12 0 15 -14 15 -70 0 -63 -2 -70 -20 -70 -16 0 -20 -7 -20
-35 0 -27 4 -35 19 -35 15 0 19 -10 24 -68 3 -43 1 -72 -6 -81 -9 -10 -6 -18
13 -33 31 -25 76 -21 73 7 -3 24 90 100 111 92 8 -3 24 6 37 19 22 23 22 26 7
35 -15 8 -13 15 18 61 18 29 35 57 37 63 3 6 9 6 18 -2 13 -10 18 -7 33 19 17
27 17 32 4 39 -13 7 -11 17 16 69 23 43 35 58 47 55 10 -4 23 4 34 21 16 24
16 28 2 36 -14 7 -11 17 20 68 29 49 38 58 50 49 7 -7 15 -10 16 -8 1 2 11 14
21 26 16 19 17 25 6 38 -11 13 -8 21 16 46 42 45 65 55 76 35 13 -23 59 -21
65 3 4 16 10 17 40 11 66 -15 94 -31 88 -50 -8 -25 50 -46 63 -23 13 23 132
-38 126 -64 -7 -24 52 -49 64 -28 11 20 143 -20 135 -41 -4 -11 5 -14 36 -14
37 0 41 3 41 24 0 13 7 29 15 36 9 8 15 29 15 55 0 28 5 45 15 48 21 9 -1 67
-25 67 -11 0 -28 21 -48 58 -27 51 -29 59 -15 68 15 9 14 12 -2 37 -11 18 -23
26 -35 22 -22 -7 -100 103 -81 115 10 6 10 13 -4 34 -19 29 -26 31 -41 16 -16
-16 -108 88 -95 104 16 20 -33 63 -53 47 -12 -10 -20 -2 -45 42 -31 54 -37 87
-25 146 5 22 12 31 25 31 27 0 46 50 25 66 -14 10 -13 18 7 72 15 42 27 62 38
62 9 0 19 10 23 23 9 35 7 47 -8 47 -8 0 -16 16 -20 40 -3 22 -16 50 -27 61
-11 11 -18 27 -15 35 6 16 -22 34 -53 34 -14 0 -21 -6 -21 -18 0 -25 -130 -49
-143 -27 -11 20 -67 -1 -67 -25 0 -21 -13 -27 -80 -36 -42 -6 -50 -4 -50 10 0
12 -9 16 -35 16 -27 0 -35 -4 -35 -18 0 -29 -25 -22 -72 19 -39 34 -41 38 -23
44 52 17 69 50 63 123 -3 32 -7 37 -30 40 -30 4 -42 -12 -53 -68 -4 -23 -14
-39 -29 -46 -20 -9 -29 -5 -70 33 -35 31 -46 48 -41 61 7 24 -43 62 -55 42
-12 -19 -121 59 -114 82 3 11 -4 23 -22 34 -23 16 -28 16 -38 3 -9 -13 -15
-14 -41 -3 -16 7 -47 13 -67 14 -27 0 -38 4 -38 15 0 23 -25 18 -57 -10z"/>
<path d="M957 2218 c-32 -71 -33 -110 -1 -122 27 -11 50 12 69 68 15 45 16 57
6 70 -23 27 -57 20 -74 -16z"/>
<path d="M3077 2153 c-22 -22 4 -139 34 -148 36 -12 52 13 46 73 -3 29 -11 60
-18 68 -12 14 -51 19 -62 7z"/>
<path d="M12342 2048 c-16 -16 -15 -86 1 -118 15 -29 48 -37 66 -16 9 11 11
31 6 66 -9 69 -42 99 -73 68z"/>
<path d="M866 1998 c-8 -13 -22 -39 -30 -59 -19 -45 -4 -73 35 -67 32 4 84
101 68 129 -14 26 -55 24 -73 -3z"/>
<path d="M3130 1906 c-25 -31 14 -146 49 -146 43 0 52 59 19 127 -15 32 -49
41 -68 19z"/>
<path d="M12389 1801 c-21 -17 -22 -20 -9 -67 15 -60 43 -88 71 -74 22 12 24
45 9 102 -14 49 -40 64 -71 39z"/>
<path d="M714 1768 c-27 -28 -44 -56 -48 -80 -8 -42 -31 -55 -68 -38 -34 16
-138 -29 -138 -59 0 -28 -48 -53 -72 -38 -14 9 -26 5 -60 -19 -24 -16 -43 -37
-43 -46 0 -28 -36 -58 -70 -58 -40 0 -85 -44 -85 -83 0 -36 -27 -77 -51 -77
-33 0 -76 -98 -50 -114 19 -12 12 -68 -10 -92 -19 -20 -20 -26 -9 -61 17 -52
28 -63 59 -62 37 2 81 -18 81 -36 0 -32 115 -50 126 -20 9 23 66 19 88 -6 15
-18 25 -21 64 -15 26 3 52 13 58 20 18 25 62 30 84 11 24 -22 103 -13 122 14
19 26 56 35 84 21 33 -18 106 -2 118 26 12 27 65 45 89 30 24 -16 98 12 114
43 16 34 52 52 77 39 25 -14 101 38 101 69 1 26 47 65 68 57 29 -11 82 63 73
101 -8 30 18 85 40 85 30 0 48 111 20 127 -21 13 -27 65 -8 86 14 16 14 21 -4
65 -14 33 -26 48 -42 50 -12 2 -20 7 -17 11 8 14 -31 42 -69 48 -23 4 -42 1
-52 -8 -20 -17 -76 -12 -87 7 -5 9 -26 14 -62 14 -43 0 -56 -4 -64 -19 -13
-23 -73 -34 -84 -15 -15 27 -127 7 -127 -22 0 -16 -61 -35 -75 -22 -6 5 -5 15
3 26 22 31 25 44 15 61 -19 30 -47 23 -89 -21z"/>
<path d="M3221 1671 c-24 -24 -16 -59 27 -111 21 -25 33 -31 49 -26 12 4 24
14 27 23 8 20 -34 102 -62 121 -18 12 -23 11 -41 -7z"/>
<path d="M12465 1567 c-14 -11 -16 -21 -11 -48 14 -75 62 -119 94 -87 17 17
15 43 -9 91 -30 58 -43 66 -74 44z"/>
<path d="M4170 1553 c-30 -6 -60 -31 -60 -49 0 -8 10 -20 23 -28 20 -14 29
-14 76 -1 60 16 73 28 62 59 -8 22 -48 29 -101 19z"/>
<path d="M7509 1516 c-18 -40 -3 -93 32 -111 22 -12 34 -13 49 -5 21 11 28 54
10 65 -5 3 -10 15 -10 25 0 47 -63 67 -81 26z"/>
<path d="M8715 1515 c-5 -2 -22 -6 -37 -9 -15 -3 -30 -15 -33 -27 -14 -44 36
-61 118 -38 29 8 37 15 37 32 0 13 -5 28 -12 35 -11 11 -50 15 -73 7z"/>
<path d="M3380 1491 c-20 -39 4 -57 97 -76 25 -5 34 -2 47 16 21 30 6 55 -42
69 -57 15 -90 13 -102 -9z"/>
<path d="M3924 1501 c-45 -11 -54 -19 -54 -47 0 -36 33 -47 94 -32 56 15 77
38 60 66 -12 19 -53 24 -100 13z"/>
<path d="M8902 1498 c-16 -16 -15 -43 1 -55 24 -20 106 -34 127 -23 41 22 21
67 -36 80 -53 13 -78 12 -92 -2z"/>
<path d="M3650 1473 c-8 -3 -18 -11 -22 -17 -24 -35 9 -66 68 -66 58 0 84 14
84 45 0 14 -8 29 -19 35 -21 11 -86 12 -111 3z"/>
<path d="M8460 1427 c-35 -17 -46 -28 -48 -49 -5 -40 35 -47 98 -18 52 24 67
51 43 75 -20 20 -40 18 -93 -8z"/>
<path d="M9148 1439 c-10 -5 -18 -21 -18 -35 0 -19 8 -28 36 -40 52 -22 104
-23 118 -1 17 26 -3 49 -60 69 -60 20 -55 20 -76 7z"/>
<path d="M7698 1389 c-43 -25 -10 -70 65 -90 41 -12 49 -11 63 3 26 26 9 53
-48 77 -58 24 -57 24 -80 10z"/>
<path d="M8225 1352 c-42 -14 -51 -21 -53 -44 -3 -22 2 -29 22 -34 35 -8 97 4
119 23 23 21 22 50 -2 63 -24 12 -24 12 -86 -8z"/>
<path d="M12582 1348 c-19 -19 -15 -34 20 -74 37 -42 66 -55 91 -42 28 15 20
51 -21 91 -39 38 -69 46 -90 25z"/>
<path d="M7932 1318 c-35 -35 3 -68 79 -68 54 0 59 2 65 25 10 40 -11 55 -75
55 -31 0 -62 -5 -69 -12z"/>
<path d="M6068 840 c-43 -35 -47 -54 -18 -70 31 -16 102 34 98 69 -4 37 -36
37 -80 1z"/>
<path d="M5835 770 c-11 -35 13 -53 63 -47 95 11 92 67 -4 67 -44 0 -54 -3
-59 -20z"/>
</g>
</svg>
