<?xml version="1.0" standalone="no"?>
<!DOCTYPE svg PUBLIC "-//W3C//DTD SVG 20010904//EN"
 "http://www.w3.org/TR/2001/REC-SVG-20010904/DTD/svg10.dtd">
<svg version="1.0" xmlns="http://www.w3.org/2000/svg"
 width="1272.000000pt" height="1280.000000pt" viewBox="0 0 1272.000000 1280.000000"
 preserveAspectRatio="xMidYMid meet">
<metadata>
Created by potrace 1.15, written by Peter Selinger 2001-2017
</metadata>
<g transform="translate(0.000000,1280.000000) scale(0.100000,-0.100000)"
fill="#ffc107" stroke="none">
<path d="M6867 11018 c-9 -24 -32 -103 -52 -177 -57 -215 -116 -413 -135 -451
-25 -49 -54 -73 -79 -65 -27 8 -47 47 -80 155 -16 51 -32 85 -40 85 -8 0 -29
-29 -47 -64 -43 -82 -61 -101 -95 -101 -16 0 -49 -5 -73 -12 -48 -13 -67 -8
-116 32 -32 26 -47 20 -82 -30 -32 -46 -57 -51 -103 -20 -32 21 -80 27 -90 10
-8 -14 -46 -12 -66 3 -20 15 -44 60 -89 167 -20 47 -41 84 -46 83 -5 -2 -12
-47 -16 -102 -7 -103 -26 -161 -54 -161 -8 0 -29 8 -47 17 -38 20 -62 18 -89
-7 -29 -27 -58 -10 -110 63 -24 33 -55 74 -70 91 l-27 31 -1 -75 c-1 -41 -3
-84 -5 -94 -15 -80 -29 -86 -89 -40 -54 41 -70 42 -100 8 -19 -23 -25 -25 -44
-15 -38 20 -96 110 -207 316 -58 110 -113 206 -121 214 -38 40 -27 -25 46
-269 122 -409 137 -559 54 -553 -22 2 -45 19 -94 70 -80 84 -146 179 -240 348
-68 123 -270 427 -311 470 -19 19 -19 19 -19 -3 0 -39 38 -138 160 -422 156
-362 183 -442 184 -545 l1 -80 -28 -3 c-36 -4 -77 26 -187 138 -89 91 -137
124 -159 111 -7 -5 -15 -29 -18 -54 -3 -27 -11 -48 -20 -51 -8 -3 -37 6 -65
20 -28 14 -54 22 -59 17 -4 -4 10 -55 32 -113 22 -58 43 -131 46 -162 6 -56 4
-59 -36 -113 -29 -38 -49 -55 -64 -55 -48 0 -148 73 -310 226 -70 67 -117 103
-117 90 0 -8 24 -61 30 -66 13 -11 100 -168 124 -223 31 -69 32 -100 6 -152
-11 -22 -20 -51 -20 -65 0 -53 -43 -64 -113 -29 -23 12 -79 43 -123 70 -80 48
-104 57 -104 41 0 -4 25 -51 56 -103 114 -190 137 -265 94 -304 -15 -14 -32
-17 -78 -13 -69 5 -164 48 -346 157 -107 64 -146 81 -146 66 0 -6 10 -18 122
-145 200 -227 241 -332 143 -359 -27 -7 -58 -5 -133 11 -145 31 -147 31 -148
-17 -1 -22 -2 -46 -3 -52 -2 -21 -75 -15 -143 11 -35 13 -148 64 -253 114
-185 87 -255 116 -255 106 0 -13 99 -96 240 -202 247 -187 360 -302 360 -368
0 -29 -4 -34 -36 -43 -79 -22 -218 17 -609 172 -400 158 -491 178 -328 70 43
-28 155 -96 248 -150 296 -173 378 -228 464 -314 49 -49 81 -111 73 -141 -11
-43 -109 -58 -272 -40 -36 4 -81 5 -100 2 -68 -10 -36 -64 112 -187 37 -31 77
-75 89 -98 22 -41 22 -44 6 -68 -20 -31 -96 -61 -236 -93 -57 -13 -109 -28
-115 -34 -7 -7 -3 -24 14 -55 23 -43 24 -46 7 -62 -15 -16 -36 -18 -150 -17
-73 1 -188 9 -256 18 -68 9 -172 19 -231 22 -179 11 -153 -19 85 -96 452 -145
578 -195 625 -245 35 -37 24 -66 -35 -90 -48 -19 -71 -20 -582 -20 -403 0
-535 -3 -544 -12 -10 -10 -6 -14 15 -22 56 -22 202 -55 511 -116 176 -35 364
-78 418 -95 105 -35 177 -79 177 -109 0 -27 -25 -44 -142 -99 -75 -35 -108
-56 -108 -68 0 -20 117 -134 186 -181 73 -49 81 -71 48 -143 -16 -35 -23 -66
-20 -78 16 -49 13 -61 -25 -107 -21 -26 -39 -51 -39 -55 0 -5 23 -24 50 -44
28 -20 54 -44 57 -53 4 -10 -6 -40 -26 -75 -30 -55 -31 -59 -16 -87 8 -17 15
-37 15 -44 0 -36 -108 -104 -255 -162 -73 -29 -99 -44 -90 -53 3 -3 89 -6 192
-6 167 -1 192 -3 228 -21 35 -18 40 -25 43 -59 8 -98 -54 -159 -306 -298 -70
-38 -134 -76 -142 -84 -12 -12 -11 -14 10 -14 14 0 92 11 174 25 161 27 290
32 331 13 19 -8 30 -26 42 -67 24 -83 20 -113 -27 -191 -23 -38 -39 -74 -35
-80 3 -5 21 -10 39 -10 58 0 140 -20 159 -38 19 -19 39 -140 42 -247 1 -33 2
-65 3 -72 1 -6 27 -17 57 -23 74 -15 95 -42 95 -124 1 -34 7 -72 15 -86 21
-38 18 -68 -15 -138 -31 -66 -36 -87 -22 -96 5 -3 46 4 91 14 45 11 95 20 111
20 34 0 79 -36 85 -68 6 -31 -19 -109 -72 -227 -58 -127 -66 -154 -49 -161 8
-3 69 22 137 55 138 68 184 76 220 40 20 -20 21 -29 15 -111 -5 -77 -3 -96 14
-133 11 -24 20 -51 20 -60 0 -8 -29 -72 -64 -140 -36 -69 -69 -140 -75 -160
l-9 -35 29 15 c16 9 68 48 116 89 202 169 294 203 329 120 38 -92 11 -194
-121 -457 -97 -192 -117 -247 -80 -214 8 6 75 80 150 163 252 282 332 326 389
217 9 -18 28 -40 42 -49 40 -27 48 -52 46 -146 -3 -108 3 -110 101 -39 89 65
126 77 166 56 59 -30 83 -115 82 -282 0 -69 3 -115 10 -119 6 -3 54 39 107 94
60 62 108 104 125 108 47 11 76 -4 108 -54 16 -26 47 -63 70 -82 36 -32 41
-42 49 -100 5 -36 10 -83 10 -105 1 -83 22 -81 94 6 65 81 84 92 132 81 27 -6
50 -5 74 4 93 33 111 4 130 -205 5 -63 14 -119 19 -124 6 -6 30 23 65 77 31
48 63 89 72 93 9 3 31 -2 50 -11 19 -9 52 -16 73 -16 35 0 41 -4 57 -38 15
-31 19 -72 24 -249 3 -116 9 -215 13 -219 4 -5 12 -2 17 6 21 32 82 202 111
306 51 184 112 284 173 284 26 0 70 -43 86 -85 33 -86 46 -204 70 -618 15
-269 34 -272 75 -15 61 371 75 449 100 526 29 91 76 161 118 175 43 14 81 -8
137 -79 28 -35 58 -64 67 -64 9 0 35 21 58 47 36 41 46 46 79 45 23 -1 56 8
87 24 45 24 54 25 93 15 50 -12 65 -9 120 31 48 35 63 35 126 2 l50 -26 42 27
42 28 46 -18 c28 -12 66 -18 101 -17 49 2 60 -2 83 -24 27 -27 80 -115 131
-219 17 -32 38 -68 47 -79 16 -17 18 -17 24 -3 3 9 1 68 -5 130 -14 145 -13
313 2 356 7 19 24 43 38 54 26 18 28 19 64 1 69 -32 184 -191 315 -434 80
-149 107 -190 121 -190 16 0 10 35 -52 277 -49 194 -62 258 -66 347 -7 119 7
169 50 180 21 5 117 -23 169 -50 43 -22 99 -18 130 11 29 27 31 32 48 117 9
44 19 64 43 85 18 16 46 46 62 68 55 75 74 80 177 41 35 -14 69 -21 75 -18 5
4 15 30 22 57 10 38 25 63 64 102 63 64 78 65 170 18 78 -40 107 -44 107 -15
0 11 -11 59 -25 106 -42 145 -30 194 49 194 39 0 181 -27 265 -50 59 -16 60 0
2 119 -63 130 -73 179 -42 210 25 25 39 25 148 6 58 -10 91 -12 109 -5 63 24
141 1 303 -88 113 -62 190 -96 199 -88 9 10 -45 80 -149 191 -189 203 -269
318 -269 388 0 44 15 57 68 57 85 0 253 -71 506 -215 147 -83 288 -153 320
-159 l26 -5 -23 31 c-20 26 -148 139 -322 283 -300 247 -418 418 -320 463 14
7 52 12 85 12 104 0 132 26 95 90 -20 35 -18 77 3 98 29 29 32 48 16 101 -13
46 -13 53 6 101 11 28 20 73 20 100 0 58 16 73 101 95 29 8 56 18 61 23 6 6
-2 32 -19 66 -25 51 -26 59 -14 89 7 17 16 49 21 69 10 50 25 66 71 78 22 5
57 15 79 20 22 6 40 16 40 22 0 6 -27 36 -60 67 l-61 56 -3 98 c-3 116 -2 118
111 156 42 14 78 31 80 38 2 6 -21 30 -51 52 -78 58 -82 69 -46 122 16 24 30
54 30 66 0 50 60 78 225 108 50 9 98 17 108 18 44 3 -3 22 -156 61 -144 38
-251 80 -279 112 -75 86 16 150 277 195 66 11 156 29 200 41 44 11 88 21 98
23 39 8 50 30 20 39 -10 3 -110 15 -223 26 -276 27 -389 59 -409 113 -17 45 8
74 112 134 93 54 133 92 142 135 5 21 26 50 58 80 51 47 51 47 27 56 -14 5
-63 12 -110 16 -121 10 -189 25 -211 47 -20 20 -20 20 7 69 23 42 25 53 15 80
-19 55 21 90 194 169 56 26 113 54 126 63 l24 17 -30 1 c-16 0 -97 -5 -180
-11 -233 -18 -272 1 -203 97 l32 45 -32 30 c-18 17 -32 36 -32 44 0 28 80 79
275 175 111 54 207 105 214 114 12 14 10 16 -15 16 -16 0 -124 -14 -239 -30
-243 -36 -459 -49 -493 -31 -80 43 63 162 433 361 251 135 366 203 390 230
l20 23 -40 -7 c-51 -9 -462 -123 -660 -183 -114 -34 -168 -45 -225 -46 -94 -2
-101 12 -35 82 51 54 134 114 300 216 242 148 222 191 -35 75 -298 -136 -488
-188 -528 -148 -47 47 35 153 243 318 103 82 201 173 241 225 21 28 24 39 15
48 -9 9 -66 -16 -249 -110 -297 -152 -404 -193 -467 -177 -56 14 -43 70 44
199 62 91 67 105 38 105 -12 -1 -48 -7 -79 -14 -137 -33 -108 40 105 268 209
223 206 234 -21 85 -256 -169 -368 -217 -456 -195 -103 26 -27 163 297 537
126 145 217 279 189 279 -17 0 -121 -83 -292 -235 -194 -172 -302 -248 -389
-275 -116 -36 -151 -21 -130 56 12 45 68 157 128 259 22 38 41 80 41 93 0 20
-2 22 -22 11 -13 -6 -68 -55 -123 -108 -171 -165 -267 -230 -321 -217 -49 13
-45 90 16 276 45 139 59 223 41 235 -8 4 -65 -45 -154 -132 -78 -77 -153 -147
-167 -156 -29 -20 -71 -22 -88 -5 -16 16 -15 128 3 208 16 73 19 130 7 130 -5
0 -33 -18 -62 -40 -30 -22 -61 -39 -70 -38 -36 7 -19 127 51 347 32 102 36
147 9 119 -8 -9 -58 -85 -110 -168 -105 -169 -182 -260 -219 -260 -25 0 -88
34 -109 60 -9 11 -12 42 -8 115 4 78 19 158 70 365 86 345 87 391 7 224 -23
-47 -61 -132 -85 -187 -79 -183 -116 -260 -158 -323 -45 -68 -77 -90 -108 -74
-10 5 -37 10 -59 10 -61 0 -66 15 -56 195 5 82 9 206 9 275 1 104 -1 125 -14
125 -16 0 -74 -128 -136 -300 -79 -222 -182 -395 -234 -395 -26 0 -54 33 -71
83 -11 33 -14 116 -14 374 0 182 -3 334 -6 337 -3 4 -13 -13 -22 -36z"/>
</g>
</svg>
