<?xml version="1.0" standalone="no"?>
<!DOCTYPE svg PUBLIC "-//W3C//DTD SVG 20010904//EN"
 "http://www.w3.org/TR/2001/REC-SVG-20010904/DTD/svg10.dtd">
<svg version="1.0" xmlns="http://www.w3.org/2000/svg"
 width="1280.000000pt" height="860.000000pt" viewBox="0 0 1280.000000 860.000000"
 preserveAspectRatio="xMidYMid meet">
<metadata>
Created by potrace 1.15, written by Peter Selinger 2001-2017
</metadata>
<g transform="translate(0.000000,860.000000) scale(0.100000,-0.100000)"
fill="#3f51b5" stroke="none">
<path d="M7795 8586 c-38 -7 -135 -32 -215 -54 -216 -61 -218 -62 -455 -72
-230 -10 -302 -18 -475 -51 -344 -68 -637 -187 -1055 -432 -444 -260 -775
-485 -1330 -905 -385 -292 -478 -375 -603 -543 -37 -49 -52 -61 -120 -88 -167
-70 -312 -170 -457 -316 -74 -74 -128 -139 -165 -199 -258 -416 -495 -712
-762 -953 -306 -276 -523 -409 -843 -517 -220 -75 -434 -102 -605 -77 -92 14
-127 29 -222 95 -106 73 -122 79 -212 75 -163 -6 -235 -4 -248 9 -39 39 -34
-34 7 -105 53 -89 181 -146 393 -174 115 -15 437 -6 602 16 224 30 494 90 594
131 19 7 19 6 -1 -22 -35 -48 -107 -111 -160 -137 -104 -52 -185 -69 -443 -92
-91 -8 -239 -29 -330 -46 -122 -23 -204 -33 -315 -36 -159 -5 -218 3 -322 45
l-53 22 0 -78 c0 -108 16 -236 34 -270 25 -49 51 -52 308 -37 128 8 259 16
291 18 46 3 55 1 45 -9 -25 -24 -114 -46 -263 -65 -293 -39 -371 -76 -404
-194 -19 -69 -17 -74 31 -68 396 44 807 225 1239 545 497 368 1002 895 1579
1648 95 124 191 245 214 268 54 57 162 144 289 233 186 131 220 160 492 429
287 283 340 330 505 456 246 187 462 331 965 644 461 287 525 325 662 385 214
93 427 145 883 215 384 58 451 73 695 155 342 115 391 117 715 33 254 -66 348
-86 440 -94 106 -9 148 -30 202 -100 82 -106 94 -112 261 -133 136 -18 293
-82 433 -177 140 -95 305 -250 411 -387 17 -22 39 -32 100 -47 119 -29 273
-95 357 -152 48 -32 116 -100 132 -130 14 -26 20 -108 8 -108 -3 0 -28 20 -55
44 -86 78 -164 99 -194 52 -32 -49 -30 -90 9 -172 20 -42 36 -89 36 -105 0
-25 -4 -29 -27 -29 -16 0 -41 9 -58 20 -43 28 -60 25 -91 -17 -16 -21 -39 -50
-52 -64 l-24 -27 109 -7 c195 -12 309 -47 399 -121 45 -36 98 -130 109 -194 5
-30 1 -26 -29 30 -62 113 -107 129 -170 60 -40 -45 -73 -107 -152 -288 -30
-70 -66 -146 -80 -169 -13 -23 -24 -44 -24 -47 0 -3 17 -6 38 -6 20 0 105 -14
187 -30 277 -57 416 -50 550 24 l59 33 57 -34 c135 -80 304 -134 484 -153 245
-27 369 -95 409 -227 7 -21 6 -22 -24 -11 -18 6 -69 9 -118 6 -69 -3 -99 -10
-147 -33 l-60 -28 35 -6 35 -6 -2 -63 c-3 -66 -24 -122 -47 -122 -8 0 -36 18
-62 41 -27 22 -62 47 -78 56 -35 18 -86 11 -111 -17 -17 -19 -17 -22 -1 -64 9
-24 42 -84 74 -134 31 -49 62 -97 67 -106 9 -15 20 -14 120 9 179 41 275 55
370 54 149 0 213 -39 229 -140 4 -23 5 -43 3 -45 -2 -2 -23 6 -48 19 -28 14
-69 23 -111 25 l-68 4 0 -28 c0 -73 59 -116 255 -185 66 -23 137 -50 157 -60
82 -41 138 -112 138 -172 0 -13 -8 -48 -17 -78 l-17 -54 -12 67 c-34 179 -103
216 -311 167 -51 -12 -108 -19 -135 -16 l-46 4 5 -32 c7 -44 -23 -108 -82
-173 -34 -38 -54 -52 -67 -49 -18 5 -26 -9 -8 -15 6 -2 13 -47 17 -100 10
-160 -26 -283 -102 -345 l-36 -30 39 -1 c97 -4 300 -93 399 -175 95 -77 130
-145 112 -212 -5 -19 -14 -37 -19 -40 -5 -3 -7 1 -4 9 3 8 -1 40 -10 70 -12
41 -26 63 -57 89 -104 90 -230 30 -263 -125 -8 -38 -42 -37 -141 3 -101 40
-134 45 -173 25 -38 -20 -55 -49 -47 -79 4 -12 78 -92 165 -177 112 -111 163
-168 178 -202 22 -47 28 -101 16 -133 -6 -14 -9 -11 -19 12 -16 37 -86 72
-204 102 -99 25 -121 27 -103 9 38 -38 -10 -132 -102 -195 -71 -49 -80 -43
-43 28 75 146 30 188 -216 199 -149 6 -206 21 -128 34 52 8 108 57 134 116 25
57 33 196 15 265 -13 49 -14 50 -53 53 -42 4 -75 25 -75 50 0 9 -17 -1 -44
-26 -52 -48 -87 -60 -124 -43 l-26 12 33 26 c62 49 77 130 41 226 -23 61 -78
130 -122 153 -19 10 -27 21 -24 32 3 9 8 35 12 57 10 63 -10 29 -31 -50 -24
-95 -61 -184 -87 -212 -39 -41 -99 -23 -61 19 56 62 -36 261 -148 318 -46 24
-106 26 -137 5 -12 -9 -34 -37 -49 -63 -40 -67 -37 -132 11 -297 67 -226 54
-290 -66 -319 l-28 -6 0 102 c0 244 -45 263 -276 114 -61 -39 -87 -50 -128
-53 -44 -4 -55 0 -81 22 l-30 26 29 -4 c41 -7 94 11 110 36 29 45 28 99 -3
253 -16 82 -32 165 -33 184 -3 30 -5 32 -13 15 -29 -69 -108 -135 -160 -135
-36 0 -85 33 -85 58 0 8 38 55 85 103 73 75 85 91 85 121 0 36 -21 63 -70 89
-48 25 -385 168 -388 164 -2 -2 1 -12 7 -23 35 -66 -11 -204 -91 -279 -106
-97 -188 -97 -188 0 0 40 -6 37 90 41 33 1 35 3 38 38 2 20 -3 51 -11 70 -23
54 -67 69 -226 77 -104 5 -142 11 -160 23 l-24 17 44 19 c24 11 55 23 69 27
103 32 236 126 260 185 13 30 10 118 -5 153 -6 15 -1 14 30 -7 36 -25 101 -44
111 -33 3 3 -11 24 -31 46 -53 58 -88 57 -189 -9 -83 -54 -113 -65 -151 -56
-38 10 -31 30 35 97 55 56 60 64 60 105 0 53 -42 144 -67 144 -9 0 -40 -8 -70
-17 -52 -16 -54 -16 -73 3 -20 19 -20 20 5 89 30 85 31 109 5 135 -27 27 -64
25 -198 -10 -227 -59 -297 -60 -341 -3 -29 36 -26 43 17 43 59 0 172 28 228
55 102 50 178 158 199 285 7 41 6 44 -10 30 -9 -7 -35 -50 -57 -94 -69 -138
-97 -163 -149 -136 -29 16 -23 34 26 90 51 58 55 82 24 150 -57 126 -130 166
-219 120 -22 -11 -59 -20 -83 -20 -93 0 -235 71 -208 104 6 7 38 16 71 19 34
4 83 16 111 28 78 34 89 73 38 143 -30 42 -30 44 -15 79 28 67 114 97 176 60
15 -9 39 -34 51 -55 48 -77 47 -77 42 -3 -12 183 -94 192 -338 36 -71 -46
-105 -61 -105 -46 0 3 21 15 48 28 41 20 47 27 45 51 -1 16 -15 47 -30 69 -15
22 -36 51 -46 66 -11 16 -16 36 -13 54 8 42 -19 34 -46 -15 -15 -28 -31 -44
-46 -46 -20 -3 -22 1 -22 40 0 168 -119 261 -254 197 -77 -36 -78 -40 -50
-148 37 -143 30 -239 -21 -281 -8 -7 -18 -10 -21 -7 -4 3 -14 51 -24 106 -20
110 -24 121 -46 121 -9 0 -48 13 -87 30 l-72 30 -2 112 c-2 167 -33 238 -102
238 l-35 0 31 -32 c106 -112 127 -336 33 -355 -23 -4 -30 -11 -30 -29 0 -19
-5 -24 -25 -24 -19 0 -29 -9 -41 -33 -16 -32 -15 -36 14 -93 16 -32 71 -115
122 -184 51 -69 107 -155 126 -191 32 -64 33 -69 23 -133 -15 -107 -46 -162
-86 -154 -20 4 -20 16 -2 95 10 41 10 60 0 93 -17 59 -80 122 -150 154 -62 27
-149 48 -164 39 -5 -3 -13 0 -17 7 -5 8 -22 -16 -50 -68 -49 -95 -106 -152
-150 -152 l-30 0 20 38 c31 59 42 140 30 215 -20 124 -66 214 -121 238 -27 10
-34 9 -59 -10 -16 -11 -33 -21 -38 -21 -17 0 -82 77 -122 145 -49 81 -48 77
16 -70 61 -140 69 -210 31 -249 -16 -16 -37 -26 -55 -26 -29 0 -30 1 -21 38
25 106 -1 208 -65 257 -57 44 -112 58 -226 59 -126 0 -182 -14 -227 -59 -42
-42 -42 -70 -3 -144 29 -55 34 -58 128 -101 227 -104 305 -201 258 -315 l-17
-40 -40 74 c-57 106 -97 160 -132 182 -40 24 -68 24 -116 0 -68 -35 -68 -36
-8 -173 102 -230 137 -351 117 -404 -12 -31 -26 -44 -51 -44 -14 0 -18 13 -21
73 -6 124 -86 264 -234 411 -88 87 -189 158 -252 177 l-43 12 3 71 c3 60 1 71
-14 74 -11 2 -16 -2 -14 -10 2 -7 7 -56 10 -109 l6 -96 -49 5 c-102 9 -89 -9
27 -38 249 -63 361 -156 295 -244 l-17 -23 -19 38 c-16 33 -21 37 -33 24 -8
-7 -46 -17 -86 -21 -121 -12 -140 -54 -98 -214 53 -203 -13 -377 -122 -319
-18 10 -20 17 -14 62 4 29 14 79 22 112 25 96 22 140 -11 175 -27 28 -128 70
-169 70 -28 0 -104 -47 -117 -73 -12 -22 -12 -22 -23 8 -17 46 -42 88 -65 109
-20 19 -20 17 4 -36 84 -184 34 -438 -87 -438 -16 0 -38 4 -48 10 -17 9 -17
13 13 72 44 88 44 156 0 200 -62 62 -186 46 -257 -32 -36 -40 -66 -119 -66
-176 0 -56 27 -176 61 -269 38 -106 152 -332 214 -425 51 -76 141 -165 205
-203 95 -55 268 -75 292 -33 43 77 182 129 284 106 61 -14 119 -51 139 -90
l16 -30 -80 0 c-75 0 -79 -1 -83 -24 -7 -37 17 -84 47 -92 48 -12 159 3 259
36 98 32 99 32 145 14 70 -26 179 -102 212 -147 38 -52 39 -98 3 -126 -41 -32
-47 -27 -39 33 l6 55 -42 27 c-116 73 -199 92 -234 54 -22 -24 -36 -93 -28
-141 4 -31 10 -38 33 -43 44 -8 97 -62 132 -133 51 -104 41 -184 -28 -229 -22
-15 -27 -15 -39 -3 -14 14 -30 70 -40 142 -5 30 -10 37 -28 37 -34 0 -128 -60
-154 -99 -60 -89 6 -209 143 -260 77 -29 100 -23 334 89 295 142 379 152 420
46 6 -16 8 -31 5 -34 -3 -3 -30 6 -61 21 -90 45 -106 37 -118 -62 -7 -53 -7
-53 16 -46 202 65 365 79 449 37 66 -32 97 -82 104 -162 6 -62 5 -64 -8 -34
-24 51 -76 102 -123 120 -80 31 -206 -1 -297 -74 l-38 -30 28 -14 c60 -28 82
-141 44 -225 -11 -22 -29 -44 -40 -48 -12 -3 -21 -9 -21 -13 0 -4 43 -21 96
-38 l96 -32 90 85 90 85 44 -6 c24 -3 84 -26 134 -51 101 -51 145 -56 196 -24
90 55 346 -7 432 -106 37 -42 47 -72 38 -120 -9 -44 -22 -45 -30 -3 -10 50
-58 131 -87 147 -37 21 -72 4 -170 -80 -43 -38 -91 -72 -105 -75 l-26 -7 40
-41 c127 -131 191 -301 147 -386 -16 -30 -56 -63 -91 -74 l-21 -6 18 52 c50
143 -2 232 -150 259 -115 20 -304 -20 -360 -76 l-25 -24 28 -22 c16 -12 37
-41 47 -63 23 -51 25 -139 3 -160 -29 -30 -51 -19 -84 42 -31 57 -68 108 -73
101 -2 -2 -17 -21 -35 -42 -45 -53 -42 -81 9 -108 90 -46 245 -235 296 -361
46 -112 22 -177 -69 -193 -36 -7 -37 -6 -48 34 -6 22 -10 83 -9 134 1 54 -4
103 -10 115 -17 32 -68 54 -138 60 -97 7 -121 -16 -179 -181 -39 -107 -61
-145 -95 -162 -32 -17 -89 -12 -89 7 0 6 16 52 35 103 45 120 51 161 32 208
-18 43 -71 73 -110 64 -13 -4 -55 -35 -93 -70 -38 -35 -80 -71 -94 -80 -26
-18 -105 -23 -115 -7 -3 5 12 40 34 77 55 92 71 144 71 222 0 86 -7 111 -32
111 -21 0 -78 51 -78 69 0 17 32 13 72 -7 24 -13 35 -15 31 -6 -8 21 -50 44
-81 44 -34 0 -57 -16 -165 -116 -44 -40 -94 -80 -112 -88 -37 -18 -81 -21 -90
-7 -3 6 17 49 44 96 51 89 71 154 71 228 l0 42 -115 48 c-139 58 -188 66 -251
42 -39 -15 -45 -21 -40 -39 3 -11 9 -62 12 -112 9 -127 -14 -165 -111 -183
-49 -9 -51 -8 -30 29 47 82 -21 164 -120 146 -50 -10 -97 -55 -149 -146 -25
-43 -56 -86 -68 -94 -32 -23 -73 -20 -104 7 l-27 24 45 11 c25 6 51 18 58 27
20 24 6 87 -41 186 l-43 90 -13 -45 c-13 -45 -35 -67 -80 -81 -17 -4 -29 1
-48 19 -38 39 -33 63 20 86 51 22 68 59 41 89 -9 10 -16 27 -16 39 0 27 -15
36 -40 22 -24 -13 -26 -42 -5 -60 34 -28 17 -40 -55 -40 -38 0 -70 2 -70 4 0
2 9 25 21 51 11 25 18 49 15 53 -4 3 -36 -8 -72 -26 -35 -18 -71 -32 -80 -32
-14 0 -15 -26 -12 -227 4 -264 10 -286 88 -356 62 -56 144 -99 260 -136 146
-48 167 -43 300 66 117 96 156 104 222 46 53 -49 88 -122 88 -189 0 -57 -21
-93 -74 -125 -29 -18 -30 -19 -8 -19 14 0 39 -15 58 -34 30 -30 34 -40 34 -88
0 -33 -7 -68 -19 -91 -10 -20 -17 -37 -15 -37 3 0 23 12 46 26 85 54 140 74
204 74 53 0 68 -5 110 -32 53 -37 116 -120 139 -187 28 -82 15 -173 -29 -210
-24 -20 -36 24 -36 129 0 80 -2 91 -26 119 -16 20 -44 36 -77 46 -60 18 -79
18 -130 4 -61 -17 -77 -53 -77 -176 0 -107 -10 -133 -49 -133 -15 0 -17 7 -13
53 4 50 2 55 -28 80 -34 29 -68 35 -88 15 -24 -24 -13 -65 36 -128 26 -34 57
-75 69 -92 68 -92 47 -320 -34 -373 -26 -17 -26 -17 -19 6 4 13 10 59 13 101
5 70 3 83 -22 134 -41 84 -151 152 -246 154 -34 0 -37 -3 -43 -32 -7 -37 -53
-135 -87 -187 l-23 -34 25 6 c13 4 34 10 46 13 19 5 23 0 38 -48 8 -29 38
-100 65 -158 42 -88 51 -119 58 -190 21 -206 -29 -336 -114 -298 -23 11 -25
16 -21 51 6 41 31 77 54 77 22 0 15 62 -17 162 -54 170 -119 248 -206 248 -57
0 -91 -30 -179 -160 -106 -156 -156 -188 -219 -139 -29 23 -34 39 -11 39 24 0
79 55 108 108 52 96 44 227 -20 302 -31 37 -67 39 -117 5 -66 -45 -96 -57
-127 -50 l-29 7 44 42 c53 52 62 88 75 281 5 72 12 139 17 150 16 42 -6 6 -58
-95 -53 -105 -95 -150 -139 -150 -16 0 -19 8 -19 47 0 35 8 58 31 95 36 55 33
74 -23 160 l-31 49 21 15 c41 28 67 170 39 208 -15 21 -54 17 -48 -5 12 -42
11 -79 -2 -105 -24 -46 -133 -144 -259 -233 l-118 -82 21 -29 c29 -38 22 -114
-16 -194 -32 -68 -103 -146 -132 -146 l-21 0 19 51 c11 29 20 79 21 114 1 85
-25 128 -99 162 -81 37 -226 33 -319 -9 -32 -15 -30 -24 6 -31 43 -9 70 -58
70 -128 0 -96 -41 -177 -100 -197 -28 -10 -30 -10 -30 15 0 14 9 40 19 57 44
72 22 126 -52 126 -29 0 -87 -36 -87 -54 0 -35 46 -130 81 -164 l37 -38 -32
-75 c-55 -125 -122 -216 -191 -259 -31 -19 -40 -20 -116 -11 -102 13 -144 36
-144 77 0 31 0 31 76 18 71 -12 163 31 206 95 25 38 31 115 13 168 l-11 30
-167 -1 c-155 -1 -170 1 -214 22 -69 34 -121 122 -60 101 37 -13 159 11 222
44 71 37 78 58 50 156 -20 69 -22 89 -14 131 6 28 10 50 8 50 -1 0 -21 -9 -45
-20 -65 -29 -149 -27 -187 5 -17 14 -35 38 -40 54 l-10 29 34 -20 c47 -28 114
-26 167 5 95 56 218 210 303 379 38 76 84 183 84 198 0 3 -41 -34 -91 -83
-161 -153 -259 -203 -267 -135 -3 25 -1 27 25 22 64 -11 136 76 137 167 2 95
-44 129 -174 129 -96 0 -133 15 -149 61 -14 42 -14 41 10 34 57 -18 133 25
169 96 25 48 27 154 4 230 -17 53 -17 53 -28 27 -45 -106 -195 -138 -219 -47
-4 16 -2 19 11 13 44 -19 79 -16 96 7 21 31 20 55 -4 89 -54 76 -120 60 -264
-64 -53 -46 -112 -91 -131 -100 -66 -31 -110 -14 -146 56 -26 52 -15 61 62 54
94 -9 113 22 92 147 -5 36 -8 38 -32 31 -59 -17 -118 2 -166 53 -25 28 -33 67
-15 78 21 13 9 21 -24 17 -52 -6 -105 15 -127 52 -22 37 -27 139 -7 134 7 -1
27 1 43 6 30 8 29 8 -25 26 -30 9 -63 21 -72 25 -15 6 -18 1 -18 -32 0 -96
-111 -236 -270 -342 l-86 -56 76 -4 c135 -7 225 -6 240 2 13 6 15 1 12 -31 -3
-28 4 -54 22 -90 26 -52 33 -105 17 -131 -7 -10 -17 -4 -46 28 -55 60 -96 83
-147 79 l-43 -3 -3 -46 c-3 -41 1 -50 28 -78 17 -17 60 -47 95 -67 57 -31 65
-39 70 -72 16 -93 47 -198 64 -215 14 -14 42 -22 105 -28 197 -20 293 -55 375
-137 67 -67 96 -131 96 -212 -1 -74 -22 -125 -61 -142 -37 -17 -46 -1 -54 100
-4 49 -15 103 -24 120 -19 38 -62 62 -109 62 -39 0 -79 -37 -122 -115 -49 -87
-74 -115 -102 -115 -23 0 -25 3 -20 33 19 109 20 127 3 127 -32 0 -69 -34 -92
-85 -40 -85 -32 -262 17 -416 l22 -67 -57 -76 c-102 -135 -147 -150 -163 -53
-5 32 -3 35 25 41 92 21 112 146 52 321 -39 113 -55 122 -147 83 -29 -12 -54
-20 -57 -17 -6 7 12 149 25 201 11 42 11 50 -5 67 -21 24 -45 30 -71 20 -16
-6 -16 -8 -3 -8 24 -1 71 -60 62 -80 -4 -9 -24 -65 -44 -125 -40 -123 -59
-145 -91 -107 -29 35 -25 68 11 86 24 13 30 22 30 49 0 100 -140 147 -252 84
-48 -27 -52 -42 -33 -114 27 -104 13 -198 -33 -223 -30 -16 -30 -16 -18 38 20
100 -11 171 -158 361 -98 126 -111 157 -111 262 0 64 -3 88 -12 88 -16 0 -29
-26 -36 -73 -9 -56 -47 -95 -47 -48 0 27 -32 98 -38 83 -10 -30 33 -106 105
-185 93 -100 113 -132 113 -177 0 -29 -31 -100 -43 -100 -2 0 -1 26 1 58 7
101 -59 198 -149 217 -67 15 -100 -20 -133 -140 -29 -104 -36 -117 -60 -110
-12 4 -45 9 -74 12 -50 5 -52 4 -52 -18 -1 -13 -5 -83 -9 -155 -11 -162 -24
-194 -83 -194 -24 0 -27 4 -33 53 -35 267 -105 350 -244 287 -36 -17 -42 -24
-38 -42 4 -12 12 -84 18 -158 18 -199 -3 -268 -68 -228 -24 14 -28 24 -31 68
l-3 51 -20 -25 c-13 -17 -34 -27 -64 -32 -49 -7 -95 -37 -95 -61 0 -11 6 -13
22 -8 104 34 130 12 136 -115 l4 -88 92 -46 c94 -47 186 -76 242 -76 57 0 121
27 236 98 257 161 385 190 468 109 38 -37 57 -78 75 -162 12 -57 13 -59 23
-33 30 74 144 61 242 -28 83 -75 103 -159 50 -216 l-29 -33 -1 43 c0 48 -21
96 -45 106 -95 36 -195 -58 -218 -204 l-11 -73 34 -29 c76 -63 221 -96 345
-79 42 6 129 11 193 11 289 -1 416 -61 381 -180 -7 -22 -16 -40 -20 -40 -4 0
-15 22 -23 48 -30 88 -97 126 -161 92 -22 -12 -25 -21 -25 -64 -1 -61 -14
-124 -30 -140 -8 -8 -31 10 -88 72 -42 45 -81 83 -86 82 -5 0 0 -10 12 -23 21
-22 21 -25 6 -56 -9 -18 -19 -71 -23 -119 -4 -48 -13 -97 -20 -109 l-12 -23
3868 1 c3641 0 3867 1 3843 17 -348 239 -739 802 -992 1427 -141 348 -229 699
-258 1029 -17 190 -5 278 70 516 71 226 72 230 80 470 9 247 19 306 75 425 39
85 84 148 162 228 76 79 116 96 218 97 148 1 226 26 409 135 113 66 216 104
216 78 0 -4 -10 -35 -21 -69 -26 -76 -21 -112 23 -178 45 -69 96 -99 174 -104
62 -4 64 -5 64 -32 0 -39 -31 -73 -96 -106 -93 -47 -102 -74 -54 -163 97 -178
198 -204 381 -96 112 66 128 60 179 -63 34 -83 54 -113 87 -131 31 -16 52 -14
108 13 104 48 162 140 172 271 6 73 6 74 27 60 34 -24 92 -18 176 20 108 49
110 48 85 -20 -8 -22 -14 -63 -15 -91 0 -98 67 -153 218 -176 70 -11 82 -15
82 -32 0 -12 -40 -58 -99 -115 -110 -107 -124 -136 -96 -194 29 -62 66 -79
179 -87 56 -3 111 -11 122 -18 24 -13 44 -59 44 -101 0 -14 9 -45 20 -68 23
-51 40 -57 158 -51 105 5 153 27 230 101 28 28 52 46 52 38 0 -7 13 -32 30
-56 89 -130 219 -108 300 50 34 66 35 72 35 179 0 123 -13 163 -74 220 -32 31
-39 64 -22 109 27 69 74 73 209 16 100 -43 158 -53 184 -31 32 26 42 98 30
213 -19 181 -71 258 -230 338 -98 49 -135 80 -161 134 -43 89 -20 285 44 379
37 54 116 90 191 86 59 -3 59 -3 82 -48 19 -38 22 -60 22 -157 0 -139 9 -153
95 -153 49 0 59 4 94 36 58 52 76 112 75 249 -1 186 -48 310 -164 430 -48 50
-81 96 -113 160 -54 108 -99 154 -215 215 -46 24 -91 52 -102 62 -32 30 -41
89 -38 252 3 144 2 156 -18 183 -44 58 -127 86 -314 103 -151 14 -197 28 -375
115 -263 129 -323 134 -515 45 -231 -108 -307 -77 -355 146 -18 84 -16 136 9
170 14 18 17 18 88 -19 40 -20 98 -43 129 -49 50 -10 60 -10 84 6 25 17 27 22
23 74 -5 66 -42 153 -87 204 -18 21 -65 58 -104 84 -120 77 -197 165 -197 222
0 17 55 52 83 52 25 0 136 59 146 79 33 60 -10 152 -122 265 -72 72 -133 115
-323 227 -55 32 -135 89 -178 126 -180 158 -187 163 -421 278 -126 63 -309
144 -405 181 -194 74 -276 113 -377 178 -191 123 -347 168 -668 195 -224 19
-395 21 -470 7z"/>
<path d="M7150 6972 c0 -5 32 -14 70 -21 133 -24 220 -90 220 -167 l0 -33 -36
21 c-39 23 -106 27 -129 8 -27 -22 -16 -30 40 -30 62 0 102 -15 110 -42 17
-51 42 21 32 92 -12 89 -108 152 -264 174 -24 4 -43 2 -43 -2z"/>
<path d="M10062 6918 c-22 -28 -18 -78 7 -78 13 0 20 10 25 31 3 18 14 38 24
45 15 12 14 13 -14 14 -17 0 -36 -6 -42 -12z"/>
<path d="M6050 6425 c14 -8 30 -14 35 -14 6 0 -1 6 -15 14 -14 8 -29 14 -35
14 -5 0 1 -6 15 -14z"/>
<path d="M7241 6299 c-14 -42 -7 -49 9 -9 7 17 10 33 8 36 -3 3 -11 -9 -17
-27z"/>
<path d="M5430 6177 c0 -4 12 -13 28 -21 15 -8 64 -44 109 -79 108 -85 135
-94 199 -67 27 12 64 25 84 29 l35 8 -70 35 c-96 49 -226 89 -312 95 -40 3
-73 3 -73 0z"/>
<path d="M5917 6019 c7 -7 15 -10 18 -7 3 3 -2 9 -12 12 -14 6 -15 5 -6 -5z"/>
<path d="M11840 4715 c0 -17 33 -66 49 -75 11 -5 36 -10 56 -10 24 0 43 -7 59
-23 l23 -23 18 25 c18 24 18 24 -8 47 -45 39 -197 84 -197 59z"/>
<path d="M11385 3854 l-30 -14 34 5 c18 3 37 5 42 5 5 0 9 5 9 10 0 14 -19 12
-55 -6z"/>
<path d="M5901 3047 c-31 -15 -58 -54 -67 -92 -6 -29 -6 -29 10 -9 8 12 39 33
68 46 29 14 62 35 72 47 l19 21 -39 0 c-21 0 -50 -6 -63 -13z"/>
<path d="M7036 2648 c-8 -13 -17 -38 -21 -55 -6 -28 -4 -33 12 -33 31 0 143
44 140 55 -6 18 -69 55 -93 55 -14 0 -30 -10 -38 -22z"/>
<path d="M5750 1650 c-14 -11 -20 -20 -14 -20 6 0 19 9 29 20 23 25 17 25 -15
0z"/>
<path d="M286 1551 c-4 -6 -2 -11 5 -11 20 0 79 -50 100 -84 13 -21 19 -26 19
-13 0 25 -24 80 -42 94 -22 18 -74 27 -82 14z"/>
<path d="M209 1530 l-24 -21 33 16 c31 15 41 25 23 25 -5 0 -19 -9 -32 -20z"/>
</g>
</svg>
